M48
METRIC,TZ
T1C0.400
T2C0.800
T3C1.000
%
G90
G05
T1
X113003Y-61854
X113760Y-55790
X123920Y-72390
X126460Y-73025
X129000Y-74295
X131540Y-75390
X134626Y-65913
X139706Y-65913
X154685Y-76200
X157575Y-76200
X163290Y-64516
X163290Y-69188
X166465Y-72390
X170275Y-86360
X170910Y-55245
X170910Y-64262
T2
X158215Y-66690
X158215Y-74310
X160755Y-66690
X160755Y-74310
X163295Y-66690
X163295Y-74310
X165835Y-66690
X165835Y-74310
X168375Y-66690
X168375Y-74310
X170915Y-66690
X170915Y-74310
X173455Y-66690
X173455Y-74310
X175995Y-66690
X175995Y-74310
X178535Y-66690
X178535Y-74310
X181075Y-66690
X181075Y-74310
T3
X102320Y-80645
X102320Y-83185
X102330Y-57785
X102330Y-60325
X104860Y-80645
X104860Y-83185
X104870Y-57785
X104870Y-60325
X107400Y-80645
X107400Y-83185
X107410Y-57785
X107410Y-60325
X109940Y-80645
X109940Y-83185
X109950Y-57785
X109950Y-60325
X112480Y-80645
X112480Y-83185
X112490Y-57785
X112490Y-60325
X115020Y-80645
X115020Y-83185
X115030Y-57785
X115030Y-60325
X117560Y-80645
X117560Y-83185
X117570Y-57785
X117570Y-60325
X120100Y-80645
X120100Y-83185
X120110Y-57785
X120110Y-60325
X122640Y-80645
X122640Y-83185
X122650Y-57785
X122650Y-60325
X125180Y-80645
X125180Y-83185
X125190Y-57785
X125190Y-60325
X127720Y-80645
X127720Y-83185
X127730Y-57785
X127730Y-60325
X130260Y-80645
X130260Y-83185
X130270Y-57785
X130270Y-60325
X132800Y-80645
X132800Y-83185
X132810Y-57785
X132810Y-60325
X135340Y-80645
X135340Y-83185
X135350Y-57785
X135350Y-60325
X137880Y-80645
X137880Y-83185
X137890Y-57785
X137890Y-60325
X140420Y-80645
X140420Y-83185
X140430Y-57785
X140430Y-60325
X142960Y-80645
X142960Y-83185
X142970Y-57785
X142970Y-60325
X145500Y-80645
X145500Y-83185
X145510Y-57785
X145510Y-60325
X148040Y-80645
X148040Y-83185
X148050Y-57785
X148050Y-60325
X150580Y-80645
X150580Y-83185
X150590Y-57785
X150590Y-60325
X153120Y-80645
X153120Y-83185
X153130Y-57785
X153130Y-60325
X155660Y-80645
X155660Y-83185
X155670Y-57785
X155670Y-60325
X158200Y-80645
X158200Y-83185
X158210Y-57785
X158210Y-60325
X160740Y-80645
X160740Y-83185
X160750Y-57785
X160750Y-60325
X163280Y-80645
X163280Y-83185
X163290Y-57785
X163290Y-60325
X165820Y-80645
X165820Y-83185
X165830Y-57785
X165830Y-60325
X168360Y-80645
X168360Y-83185
X168370Y-57785
X168370Y-60325
X170900Y-80645
X170900Y-83185
X170910Y-57785
X170910Y-60325
X173440Y-80645
X173440Y-83185
X173450Y-57785
X173450Y-60325
X175980Y-80645
X175980Y-83185
X175990Y-57785
X175990Y-60325
X178520Y-80645
X178520Y-83185
X178530Y-57785
X178530Y-60325
X181060Y-80645
X181060Y-83185
X181070Y-57785
X181070Y-60325
M30
