%TF.GenerationSoftware,KiCad,Pcbnew,7.0.9+1*%
%TF.CreationDate,2023-12-26T23:15:29+01:00*%
%TF.ProjectId,qlexternal512kram_MIX,716c6578-7465-4726-9e61-6c3531326b72,0.1*%
%TF.SameCoordinates,Original*%
%TF.FileFunction,Legend,Top*%
%TF.FilePolarity,Positive*%
%FSLAX46Y46*%
G04 Gerber Fmt 4.6, Leading zero omitted, Abs format (unit mm)*
G04 Created by KiCad (PCBNEW 7.0.9+1) date 2023-12-26 23:15:29*
%MOMM*%
%LPD*%
G01*
G04 APERTURE LIST*
%ADD10C,0.150000*%
%ADD11C,0.300000*%
%ADD12C,0.120000*%
G04 APERTURE END LIST*
D10*
X137715951Y-85814819D02*
X137715951Y-86529104D01*
X137715951Y-86529104D02*
X137668332Y-86671961D01*
X137668332Y-86671961D02*
X137573094Y-86767200D01*
X137573094Y-86767200D02*
X137430237Y-86814819D01*
X137430237Y-86814819D02*
X137334999Y-86814819D01*
X138668332Y-86814819D02*
X138192142Y-86814819D01*
X138192142Y-86814819D02*
X138192142Y-85814819D01*
X139573094Y-86719580D02*
X139525475Y-86767200D01*
X139525475Y-86767200D02*
X139382618Y-86814819D01*
X139382618Y-86814819D02*
X139287380Y-86814819D01*
X139287380Y-86814819D02*
X139144523Y-86767200D01*
X139144523Y-86767200D02*
X139049285Y-86671961D01*
X139049285Y-86671961D02*
X139001666Y-86576723D01*
X139001666Y-86576723D02*
X138954047Y-86386247D01*
X138954047Y-86386247D02*
X138954047Y-86243390D01*
X138954047Y-86243390D02*
X139001666Y-86052914D01*
X139001666Y-86052914D02*
X139049285Y-85957676D01*
X139049285Y-85957676D02*
X139144523Y-85862438D01*
X139144523Y-85862438D02*
X139287380Y-85814819D01*
X139287380Y-85814819D02*
X139382618Y-85814819D01*
X139382618Y-85814819D02*
X139525475Y-85862438D01*
X139525475Y-85862438D02*
X139573094Y-85910057D01*
X140287380Y-85814819D02*
X140287380Y-86529104D01*
X140287380Y-86529104D02*
X140239761Y-86671961D01*
X140239761Y-86671961D02*
X140144523Y-86767200D01*
X140144523Y-86767200D02*
X140001666Y-86814819D01*
X140001666Y-86814819D02*
X139906428Y-86814819D01*
X141239761Y-86814819D02*
X140763571Y-86814819D01*
X140763571Y-86814819D02*
X140763571Y-85814819D01*
X142144523Y-86719580D02*
X142096904Y-86767200D01*
X142096904Y-86767200D02*
X141954047Y-86814819D01*
X141954047Y-86814819D02*
X141858809Y-86814819D01*
X141858809Y-86814819D02*
X141715952Y-86767200D01*
X141715952Y-86767200D02*
X141620714Y-86671961D01*
X141620714Y-86671961D02*
X141573095Y-86576723D01*
X141573095Y-86576723D02*
X141525476Y-86386247D01*
X141525476Y-86386247D02*
X141525476Y-86243390D01*
X141525476Y-86243390D02*
X141573095Y-86052914D01*
X141573095Y-86052914D02*
X141620714Y-85957676D01*
X141620714Y-85957676D02*
X141715952Y-85862438D01*
X141715952Y-85862438D02*
X141858809Y-85814819D01*
X141858809Y-85814819D02*
X141954047Y-85814819D01*
X141954047Y-85814819D02*
X142096904Y-85862438D01*
X142096904Y-85862438D02*
X142144523Y-85910057D01*
X142858809Y-85814819D02*
X142858809Y-86529104D01*
X142858809Y-86529104D02*
X142811190Y-86671961D01*
X142811190Y-86671961D02*
X142715952Y-86767200D01*
X142715952Y-86767200D02*
X142573095Y-86814819D01*
X142573095Y-86814819D02*
X142477857Y-86814819D01*
X143811190Y-86814819D02*
X143335000Y-86814819D01*
X143335000Y-86814819D02*
X143335000Y-85814819D01*
X144715952Y-86719580D02*
X144668333Y-86767200D01*
X144668333Y-86767200D02*
X144525476Y-86814819D01*
X144525476Y-86814819D02*
X144430238Y-86814819D01*
X144430238Y-86814819D02*
X144287381Y-86767200D01*
X144287381Y-86767200D02*
X144192143Y-86671961D01*
X144192143Y-86671961D02*
X144144524Y-86576723D01*
X144144524Y-86576723D02*
X144096905Y-86386247D01*
X144096905Y-86386247D02*
X144096905Y-86243390D01*
X144096905Y-86243390D02*
X144144524Y-86052914D01*
X144144524Y-86052914D02*
X144192143Y-85957676D01*
X144192143Y-85957676D02*
X144287381Y-85862438D01*
X144287381Y-85862438D02*
X144430238Y-85814819D01*
X144430238Y-85814819D02*
X144525476Y-85814819D01*
X144525476Y-85814819D02*
X144668333Y-85862438D01*
X144668333Y-85862438D02*
X144715952Y-85910057D01*
X145430238Y-85814819D02*
X145430238Y-86529104D01*
X145430238Y-86529104D02*
X145382619Y-86671961D01*
X145382619Y-86671961D02*
X145287381Y-86767200D01*
X145287381Y-86767200D02*
X145144524Y-86814819D01*
X145144524Y-86814819D02*
X145049286Y-86814819D01*
X146382619Y-86814819D02*
X145906429Y-86814819D01*
X145906429Y-86814819D02*
X145906429Y-85814819D01*
X147287381Y-86719580D02*
X147239762Y-86767200D01*
X147239762Y-86767200D02*
X147096905Y-86814819D01*
X147096905Y-86814819D02*
X147001667Y-86814819D01*
X147001667Y-86814819D02*
X146858810Y-86767200D01*
X146858810Y-86767200D02*
X146763572Y-86671961D01*
X146763572Y-86671961D02*
X146715953Y-86576723D01*
X146715953Y-86576723D02*
X146668334Y-86386247D01*
X146668334Y-86386247D02*
X146668334Y-86243390D01*
X146668334Y-86243390D02*
X146715953Y-86052914D01*
X146715953Y-86052914D02*
X146763572Y-85957676D01*
X146763572Y-85957676D02*
X146858810Y-85862438D01*
X146858810Y-85862438D02*
X147001667Y-85814819D01*
X147001667Y-85814819D02*
X147096905Y-85814819D01*
X147096905Y-85814819D02*
X147239762Y-85862438D01*
X147239762Y-85862438D02*
X147287381Y-85910057D01*
X183416541Y-60539819D02*
X183492731Y-60539819D01*
X183492731Y-60539819D02*
X183568922Y-60587438D01*
X183568922Y-60587438D02*
X183607017Y-60635057D01*
X183607017Y-60635057D02*
X183645112Y-60730295D01*
X183645112Y-60730295D02*
X183683207Y-60920771D01*
X183683207Y-60920771D02*
X183683207Y-61158866D01*
X183683207Y-61158866D02*
X183645112Y-61349342D01*
X183645112Y-61349342D02*
X183607017Y-61444580D01*
X183607017Y-61444580D02*
X183568922Y-61492200D01*
X183568922Y-61492200D02*
X183492731Y-61539819D01*
X183492731Y-61539819D02*
X183416541Y-61539819D01*
X183416541Y-61539819D02*
X183340350Y-61492200D01*
X183340350Y-61492200D02*
X183302255Y-61444580D01*
X183302255Y-61444580D02*
X183264160Y-61349342D01*
X183264160Y-61349342D02*
X183226064Y-61158866D01*
X183226064Y-61158866D02*
X183226064Y-60920771D01*
X183226064Y-60920771D02*
X183264160Y-60730295D01*
X183264160Y-60730295D02*
X183302255Y-60635057D01*
X183302255Y-60635057D02*
X183340350Y-60587438D01*
X183340350Y-60587438D02*
X183416541Y-60539819D01*
X184178446Y-60539819D02*
X184254636Y-60539819D01*
X184254636Y-60539819D02*
X184330827Y-60587438D01*
X184330827Y-60587438D02*
X184368922Y-60635057D01*
X184368922Y-60635057D02*
X184407017Y-60730295D01*
X184407017Y-60730295D02*
X184445112Y-60920771D01*
X184445112Y-60920771D02*
X184445112Y-61158866D01*
X184445112Y-61158866D02*
X184407017Y-61349342D01*
X184407017Y-61349342D02*
X184368922Y-61444580D01*
X184368922Y-61444580D02*
X184330827Y-61492200D01*
X184330827Y-61492200D02*
X184254636Y-61539819D01*
X184254636Y-61539819D02*
X184178446Y-61539819D01*
X184178446Y-61539819D02*
X184102255Y-61492200D01*
X184102255Y-61492200D02*
X184064160Y-61444580D01*
X184064160Y-61444580D02*
X184026065Y-61349342D01*
X184026065Y-61349342D02*
X183987969Y-61158866D01*
X183987969Y-61158866D02*
X183987969Y-60920771D01*
X183987969Y-60920771D02*
X184026065Y-60730295D01*
X184026065Y-60730295D02*
X184064160Y-60635057D01*
X184064160Y-60635057D02*
X184102255Y-60587438D01*
X184102255Y-60587438D02*
X184178446Y-60539819D01*
X184787970Y-61158866D02*
X185397494Y-61158866D01*
X186159398Y-60539819D02*
X185778446Y-60539819D01*
X185778446Y-60539819D02*
X185740350Y-61016009D01*
X185740350Y-61016009D02*
X185778446Y-60968390D01*
X185778446Y-60968390D02*
X185854636Y-60920771D01*
X185854636Y-60920771D02*
X186045112Y-60920771D01*
X186045112Y-60920771D02*
X186121303Y-60968390D01*
X186121303Y-60968390D02*
X186159398Y-61016009D01*
X186159398Y-61016009D02*
X186197493Y-61111247D01*
X186197493Y-61111247D02*
X186197493Y-61349342D01*
X186197493Y-61349342D02*
X186159398Y-61444580D01*
X186159398Y-61444580D02*
X186121303Y-61492200D01*
X186121303Y-61492200D02*
X186045112Y-61539819D01*
X186045112Y-61539819D02*
X185854636Y-61539819D01*
X185854636Y-61539819D02*
X185778446Y-61492200D01*
X185778446Y-61492200D02*
X185740350Y-61444580D01*
X186959398Y-61539819D02*
X186502255Y-61539819D01*
X186730827Y-61539819D02*
X186730827Y-60539819D01*
X186730827Y-60539819D02*
X186654636Y-60682676D01*
X186654636Y-60682676D02*
X186578446Y-60777914D01*
X186578446Y-60777914D02*
X186502255Y-60825533D01*
X187264160Y-60635057D02*
X187302256Y-60587438D01*
X187302256Y-60587438D02*
X187378446Y-60539819D01*
X187378446Y-60539819D02*
X187568922Y-60539819D01*
X187568922Y-60539819D02*
X187645113Y-60587438D01*
X187645113Y-60587438D02*
X187683208Y-60635057D01*
X187683208Y-60635057D02*
X187721303Y-60730295D01*
X187721303Y-60730295D02*
X187721303Y-60825533D01*
X187721303Y-60825533D02*
X187683208Y-60968390D01*
X187683208Y-60968390D02*
X187226065Y-61539819D01*
X187226065Y-61539819D02*
X187721303Y-61539819D01*
X188064161Y-61539819D02*
X188064161Y-60539819D01*
X188140351Y-61158866D02*
X188368923Y-61539819D01*
X188368923Y-60873152D02*
X188064161Y-61254104D01*
X188978446Y-61016009D02*
X189092732Y-61063628D01*
X189092732Y-61063628D02*
X189130827Y-61111247D01*
X189130827Y-61111247D02*
X189168923Y-61206485D01*
X189168923Y-61206485D02*
X189168923Y-61349342D01*
X189168923Y-61349342D02*
X189130827Y-61444580D01*
X189130827Y-61444580D02*
X189092732Y-61492200D01*
X189092732Y-61492200D02*
X189016542Y-61539819D01*
X189016542Y-61539819D02*
X188711780Y-61539819D01*
X188711780Y-61539819D02*
X188711780Y-60539819D01*
X188711780Y-60539819D02*
X188978446Y-60539819D01*
X188978446Y-60539819D02*
X189054637Y-60587438D01*
X189054637Y-60587438D02*
X189092732Y-60635057D01*
X189092732Y-60635057D02*
X189130827Y-60730295D01*
X189130827Y-60730295D02*
X189130827Y-60825533D01*
X189130827Y-60825533D02*
X189092732Y-60920771D01*
X189092732Y-60920771D02*
X189054637Y-60968390D01*
X189054637Y-60968390D02*
X188978446Y-61016009D01*
X188978446Y-61016009D02*
X188711780Y-61016009D01*
X183683207Y-63149819D02*
X183226064Y-63149819D01*
X183454636Y-63149819D02*
X183454636Y-62149819D01*
X183454636Y-62149819D02*
X183378445Y-62292676D01*
X183378445Y-62292676D02*
X183302255Y-62387914D01*
X183302255Y-62387914D02*
X183226064Y-62435533D01*
X184178446Y-62149819D02*
X184254636Y-62149819D01*
X184254636Y-62149819D02*
X184330827Y-62197438D01*
X184330827Y-62197438D02*
X184368922Y-62245057D01*
X184368922Y-62245057D02*
X184407017Y-62340295D01*
X184407017Y-62340295D02*
X184445112Y-62530771D01*
X184445112Y-62530771D02*
X184445112Y-62768866D01*
X184445112Y-62768866D02*
X184407017Y-62959342D01*
X184407017Y-62959342D02*
X184368922Y-63054580D01*
X184368922Y-63054580D02*
X184330827Y-63102200D01*
X184330827Y-63102200D02*
X184254636Y-63149819D01*
X184254636Y-63149819D02*
X184178446Y-63149819D01*
X184178446Y-63149819D02*
X184102255Y-63102200D01*
X184102255Y-63102200D02*
X184064160Y-63054580D01*
X184064160Y-63054580D02*
X184026065Y-62959342D01*
X184026065Y-62959342D02*
X183987969Y-62768866D01*
X183987969Y-62768866D02*
X183987969Y-62530771D01*
X183987969Y-62530771D02*
X184026065Y-62340295D01*
X184026065Y-62340295D02*
X184064160Y-62245057D01*
X184064160Y-62245057D02*
X184102255Y-62197438D01*
X184102255Y-62197438D02*
X184178446Y-62149819D01*
X184787970Y-62768866D02*
X185397494Y-62768866D01*
X185740350Y-62245057D02*
X185778446Y-62197438D01*
X185778446Y-62197438D02*
X185854636Y-62149819D01*
X185854636Y-62149819D02*
X186045112Y-62149819D01*
X186045112Y-62149819D02*
X186121303Y-62197438D01*
X186121303Y-62197438D02*
X186159398Y-62245057D01*
X186159398Y-62245057D02*
X186197493Y-62340295D01*
X186197493Y-62340295D02*
X186197493Y-62435533D01*
X186197493Y-62435533D02*
X186159398Y-62578390D01*
X186159398Y-62578390D02*
X185702255Y-63149819D01*
X185702255Y-63149819D02*
X186197493Y-63149819D01*
X186921303Y-62149819D02*
X186540351Y-62149819D01*
X186540351Y-62149819D02*
X186502255Y-62626009D01*
X186502255Y-62626009D02*
X186540351Y-62578390D01*
X186540351Y-62578390D02*
X186616541Y-62530771D01*
X186616541Y-62530771D02*
X186807017Y-62530771D01*
X186807017Y-62530771D02*
X186883208Y-62578390D01*
X186883208Y-62578390D02*
X186921303Y-62626009D01*
X186921303Y-62626009D02*
X186959398Y-62721247D01*
X186959398Y-62721247D02*
X186959398Y-62959342D01*
X186959398Y-62959342D02*
X186921303Y-63054580D01*
X186921303Y-63054580D02*
X186883208Y-63102200D01*
X186883208Y-63102200D02*
X186807017Y-63149819D01*
X186807017Y-63149819D02*
X186616541Y-63149819D01*
X186616541Y-63149819D02*
X186540351Y-63102200D01*
X186540351Y-63102200D02*
X186502255Y-63054580D01*
X187645113Y-62149819D02*
X187492732Y-62149819D01*
X187492732Y-62149819D02*
X187416541Y-62197438D01*
X187416541Y-62197438D02*
X187378446Y-62245057D01*
X187378446Y-62245057D02*
X187302256Y-62387914D01*
X187302256Y-62387914D02*
X187264160Y-62578390D01*
X187264160Y-62578390D02*
X187264160Y-62959342D01*
X187264160Y-62959342D02*
X187302256Y-63054580D01*
X187302256Y-63054580D02*
X187340351Y-63102200D01*
X187340351Y-63102200D02*
X187416541Y-63149819D01*
X187416541Y-63149819D02*
X187568922Y-63149819D01*
X187568922Y-63149819D02*
X187645113Y-63102200D01*
X187645113Y-63102200D02*
X187683208Y-63054580D01*
X187683208Y-63054580D02*
X187721303Y-62959342D01*
X187721303Y-62959342D02*
X187721303Y-62721247D01*
X187721303Y-62721247D02*
X187683208Y-62626009D01*
X187683208Y-62626009D02*
X187645113Y-62578390D01*
X187645113Y-62578390D02*
X187568922Y-62530771D01*
X187568922Y-62530771D02*
X187416541Y-62530771D01*
X187416541Y-62530771D02*
X187340351Y-62578390D01*
X187340351Y-62578390D02*
X187302256Y-62626009D01*
X187302256Y-62626009D02*
X187264160Y-62721247D01*
X188064161Y-63149819D02*
X188064161Y-62149819D01*
X188140351Y-62768866D02*
X188368923Y-63149819D01*
X188368923Y-62483152D02*
X188064161Y-62864104D01*
X188978446Y-62626009D02*
X189092732Y-62673628D01*
X189092732Y-62673628D02*
X189130827Y-62721247D01*
X189130827Y-62721247D02*
X189168923Y-62816485D01*
X189168923Y-62816485D02*
X189168923Y-62959342D01*
X189168923Y-62959342D02*
X189130827Y-63054580D01*
X189130827Y-63054580D02*
X189092732Y-63102200D01*
X189092732Y-63102200D02*
X189016542Y-63149819D01*
X189016542Y-63149819D02*
X188711780Y-63149819D01*
X188711780Y-63149819D02*
X188711780Y-62149819D01*
X188711780Y-62149819D02*
X188978446Y-62149819D01*
X188978446Y-62149819D02*
X189054637Y-62197438D01*
X189054637Y-62197438D02*
X189092732Y-62245057D01*
X189092732Y-62245057D02*
X189130827Y-62340295D01*
X189130827Y-62340295D02*
X189130827Y-62435533D01*
X189130827Y-62435533D02*
X189092732Y-62530771D01*
X189092732Y-62530771D02*
X189054637Y-62578390D01*
X189054637Y-62578390D02*
X188978446Y-62626009D01*
X188978446Y-62626009D02*
X188711780Y-62626009D01*
X183683207Y-64759819D02*
X183226064Y-64759819D01*
X183454636Y-64759819D02*
X183454636Y-63759819D01*
X183454636Y-63759819D02*
X183378445Y-63902676D01*
X183378445Y-63902676D02*
X183302255Y-63997914D01*
X183302255Y-63997914D02*
X183226064Y-64045533D01*
X184178446Y-63759819D02*
X184254636Y-63759819D01*
X184254636Y-63759819D02*
X184330827Y-63807438D01*
X184330827Y-63807438D02*
X184368922Y-63855057D01*
X184368922Y-63855057D02*
X184407017Y-63950295D01*
X184407017Y-63950295D02*
X184445112Y-64140771D01*
X184445112Y-64140771D02*
X184445112Y-64378866D01*
X184445112Y-64378866D02*
X184407017Y-64569342D01*
X184407017Y-64569342D02*
X184368922Y-64664580D01*
X184368922Y-64664580D02*
X184330827Y-64712200D01*
X184330827Y-64712200D02*
X184254636Y-64759819D01*
X184254636Y-64759819D02*
X184178446Y-64759819D01*
X184178446Y-64759819D02*
X184102255Y-64712200D01*
X184102255Y-64712200D02*
X184064160Y-64664580D01*
X184064160Y-64664580D02*
X184026065Y-64569342D01*
X184026065Y-64569342D02*
X183987969Y-64378866D01*
X183987969Y-64378866D02*
X183987969Y-64140771D01*
X183987969Y-64140771D02*
X184026065Y-63950295D01*
X184026065Y-63950295D02*
X184064160Y-63855057D01*
X184064160Y-63855057D02*
X184102255Y-63807438D01*
X184102255Y-63807438D02*
X184178446Y-63759819D01*
X184787970Y-64378866D02*
X185397494Y-64378866D01*
X186197493Y-64759819D02*
X185740350Y-64759819D01*
X185968922Y-64759819D02*
X185968922Y-63759819D01*
X185968922Y-63759819D02*
X185892731Y-63902676D01*
X185892731Y-63902676D02*
X185816541Y-63997914D01*
X185816541Y-63997914D02*
X185740350Y-64045533D01*
X186578446Y-64759819D02*
X186730827Y-64759819D01*
X186730827Y-64759819D02*
X186807017Y-64712200D01*
X186807017Y-64712200D02*
X186845113Y-64664580D01*
X186845113Y-64664580D02*
X186921303Y-64521723D01*
X186921303Y-64521723D02*
X186959398Y-64331247D01*
X186959398Y-64331247D02*
X186959398Y-63950295D01*
X186959398Y-63950295D02*
X186921303Y-63855057D01*
X186921303Y-63855057D02*
X186883208Y-63807438D01*
X186883208Y-63807438D02*
X186807017Y-63759819D01*
X186807017Y-63759819D02*
X186654636Y-63759819D01*
X186654636Y-63759819D02*
X186578446Y-63807438D01*
X186578446Y-63807438D02*
X186540351Y-63855057D01*
X186540351Y-63855057D02*
X186502255Y-63950295D01*
X186502255Y-63950295D02*
X186502255Y-64188390D01*
X186502255Y-64188390D02*
X186540351Y-64283628D01*
X186540351Y-64283628D02*
X186578446Y-64331247D01*
X186578446Y-64331247D02*
X186654636Y-64378866D01*
X186654636Y-64378866D02*
X186807017Y-64378866D01*
X186807017Y-64378866D02*
X186883208Y-64331247D01*
X186883208Y-64331247D02*
X186921303Y-64283628D01*
X186921303Y-64283628D02*
X186959398Y-64188390D01*
X187264160Y-63855057D02*
X187302256Y-63807438D01*
X187302256Y-63807438D02*
X187378446Y-63759819D01*
X187378446Y-63759819D02*
X187568922Y-63759819D01*
X187568922Y-63759819D02*
X187645113Y-63807438D01*
X187645113Y-63807438D02*
X187683208Y-63855057D01*
X187683208Y-63855057D02*
X187721303Y-63950295D01*
X187721303Y-63950295D02*
X187721303Y-64045533D01*
X187721303Y-64045533D02*
X187683208Y-64188390D01*
X187683208Y-64188390D02*
X187226065Y-64759819D01*
X187226065Y-64759819D02*
X187721303Y-64759819D01*
X188064161Y-64759819D02*
X188064161Y-63759819D01*
X188140351Y-64378866D02*
X188368923Y-64759819D01*
X188368923Y-64093152D02*
X188064161Y-64474104D01*
X188978446Y-64236009D02*
X189092732Y-64283628D01*
X189092732Y-64283628D02*
X189130827Y-64331247D01*
X189130827Y-64331247D02*
X189168923Y-64426485D01*
X189168923Y-64426485D02*
X189168923Y-64569342D01*
X189168923Y-64569342D02*
X189130827Y-64664580D01*
X189130827Y-64664580D02*
X189092732Y-64712200D01*
X189092732Y-64712200D02*
X189016542Y-64759819D01*
X189016542Y-64759819D02*
X188711780Y-64759819D01*
X188711780Y-64759819D02*
X188711780Y-63759819D01*
X188711780Y-63759819D02*
X188978446Y-63759819D01*
X188978446Y-63759819D02*
X189054637Y-63807438D01*
X189054637Y-63807438D02*
X189092732Y-63855057D01*
X189092732Y-63855057D02*
X189130827Y-63950295D01*
X189130827Y-63950295D02*
X189130827Y-64045533D01*
X189130827Y-64045533D02*
X189092732Y-64140771D01*
X189092732Y-64140771D02*
X189054637Y-64188390D01*
X189054637Y-64188390D02*
X188978446Y-64236009D01*
X188978446Y-64236009D02*
X188711780Y-64236009D01*
X183683207Y-66369819D02*
X183226064Y-66369819D01*
X183454636Y-66369819D02*
X183454636Y-65369819D01*
X183454636Y-65369819D02*
X183378445Y-65512676D01*
X183378445Y-65512676D02*
X183302255Y-65607914D01*
X183302255Y-65607914D02*
X183226064Y-65655533D01*
X184445112Y-66369819D02*
X183987969Y-66369819D01*
X184216541Y-66369819D02*
X184216541Y-65369819D01*
X184216541Y-65369819D02*
X184140350Y-65512676D01*
X184140350Y-65512676D02*
X184064160Y-65607914D01*
X184064160Y-65607914D02*
X183987969Y-65655533D01*
X184787970Y-65988866D02*
X185397494Y-65988866D01*
X186197493Y-66369819D02*
X185740350Y-66369819D01*
X185968922Y-66369819D02*
X185968922Y-65369819D01*
X185968922Y-65369819D02*
X185892731Y-65512676D01*
X185892731Y-65512676D02*
X185816541Y-65607914D01*
X185816541Y-65607914D02*
X185740350Y-65655533D01*
X186502255Y-65465057D02*
X186540351Y-65417438D01*
X186540351Y-65417438D02*
X186616541Y-65369819D01*
X186616541Y-65369819D02*
X186807017Y-65369819D01*
X186807017Y-65369819D02*
X186883208Y-65417438D01*
X186883208Y-65417438D02*
X186921303Y-65465057D01*
X186921303Y-65465057D02*
X186959398Y-65560295D01*
X186959398Y-65560295D02*
X186959398Y-65655533D01*
X186959398Y-65655533D02*
X186921303Y-65798390D01*
X186921303Y-65798390D02*
X186464160Y-66369819D01*
X186464160Y-66369819D02*
X186959398Y-66369819D01*
X187416541Y-65798390D02*
X187340351Y-65750771D01*
X187340351Y-65750771D02*
X187302256Y-65703152D01*
X187302256Y-65703152D02*
X187264160Y-65607914D01*
X187264160Y-65607914D02*
X187264160Y-65560295D01*
X187264160Y-65560295D02*
X187302256Y-65465057D01*
X187302256Y-65465057D02*
X187340351Y-65417438D01*
X187340351Y-65417438D02*
X187416541Y-65369819D01*
X187416541Y-65369819D02*
X187568922Y-65369819D01*
X187568922Y-65369819D02*
X187645113Y-65417438D01*
X187645113Y-65417438D02*
X187683208Y-65465057D01*
X187683208Y-65465057D02*
X187721303Y-65560295D01*
X187721303Y-65560295D02*
X187721303Y-65607914D01*
X187721303Y-65607914D02*
X187683208Y-65703152D01*
X187683208Y-65703152D02*
X187645113Y-65750771D01*
X187645113Y-65750771D02*
X187568922Y-65798390D01*
X187568922Y-65798390D02*
X187416541Y-65798390D01*
X187416541Y-65798390D02*
X187340351Y-65846009D01*
X187340351Y-65846009D02*
X187302256Y-65893628D01*
X187302256Y-65893628D02*
X187264160Y-65988866D01*
X187264160Y-65988866D02*
X187264160Y-66179342D01*
X187264160Y-66179342D02*
X187302256Y-66274580D01*
X187302256Y-66274580D02*
X187340351Y-66322200D01*
X187340351Y-66322200D02*
X187416541Y-66369819D01*
X187416541Y-66369819D02*
X187568922Y-66369819D01*
X187568922Y-66369819D02*
X187645113Y-66322200D01*
X187645113Y-66322200D02*
X187683208Y-66274580D01*
X187683208Y-66274580D02*
X187721303Y-66179342D01*
X187721303Y-66179342D02*
X187721303Y-65988866D01*
X187721303Y-65988866D02*
X187683208Y-65893628D01*
X187683208Y-65893628D02*
X187645113Y-65846009D01*
X187645113Y-65846009D02*
X187568922Y-65798390D01*
X188064161Y-66369819D02*
X188064161Y-65369819D01*
X188140351Y-65988866D02*
X188368923Y-66369819D01*
X188368923Y-65703152D02*
X188064161Y-66084104D01*
X188978446Y-65846009D02*
X189092732Y-65893628D01*
X189092732Y-65893628D02*
X189130827Y-65941247D01*
X189130827Y-65941247D02*
X189168923Y-66036485D01*
X189168923Y-66036485D02*
X189168923Y-66179342D01*
X189168923Y-66179342D02*
X189130827Y-66274580D01*
X189130827Y-66274580D02*
X189092732Y-66322200D01*
X189092732Y-66322200D02*
X189016542Y-66369819D01*
X189016542Y-66369819D02*
X188711780Y-66369819D01*
X188711780Y-66369819D02*
X188711780Y-65369819D01*
X188711780Y-65369819D02*
X188978446Y-65369819D01*
X188978446Y-65369819D02*
X189054637Y-65417438D01*
X189054637Y-65417438D02*
X189092732Y-65465057D01*
X189092732Y-65465057D02*
X189130827Y-65560295D01*
X189130827Y-65560295D02*
X189130827Y-65655533D01*
X189130827Y-65655533D02*
X189092732Y-65750771D01*
X189092732Y-65750771D02*
X189054637Y-65798390D01*
X189054637Y-65798390D02*
X188978446Y-65846009D01*
X188978446Y-65846009D02*
X188711780Y-65846009D01*
D11*
X99187856Y-75277400D02*
X99473570Y-75372638D01*
X99473570Y-75372638D02*
X99949761Y-75372638D01*
X99949761Y-75372638D02*
X100140237Y-75277400D01*
X100140237Y-75277400D02*
X100235475Y-75182161D01*
X100235475Y-75182161D02*
X100330713Y-74991685D01*
X100330713Y-74991685D02*
X100330713Y-74801209D01*
X100330713Y-74801209D02*
X100235475Y-74610733D01*
X100235475Y-74610733D02*
X100140237Y-74515495D01*
X100140237Y-74515495D02*
X99949761Y-74420257D01*
X99949761Y-74420257D02*
X99568808Y-74325019D01*
X99568808Y-74325019D02*
X99378332Y-74229780D01*
X99378332Y-74229780D02*
X99283094Y-74134542D01*
X99283094Y-74134542D02*
X99187856Y-73944066D01*
X99187856Y-73944066D02*
X99187856Y-73753590D01*
X99187856Y-73753590D02*
X99283094Y-73563114D01*
X99283094Y-73563114D02*
X99378332Y-73467876D01*
X99378332Y-73467876D02*
X99568808Y-73372638D01*
X99568808Y-73372638D02*
X100044999Y-73372638D01*
X100044999Y-73372638D02*
X100330713Y-73467876D01*
X101187856Y-75372638D02*
X101187856Y-73372638D01*
X102140237Y-75372638D02*
X102140237Y-73372638D01*
X102140237Y-73372638D02*
X103283094Y-75372638D01*
X103283094Y-75372638D02*
X103283094Y-73372638D01*
X105378332Y-75182161D02*
X105283094Y-75277400D01*
X105283094Y-75277400D02*
X104997380Y-75372638D01*
X104997380Y-75372638D02*
X104806904Y-75372638D01*
X104806904Y-75372638D02*
X104521189Y-75277400D01*
X104521189Y-75277400D02*
X104330713Y-75086923D01*
X104330713Y-75086923D02*
X104235475Y-74896447D01*
X104235475Y-74896447D02*
X104140237Y-74515495D01*
X104140237Y-74515495D02*
X104140237Y-74229780D01*
X104140237Y-74229780D02*
X104235475Y-73848828D01*
X104235475Y-73848828D02*
X104330713Y-73658352D01*
X104330713Y-73658352D02*
X104521189Y-73467876D01*
X104521189Y-73467876D02*
X104806904Y-73372638D01*
X104806904Y-73372638D02*
X104997380Y-73372638D01*
X104997380Y-73372638D02*
X105283094Y-73467876D01*
X105283094Y-73467876D02*
X105378332Y-73563114D01*
X107187856Y-75372638D02*
X106235475Y-75372638D01*
X106235475Y-75372638D02*
X106235475Y-73372638D01*
X107759285Y-74801209D02*
X108711666Y-74801209D01*
X107568809Y-75372638D02*
X108235475Y-73372638D01*
X108235475Y-73372638D02*
X108902142Y-75372638D01*
X109568809Y-75372638D02*
X109568809Y-73372638D01*
X111664047Y-75372638D02*
X110997380Y-74420257D01*
X110521190Y-75372638D02*
X110521190Y-73372638D01*
X110521190Y-73372638D02*
X111283095Y-73372638D01*
X111283095Y-73372638D02*
X111473571Y-73467876D01*
X111473571Y-73467876D02*
X111568809Y-73563114D01*
X111568809Y-73563114D02*
X111664047Y-73753590D01*
X111664047Y-73753590D02*
X111664047Y-74039304D01*
X111664047Y-74039304D02*
X111568809Y-74229780D01*
X111568809Y-74229780D02*
X111473571Y-74325019D01*
X111473571Y-74325019D02*
X111283095Y-74420257D01*
X111283095Y-74420257D02*
X110521190Y-74420257D01*
X115378333Y-75563114D02*
X115187857Y-75467876D01*
X115187857Y-75467876D02*
X114997381Y-75277400D01*
X114997381Y-75277400D02*
X114711667Y-74991685D01*
X114711667Y-74991685D02*
X114521190Y-74896447D01*
X114521190Y-74896447D02*
X114330714Y-74896447D01*
X114425952Y-75372638D02*
X114235476Y-75277400D01*
X114235476Y-75277400D02*
X114045000Y-75086923D01*
X114045000Y-75086923D02*
X113949762Y-74705971D01*
X113949762Y-74705971D02*
X113949762Y-74039304D01*
X113949762Y-74039304D02*
X114045000Y-73658352D01*
X114045000Y-73658352D02*
X114235476Y-73467876D01*
X114235476Y-73467876D02*
X114425952Y-73372638D01*
X114425952Y-73372638D02*
X114806905Y-73372638D01*
X114806905Y-73372638D02*
X114997381Y-73467876D01*
X114997381Y-73467876D02*
X115187857Y-73658352D01*
X115187857Y-73658352D02*
X115283095Y-74039304D01*
X115283095Y-74039304D02*
X115283095Y-74705971D01*
X115283095Y-74705971D02*
X115187857Y-75086923D01*
X115187857Y-75086923D02*
X114997381Y-75277400D01*
X114997381Y-75277400D02*
X114806905Y-75372638D01*
X114806905Y-75372638D02*
X114425952Y-75372638D01*
X117092619Y-75372638D02*
X116140238Y-75372638D01*
X116140238Y-75372638D02*
X116140238Y-73372638D01*
X101044999Y-76592638D02*
X100092618Y-76592638D01*
X100092618Y-76592638D02*
X99997380Y-77545019D01*
X99997380Y-77545019D02*
X100092618Y-77449780D01*
X100092618Y-77449780D02*
X100283094Y-77354542D01*
X100283094Y-77354542D02*
X100759285Y-77354542D01*
X100759285Y-77354542D02*
X100949761Y-77449780D01*
X100949761Y-77449780D02*
X101044999Y-77545019D01*
X101044999Y-77545019D02*
X101140237Y-77735495D01*
X101140237Y-77735495D02*
X101140237Y-78211685D01*
X101140237Y-78211685D02*
X101044999Y-78402161D01*
X101044999Y-78402161D02*
X100949761Y-78497400D01*
X100949761Y-78497400D02*
X100759285Y-78592638D01*
X100759285Y-78592638D02*
X100283094Y-78592638D01*
X100283094Y-78592638D02*
X100092618Y-78497400D01*
X100092618Y-78497400D02*
X99997380Y-78402161D01*
X103044999Y-78592638D02*
X101902142Y-78592638D01*
X102473570Y-78592638D02*
X102473570Y-76592638D01*
X102473570Y-76592638D02*
X102283094Y-76878352D01*
X102283094Y-76878352D02*
X102092618Y-77068828D01*
X102092618Y-77068828D02*
X101902142Y-77164066D01*
X103806904Y-76783114D02*
X103902142Y-76687876D01*
X103902142Y-76687876D02*
X104092618Y-76592638D01*
X104092618Y-76592638D02*
X104568809Y-76592638D01*
X104568809Y-76592638D02*
X104759285Y-76687876D01*
X104759285Y-76687876D02*
X104854523Y-76783114D01*
X104854523Y-76783114D02*
X104949761Y-76973590D01*
X104949761Y-76973590D02*
X104949761Y-77164066D01*
X104949761Y-77164066D02*
X104854523Y-77449780D01*
X104854523Y-77449780D02*
X103711666Y-78592638D01*
X103711666Y-78592638D02*
X104949761Y-78592638D01*
X105806904Y-78592638D02*
X105806904Y-76592638D01*
X105997380Y-77830733D02*
X106568809Y-78592638D01*
X106568809Y-77259304D02*
X105806904Y-78021209D01*
X108092619Y-77545019D02*
X108378333Y-77640257D01*
X108378333Y-77640257D02*
X108473571Y-77735495D01*
X108473571Y-77735495D02*
X108568809Y-77925971D01*
X108568809Y-77925971D02*
X108568809Y-78211685D01*
X108568809Y-78211685D02*
X108473571Y-78402161D01*
X108473571Y-78402161D02*
X108378333Y-78497400D01*
X108378333Y-78497400D02*
X108187857Y-78592638D01*
X108187857Y-78592638D02*
X107425952Y-78592638D01*
X107425952Y-78592638D02*
X107425952Y-76592638D01*
X107425952Y-76592638D02*
X108092619Y-76592638D01*
X108092619Y-76592638D02*
X108283095Y-76687876D01*
X108283095Y-76687876D02*
X108378333Y-76783114D01*
X108378333Y-76783114D02*
X108473571Y-76973590D01*
X108473571Y-76973590D02*
X108473571Y-77164066D01*
X108473571Y-77164066D02*
X108378333Y-77354542D01*
X108378333Y-77354542D02*
X108283095Y-77449780D01*
X108283095Y-77449780D02*
X108092619Y-77545019D01*
X108092619Y-77545019D02*
X107425952Y-77545019D01*
X112092619Y-78592638D02*
X111425952Y-77640257D01*
X110949762Y-78592638D02*
X110949762Y-76592638D01*
X110949762Y-76592638D02*
X111711667Y-76592638D01*
X111711667Y-76592638D02*
X111902143Y-76687876D01*
X111902143Y-76687876D02*
X111997381Y-76783114D01*
X111997381Y-76783114D02*
X112092619Y-76973590D01*
X112092619Y-76973590D02*
X112092619Y-77259304D01*
X112092619Y-77259304D02*
X111997381Y-77449780D01*
X111997381Y-77449780D02*
X111902143Y-77545019D01*
X111902143Y-77545019D02*
X111711667Y-77640257D01*
X111711667Y-77640257D02*
X110949762Y-77640257D01*
X112854524Y-78021209D02*
X113806905Y-78021209D01*
X112664048Y-78592638D02*
X113330714Y-76592638D01*
X113330714Y-76592638D02*
X113997381Y-78592638D01*
X114664048Y-78592638D02*
X114664048Y-76592638D01*
X114664048Y-76592638D02*
X115330715Y-78021209D01*
X115330715Y-78021209D02*
X115997381Y-76592638D01*
X115997381Y-76592638D02*
X115997381Y-78592638D01*
D10*
X157639524Y-62653152D02*
X157830000Y-63319819D01*
X157830000Y-63319819D02*
X158020476Y-62843628D01*
X158020476Y-62843628D02*
X158210952Y-63319819D01*
X158210952Y-63319819D02*
X158401428Y-62653152D01*
X158687143Y-62653152D02*
X158877619Y-63319819D01*
X158877619Y-63319819D02*
X159068095Y-62843628D01*
X159068095Y-62843628D02*
X159258571Y-63319819D01*
X159258571Y-63319819D02*
X159449047Y-62653152D01*
X159734762Y-62653152D02*
X159925238Y-63319819D01*
X159925238Y-63319819D02*
X160115714Y-62843628D01*
X160115714Y-62843628D02*
X160306190Y-63319819D01*
X160306190Y-63319819D02*
X160496666Y-62653152D01*
X160877619Y-63224580D02*
X160925238Y-63272200D01*
X160925238Y-63272200D02*
X160877619Y-63319819D01*
X160877619Y-63319819D02*
X160830000Y-63272200D01*
X160830000Y-63272200D02*
X160877619Y-63224580D01*
X160877619Y-63224580D02*
X160877619Y-63319819D01*
X161258571Y-62653152D02*
X161496666Y-63319819D01*
X161496666Y-63319819D02*
X161734761Y-62653152D01*
X162544285Y-63319819D02*
X162544285Y-62796009D01*
X162544285Y-62796009D02*
X162496666Y-62700771D01*
X162496666Y-62700771D02*
X162401428Y-62653152D01*
X162401428Y-62653152D02*
X162210952Y-62653152D01*
X162210952Y-62653152D02*
X162115714Y-62700771D01*
X162544285Y-63272200D02*
X162449047Y-63319819D01*
X162449047Y-63319819D02*
X162210952Y-63319819D01*
X162210952Y-63319819D02*
X162115714Y-63272200D01*
X162115714Y-63272200D02*
X162068095Y-63176961D01*
X162068095Y-63176961D02*
X162068095Y-63081723D01*
X162068095Y-63081723D02*
X162115714Y-62986485D01*
X162115714Y-62986485D02*
X162210952Y-62938866D01*
X162210952Y-62938866D02*
X162449047Y-62938866D01*
X162449047Y-62938866D02*
X162544285Y-62891247D01*
X163020476Y-62938866D02*
X163782381Y-62938866D01*
X164687142Y-63319819D02*
X164687142Y-62319819D01*
X164687142Y-63272200D02*
X164591904Y-63319819D01*
X164591904Y-63319819D02*
X164401428Y-63319819D01*
X164401428Y-63319819D02*
X164306190Y-63272200D01*
X164306190Y-63272200D02*
X164258571Y-63224580D01*
X164258571Y-63224580D02*
X164210952Y-63129342D01*
X164210952Y-63129342D02*
X164210952Y-62843628D01*
X164210952Y-62843628D02*
X164258571Y-62748390D01*
X164258571Y-62748390D02*
X164306190Y-62700771D01*
X164306190Y-62700771D02*
X164401428Y-62653152D01*
X164401428Y-62653152D02*
X164591904Y-62653152D01*
X164591904Y-62653152D02*
X164687142Y-62700771D01*
X165544285Y-63272200D02*
X165449047Y-63319819D01*
X165449047Y-63319819D02*
X165258571Y-63319819D01*
X165258571Y-63319819D02*
X165163333Y-63272200D01*
X165163333Y-63272200D02*
X165115714Y-63176961D01*
X165115714Y-63176961D02*
X165115714Y-62796009D01*
X165115714Y-62796009D02*
X165163333Y-62700771D01*
X165163333Y-62700771D02*
X165258571Y-62653152D01*
X165258571Y-62653152D02*
X165449047Y-62653152D01*
X165449047Y-62653152D02*
X165544285Y-62700771D01*
X165544285Y-62700771D02*
X165591904Y-62796009D01*
X165591904Y-62796009D02*
X165591904Y-62891247D01*
X165591904Y-62891247D02*
X165115714Y-62986485D01*
X166020476Y-62938866D02*
X166782381Y-62938866D01*
X167258571Y-63319819D02*
X167258571Y-62653152D01*
X167258571Y-62843628D02*
X167306190Y-62748390D01*
X167306190Y-62748390D02*
X167353809Y-62700771D01*
X167353809Y-62700771D02*
X167449047Y-62653152D01*
X167449047Y-62653152D02*
X167544285Y-62653152D01*
X168258571Y-63272200D02*
X168163333Y-63319819D01*
X168163333Y-63319819D02*
X167972857Y-63319819D01*
X167972857Y-63319819D02*
X167877619Y-63272200D01*
X167877619Y-63272200D02*
X167830000Y-63176961D01*
X167830000Y-63176961D02*
X167830000Y-62796009D01*
X167830000Y-62796009D02*
X167877619Y-62700771D01*
X167877619Y-62700771D02*
X167972857Y-62653152D01*
X167972857Y-62653152D02*
X168163333Y-62653152D01*
X168163333Y-62653152D02*
X168258571Y-62700771D01*
X168258571Y-62700771D02*
X168306190Y-62796009D01*
X168306190Y-62796009D02*
X168306190Y-62891247D01*
X168306190Y-62891247D02*
X167830000Y-62986485D01*
X168591905Y-62653152D02*
X168972857Y-62653152D01*
X168734762Y-62319819D02*
X168734762Y-63176961D01*
X168734762Y-63176961D02*
X168782381Y-63272200D01*
X168782381Y-63272200D02*
X168877619Y-63319819D01*
X168877619Y-63319819D02*
X168972857Y-63319819D01*
X169306191Y-63319819D02*
X169306191Y-62653152D01*
X169306191Y-62843628D02*
X169353810Y-62748390D01*
X169353810Y-62748390D02*
X169401429Y-62700771D01*
X169401429Y-62700771D02*
X169496667Y-62653152D01*
X169496667Y-62653152D02*
X169591905Y-62653152D01*
X170068096Y-63319819D02*
X169972858Y-63272200D01*
X169972858Y-63272200D02*
X169925239Y-63224580D01*
X169925239Y-63224580D02*
X169877620Y-63129342D01*
X169877620Y-63129342D02*
X169877620Y-62843628D01*
X169877620Y-62843628D02*
X169925239Y-62748390D01*
X169925239Y-62748390D02*
X169972858Y-62700771D01*
X169972858Y-62700771D02*
X170068096Y-62653152D01*
X170068096Y-62653152D02*
X170210953Y-62653152D01*
X170210953Y-62653152D02*
X170306191Y-62700771D01*
X170306191Y-62700771D02*
X170353810Y-62748390D01*
X170353810Y-62748390D02*
X170401429Y-62843628D01*
X170401429Y-62843628D02*
X170401429Y-63129342D01*
X170401429Y-63129342D02*
X170353810Y-63224580D01*
X170353810Y-63224580D02*
X170306191Y-63272200D01*
X170306191Y-63272200D02*
X170210953Y-63319819D01*
X170210953Y-63319819D02*
X170068096Y-63319819D01*
X170830001Y-63224580D02*
X170877620Y-63272200D01*
X170877620Y-63272200D02*
X170830001Y-63319819D01*
X170830001Y-63319819D02*
X170782382Y-63272200D01*
X170782382Y-63272200D02*
X170830001Y-63224580D01*
X170830001Y-63224580D02*
X170830001Y-63319819D01*
X171734762Y-63272200D02*
X171639524Y-63319819D01*
X171639524Y-63319819D02*
X171449048Y-63319819D01*
X171449048Y-63319819D02*
X171353810Y-63272200D01*
X171353810Y-63272200D02*
X171306191Y-63224580D01*
X171306191Y-63224580D02*
X171258572Y-63129342D01*
X171258572Y-63129342D02*
X171258572Y-62843628D01*
X171258572Y-62843628D02*
X171306191Y-62748390D01*
X171306191Y-62748390D02*
X171353810Y-62700771D01*
X171353810Y-62700771D02*
X171449048Y-62653152D01*
X171449048Y-62653152D02*
X171639524Y-62653152D01*
X171639524Y-62653152D02*
X171734762Y-62700771D01*
X172306191Y-63319819D02*
X172210953Y-63272200D01*
X172210953Y-63272200D02*
X172163334Y-63224580D01*
X172163334Y-63224580D02*
X172115715Y-63129342D01*
X172115715Y-63129342D02*
X172115715Y-62843628D01*
X172115715Y-62843628D02*
X172163334Y-62748390D01*
X172163334Y-62748390D02*
X172210953Y-62700771D01*
X172210953Y-62700771D02*
X172306191Y-62653152D01*
X172306191Y-62653152D02*
X172449048Y-62653152D01*
X172449048Y-62653152D02*
X172544286Y-62700771D01*
X172544286Y-62700771D02*
X172591905Y-62748390D01*
X172591905Y-62748390D02*
X172639524Y-62843628D01*
X172639524Y-62843628D02*
X172639524Y-63129342D01*
X172639524Y-63129342D02*
X172591905Y-63224580D01*
X172591905Y-63224580D02*
X172544286Y-63272200D01*
X172544286Y-63272200D02*
X172449048Y-63319819D01*
X172449048Y-63319819D02*
X172306191Y-63319819D01*
X173068096Y-63319819D02*
X173068096Y-62653152D01*
X173068096Y-62748390D02*
X173115715Y-62700771D01*
X173115715Y-62700771D02*
X173210953Y-62653152D01*
X173210953Y-62653152D02*
X173353810Y-62653152D01*
X173353810Y-62653152D02*
X173449048Y-62700771D01*
X173449048Y-62700771D02*
X173496667Y-62796009D01*
X173496667Y-62796009D02*
X173496667Y-63319819D01*
X173496667Y-62796009D02*
X173544286Y-62700771D01*
X173544286Y-62700771D02*
X173639524Y-62653152D01*
X173639524Y-62653152D02*
X173782381Y-62653152D01*
X173782381Y-62653152D02*
X173877620Y-62700771D01*
X173877620Y-62700771D02*
X173925239Y-62796009D01*
X173925239Y-62796009D02*
X173925239Y-63319819D01*
X157631712Y-78432771D02*
X157584093Y-78385152D01*
X157584093Y-78385152D02*
X157488855Y-78242295D01*
X157488855Y-78242295D02*
X157441236Y-78147057D01*
X157441236Y-78147057D02*
X157393617Y-78004200D01*
X157393617Y-78004200D02*
X157345998Y-77766104D01*
X157345998Y-77766104D02*
X157345998Y-77575628D01*
X157345998Y-77575628D02*
X157393617Y-77337533D01*
X157393617Y-77337533D02*
X157441236Y-77194676D01*
X157441236Y-77194676D02*
X157488855Y-77099438D01*
X157488855Y-77099438D02*
X157584093Y-76956580D01*
X157584093Y-76956580D02*
X157631712Y-76908961D01*
X158584093Y-77956580D02*
X158536474Y-78004200D01*
X158536474Y-78004200D02*
X158393617Y-78051819D01*
X158393617Y-78051819D02*
X158298379Y-78051819D01*
X158298379Y-78051819D02*
X158155522Y-78004200D01*
X158155522Y-78004200D02*
X158060284Y-77908961D01*
X158060284Y-77908961D02*
X158012665Y-77813723D01*
X158012665Y-77813723D02*
X157965046Y-77623247D01*
X157965046Y-77623247D02*
X157965046Y-77480390D01*
X157965046Y-77480390D02*
X158012665Y-77289914D01*
X158012665Y-77289914D02*
X158060284Y-77194676D01*
X158060284Y-77194676D02*
X158155522Y-77099438D01*
X158155522Y-77099438D02*
X158298379Y-77051819D01*
X158298379Y-77051819D02*
X158393617Y-77051819D01*
X158393617Y-77051819D02*
X158536474Y-77099438D01*
X158536474Y-77099438D02*
X158584093Y-77147057D01*
X158917427Y-78432771D02*
X158965046Y-78385152D01*
X158965046Y-78385152D02*
X159060284Y-78242295D01*
X159060284Y-78242295D02*
X159107903Y-78147057D01*
X159107903Y-78147057D02*
X159155522Y-78004200D01*
X159155522Y-78004200D02*
X159203141Y-77766104D01*
X159203141Y-77766104D02*
X159203141Y-77575628D01*
X159203141Y-77575628D02*
X159155522Y-77337533D01*
X159155522Y-77337533D02*
X159107903Y-77194676D01*
X159107903Y-77194676D02*
X159060284Y-77099438D01*
X159060284Y-77099438D02*
X158965046Y-76956580D01*
X158965046Y-76956580D02*
X158917427Y-76908961D01*
X160393618Y-77147057D02*
X160441237Y-77099438D01*
X160441237Y-77099438D02*
X160536475Y-77051819D01*
X160536475Y-77051819D02*
X160774570Y-77051819D01*
X160774570Y-77051819D02*
X160869808Y-77099438D01*
X160869808Y-77099438D02*
X160917427Y-77147057D01*
X160917427Y-77147057D02*
X160965046Y-77242295D01*
X160965046Y-77242295D02*
X160965046Y-77337533D01*
X160965046Y-77337533D02*
X160917427Y-77480390D01*
X160917427Y-77480390D02*
X160345999Y-78051819D01*
X160345999Y-78051819D02*
X160965046Y-78051819D01*
X161584094Y-77051819D02*
X161679332Y-77051819D01*
X161679332Y-77051819D02*
X161774570Y-77099438D01*
X161774570Y-77099438D02*
X161822189Y-77147057D01*
X161822189Y-77147057D02*
X161869808Y-77242295D01*
X161869808Y-77242295D02*
X161917427Y-77432771D01*
X161917427Y-77432771D02*
X161917427Y-77670866D01*
X161917427Y-77670866D02*
X161869808Y-77861342D01*
X161869808Y-77861342D02*
X161822189Y-77956580D01*
X161822189Y-77956580D02*
X161774570Y-78004200D01*
X161774570Y-78004200D02*
X161679332Y-78051819D01*
X161679332Y-78051819D02*
X161584094Y-78051819D01*
X161584094Y-78051819D02*
X161488856Y-78004200D01*
X161488856Y-78004200D02*
X161441237Y-77956580D01*
X161441237Y-77956580D02*
X161393618Y-77861342D01*
X161393618Y-77861342D02*
X161345999Y-77670866D01*
X161345999Y-77670866D02*
X161345999Y-77432771D01*
X161345999Y-77432771D02*
X161393618Y-77242295D01*
X161393618Y-77242295D02*
X161441237Y-77147057D01*
X161441237Y-77147057D02*
X161488856Y-77099438D01*
X161488856Y-77099438D02*
X161584094Y-77051819D01*
X162298380Y-77147057D02*
X162345999Y-77099438D01*
X162345999Y-77099438D02*
X162441237Y-77051819D01*
X162441237Y-77051819D02*
X162679332Y-77051819D01*
X162679332Y-77051819D02*
X162774570Y-77099438D01*
X162774570Y-77099438D02*
X162822189Y-77147057D01*
X162822189Y-77147057D02*
X162869808Y-77242295D01*
X162869808Y-77242295D02*
X162869808Y-77337533D01*
X162869808Y-77337533D02*
X162822189Y-77480390D01*
X162822189Y-77480390D02*
X162250761Y-78051819D01*
X162250761Y-78051819D02*
X162869808Y-78051819D01*
X163250761Y-77147057D02*
X163298380Y-77099438D01*
X163298380Y-77099438D02*
X163393618Y-77051819D01*
X163393618Y-77051819D02*
X163631713Y-77051819D01*
X163631713Y-77051819D02*
X163726951Y-77099438D01*
X163726951Y-77099438D02*
X163774570Y-77147057D01*
X163774570Y-77147057D02*
X163822189Y-77242295D01*
X163822189Y-77242295D02*
X163822189Y-77337533D01*
X163822189Y-77337533D02*
X163774570Y-77480390D01*
X163774570Y-77480390D02*
X163203142Y-78051819D01*
X163203142Y-78051819D02*
X163822189Y-78051819D01*
X164965047Y-77766104D02*
X165441237Y-77766104D01*
X164869809Y-78051819D02*
X165203142Y-77051819D01*
X165203142Y-77051819D02*
X165536475Y-78051819D01*
X166012666Y-78051819D02*
X165917428Y-78004200D01*
X165917428Y-78004200D02*
X165869809Y-77908961D01*
X165869809Y-77908961D02*
X165869809Y-77051819D01*
X166298381Y-77385152D02*
X166536476Y-78051819D01*
X166536476Y-78051819D02*
X166774571Y-77385152D01*
X167584095Y-78051819D02*
X167584095Y-77528009D01*
X167584095Y-77528009D02*
X167536476Y-77432771D01*
X167536476Y-77432771D02*
X167441238Y-77385152D01*
X167441238Y-77385152D02*
X167250762Y-77385152D01*
X167250762Y-77385152D02*
X167155524Y-77432771D01*
X167584095Y-78004200D02*
X167488857Y-78051819D01*
X167488857Y-78051819D02*
X167250762Y-78051819D01*
X167250762Y-78051819D02*
X167155524Y-78004200D01*
X167155524Y-78004200D02*
X167107905Y-77908961D01*
X167107905Y-77908961D02*
X167107905Y-77813723D01*
X167107905Y-77813723D02*
X167155524Y-77718485D01*
X167155524Y-77718485D02*
X167250762Y-77670866D01*
X167250762Y-77670866D02*
X167488857Y-77670866D01*
X167488857Y-77670866D02*
X167584095Y-77623247D01*
X168060286Y-78051819D02*
X168060286Y-77385152D01*
X168060286Y-77575628D02*
X168107905Y-77480390D01*
X168107905Y-77480390D02*
X168155524Y-77432771D01*
X168155524Y-77432771D02*
X168250762Y-77385152D01*
X168250762Y-77385152D02*
X168346000Y-77385152D01*
X168822191Y-78051819D02*
X168726953Y-78004200D01*
X168726953Y-78004200D02*
X168679334Y-77956580D01*
X168679334Y-77956580D02*
X168631715Y-77861342D01*
X168631715Y-77861342D02*
X168631715Y-77575628D01*
X168631715Y-77575628D02*
X168679334Y-77480390D01*
X168679334Y-77480390D02*
X168726953Y-77432771D01*
X168726953Y-77432771D02*
X168822191Y-77385152D01*
X168822191Y-77385152D02*
X168965048Y-77385152D01*
X168965048Y-77385152D02*
X169060286Y-77432771D01*
X169060286Y-77432771D02*
X169107905Y-77480390D01*
X169107905Y-77480390D02*
X169155524Y-77575628D01*
X169155524Y-77575628D02*
X169155524Y-77861342D01*
X169155524Y-77861342D02*
X169107905Y-77956580D01*
X169107905Y-77956580D02*
X169060286Y-78004200D01*
X169060286Y-78004200D02*
X168965048Y-78051819D01*
X168965048Y-78051819D02*
X168822191Y-78051819D01*
X170298382Y-77766104D02*
X170774572Y-77766104D01*
X170203144Y-78051819D02*
X170536477Y-77051819D01*
X170536477Y-77051819D02*
X170869810Y-78051819D01*
X171346001Y-78051819D02*
X171250763Y-78004200D01*
X171250763Y-78004200D02*
X171203144Y-77908961D01*
X171203144Y-77908961D02*
X171203144Y-77051819D01*
X172107906Y-78004200D02*
X172012668Y-78051819D01*
X172012668Y-78051819D02*
X171822192Y-78051819D01*
X171822192Y-78051819D02*
X171726954Y-78004200D01*
X171726954Y-78004200D02*
X171679335Y-77908961D01*
X171679335Y-77908961D02*
X171679335Y-77528009D01*
X171679335Y-77528009D02*
X171726954Y-77432771D01*
X171726954Y-77432771D02*
X171822192Y-77385152D01*
X171822192Y-77385152D02*
X172012668Y-77385152D01*
X172012668Y-77385152D02*
X172107906Y-77432771D01*
X172107906Y-77432771D02*
X172155525Y-77528009D01*
X172155525Y-77528009D02*
X172155525Y-77623247D01*
X172155525Y-77623247D02*
X171679335Y-77718485D01*
X173012668Y-78051819D02*
X173012668Y-77528009D01*
X173012668Y-77528009D02*
X172965049Y-77432771D01*
X172965049Y-77432771D02*
X172869811Y-77385152D01*
X172869811Y-77385152D02*
X172679335Y-77385152D01*
X172679335Y-77385152D02*
X172584097Y-77432771D01*
X173012668Y-78004200D02*
X172917430Y-78051819D01*
X172917430Y-78051819D02*
X172679335Y-78051819D01*
X172679335Y-78051819D02*
X172584097Y-78004200D01*
X172584097Y-78004200D02*
X172536478Y-77908961D01*
X172536478Y-77908961D02*
X172536478Y-77813723D01*
X172536478Y-77813723D02*
X172584097Y-77718485D01*
X172584097Y-77718485D02*
X172679335Y-77670866D01*
X172679335Y-77670866D02*
X172917430Y-77670866D01*
X172917430Y-77670866D02*
X173012668Y-77623247D01*
X174584097Y-77528009D02*
X174250764Y-77528009D01*
X174250764Y-78051819D02*
X174250764Y-77051819D01*
X174250764Y-77051819D02*
X174726954Y-77051819D01*
X175536478Y-78051819D02*
X175536478Y-77051819D01*
X175536478Y-78004200D02*
X175441240Y-78051819D01*
X175441240Y-78051819D02*
X175250764Y-78051819D01*
X175250764Y-78051819D02*
X175155526Y-78004200D01*
X175155526Y-78004200D02*
X175107907Y-77956580D01*
X175107907Y-77956580D02*
X175060288Y-77861342D01*
X175060288Y-77861342D02*
X175060288Y-77575628D01*
X175060288Y-77575628D02*
X175107907Y-77480390D01*
X175107907Y-77480390D02*
X175155526Y-77432771D01*
X175155526Y-77432771D02*
X175250764Y-77385152D01*
X175250764Y-77385152D02*
X175441240Y-77385152D01*
X175441240Y-77385152D02*
X175536478Y-77432771D01*
X175917431Y-77385152D02*
X176441240Y-77385152D01*
X176441240Y-77385152D02*
X175917431Y-78051819D01*
X175917431Y-78051819D02*
X176441240Y-78051819D01*
X96704819Y-82248333D02*
X97419104Y-82248333D01*
X97419104Y-82248333D02*
X97561961Y-82295952D01*
X97561961Y-82295952D02*
X97657200Y-82391190D01*
X97657200Y-82391190D02*
X97704819Y-82534047D01*
X97704819Y-82534047D02*
X97704819Y-82629285D01*
X96800057Y-81819761D02*
X96752438Y-81772142D01*
X96752438Y-81772142D02*
X96704819Y-81676904D01*
X96704819Y-81676904D02*
X96704819Y-81438809D01*
X96704819Y-81438809D02*
X96752438Y-81343571D01*
X96752438Y-81343571D02*
X96800057Y-81295952D01*
X96800057Y-81295952D02*
X96895295Y-81248333D01*
X96895295Y-81248333D02*
X96990533Y-81248333D01*
X96990533Y-81248333D02*
X97133390Y-81295952D01*
X97133390Y-81295952D02*
X97704819Y-81867380D01*
X97704819Y-81867380D02*
X97704819Y-81248333D01*
X96704819Y-59388333D02*
X97419104Y-59388333D01*
X97419104Y-59388333D02*
X97561961Y-59435952D01*
X97561961Y-59435952D02*
X97657200Y-59531190D01*
X97657200Y-59531190D02*
X97704819Y-59674047D01*
X97704819Y-59674047D02*
X97704819Y-59769285D01*
X97704819Y-58388333D02*
X97704819Y-58959761D01*
X97704819Y-58674047D02*
X96704819Y-58674047D01*
X96704819Y-58674047D02*
X96847676Y-58769285D01*
X96847676Y-58769285D02*
X96942914Y-58864523D01*
X96942914Y-58864523D02*
X96990533Y-58959761D01*
X183699819Y-81478333D02*
X184414104Y-81478333D01*
X184414104Y-81478333D02*
X184556961Y-81525952D01*
X184556961Y-81525952D02*
X184652200Y-81621190D01*
X184652200Y-81621190D02*
X184699819Y-81764047D01*
X184699819Y-81764047D02*
X184699819Y-81859285D01*
X184699819Y-81002142D02*
X183699819Y-81002142D01*
X183699819Y-81002142D02*
X183699819Y-80621190D01*
X183699819Y-80621190D02*
X183747438Y-80525952D01*
X183747438Y-80525952D02*
X183795057Y-80478333D01*
X183795057Y-80478333D02*
X183890295Y-80430714D01*
X183890295Y-80430714D02*
X184033152Y-80430714D01*
X184033152Y-80430714D02*
X184128390Y-80478333D01*
X184128390Y-80478333D02*
X184176009Y-80525952D01*
X184176009Y-80525952D02*
X184223628Y-80621190D01*
X184223628Y-80621190D02*
X184223628Y-81002142D01*
X184699819Y-79478333D02*
X184699819Y-80049761D01*
X184699819Y-79764047D02*
X183699819Y-79764047D01*
X183699819Y-79764047D02*
X183842676Y-79859285D01*
X183842676Y-79859285D02*
X183937914Y-79954523D01*
X183937914Y-79954523D02*
X183985533Y-80049761D01*
X108134819Y-64841904D02*
X108944342Y-64841904D01*
X108944342Y-64841904D02*
X109039580Y-64794285D01*
X109039580Y-64794285D02*
X109087200Y-64746666D01*
X109087200Y-64746666D02*
X109134819Y-64651428D01*
X109134819Y-64651428D02*
X109134819Y-64460952D01*
X109134819Y-64460952D02*
X109087200Y-64365714D01*
X109087200Y-64365714D02*
X109039580Y-64318095D01*
X109039580Y-64318095D02*
X108944342Y-64270476D01*
X108944342Y-64270476D02*
X108134819Y-64270476D01*
X108134819Y-63889523D02*
X108134819Y-63270476D01*
X108134819Y-63270476D02*
X108515771Y-63603809D01*
X108515771Y-63603809D02*
X108515771Y-63460952D01*
X108515771Y-63460952D02*
X108563390Y-63365714D01*
X108563390Y-63365714D02*
X108611009Y-63318095D01*
X108611009Y-63318095D02*
X108706247Y-63270476D01*
X108706247Y-63270476D02*
X108944342Y-63270476D01*
X108944342Y-63270476D02*
X109039580Y-63318095D01*
X109039580Y-63318095D02*
X109087200Y-63365714D01*
X109087200Y-63365714D02*
X109134819Y-63460952D01*
X109134819Y-63460952D02*
X109134819Y-63746666D01*
X109134819Y-63746666D02*
X109087200Y-63841904D01*
X109087200Y-63841904D02*
X109039580Y-63889523D01*
X95704580Y-63666666D02*
X95752200Y-63714285D01*
X95752200Y-63714285D02*
X95799819Y-63857142D01*
X95799819Y-63857142D02*
X95799819Y-63952380D01*
X95799819Y-63952380D02*
X95752200Y-64095237D01*
X95752200Y-64095237D02*
X95656961Y-64190475D01*
X95656961Y-64190475D02*
X95561723Y-64238094D01*
X95561723Y-64238094D02*
X95371247Y-64285713D01*
X95371247Y-64285713D02*
X95228390Y-64285713D01*
X95228390Y-64285713D02*
X95037914Y-64238094D01*
X95037914Y-64238094D02*
X94942676Y-64190475D01*
X94942676Y-64190475D02*
X94847438Y-64095237D01*
X94847438Y-64095237D02*
X94799819Y-63952380D01*
X94799819Y-63952380D02*
X94799819Y-63857142D01*
X94799819Y-63857142D02*
X94847438Y-63714285D01*
X94847438Y-63714285D02*
X94895057Y-63666666D01*
X95799819Y-62714285D02*
X95799819Y-63285713D01*
X95799819Y-62999999D02*
X94799819Y-62999999D01*
X94799819Y-62999999D02*
X94942676Y-63095237D01*
X94942676Y-63095237D02*
X95037914Y-63190475D01*
X95037914Y-63190475D02*
X95085533Y-63285713D01*
X153108580Y-67476666D02*
X153156200Y-67524285D01*
X153156200Y-67524285D02*
X153203819Y-67667142D01*
X153203819Y-67667142D02*
X153203819Y-67762380D01*
X153203819Y-67762380D02*
X153156200Y-67905237D01*
X153156200Y-67905237D02*
X153060961Y-68000475D01*
X153060961Y-68000475D02*
X152965723Y-68048094D01*
X152965723Y-68048094D02*
X152775247Y-68095713D01*
X152775247Y-68095713D02*
X152632390Y-68095713D01*
X152632390Y-68095713D02*
X152441914Y-68048094D01*
X152441914Y-68048094D02*
X152346676Y-68000475D01*
X152346676Y-68000475D02*
X152251438Y-67905237D01*
X152251438Y-67905237D02*
X152203819Y-67762380D01*
X152203819Y-67762380D02*
X152203819Y-67667142D01*
X152203819Y-67667142D02*
X152251438Y-67524285D01*
X152251438Y-67524285D02*
X152299057Y-67476666D01*
X152537152Y-66619523D02*
X153203819Y-66619523D01*
X152156200Y-66857618D02*
X152870485Y-67095713D01*
X152870485Y-67095713D02*
X152870485Y-66476666D01*
X115389580Y-64301666D02*
X115437200Y-64349285D01*
X115437200Y-64349285D02*
X115484819Y-64492142D01*
X115484819Y-64492142D02*
X115484819Y-64587380D01*
X115484819Y-64587380D02*
X115437200Y-64730237D01*
X115437200Y-64730237D02*
X115341961Y-64825475D01*
X115341961Y-64825475D02*
X115246723Y-64873094D01*
X115246723Y-64873094D02*
X115056247Y-64920713D01*
X115056247Y-64920713D02*
X114913390Y-64920713D01*
X114913390Y-64920713D02*
X114722914Y-64873094D01*
X114722914Y-64873094D02*
X114627676Y-64825475D01*
X114627676Y-64825475D02*
X114532438Y-64730237D01*
X114532438Y-64730237D02*
X114484819Y-64587380D01*
X114484819Y-64587380D02*
X114484819Y-64492142D01*
X114484819Y-64492142D02*
X114532438Y-64349285D01*
X114532438Y-64349285D02*
X114580057Y-64301666D01*
X114580057Y-63920713D02*
X114532438Y-63873094D01*
X114532438Y-63873094D02*
X114484819Y-63777856D01*
X114484819Y-63777856D02*
X114484819Y-63539761D01*
X114484819Y-63539761D02*
X114532438Y-63444523D01*
X114532438Y-63444523D02*
X114580057Y-63396904D01*
X114580057Y-63396904D02*
X114675295Y-63349285D01*
X114675295Y-63349285D02*
X114770533Y-63349285D01*
X114770533Y-63349285D02*
X114913390Y-63396904D01*
X114913390Y-63396904D02*
X115484819Y-63968332D01*
X115484819Y-63968332D02*
X115484819Y-63349285D01*
X123009580Y-64301666D02*
X123057200Y-64349285D01*
X123057200Y-64349285D02*
X123104819Y-64492142D01*
X123104819Y-64492142D02*
X123104819Y-64587380D01*
X123104819Y-64587380D02*
X123057200Y-64730237D01*
X123057200Y-64730237D02*
X122961961Y-64825475D01*
X122961961Y-64825475D02*
X122866723Y-64873094D01*
X122866723Y-64873094D02*
X122676247Y-64920713D01*
X122676247Y-64920713D02*
X122533390Y-64920713D01*
X122533390Y-64920713D02*
X122342914Y-64873094D01*
X122342914Y-64873094D02*
X122247676Y-64825475D01*
X122247676Y-64825475D02*
X122152438Y-64730237D01*
X122152438Y-64730237D02*
X122104819Y-64587380D01*
X122104819Y-64587380D02*
X122104819Y-64492142D01*
X122104819Y-64492142D02*
X122152438Y-64349285D01*
X122152438Y-64349285D02*
X122200057Y-64301666D01*
X122104819Y-63968332D02*
X122104819Y-63349285D01*
X122104819Y-63349285D02*
X122485771Y-63682618D01*
X122485771Y-63682618D02*
X122485771Y-63539761D01*
X122485771Y-63539761D02*
X122533390Y-63444523D01*
X122533390Y-63444523D02*
X122581009Y-63396904D01*
X122581009Y-63396904D02*
X122676247Y-63349285D01*
X122676247Y-63349285D02*
X122914342Y-63349285D01*
X122914342Y-63349285D02*
X123009580Y-63396904D01*
X123009580Y-63396904D02*
X123057200Y-63444523D01*
X123057200Y-63444523D02*
X123104819Y-63539761D01*
X123104819Y-63539761D02*
X123104819Y-63825475D01*
X123104819Y-63825475D02*
X123057200Y-63920713D01*
X123057200Y-63920713D02*
X123009580Y-63968332D01*
X188119819Y-69096666D02*
X187643628Y-69429999D01*
X188119819Y-69668094D02*
X187119819Y-69668094D01*
X187119819Y-69668094D02*
X187119819Y-69287142D01*
X187119819Y-69287142D02*
X187167438Y-69191904D01*
X187167438Y-69191904D02*
X187215057Y-69144285D01*
X187215057Y-69144285D02*
X187310295Y-69096666D01*
X187310295Y-69096666D02*
X187453152Y-69096666D01*
X187453152Y-69096666D02*
X187548390Y-69144285D01*
X187548390Y-69144285D02*
X187596009Y-69191904D01*
X187596009Y-69191904D02*
X187643628Y-69287142D01*
X187643628Y-69287142D02*
X187643628Y-69668094D01*
X187215057Y-68715713D02*
X187167438Y-68668094D01*
X187167438Y-68668094D02*
X187119819Y-68572856D01*
X187119819Y-68572856D02*
X187119819Y-68334761D01*
X187119819Y-68334761D02*
X187167438Y-68239523D01*
X187167438Y-68239523D02*
X187215057Y-68191904D01*
X187215057Y-68191904D02*
X187310295Y-68144285D01*
X187310295Y-68144285D02*
X187405533Y-68144285D01*
X187405533Y-68144285D02*
X187548390Y-68191904D01*
X187548390Y-68191904D02*
X188119819Y-68763332D01*
X188119819Y-68763332D02*
X188119819Y-68144285D01*
X186874819Y-81478333D02*
X187589104Y-81478333D01*
X187589104Y-81478333D02*
X187731961Y-81525952D01*
X187731961Y-81525952D02*
X187827200Y-81621190D01*
X187827200Y-81621190D02*
X187874819Y-81764047D01*
X187874819Y-81764047D02*
X187874819Y-81859285D01*
X187874819Y-81002142D02*
X186874819Y-81002142D01*
X186874819Y-81002142D02*
X186874819Y-80621190D01*
X186874819Y-80621190D02*
X186922438Y-80525952D01*
X186922438Y-80525952D02*
X186970057Y-80478333D01*
X186970057Y-80478333D02*
X187065295Y-80430714D01*
X187065295Y-80430714D02*
X187208152Y-80430714D01*
X187208152Y-80430714D02*
X187303390Y-80478333D01*
X187303390Y-80478333D02*
X187351009Y-80525952D01*
X187351009Y-80525952D02*
X187398628Y-80621190D01*
X187398628Y-80621190D02*
X187398628Y-81002142D01*
X186970057Y-80049761D02*
X186922438Y-80002142D01*
X186922438Y-80002142D02*
X186874819Y-79906904D01*
X186874819Y-79906904D02*
X186874819Y-79668809D01*
X186874819Y-79668809D02*
X186922438Y-79573571D01*
X186922438Y-79573571D02*
X186970057Y-79525952D01*
X186970057Y-79525952D02*
X187065295Y-79478333D01*
X187065295Y-79478333D02*
X187160533Y-79478333D01*
X187160533Y-79478333D02*
X187303390Y-79525952D01*
X187303390Y-79525952D02*
X187874819Y-80097380D01*
X187874819Y-80097380D02*
X187874819Y-79478333D01*
X155339819Y-73278904D02*
X156149342Y-73278904D01*
X156149342Y-73278904D02*
X156244580Y-73231285D01*
X156244580Y-73231285D02*
X156292200Y-73183666D01*
X156292200Y-73183666D02*
X156339819Y-73088428D01*
X156339819Y-73088428D02*
X156339819Y-72897952D01*
X156339819Y-72897952D02*
X156292200Y-72802714D01*
X156292200Y-72802714D02*
X156244580Y-72755095D01*
X156244580Y-72755095D02*
X156149342Y-72707476D01*
X156149342Y-72707476D02*
X155339819Y-72707476D01*
X155435057Y-72278904D02*
X155387438Y-72231285D01*
X155387438Y-72231285D02*
X155339819Y-72136047D01*
X155339819Y-72136047D02*
X155339819Y-71897952D01*
X155339819Y-71897952D02*
X155387438Y-71802714D01*
X155387438Y-71802714D02*
X155435057Y-71755095D01*
X155435057Y-71755095D02*
X155530295Y-71707476D01*
X155530295Y-71707476D02*
X155625533Y-71707476D01*
X155625533Y-71707476D02*
X155768390Y-71755095D01*
X155768390Y-71755095D02*
X156339819Y-72326523D01*
X156339819Y-72326523D02*
X156339819Y-71707476D01*
X184829819Y-69096666D02*
X184353628Y-69429999D01*
X184829819Y-69668094D02*
X183829819Y-69668094D01*
X183829819Y-69668094D02*
X183829819Y-69287142D01*
X183829819Y-69287142D02*
X183877438Y-69191904D01*
X183877438Y-69191904D02*
X183925057Y-69144285D01*
X183925057Y-69144285D02*
X184020295Y-69096666D01*
X184020295Y-69096666D02*
X184163152Y-69096666D01*
X184163152Y-69096666D02*
X184258390Y-69144285D01*
X184258390Y-69144285D02*
X184306009Y-69191904D01*
X184306009Y-69191904D02*
X184353628Y-69287142D01*
X184353628Y-69287142D02*
X184353628Y-69668094D01*
X184829819Y-68144285D02*
X184829819Y-68715713D01*
X184829819Y-68429999D02*
X183829819Y-68429999D01*
X183829819Y-68429999D02*
X183972676Y-68525237D01*
X183972676Y-68525237D02*
X184067914Y-68620475D01*
X184067914Y-68620475D02*
X184115533Y-68715713D01*
X126144819Y-71246904D02*
X126954342Y-71246904D01*
X126954342Y-71246904D02*
X127049580Y-71199285D01*
X127049580Y-71199285D02*
X127097200Y-71151666D01*
X127097200Y-71151666D02*
X127144819Y-71056428D01*
X127144819Y-71056428D02*
X127144819Y-70865952D01*
X127144819Y-70865952D02*
X127097200Y-70770714D01*
X127097200Y-70770714D02*
X127049580Y-70723095D01*
X127049580Y-70723095D02*
X126954342Y-70675476D01*
X126954342Y-70675476D02*
X126144819Y-70675476D01*
X127144819Y-69675476D02*
X127144819Y-70246904D01*
X127144819Y-69961190D02*
X126144819Y-69961190D01*
X126144819Y-69961190D02*
X126287676Y-70056428D01*
X126287676Y-70056428D02*
X126382914Y-70151666D01*
X126382914Y-70151666D02*
X126430533Y-70246904D01*
D12*
%TO.C,J2*%
X188960000Y-88485000D02*
X188960000Y-82925000D01*
X188960000Y-82925000D02*
X183440000Y-82925000D01*
X183441000Y-83925000D02*
X182165000Y-83925000D01*
X183440000Y-82925000D02*
X183440000Y-83925000D01*
X182765000Y-83485000D02*
X182765000Y-82885000D01*
X182765000Y-82885000D02*
X182165000Y-83185000D01*
X182165000Y-83185000D02*
X182765000Y-83485000D01*
X179390000Y-83925000D02*
X180191000Y-83925000D01*
X176850000Y-83925000D02*
X177651000Y-83925000D01*
X174310000Y-83925000D02*
X175111000Y-83925000D01*
X171770000Y-83925000D02*
X172571000Y-83925000D01*
X169230000Y-83925000D02*
X170031000Y-83925000D01*
X166690000Y-83925000D02*
X167491000Y-83925000D01*
X164150000Y-83925000D02*
X164951000Y-83925000D01*
X161610000Y-83925000D02*
X162411000Y-83925000D01*
X159070000Y-83925000D02*
X159871000Y-83925000D01*
X156530000Y-83925000D02*
X157331000Y-83925000D01*
X153990000Y-83925000D02*
X154791000Y-83925000D01*
X151450000Y-83925000D02*
X152251000Y-83925000D01*
X148910000Y-83925000D02*
X149711000Y-83925000D01*
X146370000Y-83925000D02*
X147171000Y-83925000D01*
X143830000Y-83925000D02*
X144631000Y-83925000D01*
X141290000Y-83925000D02*
X142091000Y-83925000D01*
X138750000Y-83925000D02*
X139551000Y-83925000D01*
X136210000Y-83925000D02*
X137011000Y-83925000D01*
X133670000Y-83925000D02*
X134471000Y-83925000D01*
X131130000Y-83925000D02*
X131931000Y-83925000D01*
X128590000Y-83925000D02*
X129391000Y-83925000D01*
X126050000Y-83925000D02*
X126851000Y-83925000D01*
X123510000Y-83925000D02*
X124311000Y-83925000D01*
X120970000Y-83925000D02*
X121771000Y-83925000D01*
X118430000Y-83925000D02*
X119231000Y-83925000D01*
X115890000Y-83925000D02*
X116691000Y-83925000D01*
X113350000Y-83925000D02*
X114151000Y-83925000D01*
X110810000Y-83925000D02*
X111611000Y-83925000D01*
X108270000Y-83925000D02*
X109071000Y-83925000D01*
X105730000Y-83925000D02*
X106531000Y-83925000D01*
X103415000Y-83925000D02*
X103991000Y-83925000D01*
X101460000Y-83925000D02*
X99960000Y-83925000D01*
X99960000Y-82925000D02*
X99960000Y-83925000D01*
X94440000Y-88485000D02*
X94440000Y-82925000D01*
X94440000Y-82925000D02*
X99960000Y-82925000D01*
%TO.C,J1*%
X94440000Y-52485000D02*
X94440000Y-58045000D01*
X94440000Y-58045000D02*
X99960000Y-58045000D01*
X99959000Y-57045000D02*
X101235000Y-57045000D01*
X99960000Y-58045000D02*
X99960000Y-57045000D01*
X103425000Y-57045000D02*
X104001000Y-57045000D01*
X105740000Y-57045000D02*
X106541000Y-57045000D01*
X108280000Y-57045000D02*
X109081000Y-57045000D01*
X110820000Y-57045000D02*
X111621000Y-57045000D01*
X114160000Y-57045000D02*
X113359000Y-57045000D01*
X116700000Y-57045000D02*
X115899000Y-57045000D01*
X119240000Y-57045000D02*
X118439000Y-57045000D01*
X121780000Y-57045000D02*
X120979000Y-57045000D01*
X124320000Y-57045000D02*
X123519000Y-57045000D01*
X126860000Y-57045000D02*
X126059000Y-57045000D01*
X129400000Y-57045000D02*
X128599000Y-57045000D01*
X131940000Y-57045000D02*
X131139000Y-57045000D01*
X134480000Y-57045000D02*
X133679000Y-57045000D01*
X137020000Y-57045000D02*
X136219000Y-57045000D01*
X139560000Y-57045000D02*
X138759000Y-57045000D01*
X142100000Y-57045000D02*
X141299000Y-57045000D01*
X144640000Y-57045000D02*
X143839000Y-57045000D01*
X147180000Y-57045000D02*
X146379000Y-57045000D01*
X149720000Y-57045000D02*
X148919000Y-57045000D01*
X152260000Y-57045000D02*
X151459000Y-57045000D01*
X154800000Y-57045000D02*
X153999000Y-57045000D01*
X157340000Y-57045000D02*
X156539000Y-57045000D01*
X159880000Y-57045000D02*
X159079000Y-57045000D01*
X162420000Y-57045000D02*
X161619000Y-57045000D01*
X164960000Y-57045000D02*
X164159000Y-57045000D01*
X167500000Y-57045000D02*
X166699000Y-57045000D01*
X170040000Y-57045000D02*
X169239000Y-57045000D01*
X171780000Y-57045000D02*
X172581000Y-57045000D01*
X174320000Y-57045000D02*
X175121000Y-57045000D01*
X176860000Y-57045000D02*
X177661000Y-57045000D01*
X179400000Y-57045000D02*
X180201000Y-57045000D01*
X181940000Y-57045000D02*
X183440000Y-57045000D01*
X182340000Y-57785000D02*
X182940000Y-57485000D01*
X182940000Y-57485000D02*
X182940000Y-58085000D01*
X182940000Y-58085000D02*
X182340000Y-57785000D01*
X183440000Y-58045000D02*
X183440000Y-57045000D01*
X188960000Y-52485000D02*
X188960000Y-58045000D01*
X188960000Y-58045000D02*
X183440000Y-58045000D01*
%TO.C,JP1*%
X183245000Y-78855000D02*
X183245000Y-76055000D01*
X185245000Y-78855000D02*
X183245000Y-78855000D01*
X185245000Y-76055000D02*
X185245000Y-78855000D01*
X183245000Y-76055000D02*
X185245000Y-76055000D01*
%TO.C,U3*%
X110590000Y-71990000D02*
X110590000Y-70730000D01*
X104580000Y-65170000D02*
X110590000Y-65170000D01*
X106830000Y-71990000D02*
X110590000Y-71990000D01*
X110590000Y-65170000D02*
X110590000Y-66430000D01*
%TO.C,C1*%
X95110000Y-71355000D02*
X97460000Y-71355000D01*
X100367500Y-63507500D02*
X100367500Y-64295000D01*
X100865563Y-64535000D02*
X99580000Y-64535000D01*
X100865563Y-64535000D02*
X101930000Y-65599437D01*
X101930000Y-65599437D02*
X101930000Y-71355000D01*
X96174437Y-64535000D02*
X95110000Y-65599437D01*
X100761250Y-63901250D02*
X99973750Y-63901250D01*
X96174437Y-64535000D02*
X97460000Y-64535000D01*
X101930000Y-71355000D02*
X99580000Y-71355000D01*
X95110000Y-65599437D02*
X95110000Y-71355000D01*
%TO.C,C4*%
X155564000Y-67576248D02*
X155564000Y-68998752D01*
X153744000Y-67576248D02*
X153744000Y-68998752D01*
%TO.C,C2*%
X120446250Y-64536250D02*
X119658750Y-64536250D01*
X120550563Y-65170000D02*
X121615000Y-66234437D01*
X114795000Y-66234437D02*
X114795000Y-71990000D01*
X121615000Y-71990000D02*
X119265000Y-71990000D01*
X120550563Y-65170000D02*
X119265000Y-65170000D01*
X120052500Y-64142500D02*
X120052500Y-64930000D01*
X121615000Y-66234437D02*
X121615000Y-71990000D01*
X115859437Y-65170000D02*
X117145000Y-65170000D01*
X115859437Y-65170000D02*
X114795000Y-66234437D01*
X114795000Y-71990000D02*
X117145000Y-71990000D01*
%TO.C,C3*%
X123645000Y-64693748D02*
X123645000Y-66116252D01*
X125465000Y-64693748D02*
X125465000Y-66116252D01*
%TO.C,R2*%
X186510000Y-71942936D02*
X186510000Y-73397064D01*
X188330000Y-71942936D02*
X188330000Y-73397064D01*
%TO.C,JP2*%
X186420000Y-76070000D02*
X188420000Y-76070000D01*
X188420000Y-76070000D02*
X188420000Y-78870000D01*
X186420000Y-78870000D02*
X186420000Y-76070000D01*
X188420000Y-78870000D02*
X186420000Y-78870000D01*
%TO.C,U2*%
X156885000Y-68250000D02*
X156885000Y-69500000D01*
X156885000Y-72750000D02*
X182405000Y-72750000D01*
X182405000Y-68250000D02*
X156885000Y-68250000D01*
X182405000Y-72750000D02*
X182405000Y-68250000D01*
X156885000Y-71500000D02*
X156885000Y-72750000D01*
X156885000Y-71500000D02*
G75*
G03*
X156885000Y-69500000I0J1000000D01*
G01*
%TO.C,R1*%
X183335000Y-71942936D02*
X183335000Y-73397064D01*
X185155000Y-71942936D02*
X185155000Y-73397064D01*
%TO.C,U1*%
X127532500Y-70485000D02*
X127532500Y-76247500D01*
X148247500Y-76247500D02*
X147975000Y-76247500D01*
X148247500Y-70485000D02*
X148247500Y-76247500D01*
X148247500Y-70485000D02*
X148247500Y-64722500D01*
X127532500Y-70485000D02*
X127532500Y-64722500D01*
X127805000Y-76247500D02*
X127805000Y-78060000D01*
X127532500Y-76247500D02*
X127805000Y-76247500D01*
X127532500Y-64722500D02*
X127805000Y-64722500D01*
X148247500Y-64722500D02*
X147975000Y-64722500D01*
%TD*%
M02*
