%TF.GenerationSoftware,KiCad,Pcbnew,6.0.4-6f826c9f35~116~ubuntu21.10.1*%
%TF.CreationDate,2022-07-15T23:33:15+02:00*%
%TF.ProjectId,qlexternal512kram_MIX,716c6578-7465-4726-9e61-6c3531326b72,0.1*%
%TF.SameCoordinates,Original*%
%TF.FileFunction,Legend,Bot*%
%TF.FilePolarity,Positive*%
%FSLAX46Y46*%
G04 Gerber Fmt 4.6, Leading zero omitted, Abs format (unit mm)*
G04 Created by KiCad (PCBNEW 6.0.4-6f826c9f35~116~ubuntu21.10.1) date 2022-07-15 23:33:15*
%MOMM*%
%LPD*%
G01*
G04 APERTURE LIST*
%ADD10C,0.150000*%
%ADD11C,0.010000*%
G04 APERTURE END LIST*
D10*
X118680000Y-72672380D02*
X119156190Y-72672380D01*
X119156190Y-71672380D01*
X118346666Y-72672380D02*
X118346666Y-72005714D01*
X118346666Y-71672380D02*
X118394285Y-71720000D01*
X118346666Y-71767619D01*
X118299047Y-71720000D01*
X118346666Y-71672380D01*
X118346666Y-71767619D01*
X117441904Y-72624761D02*
X117537142Y-72672380D01*
X117727619Y-72672380D01*
X117822857Y-72624761D01*
X117870476Y-72577142D01*
X117918095Y-72481904D01*
X117918095Y-72196190D01*
X117870476Y-72100952D01*
X117822857Y-72053333D01*
X117727619Y-72005714D01*
X117537142Y-72005714D01*
X117441904Y-72053333D01*
X116632380Y-72624761D02*
X116727619Y-72672380D01*
X116918095Y-72672380D01*
X117013333Y-72624761D01*
X117060952Y-72529523D01*
X117060952Y-72148571D01*
X117013333Y-72053333D01*
X116918095Y-72005714D01*
X116727619Y-72005714D01*
X116632380Y-72053333D01*
X116584761Y-72148571D01*
X116584761Y-72243809D01*
X117060952Y-72339047D01*
X116156190Y-72005714D02*
X116156190Y-72672380D01*
X116156190Y-72100952D02*
X116108571Y-72053333D01*
X116013333Y-72005714D01*
X115870476Y-72005714D01*
X115775238Y-72053333D01*
X115727619Y-72148571D01*
X115727619Y-72672380D01*
X115299047Y-72624761D02*
X115203809Y-72672380D01*
X115013333Y-72672380D01*
X114918095Y-72624761D01*
X114870476Y-72529523D01*
X114870476Y-72481904D01*
X114918095Y-72386666D01*
X115013333Y-72339047D01*
X115156190Y-72339047D01*
X115251428Y-72291428D01*
X115299047Y-72196190D01*
X115299047Y-72148571D01*
X115251428Y-72053333D01*
X115156190Y-72005714D01*
X115013333Y-72005714D01*
X114918095Y-72053333D01*
X114060952Y-72624761D02*
X114156190Y-72672380D01*
X114346666Y-72672380D01*
X114441904Y-72624761D01*
X114489523Y-72529523D01*
X114489523Y-72148571D01*
X114441904Y-72053333D01*
X114346666Y-72005714D01*
X114156190Y-72005714D01*
X114060952Y-72053333D01*
X114013333Y-72148571D01*
X114013333Y-72243809D01*
X114489523Y-72339047D01*
X113156190Y-72672380D02*
X113156190Y-71672380D01*
X113156190Y-72624761D02*
X113251428Y-72672380D01*
X113441904Y-72672380D01*
X113537142Y-72624761D01*
X113584761Y-72577142D01*
X113632380Y-72481904D01*
X113632380Y-72196190D01*
X113584761Y-72100952D01*
X113537142Y-72053333D01*
X113441904Y-72005714D01*
X113251428Y-72005714D01*
X113156190Y-72053333D01*
X111489523Y-72005714D02*
X111489523Y-72672380D01*
X111918095Y-72005714D02*
X111918095Y-72529523D01*
X111870476Y-72624761D01*
X111775238Y-72672380D01*
X111632380Y-72672380D01*
X111537142Y-72624761D01*
X111489523Y-72577142D01*
X111013333Y-72005714D02*
X111013333Y-72672380D01*
X111013333Y-72100952D02*
X110965714Y-72053333D01*
X110870476Y-72005714D01*
X110727619Y-72005714D01*
X110632380Y-72053333D01*
X110584761Y-72148571D01*
X110584761Y-72672380D01*
X109680000Y-72672380D02*
X109680000Y-71672380D01*
X109680000Y-72624761D02*
X109775238Y-72672380D01*
X109965714Y-72672380D01*
X110060952Y-72624761D01*
X110108571Y-72577142D01*
X110156190Y-72481904D01*
X110156190Y-72196190D01*
X110108571Y-72100952D01*
X110060952Y-72053333D01*
X109965714Y-72005714D01*
X109775238Y-72005714D01*
X109680000Y-72053333D01*
X108822857Y-72624761D02*
X108918095Y-72672380D01*
X109108571Y-72672380D01*
X109203809Y-72624761D01*
X109251428Y-72529523D01*
X109251428Y-72148571D01*
X109203809Y-72053333D01*
X109108571Y-72005714D01*
X108918095Y-72005714D01*
X108822857Y-72053333D01*
X108775238Y-72148571D01*
X108775238Y-72243809D01*
X109251428Y-72339047D01*
X108346666Y-72672380D02*
X108346666Y-72005714D01*
X108346666Y-72196190D02*
X108299047Y-72100952D01*
X108251428Y-72053333D01*
X108156190Y-72005714D01*
X108060952Y-72005714D01*
X106394285Y-72577142D02*
X106441904Y-72624761D01*
X106584761Y-72672380D01*
X106680000Y-72672380D01*
X106822857Y-72624761D01*
X106918095Y-72529523D01*
X106965714Y-72434285D01*
X107013333Y-72243809D01*
X107013333Y-72100952D01*
X106965714Y-71910476D01*
X106918095Y-71815238D01*
X106822857Y-71720000D01*
X106680000Y-71672380D01*
X106584761Y-71672380D01*
X106441904Y-71720000D01*
X106394285Y-71767619D01*
X105584761Y-72624761D02*
X105680000Y-72672380D01*
X105870476Y-72672380D01*
X105965714Y-72624761D01*
X106013333Y-72529523D01*
X106013333Y-72148571D01*
X105965714Y-72053333D01*
X105870476Y-72005714D01*
X105680000Y-72005714D01*
X105584761Y-72053333D01*
X105537142Y-72148571D01*
X105537142Y-72243809D01*
X106013333Y-72339047D01*
X105108571Y-72672380D02*
X105108571Y-72005714D01*
X105108571Y-72196190D02*
X105060952Y-72100952D01*
X105013333Y-72053333D01*
X104918095Y-72005714D01*
X104822857Y-72005714D01*
X104489523Y-72005714D02*
X104489523Y-72672380D01*
X104489523Y-72100952D02*
X104441904Y-72053333D01*
X104346666Y-72005714D01*
X104203809Y-72005714D01*
X104108571Y-72053333D01*
X104060952Y-72148571D01*
X104060952Y-72672380D01*
X102632380Y-71672380D02*
X102441904Y-71672380D01*
X102346666Y-71720000D01*
X102251428Y-71815238D01*
X102203809Y-72005714D01*
X102203809Y-72339047D01*
X102251428Y-72529523D01*
X102346666Y-72624761D01*
X102441904Y-72672380D01*
X102632380Y-72672380D01*
X102727619Y-72624761D01*
X102822857Y-72529523D01*
X102870476Y-72339047D01*
X102870476Y-72005714D01*
X102822857Y-71815238D01*
X102727619Y-71720000D01*
X102632380Y-71672380D01*
X101775238Y-72672380D02*
X101775238Y-71672380D01*
X101775238Y-72148571D02*
X101203809Y-72148571D01*
X101203809Y-72672380D02*
X101203809Y-71672380D01*
X100251428Y-72672380D02*
X100727619Y-72672380D01*
X100727619Y-71672380D01*
X99918095Y-72291428D02*
X99156190Y-72291428D01*
X98727619Y-72624761D02*
X98584761Y-72672380D01*
X98346666Y-72672380D01*
X98251428Y-72624761D01*
X98203809Y-72577142D01*
X98156190Y-72481904D01*
X98156190Y-72386666D01*
X98203809Y-72291428D01*
X98251428Y-72243809D01*
X98346666Y-72196190D01*
X98537142Y-72148571D01*
X98632380Y-72100952D01*
X98680000Y-72053333D01*
X98727619Y-71958095D01*
X98727619Y-71862857D01*
X98680000Y-71767619D01*
X98632380Y-71720000D01*
X98537142Y-71672380D01*
X98299047Y-71672380D01*
X98156190Y-71720000D01*
X121727619Y-74282380D02*
X121727619Y-73282380D01*
X121299047Y-74282380D02*
X121299047Y-73758571D01*
X121346666Y-73663333D01*
X121441904Y-73615714D01*
X121584761Y-73615714D01*
X121680000Y-73663333D01*
X121727619Y-73710952D01*
X120965714Y-73615714D02*
X120584761Y-73615714D01*
X120822857Y-73282380D02*
X120822857Y-74139523D01*
X120775238Y-74234761D01*
X120680000Y-74282380D01*
X120584761Y-74282380D01*
X120394285Y-73615714D02*
X120013333Y-73615714D01*
X120251428Y-73282380D02*
X120251428Y-74139523D01*
X120203809Y-74234761D01*
X120108571Y-74282380D01*
X120013333Y-74282380D01*
X119680000Y-73615714D02*
X119680000Y-74615714D01*
X119680000Y-73663333D02*
X119584761Y-73615714D01*
X119394285Y-73615714D01*
X119299047Y-73663333D01*
X119251428Y-73710952D01*
X119203809Y-73806190D01*
X119203809Y-74091904D01*
X119251428Y-74187142D01*
X119299047Y-74234761D01*
X119394285Y-74282380D01*
X119584761Y-74282380D01*
X119680000Y-74234761D01*
X118822857Y-74234761D02*
X118727619Y-74282380D01*
X118537142Y-74282380D01*
X118441904Y-74234761D01*
X118394285Y-74139523D01*
X118394285Y-74091904D01*
X118441904Y-73996666D01*
X118537142Y-73949047D01*
X118680000Y-73949047D01*
X118775238Y-73901428D01*
X118822857Y-73806190D01*
X118822857Y-73758571D01*
X118775238Y-73663333D01*
X118680000Y-73615714D01*
X118537142Y-73615714D01*
X118441904Y-73663333D01*
X117965714Y-74187142D02*
X117918095Y-74234761D01*
X117965714Y-74282380D01*
X118013333Y-74234761D01*
X117965714Y-74187142D01*
X117965714Y-74282380D01*
X117965714Y-73663333D02*
X117918095Y-73710952D01*
X117965714Y-73758571D01*
X118013333Y-73710952D01*
X117965714Y-73663333D01*
X117965714Y-73758571D01*
X116775238Y-73234761D02*
X117632380Y-74520476D01*
X115727619Y-73234761D02*
X116584761Y-74520476D01*
X115251428Y-74282380D02*
X115346666Y-74234761D01*
X115394285Y-74187142D01*
X115441904Y-74091904D01*
X115441904Y-73806190D01*
X115394285Y-73710952D01*
X115346666Y-73663333D01*
X115251428Y-73615714D01*
X115108571Y-73615714D01*
X115013333Y-73663333D01*
X114965714Y-73710952D01*
X114918095Y-73806190D01*
X114918095Y-74091904D01*
X114965714Y-74187142D01*
X115013333Y-74234761D01*
X115108571Y-74282380D01*
X115251428Y-74282380D01*
X114489523Y-74282380D02*
X114489523Y-73282380D01*
X114060952Y-74282380D02*
X114060952Y-73758571D01*
X114108571Y-73663333D01*
X114203809Y-73615714D01*
X114346666Y-73615714D01*
X114441904Y-73663333D01*
X114489523Y-73710952D01*
X113680000Y-73615714D02*
X113489523Y-74282380D01*
X113299047Y-73806190D01*
X113108571Y-74282380D01*
X112918095Y-73615714D01*
X112537142Y-74282380D02*
X112537142Y-73615714D01*
X112537142Y-73806190D02*
X112489523Y-73710952D01*
X112441904Y-73663333D01*
X112346666Y-73615714D01*
X112251428Y-73615714D01*
X111918095Y-74187142D02*
X111870476Y-74234761D01*
X111918095Y-74282380D01*
X111965714Y-74234761D01*
X111918095Y-74187142D01*
X111918095Y-74282380D01*
X111299047Y-74282380D02*
X111394285Y-74234761D01*
X111441904Y-74187142D01*
X111489523Y-74091904D01*
X111489523Y-73806190D01*
X111441904Y-73710952D01*
X111394285Y-73663333D01*
X111299047Y-73615714D01*
X111156190Y-73615714D01*
X111060952Y-73663333D01*
X111013333Y-73710952D01*
X110965714Y-73806190D01*
X110965714Y-74091904D01*
X111013333Y-74187142D01*
X111060952Y-74234761D01*
X111156190Y-74282380D01*
X111299047Y-74282380D01*
X110537142Y-74282380D02*
X110537142Y-73615714D01*
X110537142Y-73806190D02*
X110489523Y-73710952D01*
X110441904Y-73663333D01*
X110346666Y-73615714D01*
X110251428Y-73615714D01*
X109489523Y-73615714D02*
X109489523Y-74425238D01*
X109537142Y-74520476D01*
X109584761Y-74568095D01*
X109680000Y-74615714D01*
X109822857Y-74615714D01*
X109918095Y-74568095D01*
X109489523Y-74234761D02*
X109584761Y-74282380D01*
X109775238Y-74282380D01*
X109870476Y-74234761D01*
X109918095Y-74187142D01*
X109965714Y-74091904D01*
X109965714Y-73806190D01*
X109918095Y-73710952D01*
X109870476Y-73663333D01*
X109775238Y-73615714D01*
X109584761Y-73615714D01*
X109489523Y-73663333D01*
X108299047Y-73234761D02*
X109156190Y-74520476D01*
X107537142Y-74234761D02*
X107632380Y-74282380D01*
X107822857Y-74282380D01*
X107918095Y-74234761D01*
X107965714Y-74187142D01*
X108013333Y-74091904D01*
X108013333Y-73806190D01*
X107965714Y-73710952D01*
X107918095Y-73663333D01*
X107822857Y-73615714D01*
X107632380Y-73615714D01*
X107537142Y-73663333D01*
X106727619Y-74234761D02*
X106822857Y-74282380D01*
X107013333Y-74282380D01*
X107108571Y-74234761D01*
X107156190Y-74139523D01*
X107156190Y-73758571D01*
X107108571Y-73663333D01*
X107013333Y-73615714D01*
X106822857Y-73615714D01*
X106727619Y-73663333D01*
X106680000Y-73758571D01*
X106680000Y-73853809D01*
X107156190Y-73949047D01*
X106251428Y-74282380D02*
X106251428Y-73615714D01*
X106251428Y-73806190D02*
X106203809Y-73710952D01*
X106156190Y-73663333D01*
X106060952Y-73615714D01*
X105965714Y-73615714D01*
X105632380Y-73615714D02*
X105632380Y-74282380D01*
X105632380Y-73710952D02*
X105584761Y-73663333D01*
X105489523Y-73615714D01*
X105346666Y-73615714D01*
X105251428Y-73663333D01*
X105203809Y-73758571D01*
X105203809Y-74282380D01*
X104965714Y-74377619D02*
X104203809Y-74377619D01*
X103822857Y-74282380D02*
X103918095Y-74234761D01*
X103965714Y-74187142D01*
X104013333Y-74091904D01*
X104013333Y-73806190D01*
X103965714Y-73710952D01*
X103918095Y-73663333D01*
X103822857Y-73615714D01*
X103680000Y-73615714D01*
X103584761Y-73663333D01*
X103537142Y-73710952D01*
X103489523Y-73806190D01*
X103489523Y-74091904D01*
X103537142Y-74187142D01*
X103584761Y-74234761D01*
X103680000Y-74282380D01*
X103822857Y-74282380D01*
X103060952Y-74282380D02*
X103060952Y-73282380D01*
X102632380Y-74282380D02*
X102632380Y-73758571D01*
X102680000Y-73663333D01*
X102775238Y-73615714D01*
X102918095Y-73615714D01*
X103013333Y-73663333D01*
X103060952Y-73710952D01*
X102013333Y-74282380D02*
X102108571Y-74234761D01*
X102156190Y-74139523D01*
X102156190Y-73282380D01*
X101870476Y-74377619D02*
X101108571Y-74377619D01*
X100918095Y-74234761D02*
X100822857Y-74282380D01*
X100632380Y-74282380D01*
X100537142Y-74234761D01*
X100489523Y-74139523D01*
X100489523Y-74091904D01*
X100537142Y-73996666D01*
X100632380Y-73949047D01*
X100775238Y-73949047D01*
X100870476Y-73901428D01*
X100918095Y-73806190D01*
X100918095Y-73758571D01*
X100870476Y-73663333D01*
X100775238Y-73615714D01*
X100632380Y-73615714D01*
X100537142Y-73663333D01*
X100299047Y-74377619D02*
X99537142Y-74377619D01*
X99394285Y-73615714D02*
X99156190Y-74282380D01*
X98918095Y-73615714D01*
X98584761Y-73377619D02*
X98537142Y-73330000D01*
X98441904Y-73282380D01*
X98203809Y-73282380D01*
X98108571Y-73330000D01*
X98060952Y-73377619D01*
X98013333Y-73472857D01*
X98013333Y-73568095D01*
X98060952Y-73710952D01*
X98632380Y-74282380D01*
X98013333Y-74282380D01*
X97584761Y-74187142D02*
X97537142Y-74234761D01*
X97584761Y-74282380D01*
X97632380Y-74234761D01*
X97584761Y-74187142D01*
X97584761Y-74282380D01*
X97251428Y-73615714D02*
X96870476Y-73615714D01*
X97108571Y-73282380D02*
X97108571Y-74139523D01*
X97060952Y-74234761D01*
X96965714Y-74282380D01*
X96870476Y-74282380D01*
X96632380Y-74282380D02*
X96108571Y-73615714D01*
X96632380Y-73615714D02*
X96108571Y-74282380D01*
X95870476Y-73615714D02*
X95489523Y-73615714D01*
X95727619Y-73282380D02*
X95727619Y-74139523D01*
X95680000Y-74234761D01*
X95584761Y-74282380D01*
X95489523Y-74282380D01*
X151073333Y-70413571D02*
X150930476Y-70461190D01*
X150882857Y-70508809D01*
X150835238Y-70604047D01*
X150835238Y-70746904D01*
X150882857Y-70842142D01*
X150930476Y-70889761D01*
X151025714Y-70937380D01*
X151406666Y-70937380D01*
X151406666Y-69937380D01*
X151073333Y-69937380D01*
X150978095Y-69985000D01*
X150930476Y-70032619D01*
X150882857Y-70127857D01*
X150882857Y-70223095D01*
X150930476Y-70318333D01*
X150978095Y-70365952D01*
X151073333Y-70413571D01*
X151406666Y-70413571D01*
X150501904Y-70270714D02*
X150263809Y-70937380D01*
X150025714Y-70270714D02*
X150263809Y-70937380D01*
X150359047Y-71175476D01*
X150406666Y-71223095D01*
X150501904Y-71270714D01*
X148930476Y-70651666D02*
X148454285Y-70651666D01*
X149025714Y-70937380D02*
X148692380Y-69937380D01*
X148359047Y-70937380D01*
X147882857Y-70937380D02*
X147978095Y-70889761D01*
X148025714Y-70794523D01*
X148025714Y-69937380D01*
X147597142Y-70270714D02*
X147359047Y-70937380D01*
X147120952Y-70270714D01*
X146311428Y-70937380D02*
X146311428Y-70413571D01*
X146359047Y-70318333D01*
X146454285Y-70270714D01*
X146644761Y-70270714D01*
X146740000Y-70318333D01*
X146311428Y-70889761D02*
X146406666Y-70937380D01*
X146644761Y-70937380D01*
X146740000Y-70889761D01*
X146787619Y-70794523D01*
X146787619Y-70699285D01*
X146740000Y-70604047D01*
X146644761Y-70556428D01*
X146406666Y-70556428D01*
X146311428Y-70508809D01*
X145835238Y-70937380D02*
X145835238Y-70270714D01*
X145835238Y-70461190D02*
X145787619Y-70365952D01*
X145740000Y-70318333D01*
X145644761Y-70270714D01*
X145549523Y-70270714D01*
X145073333Y-70937380D02*
X145168571Y-70889761D01*
X145216190Y-70842142D01*
X145263809Y-70746904D01*
X145263809Y-70461190D01*
X145216190Y-70365952D01*
X145168571Y-70318333D01*
X145073333Y-70270714D01*
X144930476Y-70270714D01*
X144835238Y-70318333D01*
X144787619Y-70365952D01*
X144740000Y-70461190D01*
X144740000Y-70746904D01*
X144787619Y-70842142D01*
X144835238Y-70889761D01*
X144930476Y-70937380D01*
X145073333Y-70937380D01*
X143597142Y-70651666D02*
X143120952Y-70651666D01*
X143692380Y-70937380D02*
X143359047Y-69937380D01*
X143025714Y-70937380D01*
X142549523Y-70937380D02*
X142644761Y-70889761D01*
X142692380Y-70794523D01*
X142692380Y-69937380D01*
X141787619Y-70889761D02*
X141882857Y-70937380D01*
X142073333Y-70937380D01*
X142168571Y-70889761D01*
X142216190Y-70794523D01*
X142216190Y-70413571D01*
X142168571Y-70318333D01*
X142073333Y-70270714D01*
X141882857Y-70270714D01*
X141787619Y-70318333D01*
X141740000Y-70413571D01*
X141740000Y-70508809D01*
X142216190Y-70604047D01*
X140882857Y-70937380D02*
X140882857Y-70413571D01*
X140930476Y-70318333D01*
X141025714Y-70270714D01*
X141216190Y-70270714D01*
X141311428Y-70318333D01*
X140882857Y-70889761D02*
X140978095Y-70937380D01*
X141216190Y-70937380D01*
X141311428Y-70889761D01*
X141359047Y-70794523D01*
X141359047Y-70699285D01*
X141311428Y-70604047D01*
X141216190Y-70556428D01*
X140978095Y-70556428D01*
X140882857Y-70508809D01*
X139311428Y-70413571D02*
X139644761Y-70413571D01*
X139644761Y-70937380D02*
X139644761Y-69937380D01*
X139168571Y-69937380D01*
X138359047Y-70937380D02*
X138359047Y-69937380D01*
X138359047Y-70889761D02*
X138454285Y-70937380D01*
X138644761Y-70937380D01*
X138740000Y-70889761D01*
X138787619Y-70842142D01*
X138835238Y-70746904D01*
X138835238Y-70461190D01*
X138787619Y-70365952D01*
X138740000Y-70318333D01*
X138644761Y-70270714D01*
X138454285Y-70270714D01*
X138359047Y-70318333D01*
X137978095Y-70270714D02*
X137454285Y-70270714D01*
X137978095Y-70937380D01*
X137454285Y-70937380D01*
X137073333Y-70842142D02*
X137025714Y-70889761D01*
X137073333Y-70937380D01*
X137120952Y-70889761D01*
X137073333Y-70842142D01*
X137073333Y-70937380D01*
%TO.C,REF\u002A\u002A*%
G36*
X138719734Y-76586645D02*
G01*
X138725366Y-76592835D01*
X138730456Y-76601041D01*
X138734543Y-76612817D01*
X138737721Y-76630276D01*
X138740087Y-76655530D01*
X138741738Y-76690690D01*
X138742769Y-76737869D01*
X138743277Y-76799177D01*
X138743359Y-76876727D01*
X138743109Y-76972631D01*
X138742625Y-77089000D01*
X138742557Y-77103175D01*
X138741971Y-77164937D01*
X138740648Y-77208620D01*
X138738103Y-77238001D01*
X138733848Y-77256855D01*
X138727396Y-77268959D01*
X138718262Y-77278089D01*
X138684804Y-77295506D01*
X138649856Y-77292604D01*
X138618953Y-77268100D01*
X138609944Y-77254897D01*
X138602492Y-77236361D01*
X138598124Y-77210333D01*
X138596069Y-77171787D01*
X138595556Y-77115700D01*
X138595556Y-76993045D01*
X138098845Y-76993045D01*
X138098845Y-77127871D01*
X138098772Y-77163662D01*
X138098009Y-77209992D01*
X138095833Y-77240526D01*
X138091536Y-77259557D01*
X138084412Y-77271374D01*
X138073755Y-77280271D01*
X138041504Y-77295341D01*
X138006217Y-77292673D01*
X137975486Y-77268100D01*
X137970831Y-77261845D01*
X137964895Y-77251321D01*
X137960364Y-77237391D01*
X137957048Y-77217317D01*
X137954759Y-77188360D01*
X137953308Y-77147780D01*
X137952505Y-77092840D01*
X137952162Y-77020799D01*
X137952089Y-76928920D01*
X137952089Y-76619485D01*
X137979798Y-76591776D01*
X138011177Y-76569533D01*
X138044406Y-76566844D01*
X138076267Y-76586645D01*
X138084553Y-76596415D01*
X138091965Y-76612307D01*
X138096302Y-76636275D01*
X138098338Y-76673148D01*
X138098845Y-76727756D01*
X138098845Y-76846289D01*
X138595556Y-76846289D01*
X138595556Y-76730776D01*
X138595994Y-76679078D01*
X138597958Y-76644554D01*
X138602474Y-76621978D01*
X138610567Y-76606126D01*
X138623265Y-76591776D01*
X138654643Y-76569533D01*
X138687872Y-76566844D01*
X138719734Y-76586645D01*
G37*
D11*
X138719734Y-76586645D02*
X138725366Y-76592835D01*
X138730456Y-76601041D01*
X138734543Y-76612817D01*
X138737721Y-76630276D01*
X138740087Y-76655530D01*
X138741738Y-76690690D01*
X138742769Y-76737869D01*
X138743277Y-76799177D01*
X138743359Y-76876727D01*
X138743109Y-76972631D01*
X138742625Y-77089000D01*
X138742557Y-77103175D01*
X138741971Y-77164937D01*
X138740648Y-77208620D01*
X138738103Y-77238001D01*
X138733848Y-77256855D01*
X138727396Y-77268959D01*
X138718262Y-77278089D01*
X138684804Y-77295506D01*
X138649856Y-77292604D01*
X138618953Y-77268100D01*
X138609944Y-77254897D01*
X138602492Y-77236361D01*
X138598124Y-77210333D01*
X138596069Y-77171787D01*
X138595556Y-77115700D01*
X138595556Y-76993045D01*
X138098845Y-76993045D01*
X138098845Y-77127871D01*
X138098772Y-77163662D01*
X138098009Y-77209992D01*
X138095833Y-77240526D01*
X138091536Y-77259557D01*
X138084412Y-77271374D01*
X138073755Y-77280271D01*
X138041504Y-77295341D01*
X138006217Y-77292673D01*
X137975486Y-77268100D01*
X137970831Y-77261845D01*
X137964895Y-77251321D01*
X137960364Y-77237391D01*
X137957048Y-77217317D01*
X137954759Y-77188360D01*
X137953308Y-77147780D01*
X137952505Y-77092840D01*
X137952162Y-77020799D01*
X137952089Y-76928920D01*
X137952089Y-76619485D01*
X137979798Y-76591776D01*
X138011177Y-76569533D01*
X138044406Y-76566844D01*
X138076267Y-76586645D01*
X138084553Y-76596415D01*
X138091965Y-76612307D01*
X138096302Y-76636275D01*
X138098338Y-76673148D01*
X138098845Y-76727756D01*
X138098845Y-76846289D01*
X138595556Y-76846289D01*
X138595556Y-76730776D01*
X138595994Y-76679078D01*
X138597958Y-76644554D01*
X138602474Y-76621978D01*
X138610567Y-76606126D01*
X138623265Y-76591776D01*
X138654643Y-76569533D01*
X138687872Y-76566844D01*
X138719734Y-76586645D01*
G36*
X142967261Y-74972363D02*
G01*
X142963632Y-75047202D01*
X142956022Y-75109401D01*
X142943688Y-75165984D01*
X142899313Y-75292076D01*
X142836400Y-75406679D01*
X142756238Y-75507568D01*
X142659740Y-75593924D01*
X142547822Y-75664932D01*
X142421397Y-75719776D01*
X142281378Y-75757638D01*
X142245149Y-75763351D01*
X142166155Y-75769313D01*
X142077841Y-75769646D01*
X141988075Y-75764659D01*
X141904722Y-75754666D01*
X141835651Y-75739978D01*
X141749187Y-75709749D01*
X141639286Y-75655057D01*
X141541956Y-75587543D01*
X141479867Y-75536556D01*
X141476605Y-75632622D01*
X141473343Y-75728689D01*
X141050450Y-75728689D01*
X141039543Y-75728686D01*
X140945056Y-75728380D01*
X140858331Y-75727616D01*
X140781837Y-75726451D01*
X140718043Y-75724942D01*
X140669418Y-75723147D01*
X140638433Y-75721121D01*
X140627556Y-75718922D01*
X140627578Y-75718463D01*
X140634614Y-75702910D01*
X140650434Y-75680071D01*
X140654734Y-75674638D01*
X140665777Y-75660606D01*
X140675311Y-75647186D01*
X140683461Y-75632722D01*
X140690352Y-75615556D01*
X140696111Y-75594034D01*
X140700862Y-75566498D01*
X140704731Y-75531292D01*
X140707844Y-75486760D01*
X140710325Y-75431246D01*
X140712300Y-75363093D01*
X140713894Y-75280645D01*
X140715234Y-75182246D01*
X140716444Y-75066239D01*
X140716896Y-75015462D01*
X141519378Y-75015462D01*
X141564048Y-75071973D01*
X141576785Y-75087212D01*
X141623604Y-75129844D01*
X141684255Y-75165672D01*
X141694897Y-75170850D01*
X141733676Y-75187745D01*
X141768692Y-75197909D01*
X141808722Y-75203325D01*
X141862541Y-75205978D01*
X141880648Y-75206383D01*
X141956011Y-75203540D01*
X142016743Y-75191620D01*
X142068452Y-75169037D01*
X142116746Y-75134211D01*
X142121803Y-75129798D01*
X142170272Y-75074160D01*
X142198459Y-75010333D01*
X142207752Y-74935282D01*
X142200520Y-74863693D01*
X142175796Y-74800645D01*
X142131249Y-74742758D01*
X142076319Y-74695808D01*
X142003894Y-74655961D01*
X141917340Y-74628263D01*
X141814670Y-74612096D01*
X141693894Y-74606842D01*
X141685007Y-74606857D01*
X141629660Y-74607655D01*
X141582736Y-74609488D01*
X141548953Y-74612111D01*
X141533028Y-74615274D01*
X141528943Y-74621741D01*
X141524572Y-74643875D01*
X141521604Y-74682988D01*
X141519914Y-74740939D01*
X141519378Y-74819586D01*
X141519378Y-75015462D01*
X140716896Y-75015462D01*
X140717649Y-74930968D01*
X140718975Y-74774778D01*
X140720228Y-74632012D01*
X140721651Y-74486942D01*
X140723176Y-74361027D01*
X140724933Y-74252436D01*
X140727051Y-74159334D01*
X140729660Y-74079891D01*
X140732890Y-74012273D01*
X140736869Y-73954649D01*
X140741728Y-73905185D01*
X140747597Y-73862050D01*
X140754604Y-73823410D01*
X140762880Y-73787434D01*
X140772554Y-73752289D01*
X140783756Y-73716142D01*
X140796616Y-73677161D01*
X140812090Y-73634091D01*
X140854994Y-73541871D01*
X140908735Y-73462099D01*
X140977576Y-73387965D01*
X141055185Y-73324405D01*
X141159761Y-73262725D01*
X141279244Y-73215202D01*
X141414508Y-73181567D01*
X141566426Y-73161552D01*
X141735872Y-73154889D01*
X141793890Y-73155287D01*
X141859398Y-73157335D01*
X141920693Y-73161704D01*
X141982097Y-73169035D01*
X142047932Y-73179969D01*
X142122520Y-73195147D01*
X142210184Y-73215209D01*
X142315245Y-73240797D01*
X142343806Y-73247820D01*
X142419054Y-73265776D01*
X142489388Y-73281820D01*
X142550567Y-73295028D01*
X142598354Y-73304474D01*
X142628511Y-73309231D01*
X142656783Y-73312910D01*
X142683060Y-73318187D01*
X142693059Y-73322942D01*
X142689952Y-73331781D01*
X142679194Y-73359072D01*
X142661864Y-73401906D01*
X142639126Y-73457425D01*
X142612147Y-73522772D01*
X142582090Y-73595089D01*
X142575493Y-73610879D01*
X142536907Y-73701484D01*
X142505768Y-73771217D01*
X142481917Y-73820405D01*
X142465198Y-73849374D01*
X142455454Y-73858452D01*
X142447766Y-73856405D01*
X142421415Y-73846760D01*
X142382982Y-73831190D01*
X142337822Y-73811815D01*
X142243293Y-73773814D01*
X142106480Y-73732780D01*
X141965289Y-73707612D01*
X141927314Y-73703611D01*
X141824059Y-73701447D01*
X141736952Y-73714622D01*
X141665129Y-73743756D01*
X141607731Y-73789466D01*
X141563896Y-73852372D01*
X141532762Y-73933092D01*
X141513470Y-74032245D01*
X141506050Y-74091224D01*
X141667936Y-74084445D01*
X141794495Y-74082813D01*
X141945951Y-74089194D01*
X142094396Y-74103777D01*
X142230578Y-74125882D01*
X142295245Y-74140821D01*
X142427490Y-74183741D01*
X142549762Y-74240340D01*
X142659685Y-74309017D01*
X142754883Y-74388170D01*
X142832980Y-74476196D01*
X142891599Y-74571493D01*
X142915595Y-74623864D01*
X142941232Y-74694590D01*
X142957478Y-74765812D01*
X142965822Y-74844712D01*
X142967690Y-74935282D01*
X142967755Y-74938467D01*
X142967261Y-74972363D01*
G37*
X142967261Y-74972363D02*
X142963632Y-75047202D01*
X142956022Y-75109401D01*
X142943688Y-75165984D01*
X142899313Y-75292076D01*
X142836400Y-75406679D01*
X142756238Y-75507568D01*
X142659740Y-75593924D01*
X142547822Y-75664932D01*
X142421397Y-75719776D01*
X142281378Y-75757638D01*
X142245149Y-75763351D01*
X142166155Y-75769313D01*
X142077841Y-75769646D01*
X141988075Y-75764659D01*
X141904722Y-75754666D01*
X141835651Y-75739978D01*
X141749187Y-75709749D01*
X141639286Y-75655057D01*
X141541956Y-75587543D01*
X141479867Y-75536556D01*
X141476605Y-75632622D01*
X141473343Y-75728689D01*
X141050450Y-75728689D01*
X141039543Y-75728686D01*
X140945056Y-75728380D01*
X140858331Y-75727616D01*
X140781837Y-75726451D01*
X140718043Y-75724942D01*
X140669418Y-75723147D01*
X140638433Y-75721121D01*
X140627556Y-75718922D01*
X140627578Y-75718463D01*
X140634614Y-75702910D01*
X140650434Y-75680071D01*
X140654734Y-75674638D01*
X140665777Y-75660606D01*
X140675311Y-75647186D01*
X140683461Y-75632722D01*
X140690352Y-75615556D01*
X140696111Y-75594034D01*
X140700862Y-75566498D01*
X140704731Y-75531292D01*
X140707844Y-75486760D01*
X140710325Y-75431246D01*
X140712300Y-75363093D01*
X140713894Y-75280645D01*
X140715234Y-75182246D01*
X140716444Y-75066239D01*
X140716896Y-75015462D01*
X141519378Y-75015462D01*
X141564048Y-75071973D01*
X141576785Y-75087212D01*
X141623604Y-75129844D01*
X141684255Y-75165672D01*
X141694897Y-75170850D01*
X141733676Y-75187745D01*
X141768692Y-75197909D01*
X141808722Y-75203325D01*
X141862541Y-75205978D01*
X141880648Y-75206383D01*
X141956011Y-75203540D01*
X142016743Y-75191620D01*
X142068452Y-75169037D01*
X142116746Y-75134211D01*
X142121803Y-75129798D01*
X142170272Y-75074160D01*
X142198459Y-75010333D01*
X142207752Y-74935282D01*
X142200520Y-74863693D01*
X142175796Y-74800645D01*
X142131249Y-74742758D01*
X142076319Y-74695808D01*
X142003894Y-74655961D01*
X141917340Y-74628263D01*
X141814670Y-74612096D01*
X141693894Y-74606842D01*
X141685007Y-74606857D01*
X141629660Y-74607655D01*
X141582736Y-74609488D01*
X141548953Y-74612111D01*
X141533028Y-74615274D01*
X141528943Y-74621741D01*
X141524572Y-74643875D01*
X141521604Y-74682988D01*
X141519914Y-74740939D01*
X141519378Y-74819586D01*
X141519378Y-75015462D01*
X140716896Y-75015462D01*
X140717649Y-74930968D01*
X140718975Y-74774778D01*
X140720228Y-74632012D01*
X140721651Y-74486942D01*
X140723176Y-74361027D01*
X140724933Y-74252436D01*
X140727051Y-74159334D01*
X140729660Y-74079891D01*
X140732890Y-74012273D01*
X140736869Y-73954649D01*
X140741728Y-73905185D01*
X140747597Y-73862050D01*
X140754604Y-73823410D01*
X140762880Y-73787434D01*
X140772554Y-73752289D01*
X140783756Y-73716142D01*
X140796616Y-73677161D01*
X140812090Y-73634091D01*
X140854994Y-73541871D01*
X140908735Y-73462099D01*
X140977576Y-73387965D01*
X141055185Y-73324405D01*
X141159761Y-73262725D01*
X141279244Y-73215202D01*
X141414508Y-73181567D01*
X141566426Y-73161552D01*
X141735872Y-73154889D01*
X141793890Y-73155287D01*
X141859398Y-73157335D01*
X141920693Y-73161704D01*
X141982097Y-73169035D01*
X142047932Y-73179969D01*
X142122520Y-73195147D01*
X142210184Y-73215209D01*
X142315245Y-73240797D01*
X142343806Y-73247820D01*
X142419054Y-73265776D01*
X142489388Y-73281820D01*
X142550567Y-73295028D01*
X142598354Y-73304474D01*
X142628511Y-73309231D01*
X142656783Y-73312910D01*
X142683060Y-73318187D01*
X142693059Y-73322942D01*
X142689952Y-73331781D01*
X142679194Y-73359072D01*
X142661864Y-73401906D01*
X142639126Y-73457425D01*
X142612147Y-73522772D01*
X142582090Y-73595089D01*
X142575493Y-73610879D01*
X142536907Y-73701484D01*
X142505768Y-73771217D01*
X142481917Y-73820405D01*
X142465198Y-73849374D01*
X142455454Y-73858452D01*
X142447766Y-73856405D01*
X142421415Y-73846760D01*
X142382982Y-73831190D01*
X142337822Y-73811815D01*
X142243293Y-73773814D01*
X142106480Y-73732780D01*
X141965289Y-73707612D01*
X141927314Y-73703611D01*
X141824059Y-73701447D01*
X141736952Y-73714622D01*
X141665129Y-73743756D01*
X141607731Y-73789466D01*
X141563896Y-73852372D01*
X141532762Y-73933092D01*
X141513470Y-74032245D01*
X141506050Y-74091224D01*
X141667936Y-74084445D01*
X141794495Y-74082813D01*
X141945951Y-74089194D01*
X142094396Y-74103777D01*
X142230578Y-74125882D01*
X142295245Y-74140821D01*
X142427490Y-74183741D01*
X142549762Y-74240340D01*
X142659685Y-74309017D01*
X142754883Y-74388170D01*
X142832980Y-74476196D01*
X142891599Y-74571493D01*
X142915595Y-74623864D01*
X142941232Y-74694590D01*
X142957478Y-74765812D01*
X142965822Y-74844712D01*
X142967690Y-74935282D01*
X142967755Y-74938467D01*
X142967261Y-74972363D01*
G36*
X146369150Y-76569179D02*
G01*
X146475157Y-76585494D01*
X146568969Y-76613545D01*
X146647765Y-76652452D01*
X146708719Y-76701334D01*
X146734789Y-76734195D01*
X146764297Y-76783394D01*
X146789568Y-76837252D01*
X146807218Y-76888419D01*
X146813858Y-76929544D01*
X146812298Y-76949259D01*
X146799357Y-77000592D01*
X146776194Y-77057118D01*
X146746302Y-77111035D01*
X146713173Y-77154539D01*
X146702977Y-77164887D01*
X146635892Y-77216662D01*
X146555766Y-77256554D01*
X146469556Y-77280956D01*
X146414592Y-77289068D01*
X146321139Y-77295673D01*
X146231358Y-77293586D01*
X146148869Y-77283340D01*
X146077286Y-77265470D01*
X146020228Y-77240508D01*
X145981311Y-77208988D01*
X145979936Y-77207012D01*
X145972848Y-77181786D01*
X145968609Y-77134535D01*
X145967200Y-77065071D01*
X145968060Y-77002838D01*
X145972780Y-76955456D01*
X145984470Y-76923353D01*
X146006239Y-76903800D01*
X146041198Y-76894070D01*
X146092456Y-76891433D01*
X146163123Y-76893161D01*
X146211743Y-76896173D01*
X146261939Y-76904366D01*
X146294433Y-76918419D01*
X146311892Y-76939654D01*
X146316983Y-76969394D01*
X146316877Y-76973936D01*
X146308175Y-77008730D01*
X146284165Y-77032147D01*
X146242900Y-77045347D01*
X146182431Y-77049489D01*
X146113956Y-77049489D01*
X146113956Y-77087841D01*
X146114006Y-77096976D01*
X146116227Y-77114227D01*
X146125494Y-77124521D01*
X146146875Y-77131459D01*
X146185436Y-77138641D01*
X146190910Y-77139575D01*
X146287860Y-77149478D01*
X146377852Y-77146559D01*
X146458760Y-77131829D01*
X146528459Y-77106299D01*
X146584824Y-77070978D01*
X146625729Y-77026879D01*
X146649051Y-76975012D01*
X146652663Y-76916388D01*
X146647145Y-76887494D01*
X146620461Y-76831604D01*
X146574273Y-76785945D01*
X146509291Y-76751108D01*
X146426229Y-76727690D01*
X146401555Y-76723241D01*
X146312226Y-76712742D01*
X146232419Y-76713971D01*
X146154326Y-76726906D01*
X146119183Y-76733696D01*
X146073745Y-76734713D01*
X146042430Y-76722182D01*
X146022277Y-76695395D01*
X146015893Y-76667148D01*
X146025379Y-76635924D01*
X146034708Y-76622499D01*
X146068943Y-76598967D01*
X146121565Y-76581095D01*
X146190081Y-76569599D01*
X146272000Y-76565192D01*
X146369150Y-76569179D01*
G37*
X146369150Y-76569179D02*
X146475157Y-76585494D01*
X146568969Y-76613545D01*
X146647765Y-76652452D01*
X146708719Y-76701334D01*
X146734789Y-76734195D01*
X146764297Y-76783394D01*
X146789568Y-76837252D01*
X146807218Y-76888419D01*
X146813858Y-76929544D01*
X146812298Y-76949259D01*
X146799357Y-77000592D01*
X146776194Y-77057118D01*
X146746302Y-77111035D01*
X146713173Y-77154539D01*
X146702977Y-77164887D01*
X146635892Y-77216662D01*
X146555766Y-77256554D01*
X146469556Y-77280956D01*
X146414592Y-77289068D01*
X146321139Y-77295673D01*
X146231358Y-77293586D01*
X146148869Y-77283340D01*
X146077286Y-77265470D01*
X146020228Y-77240508D01*
X145981311Y-77208988D01*
X145979936Y-77207012D01*
X145972848Y-77181786D01*
X145968609Y-77134535D01*
X145967200Y-77065071D01*
X145968060Y-77002838D01*
X145972780Y-76955456D01*
X145984470Y-76923353D01*
X146006239Y-76903800D01*
X146041198Y-76894070D01*
X146092456Y-76891433D01*
X146163123Y-76893161D01*
X146211743Y-76896173D01*
X146261939Y-76904366D01*
X146294433Y-76918419D01*
X146311892Y-76939654D01*
X146316983Y-76969394D01*
X146316877Y-76973936D01*
X146308175Y-77008730D01*
X146284165Y-77032147D01*
X146242900Y-77045347D01*
X146182431Y-77049489D01*
X146113956Y-77049489D01*
X146113956Y-77087841D01*
X146114006Y-77096976D01*
X146116227Y-77114227D01*
X146125494Y-77124521D01*
X146146875Y-77131459D01*
X146185436Y-77138641D01*
X146190910Y-77139575D01*
X146287860Y-77149478D01*
X146377852Y-77146559D01*
X146458760Y-77131829D01*
X146528459Y-77106299D01*
X146584824Y-77070978D01*
X146625729Y-77026879D01*
X146649051Y-76975012D01*
X146652663Y-76916388D01*
X146647145Y-76887494D01*
X146620461Y-76831604D01*
X146574273Y-76785945D01*
X146509291Y-76751108D01*
X146426229Y-76727690D01*
X146401555Y-76723241D01*
X146312226Y-76712742D01*
X146232419Y-76713971D01*
X146154326Y-76726906D01*
X146119183Y-76733696D01*
X146073745Y-76734713D01*
X146042430Y-76722182D01*
X146022277Y-76695395D01*
X146015893Y-76667148D01*
X146025379Y-76635924D01*
X146034708Y-76622499D01*
X146068943Y-76598967D01*
X146121565Y-76581095D01*
X146190081Y-76569599D01*
X146272000Y-76565192D01*
X146369150Y-76569179D01*
G36*
X149096734Y-76564083D02*
G01*
X149173831Y-76564275D01*
X149232777Y-76564860D01*
X149276364Y-76566051D01*
X149307383Y-76568064D01*
X149328625Y-76571112D01*
X149342882Y-76575409D01*
X149352945Y-76581172D01*
X149361606Y-76588612D01*
X149363391Y-76590293D01*
X149370635Y-76597832D01*
X149376277Y-76606850D01*
X149380517Y-76619984D01*
X149383556Y-76639872D01*
X149385594Y-76669151D01*
X149386830Y-76710458D01*
X149387465Y-76766431D01*
X149387700Y-76839707D01*
X149387734Y-76932923D01*
X149387697Y-77005713D01*
X149387448Y-77083889D01*
X149386812Y-77144103D01*
X149385615Y-77188982D01*
X149383684Y-77221152D01*
X149380846Y-77243239D01*
X149376927Y-77257870D01*
X149371755Y-77267670D01*
X149365156Y-77275267D01*
X149361822Y-77278444D01*
X149353300Y-77284554D01*
X149341298Y-77289229D01*
X149323087Y-77292659D01*
X149295940Y-77295036D01*
X149257129Y-77296552D01*
X149203924Y-77297398D01*
X149133598Y-77297765D01*
X149043422Y-77297845D01*
X149001314Y-77297833D01*
X148920167Y-77297651D01*
X148857675Y-77297098D01*
X148811109Y-77295982D01*
X148777741Y-77294113D01*
X148754844Y-77291298D01*
X148739688Y-77287346D01*
X148729546Y-77282066D01*
X148721689Y-77275267D01*
X148706963Y-77253667D01*
X148699111Y-77224467D01*
X148704610Y-77200560D01*
X148721689Y-77173667D01*
X148726668Y-77169059D01*
X148736443Y-77162772D01*
X148750559Y-77158146D01*
X148772054Y-77154930D01*
X148803968Y-77152870D01*
X148849342Y-77151712D01*
X148911213Y-77151202D01*
X148992622Y-77151089D01*
X149240978Y-77151089D01*
X149240978Y-76993045D01*
X149079801Y-76993045D01*
X149043983Y-76992899D01*
X148978359Y-76991176D01*
X148931118Y-76986741D01*
X148899383Y-76978637D01*
X148880277Y-76965906D01*
X148870923Y-76947592D01*
X148868445Y-76922738D01*
X148869242Y-76902482D01*
X148874494Y-76880656D01*
X148887288Y-76865304D01*
X148910628Y-76855309D01*
X148947517Y-76849553D01*
X149000959Y-76846919D01*
X149073958Y-76846289D01*
X149242105Y-76846289D01*
X149238719Y-76781378D01*
X149235334Y-76716467D01*
X148987617Y-76713418D01*
X148925026Y-76712539D01*
X148856565Y-76711095D01*
X148805661Y-76709164D01*
X148769408Y-76706514D01*
X148744901Y-76702910D01*
X148729235Y-76698121D01*
X148719506Y-76691913D01*
X148713491Y-76685510D01*
X148700482Y-76653828D01*
X148704043Y-76618142D01*
X148723818Y-76587084D01*
X148727069Y-76584161D01*
X148736049Y-76577810D01*
X148748153Y-76572957D01*
X148766159Y-76569403D01*
X148792847Y-76566946D01*
X148830997Y-76565385D01*
X148883386Y-76564518D01*
X148952794Y-76564146D01*
X149042001Y-76564067D01*
X149096734Y-76564083D01*
G37*
X149096734Y-76564083D02*
X149173831Y-76564275D01*
X149232777Y-76564860D01*
X149276364Y-76566051D01*
X149307383Y-76568064D01*
X149328625Y-76571112D01*
X149342882Y-76575409D01*
X149352945Y-76581172D01*
X149361606Y-76588612D01*
X149363391Y-76590293D01*
X149370635Y-76597832D01*
X149376277Y-76606850D01*
X149380517Y-76619984D01*
X149383556Y-76639872D01*
X149385594Y-76669151D01*
X149386830Y-76710458D01*
X149387465Y-76766431D01*
X149387700Y-76839707D01*
X149387734Y-76932923D01*
X149387697Y-77005713D01*
X149387448Y-77083889D01*
X149386812Y-77144103D01*
X149385615Y-77188982D01*
X149383684Y-77221152D01*
X149380846Y-77243239D01*
X149376927Y-77257870D01*
X149371755Y-77267670D01*
X149365156Y-77275267D01*
X149361822Y-77278444D01*
X149353300Y-77284554D01*
X149341298Y-77289229D01*
X149323087Y-77292659D01*
X149295940Y-77295036D01*
X149257129Y-77296552D01*
X149203924Y-77297398D01*
X149133598Y-77297765D01*
X149043422Y-77297845D01*
X149001314Y-77297833D01*
X148920167Y-77297651D01*
X148857675Y-77297098D01*
X148811109Y-77295982D01*
X148777741Y-77294113D01*
X148754844Y-77291298D01*
X148739688Y-77287346D01*
X148729546Y-77282066D01*
X148721689Y-77275267D01*
X148706963Y-77253667D01*
X148699111Y-77224467D01*
X148704610Y-77200560D01*
X148721689Y-77173667D01*
X148726668Y-77169059D01*
X148736443Y-77162772D01*
X148750559Y-77158146D01*
X148772054Y-77154930D01*
X148803968Y-77152870D01*
X148849342Y-77151712D01*
X148911213Y-77151202D01*
X148992622Y-77151089D01*
X149240978Y-77151089D01*
X149240978Y-76993045D01*
X149079801Y-76993045D01*
X149043983Y-76992899D01*
X148978359Y-76991176D01*
X148931118Y-76986741D01*
X148899383Y-76978637D01*
X148880277Y-76965906D01*
X148870923Y-76947592D01*
X148868445Y-76922738D01*
X148869242Y-76902482D01*
X148874494Y-76880656D01*
X148887288Y-76865304D01*
X148910628Y-76855309D01*
X148947517Y-76849553D01*
X149000959Y-76846919D01*
X149073958Y-76846289D01*
X149242105Y-76846289D01*
X149238719Y-76781378D01*
X149235334Y-76716467D01*
X148987617Y-76713418D01*
X148925026Y-76712539D01*
X148856565Y-76711095D01*
X148805661Y-76709164D01*
X148769408Y-76706514D01*
X148744901Y-76702910D01*
X148729235Y-76698121D01*
X148719506Y-76691913D01*
X148713491Y-76685510D01*
X148700482Y-76653828D01*
X148704043Y-76618142D01*
X148723818Y-76587084D01*
X148727069Y-76584161D01*
X148736049Y-76577810D01*
X148748153Y-76572957D01*
X148766159Y-76569403D01*
X148792847Y-76566946D01*
X148830997Y-76565385D01*
X148883386Y-76564518D01*
X148952794Y-76564146D01*
X149042001Y-76564067D01*
X149096734Y-76564083D01*
G36*
X140095406Y-76569949D02*
G01*
X140121127Y-76585647D01*
X140147778Y-76607227D01*
X140147778Y-77254684D01*
X140121127Y-77276264D01*
X140089767Y-77293739D01*
X140053966Y-77294575D01*
X140022528Y-77274082D01*
X140018652Y-77269416D01*
X140013186Y-77259949D01*
X140008979Y-77246267D01*
X140005867Y-77225748D01*
X140003687Y-77195768D01*
X140002276Y-77153704D01*
X140001471Y-77096932D01*
X140001107Y-77022830D01*
X140001022Y-76928773D01*
X140001022Y-76607227D01*
X140027673Y-76585647D01*
X140051386Y-76570877D01*
X140074400Y-76564067D01*
X140095406Y-76569949D01*
G37*
X140095406Y-76569949D02*
X140121127Y-76585647D01*
X140147778Y-76607227D01*
X140147778Y-77254684D01*
X140121127Y-77276264D01*
X140089767Y-77293739D01*
X140053966Y-77294575D01*
X140022528Y-77274082D01*
X140018652Y-77269416D01*
X140013186Y-77259949D01*
X140008979Y-77246267D01*
X140005867Y-77225748D01*
X140003687Y-77195768D01*
X140002276Y-77153704D01*
X140001471Y-77096932D01*
X140001107Y-77022830D01*
X140001022Y-76928773D01*
X140001022Y-76607227D01*
X140027673Y-76585647D01*
X140051386Y-76570877D01*
X140074400Y-76564067D01*
X140095406Y-76569949D01*
G36*
X150516059Y-72538011D02*
G01*
X150516362Y-72685216D01*
X150516548Y-72849349D01*
X150516642Y-73031352D01*
X150516671Y-73232165D01*
X150516661Y-73452732D01*
X150516636Y-73693992D01*
X150516622Y-73956889D01*
X150516622Y-73999040D01*
X150516646Y-74259668D01*
X150516685Y-74498796D01*
X150516708Y-74717360D01*
X150516687Y-74916295D01*
X150516593Y-75096535D01*
X150516395Y-75259015D01*
X150516063Y-75404670D01*
X150515569Y-75534434D01*
X150514883Y-75649243D01*
X150513976Y-75750030D01*
X150512817Y-75837730D01*
X150511378Y-75913279D01*
X150509629Y-75977611D01*
X150507540Y-76031661D01*
X150505083Y-76076363D01*
X150502227Y-76112652D01*
X150498943Y-76141463D01*
X150495202Y-76163731D01*
X150490974Y-76180390D01*
X150486229Y-76192375D01*
X150480939Y-76200621D01*
X150475073Y-76206062D01*
X150468602Y-76209634D01*
X150461497Y-76212270D01*
X150453728Y-76214906D01*
X150445266Y-76218477D01*
X150440908Y-76220145D01*
X150432395Y-76222111D01*
X150419694Y-76223911D01*
X150401885Y-76225555D01*
X150378049Y-76227047D01*
X150347266Y-76228397D01*
X150308617Y-76229611D01*
X150261182Y-76230697D01*
X150204043Y-76231661D01*
X150136279Y-76232511D01*
X150056971Y-76233253D01*
X149965199Y-76233897D01*
X149860044Y-76234447D01*
X149740587Y-76234913D01*
X149605908Y-76235300D01*
X149455088Y-76235616D01*
X149287206Y-76235869D01*
X149101345Y-76236066D01*
X148896583Y-76236213D01*
X148672002Y-76236318D01*
X148426682Y-76236389D01*
X148159704Y-76236432D01*
X148121321Y-76236437D01*
X147855922Y-76236480D01*
X147612050Y-76236525D01*
X147388783Y-76236548D01*
X147185196Y-76236524D01*
X147000367Y-76236430D01*
X146833373Y-76236243D01*
X146683290Y-76235939D01*
X146549196Y-76235494D01*
X146430166Y-76234885D01*
X146325279Y-76234089D01*
X146233610Y-76233080D01*
X146154237Y-76231837D01*
X146086237Y-76230335D01*
X146028686Y-76228551D01*
X145980662Y-76226461D01*
X145941240Y-76224042D01*
X145909499Y-76221270D01*
X145884514Y-76218121D01*
X145865364Y-76214572D01*
X145851123Y-76210598D01*
X145840871Y-76206178D01*
X145833682Y-76201286D01*
X145828635Y-76195900D01*
X145824805Y-76189996D01*
X145821271Y-76183549D01*
X145817108Y-76176537D01*
X145816025Y-76174687D01*
X145813813Y-76169180D01*
X145811786Y-76160868D01*
X145809938Y-76148809D01*
X145808261Y-76132063D01*
X145806745Y-76109687D01*
X145805383Y-76080740D01*
X145804167Y-76044280D01*
X145803089Y-75999367D01*
X145802140Y-75945057D01*
X145801312Y-75880410D01*
X145800597Y-75804484D01*
X145799987Y-75716338D01*
X145799942Y-75707493D01*
X146091378Y-75707493D01*
X146095260Y-75708765D01*
X146118520Y-75710791D01*
X146160874Y-75712626D01*
X146220132Y-75714227D01*
X146294107Y-75715549D01*
X146380610Y-75716548D01*
X146477452Y-75717180D01*
X146582445Y-75717400D01*
X147280651Y-75717400D01*
X148435090Y-75717400D01*
X148434456Y-75641200D01*
X148435574Y-75599160D01*
X148441304Y-75563334D01*
X148453890Y-75525772D01*
X148475568Y-75477577D01*
X148478789Y-75470897D01*
X148504188Y-75421359D01*
X148530996Y-75373369D01*
X148553917Y-75336466D01*
X148558485Y-75329834D01*
X148580516Y-75298593D01*
X148612693Y-75253654D01*
X148653457Y-75197147D01*
X148701245Y-75131204D01*
X148754498Y-75057957D01*
X148811655Y-74979536D01*
X148871155Y-74898072D01*
X148931437Y-74815698D01*
X148990940Y-74734544D01*
X149048105Y-74656742D01*
X149101370Y-74584423D01*
X149149174Y-74519718D01*
X149189957Y-74464759D01*
X149222158Y-74421676D01*
X149244216Y-74392602D01*
X149254571Y-74379667D01*
X149259044Y-74375351D01*
X149263236Y-74373312D01*
X149266643Y-74375926D01*
X149269325Y-74384986D01*
X149271341Y-74402285D01*
X149272748Y-74429614D01*
X149273605Y-74468765D01*
X149273970Y-74521533D01*
X149273903Y-74589707D01*
X149273460Y-74675082D01*
X149272702Y-74779449D01*
X149271685Y-74904600D01*
X149271308Y-74949300D01*
X149270169Y-75070395D01*
X149268972Y-75171688D01*
X149267636Y-75255262D01*
X149266077Y-75323204D01*
X149264215Y-75377599D01*
X149261966Y-75420532D01*
X149259248Y-75454089D01*
X149255979Y-75480355D01*
X149252078Y-75501416D01*
X149247461Y-75519357D01*
X149239192Y-75545770D01*
X149215583Y-75607772D01*
X149189685Y-75660573D01*
X149164535Y-75697645D01*
X149163339Y-75699075D01*
X149161168Y-75703424D01*
X149163328Y-75707026D01*
X149171644Y-75709951D01*
X149187940Y-75712269D01*
X149214041Y-75714051D01*
X149251771Y-75715367D01*
X149302956Y-75716286D01*
X149369420Y-75716878D01*
X149452987Y-75717215D01*
X149555483Y-75717365D01*
X149678732Y-75717400D01*
X150210296Y-75717400D01*
X150171523Y-75659783D01*
X150165432Y-75650893D01*
X150154976Y-75636069D01*
X150145579Y-75622422D01*
X150137183Y-75608765D01*
X150129733Y-75593911D01*
X150123173Y-75576670D01*
X150117446Y-75555855D01*
X150112495Y-75530280D01*
X150108266Y-75498755D01*
X150104701Y-75460093D01*
X150101744Y-75413107D01*
X150099340Y-75356608D01*
X150097431Y-75289409D01*
X150095962Y-75210322D01*
X150094876Y-75118160D01*
X150094118Y-75011734D01*
X150093630Y-74889857D01*
X150093358Y-74751341D01*
X150093243Y-74594999D01*
X150093231Y-74419642D01*
X150093265Y-74224082D01*
X150093289Y-74007133D01*
X150093280Y-73884513D01*
X150093243Y-73679447D01*
X150093227Y-73495116D01*
X150093288Y-73330334D01*
X150093484Y-73183916D01*
X150093870Y-73054674D01*
X150094505Y-72941422D01*
X150095444Y-72842975D01*
X150096745Y-72758144D01*
X150098464Y-72685744D01*
X150100659Y-72624589D01*
X150103385Y-72573492D01*
X150106701Y-72531267D01*
X150110662Y-72496727D01*
X150115325Y-72468686D01*
X150120747Y-72445958D01*
X150126986Y-72427356D01*
X150134097Y-72411693D01*
X150142138Y-72397784D01*
X150151166Y-72384441D01*
X150161236Y-72370479D01*
X150172407Y-72354711D01*
X150212197Y-72296867D01*
X149152314Y-72296867D01*
X149190311Y-72359966D01*
X149204993Y-72385005D01*
X149219531Y-72412586D01*
X149231627Y-72440700D01*
X149241532Y-72471551D01*
X149249494Y-72507344D01*
X149255761Y-72550283D01*
X149260582Y-72602574D01*
X149264206Y-72666419D01*
X149266881Y-72744025D01*
X149268857Y-72837594D01*
X149270382Y-72949333D01*
X149271704Y-73081445D01*
X149272613Y-73201434D01*
X149273020Y-73318063D01*
X149272767Y-73413531D01*
X149271857Y-73487556D01*
X149270293Y-73539855D01*
X149268079Y-73570149D01*
X149265220Y-73578156D01*
X149262161Y-73574858D01*
X149244006Y-73553408D01*
X149214275Y-73516889D01*
X149174639Y-73467442D01*
X149126771Y-73407207D01*
X149072343Y-73338327D01*
X149013027Y-73262943D01*
X148950495Y-73183196D01*
X148886421Y-73101228D01*
X148822475Y-73019180D01*
X148760331Y-72939194D01*
X148701661Y-72863411D01*
X148648137Y-72793973D01*
X148601430Y-72733021D01*
X148563214Y-72682696D01*
X148535161Y-72645140D01*
X148518943Y-72622495D01*
X148473635Y-72550212D01*
X148433661Y-72470463D01*
X148412130Y-72402188D01*
X148408827Y-72344844D01*
X148414116Y-72296867D01*
X147282356Y-72297117D01*
X147321867Y-72327722D01*
X147331248Y-72335089D01*
X147394183Y-72389438D01*
X147462997Y-72457259D01*
X147539596Y-72540516D01*
X147625888Y-72641178D01*
X147643052Y-72661847D01*
X147683833Y-72711409D01*
X147733588Y-72772326D01*
X147790955Y-72842898D01*
X147854569Y-72921424D01*
X147923069Y-73006204D01*
X147995090Y-73095537D01*
X148069270Y-73187722D01*
X148084517Y-73206702D01*
X148144246Y-73281060D01*
X148218653Y-73373848D01*
X148291131Y-73464388D01*
X148360314Y-73550978D01*
X148424841Y-73631918D01*
X148483347Y-73705506D01*
X148534470Y-73770044D01*
X148576847Y-73823829D01*
X148609115Y-73865162D01*
X148629910Y-73892342D01*
X148637869Y-73903668D01*
X148636111Y-73907771D01*
X148623230Y-73928334D01*
X148598885Y-73964561D01*
X148564247Y-74014824D01*
X148520486Y-74077492D01*
X148468775Y-74150936D01*
X148410284Y-74233527D01*
X148346184Y-74323636D01*
X148277646Y-74419631D01*
X148205843Y-74519885D01*
X148131944Y-74622768D01*
X148057121Y-74726650D01*
X147982545Y-74829901D01*
X147909387Y-74930892D01*
X147838819Y-75027994D01*
X147772011Y-75119577D01*
X147710135Y-75204011D01*
X147654361Y-75279667D01*
X147605862Y-75344916D01*
X147565807Y-75398128D01*
X147535369Y-75437673D01*
X147514944Y-75463026D01*
X147468899Y-75517295D01*
X147418612Y-75573775D01*
X147371815Y-75623669D01*
X147280651Y-75717400D01*
X146582445Y-75717400D01*
X146651356Y-75717349D01*
X146749607Y-75717091D01*
X146839030Y-75716637D01*
X146917333Y-75716010D01*
X146982223Y-75715235D01*
X147031411Y-75714335D01*
X147062604Y-75713334D01*
X147073511Y-75712257D01*
X147072322Y-75709037D01*
X147062176Y-75691452D01*
X147045040Y-75665158D01*
X147036540Y-75652691D01*
X147027329Y-75638622D01*
X147019233Y-75624351D01*
X147012185Y-75608479D01*
X147006117Y-75589609D01*
X147000961Y-75566341D01*
X146996651Y-75537278D01*
X146993119Y-75501021D01*
X146990297Y-75456170D01*
X146988118Y-75401328D01*
X146986514Y-75335097D01*
X146985419Y-75256077D01*
X146984765Y-75162871D01*
X146984484Y-75054079D01*
X146984509Y-74928303D01*
X146984772Y-74784145D01*
X146985206Y-74620207D01*
X146985745Y-74435089D01*
X146986279Y-74256232D01*
X146986805Y-74097374D01*
X146987350Y-73958316D01*
X146987945Y-73837665D01*
X146988619Y-73734028D01*
X146989403Y-73646011D01*
X146990326Y-73572223D01*
X146991419Y-73511269D01*
X146992712Y-73461757D01*
X146994235Y-73422293D01*
X146996019Y-73391484D01*
X146998092Y-73367938D01*
X147000486Y-73350260D01*
X147003230Y-73337059D01*
X147006356Y-73326940D01*
X147009892Y-73318511D01*
X147013791Y-73310375D01*
X147033438Y-73273544D01*
X147052225Y-73243391D01*
X147053272Y-73241908D01*
X147067602Y-73219659D01*
X147073511Y-73206702D01*
X147072504Y-73206249D01*
X147055305Y-73204803D01*
X147018656Y-73203480D01*
X146964962Y-73202316D01*
X146896630Y-73201347D01*
X146816064Y-73200611D01*
X146725670Y-73200142D01*
X146627853Y-73199978D01*
X146182195Y-73199978D01*
X146179120Y-74376845D01*
X146176045Y-75553711D01*
X146149407Y-75612622D01*
X146137485Y-75637183D01*
X146120246Y-75667434D01*
X146107074Y-75684560D01*
X146099076Y-75692591D01*
X146091378Y-75707493D01*
X145799942Y-75707493D01*
X145799474Y-75615029D01*
X145799050Y-75499617D01*
X145798706Y-75369160D01*
X145798434Y-75222716D01*
X145798227Y-75059344D01*
X145798076Y-74878101D01*
X145797972Y-74678048D01*
X145797908Y-74458241D01*
X145797876Y-74217739D01*
X145797867Y-73955602D01*
X145797867Y-71764031D01*
X145836249Y-71725649D01*
X145863355Y-71701911D01*
X145890253Y-71690111D01*
X145926560Y-71687267D01*
X145978489Y-71687267D01*
X145978489Y-71775206D01*
X145980427Y-71825102D01*
X145999199Y-71935523D01*
X146036217Y-72036987D01*
X146089369Y-72128152D01*
X146156546Y-72207673D01*
X146235638Y-72274205D01*
X146324534Y-72326406D01*
X146421125Y-72362930D01*
X146523300Y-72382434D01*
X146628950Y-72383573D01*
X146735964Y-72365005D01*
X146842232Y-72325384D01*
X146939219Y-72267516D01*
X147024293Y-72192684D01*
X147093015Y-72104615D01*
X147143918Y-72005616D01*
X147175535Y-71897993D01*
X147186400Y-71784054D01*
X147186400Y-71687267D01*
X148806753Y-71687267D01*
X149017897Y-71687280D01*
X149222020Y-71687330D01*
X149405686Y-71687430D01*
X149569991Y-71687592D01*
X149716029Y-71687829D01*
X149844894Y-71688153D01*
X149957683Y-71688575D01*
X150055488Y-71689109D01*
X150139404Y-71689767D01*
X150210527Y-71690561D01*
X150269950Y-71691504D01*
X150318768Y-71692608D01*
X150358077Y-71693884D01*
X150388969Y-71695347D01*
X150412541Y-71697007D01*
X150429886Y-71698878D01*
X150442099Y-71700972D01*
X150450275Y-71703300D01*
X150455508Y-71705876D01*
X150461504Y-71709445D01*
X150468279Y-71712978D01*
X150474478Y-71716488D01*
X150480126Y-71720918D01*
X150485247Y-71727208D01*
X150489869Y-71736301D01*
X150494015Y-71749139D01*
X150497713Y-71766662D01*
X150500987Y-71789813D01*
X150503863Y-71819534D01*
X150506367Y-71856765D01*
X150508524Y-71902449D01*
X150510360Y-71957527D01*
X150511900Y-72022941D01*
X150513170Y-72099633D01*
X150514195Y-72188544D01*
X150515001Y-72290617D01*
X150515034Y-72296867D01*
X150515614Y-72406792D01*
X150516059Y-72538011D01*
G37*
X150516059Y-72538011D02*
X150516362Y-72685216D01*
X150516548Y-72849349D01*
X150516642Y-73031352D01*
X150516671Y-73232165D01*
X150516661Y-73452732D01*
X150516636Y-73693992D01*
X150516622Y-73956889D01*
X150516622Y-73999040D01*
X150516646Y-74259668D01*
X150516685Y-74498796D01*
X150516708Y-74717360D01*
X150516687Y-74916295D01*
X150516593Y-75096535D01*
X150516395Y-75259015D01*
X150516063Y-75404670D01*
X150515569Y-75534434D01*
X150514883Y-75649243D01*
X150513976Y-75750030D01*
X150512817Y-75837730D01*
X150511378Y-75913279D01*
X150509629Y-75977611D01*
X150507540Y-76031661D01*
X150505083Y-76076363D01*
X150502227Y-76112652D01*
X150498943Y-76141463D01*
X150495202Y-76163731D01*
X150490974Y-76180390D01*
X150486229Y-76192375D01*
X150480939Y-76200621D01*
X150475073Y-76206062D01*
X150468602Y-76209634D01*
X150461497Y-76212270D01*
X150453728Y-76214906D01*
X150445266Y-76218477D01*
X150440908Y-76220145D01*
X150432395Y-76222111D01*
X150419694Y-76223911D01*
X150401885Y-76225555D01*
X150378049Y-76227047D01*
X150347266Y-76228397D01*
X150308617Y-76229611D01*
X150261182Y-76230697D01*
X150204043Y-76231661D01*
X150136279Y-76232511D01*
X150056971Y-76233253D01*
X149965199Y-76233897D01*
X149860044Y-76234447D01*
X149740587Y-76234913D01*
X149605908Y-76235300D01*
X149455088Y-76235616D01*
X149287206Y-76235869D01*
X149101345Y-76236066D01*
X148896583Y-76236213D01*
X148672002Y-76236318D01*
X148426682Y-76236389D01*
X148159704Y-76236432D01*
X148121321Y-76236437D01*
X147855922Y-76236480D01*
X147612050Y-76236525D01*
X147388783Y-76236548D01*
X147185196Y-76236524D01*
X147000367Y-76236430D01*
X146833373Y-76236243D01*
X146683290Y-76235939D01*
X146549196Y-76235494D01*
X146430166Y-76234885D01*
X146325279Y-76234089D01*
X146233610Y-76233080D01*
X146154237Y-76231837D01*
X146086237Y-76230335D01*
X146028686Y-76228551D01*
X145980662Y-76226461D01*
X145941240Y-76224042D01*
X145909499Y-76221270D01*
X145884514Y-76218121D01*
X145865364Y-76214572D01*
X145851123Y-76210598D01*
X145840871Y-76206178D01*
X145833682Y-76201286D01*
X145828635Y-76195900D01*
X145824805Y-76189996D01*
X145821271Y-76183549D01*
X145817108Y-76176537D01*
X145816025Y-76174687D01*
X145813813Y-76169180D01*
X145811786Y-76160868D01*
X145809938Y-76148809D01*
X145808261Y-76132063D01*
X145806745Y-76109687D01*
X145805383Y-76080740D01*
X145804167Y-76044280D01*
X145803089Y-75999367D01*
X145802140Y-75945057D01*
X145801312Y-75880410D01*
X145800597Y-75804484D01*
X145799987Y-75716338D01*
X145799942Y-75707493D01*
X146091378Y-75707493D01*
X146095260Y-75708765D01*
X146118520Y-75710791D01*
X146160874Y-75712626D01*
X146220132Y-75714227D01*
X146294107Y-75715549D01*
X146380610Y-75716548D01*
X146477452Y-75717180D01*
X146582445Y-75717400D01*
X147280651Y-75717400D01*
X148435090Y-75717400D01*
X148434456Y-75641200D01*
X148435574Y-75599160D01*
X148441304Y-75563334D01*
X148453890Y-75525772D01*
X148475568Y-75477577D01*
X148478789Y-75470897D01*
X148504188Y-75421359D01*
X148530996Y-75373369D01*
X148553917Y-75336466D01*
X148558485Y-75329834D01*
X148580516Y-75298593D01*
X148612693Y-75253654D01*
X148653457Y-75197147D01*
X148701245Y-75131204D01*
X148754498Y-75057957D01*
X148811655Y-74979536D01*
X148871155Y-74898072D01*
X148931437Y-74815698D01*
X148990940Y-74734544D01*
X149048105Y-74656742D01*
X149101370Y-74584423D01*
X149149174Y-74519718D01*
X149189957Y-74464759D01*
X149222158Y-74421676D01*
X149244216Y-74392602D01*
X149254571Y-74379667D01*
X149259044Y-74375351D01*
X149263236Y-74373312D01*
X149266643Y-74375926D01*
X149269325Y-74384986D01*
X149271341Y-74402285D01*
X149272748Y-74429614D01*
X149273605Y-74468765D01*
X149273970Y-74521533D01*
X149273903Y-74589707D01*
X149273460Y-74675082D01*
X149272702Y-74779449D01*
X149271685Y-74904600D01*
X149271308Y-74949300D01*
X149270169Y-75070395D01*
X149268972Y-75171688D01*
X149267636Y-75255262D01*
X149266077Y-75323204D01*
X149264215Y-75377599D01*
X149261966Y-75420532D01*
X149259248Y-75454089D01*
X149255979Y-75480355D01*
X149252078Y-75501416D01*
X149247461Y-75519357D01*
X149239192Y-75545770D01*
X149215583Y-75607772D01*
X149189685Y-75660573D01*
X149164535Y-75697645D01*
X149163339Y-75699075D01*
X149161168Y-75703424D01*
X149163328Y-75707026D01*
X149171644Y-75709951D01*
X149187940Y-75712269D01*
X149214041Y-75714051D01*
X149251771Y-75715367D01*
X149302956Y-75716286D01*
X149369420Y-75716878D01*
X149452987Y-75717215D01*
X149555483Y-75717365D01*
X149678732Y-75717400D01*
X150210296Y-75717400D01*
X150171523Y-75659783D01*
X150165432Y-75650893D01*
X150154976Y-75636069D01*
X150145579Y-75622422D01*
X150137183Y-75608765D01*
X150129733Y-75593911D01*
X150123173Y-75576670D01*
X150117446Y-75555855D01*
X150112495Y-75530280D01*
X150108266Y-75498755D01*
X150104701Y-75460093D01*
X150101744Y-75413107D01*
X150099340Y-75356608D01*
X150097431Y-75289409D01*
X150095962Y-75210322D01*
X150094876Y-75118160D01*
X150094118Y-75011734D01*
X150093630Y-74889857D01*
X150093358Y-74751341D01*
X150093243Y-74594999D01*
X150093231Y-74419642D01*
X150093265Y-74224082D01*
X150093289Y-74007133D01*
X150093280Y-73884513D01*
X150093243Y-73679447D01*
X150093227Y-73495116D01*
X150093288Y-73330334D01*
X150093484Y-73183916D01*
X150093870Y-73054674D01*
X150094505Y-72941422D01*
X150095444Y-72842975D01*
X150096745Y-72758144D01*
X150098464Y-72685744D01*
X150100659Y-72624589D01*
X150103385Y-72573492D01*
X150106701Y-72531267D01*
X150110662Y-72496727D01*
X150115325Y-72468686D01*
X150120747Y-72445958D01*
X150126986Y-72427356D01*
X150134097Y-72411693D01*
X150142138Y-72397784D01*
X150151166Y-72384441D01*
X150161236Y-72370479D01*
X150172407Y-72354711D01*
X150212197Y-72296867D01*
X149152314Y-72296867D01*
X149190311Y-72359966D01*
X149204993Y-72385005D01*
X149219531Y-72412586D01*
X149231627Y-72440700D01*
X149241532Y-72471551D01*
X149249494Y-72507344D01*
X149255761Y-72550283D01*
X149260582Y-72602574D01*
X149264206Y-72666419D01*
X149266881Y-72744025D01*
X149268857Y-72837594D01*
X149270382Y-72949333D01*
X149271704Y-73081445D01*
X149272613Y-73201434D01*
X149273020Y-73318063D01*
X149272767Y-73413531D01*
X149271857Y-73487556D01*
X149270293Y-73539855D01*
X149268079Y-73570149D01*
X149265220Y-73578156D01*
X149262161Y-73574858D01*
X149244006Y-73553408D01*
X149214275Y-73516889D01*
X149174639Y-73467442D01*
X149126771Y-73407207D01*
X149072343Y-73338327D01*
X149013027Y-73262943D01*
X148950495Y-73183196D01*
X148886421Y-73101228D01*
X148822475Y-73019180D01*
X148760331Y-72939194D01*
X148701661Y-72863411D01*
X148648137Y-72793973D01*
X148601430Y-72733021D01*
X148563214Y-72682696D01*
X148535161Y-72645140D01*
X148518943Y-72622495D01*
X148473635Y-72550212D01*
X148433661Y-72470463D01*
X148412130Y-72402188D01*
X148408827Y-72344844D01*
X148414116Y-72296867D01*
X147282356Y-72297117D01*
X147321867Y-72327722D01*
X147331248Y-72335089D01*
X147394183Y-72389438D01*
X147462997Y-72457259D01*
X147539596Y-72540516D01*
X147625888Y-72641178D01*
X147643052Y-72661847D01*
X147683833Y-72711409D01*
X147733588Y-72772326D01*
X147790955Y-72842898D01*
X147854569Y-72921424D01*
X147923069Y-73006204D01*
X147995090Y-73095537D01*
X148069270Y-73187722D01*
X148084517Y-73206702D01*
X148144246Y-73281060D01*
X148218653Y-73373848D01*
X148291131Y-73464388D01*
X148360314Y-73550978D01*
X148424841Y-73631918D01*
X148483347Y-73705506D01*
X148534470Y-73770044D01*
X148576847Y-73823829D01*
X148609115Y-73865162D01*
X148629910Y-73892342D01*
X148637869Y-73903668D01*
X148636111Y-73907771D01*
X148623230Y-73928334D01*
X148598885Y-73964561D01*
X148564247Y-74014824D01*
X148520486Y-74077492D01*
X148468775Y-74150936D01*
X148410284Y-74233527D01*
X148346184Y-74323636D01*
X148277646Y-74419631D01*
X148205843Y-74519885D01*
X148131944Y-74622768D01*
X148057121Y-74726650D01*
X147982545Y-74829901D01*
X147909387Y-74930892D01*
X147838819Y-75027994D01*
X147772011Y-75119577D01*
X147710135Y-75204011D01*
X147654361Y-75279667D01*
X147605862Y-75344916D01*
X147565807Y-75398128D01*
X147535369Y-75437673D01*
X147514944Y-75463026D01*
X147468899Y-75517295D01*
X147418612Y-75573775D01*
X147371815Y-75623669D01*
X147280651Y-75717400D01*
X146582445Y-75717400D01*
X146651356Y-75717349D01*
X146749607Y-75717091D01*
X146839030Y-75716637D01*
X146917333Y-75716010D01*
X146982223Y-75715235D01*
X147031411Y-75714335D01*
X147062604Y-75713334D01*
X147073511Y-75712257D01*
X147072322Y-75709037D01*
X147062176Y-75691452D01*
X147045040Y-75665158D01*
X147036540Y-75652691D01*
X147027329Y-75638622D01*
X147019233Y-75624351D01*
X147012185Y-75608479D01*
X147006117Y-75589609D01*
X147000961Y-75566341D01*
X146996651Y-75537278D01*
X146993119Y-75501021D01*
X146990297Y-75456170D01*
X146988118Y-75401328D01*
X146986514Y-75335097D01*
X146985419Y-75256077D01*
X146984765Y-75162871D01*
X146984484Y-75054079D01*
X146984509Y-74928303D01*
X146984772Y-74784145D01*
X146985206Y-74620207D01*
X146985745Y-74435089D01*
X146986279Y-74256232D01*
X146986805Y-74097374D01*
X146987350Y-73958316D01*
X146987945Y-73837665D01*
X146988619Y-73734028D01*
X146989403Y-73646011D01*
X146990326Y-73572223D01*
X146991419Y-73511269D01*
X146992712Y-73461757D01*
X146994235Y-73422293D01*
X146996019Y-73391484D01*
X146998092Y-73367938D01*
X147000486Y-73350260D01*
X147003230Y-73337059D01*
X147006356Y-73326940D01*
X147009892Y-73318511D01*
X147013791Y-73310375D01*
X147033438Y-73273544D01*
X147052225Y-73243391D01*
X147053272Y-73241908D01*
X147067602Y-73219659D01*
X147073511Y-73206702D01*
X147072504Y-73206249D01*
X147055305Y-73204803D01*
X147018656Y-73203480D01*
X146964962Y-73202316D01*
X146896630Y-73201347D01*
X146816064Y-73200611D01*
X146725670Y-73200142D01*
X146627853Y-73199978D01*
X146182195Y-73199978D01*
X146179120Y-74376845D01*
X146176045Y-75553711D01*
X146149407Y-75612622D01*
X146137485Y-75637183D01*
X146120246Y-75667434D01*
X146107074Y-75684560D01*
X146099076Y-75692591D01*
X146091378Y-75707493D01*
X145799942Y-75707493D01*
X145799474Y-75615029D01*
X145799050Y-75499617D01*
X145798706Y-75369160D01*
X145798434Y-75222716D01*
X145798227Y-75059344D01*
X145798076Y-74878101D01*
X145797972Y-74678048D01*
X145797908Y-74458241D01*
X145797876Y-74217739D01*
X145797867Y-73955602D01*
X145797867Y-71764031D01*
X145836249Y-71725649D01*
X145863355Y-71701911D01*
X145890253Y-71690111D01*
X145926560Y-71687267D01*
X145978489Y-71687267D01*
X145978489Y-71775206D01*
X145980427Y-71825102D01*
X145999199Y-71935523D01*
X146036217Y-72036987D01*
X146089369Y-72128152D01*
X146156546Y-72207673D01*
X146235638Y-72274205D01*
X146324534Y-72326406D01*
X146421125Y-72362930D01*
X146523300Y-72382434D01*
X146628950Y-72383573D01*
X146735964Y-72365005D01*
X146842232Y-72325384D01*
X146939219Y-72267516D01*
X147024293Y-72192684D01*
X147093015Y-72104615D01*
X147143918Y-72005616D01*
X147175535Y-71897993D01*
X147186400Y-71784054D01*
X147186400Y-71687267D01*
X148806753Y-71687267D01*
X149017897Y-71687280D01*
X149222020Y-71687330D01*
X149405686Y-71687430D01*
X149569991Y-71687592D01*
X149716029Y-71687829D01*
X149844894Y-71688153D01*
X149957683Y-71688575D01*
X150055488Y-71689109D01*
X150139404Y-71689767D01*
X150210527Y-71690561D01*
X150269950Y-71691504D01*
X150318768Y-71692608D01*
X150358077Y-71693884D01*
X150388969Y-71695347D01*
X150412541Y-71697007D01*
X150429886Y-71698878D01*
X150442099Y-71700972D01*
X150450275Y-71703300D01*
X150455508Y-71705876D01*
X150461504Y-71709445D01*
X150468279Y-71712978D01*
X150474478Y-71716488D01*
X150480126Y-71720918D01*
X150485247Y-71727208D01*
X150489869Y-71736301D01*
X150494015Y-71749139D01*
X150497713Y-71766662D01*
X150500987Y-71789813D01*
X150503863Y-71819534D01*
X150506367Y-71856765D01*
X150508524Y-71902449D01*
X150510360Y-71957527D01*
X150511900Y-72022941D01*
X150513170Y-72099633D01*
X150514195Y-72188544D01*
X150515001Y-72290617D01*
X150515034Y-72296867D01*
X150515614Y-72406792D01*
X150516059Y-72538011D01*
G36*
X139395767Y-76564068D02*
G01*
X139489890Y-76564158D01*
X139564405Y-76564498D01*
X139621811Y-76565239D01*
X139664611Y-76566535D01*
X139695304Y-76568537D01*
X139716391Y-76571396D01*
X139730373Y-76575266D01*
X139739750Y-76580298D01*
X139747022Y-76586645D01*
X139765828Y-76619362D01*
X139767275Y-76656939D01*
X139750917Y-76690178D01*
X139749557Y-76691631D01*
X139738354Y-76699992D01*
X139721252Y-76705547D01*
X139694082Y-76708840D01*
X139652678Y-76710418D01*
X139592873Y-76710822D01*
X139453511Y-76710822D01*
X139453511Y-76974589D01*
X139453436Y-77050417D01*
X139453028Y-77117083D01*
X139452046Y-77166867D01*
X139450250Y-77202784D01*
X139447399Y-77227850D01*
X139443253Y-77245081D01*
X139437571Y-77257492D01*
X139430114Y-77268100D01*
X139427824Y-77270906D01*
X139396646Y-77293548D01*
X139362266Y-77295112D01*
X139329334Y-77275267D01*
X139322355Y-77267191D01*
X139316883Y-77256593D01*
X139312863Y-77240749D01*
X139310072Y-77216773D01*
X139308288Y-77181774D01*
X139307289Y-77132864D01*
X139306852Y-77067154D01*
X139306756Y-76981756D01*
X139306756Y-76710822D01*
X139160820Y-76710822D01*
X139149720Y-76710821D01*
X139093202Y-76710596D01*
X139054358Y-76709457D01*
X139028965Y-76706657D01*
X139012804Y-76701450D01*
X139001652Y-76693089D01*
X138991289Y-76680826D01*
X138975441Y-76650138D01*
X138978543Y-76616358D01*
X139004187Y-76583822D01*
X139009129Y-76580105D01*
X139019338Y-76575269D01*
X139034764Y-76571506D01*
X139057886Y-76568683D01*
X139091183Y-76566670D01*
X139137137Y-76565333D01*
X139198228Y-76564542D01*
X139276935Y-76564163D01*
X139375740Y-76564067D01*
X139395767Y-76564068D01*
G37*
X139395767Y-76564068D02*
X139489890Y-76564158D01*
X139564405Y-76564498D01*
X139621811Y-76565239D01*
X139664611Y-76566535D01*
X139695304Y-76568537D01*
X139716391Y-76571396D01*
X139730373Y-76575266D01*
X139739750Y-76580298D01*
X139747022Y-76586645D01*
X139765828Y-76619362D01*
X139767275Y-76656939D01*
X139750917Y-76690178D01*
X139749557Y-76691631D01*
X139738354Y-76699992D01*
X139721252Y-76705547D01*
X139694082Y-76708840D01*
X139652678Y-76710418D01*
X139592873Y-76710822D01*
X139453511Y-76710822D01*
X139453511Y-76974589D01*
X139453436Y-77050417D01*
X139453028Y-77117083D01*
X139452046Y-77166867D01*
X139450250Y-77202784D01*
X139447399Y-77227850D01*
X139443253Y-77245081D01*
X139437571Y-77257492D01*
X139430114Y-77268100D01*
X139427824Y-77270906D01*
X139396646Y-77293548D01*
X139362266Y-77295112D01*
X139329334Y-77275267D01*
X139322355Y-77267191D01*
X139316883Y-77256593D01*
X139312863Y-77240749D01*
X139310072Y-77216773D01*
X139308288Y-77181774D01*
X139307289Y-77132864D01*
X139306852Y-77067154D01*
X139306756Y-76981756D01*
X139306756Y-76710822D01*
X139160820Y-76710822D01*
X139149720Y-76710821D01*
X139093202Y-76710596D01*
X139054358Y-76709457D01*
X139028965Y-76706657D01*
X139012804Y-76701450D01*
X139001652Y-76693089D01*
X138991289Y-76680826D01*
X138975441Y-76650138D01*
X138978543Y-76616358D01*
X139004187Y-76583822D01*
X139009129Y-76580105D01*
X139019338Y-76575269D01*
X139034764Y-76571506D01*
X139057886Y-76568683D01*
X139091183Y-76566670D01*
X139137137Y-76565333D01*
X139198228Y-76564542D01*
X139276935Y-76564163D01*
X139375740Y-76564067D01*
X139395767Y-76564068D01*
G36*
X148080853Y-76564936D02*
G01*
X148147100Y-76570366D01*
X148202400Y-76579964D01*
X148253283Y-76594825D01*
X148324595Y-76627958D01*
X148375752Y-76670640D01*
X148406575Y-76722705D01*
X148416889Y-76783983D01*
X148415952Y-76815232D01*
X148410160Y-76840029D01*
X148395353Y-76861699D01*
X148367380Y-76889049D01*
X148359402Y-76896378D01*
X148335692Y-76917281D01*
X148313298Y-76934251D01*
X148289265Y-76948205D01*
X148260637Y-76960056D01*
X148224460Y-76970720D01*
X148177780Y-76981111D01*
X148117641Y-76992146D01*
X148041090Y-77004738D01*
X147945171Y-77019804D01*
X147926808Y-77022838D01*
X147864478Y-77036458D01*
X147819260Y-77052192D01*
X147792976Y-77069263D01*
X147787447Y-77086897D01*
X147790068Y-77091168D01*
X147808000Y-77106233D01*
X147836126Y-77122867D01*
X147848926Y-77128857D01*
X147870224Y-77136050D01*
X147896610Y-77140827D01*
X147932454Y-77143646D01*
X147982128Y-77144964D01*
X148050000Y-77145237D01*
X148067785Y-77145164D01*
X148135406Y-77144053D01*
X148200345Y-77141828D01*
X148255970Y-77138762D01*
X148295651Y-77135127D01*
X148331162Y-77131059D01*
X148360415Y-77130276D01*
X148379315Y-77134876D01*
X148394429Y-77145551D01*
X148398085Y-77149144D01*
X148414427Y-77180918D01*
X148413107Y-77216572D01*
X148394150Y-77247190D01*
X148373780Y-77258796D01*
X148337796Y-77271491D01*
X148295372Y-77281541D01*
X148291922Y-77282140D01*
X148249252Y-77287356D01*
X148191866Y-77291730D01*
X148126849Y-77294818D01*
X148061289Y-77296177D01*
X148045057Y-77296218D01*
X147946744Y-77293741D01*
X147866692Y-77285735D01*
X147801513Y-77271203D01*
X147747817Y-77249149D01*
X147702216Y-77218576D01*
X147661323Y-77178486D01*
X147641202Y-77152259D01*
X147629576Y-77122712D01*
X147626667Y-77082995D01*
X147626808Y-77071026D01*
X147630681Y-77038345D01*
X147643065Y-77011819D01*
X147668230Y-76980971D01*
X147689442Y-76958831D01*
X147715838Y-76936285D01*
X147745555Y-76917917D01*
X147781785Y-76902661D01*
X147827717Y-76889449D01*
X147886544Y-76877214D01*
X147961456Y-76864889D01*
X148055645Y-76851406D01*
X148100957Y-76844396D01*
X148168911Y-76829837D01*
X148218047Y-76813337D01*
X148247614Y-76795439D01*
X148256864Y-76776685D01*
X148245048Y-76757615D01*
X148211416Y-76738771D01*
X148208370Y-76737557D01*
X148162011Y-76725479D01*
X148099361Y-76717279D01*
X148025927Y-76713119D01*
X147947217Y-76713161D01*
X147868739Y-76717569D01*
X147796000Y-76726505D01*
X147792073Y-76727154D01*
X147743257Y-76734861D01*
X147711005Y-76738473D01*
X147690008Y-76737876D01*
X147674954Y-76732954D01*
X147660534Y-76723596D01*
X147659364Y-76722725D01*
X147634847Y-76692351D01*
X147630054Y-76656850D01*
X147645860Y-76622269D01*
X147650406Y-76617813D01*
X147680020Y-76602673D01*
X147727002Y-76589550D01*
X147787306Y-76578750D01*
X147856888Y-76570581D01*
X147931703Y-76565351D01*
X148007706Y-76563367D01*
X148080853Y-76564936D01*
G37*
X148080853Y-76564936D02*
X148147100Y-76570366D01*
X148202400Y-76579964D01*
X148253283Y-76594825D01*
X148324595Y-76627958D01*
X148375752Y-76670640D01*
X148406575Y-76722705D01*
X148416889Y-76783983D01*
X148415952Y-76815232D01*
X148410160Y-76840029D01*
X148395353Y-76861699D01*
X148367380Y-76889049D01*
X148359402Y-76896378D01*
X148335692Y-76917281D01*
X148313298Y-76934251D01*
X148289265Y-76948205D01*
X148260637Y-76960056D01*
X148224460Y-76970720D01*
X148177780Y-76981111D01*
X148117641Y-76992146D01*
X148041090Y-77004738D01*
X147945171Y-77019804D01*
X147926808Y-77022838D01*
X147864478Y-77036458D01*
X147819260Y-77052192D01*
X147792976Y-77069263D01*
X147787447Y-77086897D01*
X147790068Y-77091168D01*
X147808000Y-77106233D01*
X147836126Y-77122867D01*
X147848926Y-77128857D01*
X147870224Y-77136050D01*
X147896610Y-77140827D01*
X147932454Y-77143646D01*
X147982128Y-77144964D01*
X148050000Y-77145237D01*
X148067785Y-77145164D01*
X148135406Y-77144053D01*
X148200345Y-77141828D01*
X148255970Y-77138762D01*
X148295651Y-77135127D01*
X148331162Y-77131059D01*
X148360415Y-77130276D01*
X148379315Y-77134876D01*
X148394429Y-77145551D01*
X148398085Y-77149144D01*
X148414427Y-77180918D01*
X148413107Y-77216572D01*
X148394150Y-77247190D01*
X148373780Y-77258796D01*
X148337796Y-77271491D01*
X148295372Y-77281541D01*
X148291922Y-77282140D01*
X148249252Y-77287356D01*
X148191866Y-77291730D01*
X148126849Y-77294818D01*
X148061289Y-77296177D01*
X148045057Y-77296218D01*
X147946744Y-77293741D01*
X147866692Y-77285735D01*
X147801513Y-77271203D01*
X147747817Y-77249149D01*
X147702216Y-77218576D01*
X147661323Y-77178486D01*
X147641202Y-77152259D01*
X147629576Y-77122712D01*
X147626667Y-77082995D01*
X147626808Y-77071026D01*
X147630681Y-77038345D01*
X147643065Y-77011819D01*
X147668230Y-76980971D01*
X147689442Y-76958831D01*
X147715838Y-76936285D01*
X147745555Y-76917917D01*
X147781785Y-76902661D01*
X147827717Y-76889449D01*
X147886544Y-76877214D01*
X147961456Y-76864889D01*
X148055645Y-76851406D01*
X148100957Y-76844396D01*
X148168911Y-76829837D01*
X148218047Y-76813337D01*
X148247614Y-76795439D01*
X148256864Y-76776685D01*
X148245048Y-76757615D01*
X148211416Y-76738771D01*
X148208370Y-76737557D01*
X148162011Y-76725479D01*
X148099361Y-76717279D01*
X148025927Y-76713119D01*
X147947217Y-76713161D01*
X147868739Y-76717569D01*
X147796000Y-76726505D01*
X147792073Y-76727154D01*
X147743257Y-76734861D01*
X147711005Y-76738473D01*
X147690008Y-76737876D01*
X147674954Y-76732954D01*
X147660534Y-76723596D01*
X147659364Y-76722725D01*
X147634847Y-76692351D01*
X147630054Y-76656850D01*
X147645860Y-76622269D01*
X147650406Y-76617813D01*
X147680020Y-76602673D01*
X147727002Y-76589550D01*
X147787306Y-76578750D01*
X147856888Y-76570581D01*
X147931703Y-76565351D01*
X148007706Y-76563367D01*
X148080853Y-76564936D01*
G36*
X144419803Y-76593811D02*
G01*
X144424752Y-76600495D01*
X144430596Y-76611066D01*
X144435057Y-76625153D01*
X144438321Y-76645478D01*
X144440574Y-76674765D01*
X144442002Y-76715737D01*
X144442792Y-76771117D01*
X144443129Y-76843628D01*
X144443200Y-76935994D01*
X144443171Y-77001911D01*
X144442939Y-77080228D01*
X144442319Y-77140496D01*
X144441126Y-77185393D01*
X144439179Y-77217602D01*
X144436294Y-77239800D01*
X144432288Y-77254669D01*
X144426979Y-77264889D01*
X144420183Y-77273138D01*
X144415668Y-77277795D01*
X144407438Y-77284282D01*
X144396078Y-77289194D01*
X144378810Y-77292749D01*
X144352855Y-77295167D01*
X144315436Y-77296667D01*
X144263773Y-77297467D01*
X144195089Y-77297787D01*
X144106606Y-77297845D01*
X144086931Y-77297838D01*
X143999906Y-77297572D01*
X143932254Y-77296806D01*
X143881299Y-77295392D01*
X143844367Y-77293180D01*
X143818783Y-77290022D01*
X143801871Y-77285769D01*
X143790957Y-77280271D01*
X143780464Y-77270285D01*
X143767203Y-77239168D01*
X143768386Y-77203280D01*
X143784550Y-77171733D01*
X143786739Y-77169457D01*
X143795427Y-77163189D01*
X143808769Y-77158523D01*
X143829752Y-77155227D01*
X143861363Y-77153068D01*
X143906590Y-77151814D01*
X143968420Y-77151231D01*
X144049839Y-77151089D01*
X144296445Y-77151089D01*
X144296445Y-76993045D01*
X144134006Y-76993045D01*
X144098338Y-76992964D01*
X144042568Y-76992167D01*
X144003430Y-76990162D01*
X143976976Y-76986521D01*
X143959259Y-76980812D01*
X143946329Y-76972607D01*
X143942686Y-76969423D01*
X143924278Y-76938448D01*
X143923644Y-76902112D01*
X143941183Y-76868493D01*
X143941245Y-76868424D01*
X143950916Y-76859798D01*
X143964209Y-76853742D01*
X143984917Y-76849811D01*
X144016828Y-76847556D01*
X144063734Y-76846531D01*
X144129424Y-76846289D01*
X144297571Y-76846289D01*
X144294186Y-76781378D01*
X144290800Y-76716467D01*
X144048723Y-76713414D01*
X144023707Y-76713086D01*
X143942087Y-76711606D01*
X143879768Y-76709222D01*
X143834154Y-76705227D01*
X143802652Y-76698913D01*
X143782667Y-76689574D01*
X143771604Y-76676503D01*
X143766869Y-76658992D01*
X143765867Y-76636335D01*
X143765873Y-76633970D01*
X143767027Y-76613939D01*
X143771824Y-76598146D01*
X143782632Y-76586090D01*
X143801817Y-76577267D01*
X143831745Y-76571175D01*
X143874783Y-76567311D01*
X143933299Y-76565174D01*
X144009657Y-76564260D01*
X144106226Y-76564067D01*
X144396406Y-76564067D01*
X144419803Y-76593811D01*
G37*
X144419803Y-76593811D02*
X144424752Y-76600495D01*
X144430596Y-76611066D01*
X144435057Y-76625153D01*
X144438321Y-76645478D01*
X144440574Y-76674765D01*
X144442002Y-76715737D01*
X144442792Y-76771117D01*
X144443129Y-76843628D01*
X144443200Y-76935994D01*
X144443171Y-77001911D01*
X144442939Y-77080228D01*
X144442319Y-77140496D01*
X144441126Y-77185393D01*
X144439179Y-77217602D01*
X144436294Y-77239800D01*
X144432288Y-77254669D01*
X144426979Y-77264889D01*
X144420183Y-77273138D01*
X144415668Y-77277795D01*
X144407438Y-77284282D01*
X144396078Y-77289194D01*
X144378810Y-77292749D01*
X144352855Y-77295167D01*
X144315436Y-77296667D01*
X144263773Y-77297467D01*
X144195089Y-77297787D01*
X144106606Y-77297845D01*
X144086931Y-77297838D01*
X143999906Y-77297572D01*
X143932254Y-77296806D01*
X143881299Y-77295392D01*
X143844367Y-77293180D01*
X143818783Y-77290022D01*
X143801871Y-77285769D01*
X143790957Y-77280271D01*
X143780464Y-77270285D01*
X143767203Y-77239168D01*
X143768386Y-77203280D01*
X143784550Y-77171733D01*
X143786739Y-77169457D01*
X143795427Y-77163189D01*
X143808769Y-77158523D01*
X143829752Y-77155227D01*
X143861363Y-77153068D01*
X143906590Y-77151814D01*
X143968420Y-77151231D01*
X144049839Y-77151089D01*
X144296445Y-77151089D01*
X144296445Y-76993045D01*
X144134006Y-76993045D01*
X144098338Y-76992964D01*
X144042568Y-76992167D01*
X144003430Y-76990162D01*
X143976976Y-76986521D01*
X143959259Y-76980812D01*
X143946329Y-76972607D01*
X143942686Y-76969423D01*
X143924278Y-76938448D01*
X143923644Y-76902112D01*
X143941183Y-76868493D01*
X143941245Y-76868424D01*
X143950916Y-76859798D01*
X143964209Y-76853742D01*
X143984917Y-76849811D01*
X144016828Y-76847556D01*
X144063734Y-76846531D01*
X144129424Y-76846289D01*
X144297571Y-76846289D01*
X144294186Y-76781378D01*
X144290800Y-76716467D01*
X144048723Y-76713414D01*
X144023707Y-76713086D01*
X143942087Y-76711606D01*
X143879768Y-76709222D01*
X143834154Y-76705227D01*
X143802652Y-76698913D01*
X143782667Y-76689574D01*
X143771604Y-76676503D01*
X143766869Y-76658992D01*
X143765867Y-76636335D01*
X143765873Y-76633970D01*
X143767027Y-76613939D01*
X143771824Y-76598146D01*
X143782632Y-76586090D01*
X143801817Y-76577267D01*
X143831745Y-76571175D01*
X143874783Y-76567311D01*
X143933299Y-76565174D01*
X144009657Y-76564260D01*
X144106226Y-76564067D01*
X144396406Y-76564067D01*
X144419803Y-76593811D01*
G36*
X144228711Y-72257033D02*
G01*
X144324268Y-72274523D01*
X144488558Y-72319564D01*
X144642589Y-72382656D01*
X144788509Y-72464915D01*
X144928466Y-72567457D01*
X145064608Y-72691399D01*
X145108473Y-72736661D01*
X145220758Y-72868865D01*
X145313972Y-73006832D01*
X145390719Y-73154750D01*
X145453603Y-73316803D01*
X145457420Y-73328391D01*
X145507507Y-73514392D01*
X145540899Y-73710521D01*
X145557584Y-73912568D01*
X145557551Y-74116325D01*
X145540791Y-74317581D01*
X145507292Y-74512128D01*
X145457044Y-74695756D01*
X145413190Y-74813053D01*
X145335348Y-74975951D01*
X145241828Y-75129866D01*
X145134822Y-75271671D01*
X145016519Y-75398239D01*
X144889111Y-75506441D01*
X144811606Y-75559120D01*
X144684725Y-75628750D01*
X144547243Y-75687468D01*
X144405716Y-75732587D01*
X144266702Y-75761422D01*
X144252597Y-75763106D01*
X144209153Y-75766434D01*
X144151723Y-75769275D01*
X144086122Y-75771373D01*
X144018167Y-75772468D01*
X143891378Y-75770140D01*
X143743673Y-75757136D01*
X143605779Y-75732133D01*
X143472014Y-75694318D01*
X143448562Y-75685889D01*
X143400612Y-75666408D01*
X143344140Y-75641473D01*
X143282379Y-75612722D01*
X143218563Y-75581790D01*
X143155926Y-75550315D01*
X143097703Y-75519934D01*
X143047127Y-75492283D01*
X143007433Y-75468999D01*
X142981854Y-75451718D01*
X142973625Y-75442079D01*
X142975076Y-75438984D01*
X142986250Y-75419079D01*
X143007134Y-75383420D01*
X143036265Y-75334459D01*
X143072181Y-75274646D01*
X143113420Y-75206433D01*
X143158517Y-75132271D01*
X143339785Y-74835008D01*
X143386315Y-74879539D01*
X143477723Y-74957865D01*
X143591334Y-75032439D01*
X143709122Y-75086474D01*
X143829559Y-75119290D01*
X143951117Y-75130211D01*
X143992585Y-75128868D01*
X144110080Y-75110612D01*
X144220089Y-75071617D01*
X144321430Y-75012670D01*
X144412921Y-74934557D01*
X144493380Y-74838064D01*
X144561627Y-74723978D01*
X144577908Y-74689724D01*
X144623982Y-74566240D01*
X144659106Y-74427918D01*
X144683197Y-74278561D01*
X144696173Y-74121973D01*
X144697949Y-73961956D01*
X144688443Y-73802314D01*
X144667572Y-73646850D01*
X144635252Y-73499366D01*
X144591399Y-73363667D01*
X144553982Y-73277076D01*
X144489185Y-73163688D01*
X144413772Y-73070070D01*
X144327418Y-72995959D01*
X144229795Y-72941094D01*
X144120577Y-72905212D01*
X143999439Y-72888051D01*
X143930038Y-72886880D01*
X143807168Y-72901141D01*
X143691664Y-72936241D01*
X143584953Y-72991682D01*
X143488464Y-73066964D01*
X143472720Y-73081440D01*
X143442150Y-73107962D01*
X143419809Y-73125138D01*
X143409691Y-73129787D01*
X143407706Y-73127597D01*
X143393241Y-73108721D01*
X143369400Y-73075397D01*
X143338029Y-73030380D01*
X143300974Y-72976425D01*
X143260083Y-72916285D01*
X143217202Y-72852718D01*
X143174178Y-72788476D01*
X143132857Y-72726315D01*
X143095086Y-72668991D01*
X143062712Y-72619257D01*
X143037582Y-72579868D01*
X143021542Y-72553580D01*
X143016439Y-72543147D01*
X143021050Y-72538941D01*
X143040267Y-72533933D01*
X143049838Y-72531386D01*
X143077809Y-72520249D01*
X143119448Y-72501802D01*
X143170995Y-72477725D01*
X143228690Y-72449699D01*
X143239957Y-72444154D01*
X143417687Y-72364889D01*
X143587490Y-72305385D01*
X143751430Y-72265245D01*
X143911571Y-72244071D01*
X144069977Y-72241466D01*
X144228711Y-72257033D01*
G37*
X144228711Y-72257033D02*
X144324268Y-72274523D01*
X144488558Y-72319564D01*
X144642589Y-72382656D01*
X144788509Y-72464915D01*
X144928466Y-72567457D01*
X145064608Y-72691399D01*
X145108473Y-72736661D01*
X145220758Y-72868865D01*
X145313972Y-73006832D01*
X145390719Y-73154750D01*
X145453603Y-73316803D01*
X145457420Y-73328391D01*
X145507507Y-73514392D01*
X145540899Y-73710521D01*
X145557584Y-73912568D01*
X145557551Y-74116325D01*
X145540791Y-74317581D01*
X145507292Y-74512128D01*
X145457044Y-74695756D01*
X145413190Y-74813053D01*
X145335348Y-74975951D01*
X145241828Y-75129866D01*
X145134822Y-75271671D01*
X145016519Y-75398239D01*
X144889111Y-75506441D01*
X144811606Y-75559120D01*
X144684725Y-75628750D01*
X144547243Y-75687468D01*
X144405716Y-75732587D01*
X144266702Y-75761422D01*
X144252597Y-75763106D01*
X144209153Y-75766434D01*
X144151723Y-75769275D01*
X144086122Y-75771373D01*
X144018167Y-75772468D01*
X143891378Y-75770140D01*
X143743673Y-75757136D01*
X143605779Y-75732133D01*
X143472014Y-75694318D01*
X143448562Y-75685889D01*
X143400612Y-75666408D01*
X143344140Y-75641473D01*
X143282379Y-75612722D01*
X143218563Y-75581790D01*
X143155926Y-75550315D01*
X143097703Y-75519934D01*
X143047127Y-75492283D01*
X143007433Y-75468999D01*
X142981854Y-75451718D01*
X142973625Y-75442079D01*
X142975076Y-75438984D01*
X142986250Y-75419079D01*
X143007134Y-75383420D01*
X143036265Y-75334459D01*
X143072181Y-75274646D01*
X143113420Y-75206433D01*
X143158517Y-75132271D01*
X143339785Y-74835008D01*
X143386315Y-74879539D01*
X143477723Y-74957865D01*
X143591334Y-75032439D01*
X143709122Y-75086474D01*
X143829559Y-75119290D01*
X143951117Y-75130211D01*
X143992585Y-75128868D01*
X144110080Y-75110612D01*
X144220089Y-75071617D01*
X144321430Y-75012670D01*
X144412921Y-74934557D01*
X144493380Y-74838064D01*
X144561627Y-74723978D01*
X144577908Y-74689724D01*
X144623982Y-74566240D01*
X144659106Y-74427918D01*
X144683197Y-74278561D01*
X144696173Y-74121973D01*
X144697949Y-73961956D01*
X144688443Y-73802314D01*
X144667572Y-73646850D01*
X144635252Y-73499366D01*
X144591399Y-73363667D01*
X144553982Y-73277076D01*
X144489185Y-73163688D01*
X144413772Y-73070070D01*
X144327418Y-72995959D01*
X144229795Y-72941094D01*
X144120577Y-72905212D01*
X143999439Y-72888051D01*
X143930038Y-72886880D01*
X143807168Y-72901141D01*
X143691664Y-72936241D01*
X143584953Y-72991682D01*
X143488464Y-73066964D01*
X143472720Y-73081440D01*
X143442150Y-73107962D01*
X143419809Y-73125138D01*
X143409691Y-73129787D01*
X143407706Y-73127597D01*
X143393241Y-73108721D01*
X143369400Y-73075397D01*
X143338029Y-73030380D01*
X143300974Y-72976425D01*
X143260083Y-72916285D01*
X143217202Y-72852718D01*
X143174178Y-72788476D01*
X143132857Y-72726315D01*
X143095086Y-72668991D01*
X143062712Y-72619257D01*
X143037582Y-72579868D01*
X143021542Y-72553580D01*
X143016439Y-72543147D01*
X143021050Y-72538941D01*
X143040267Y-72533933D01*
X143049838Y-72531386D01*
X143077809Y-72520249D01*
X143119448Y-72501802D01*
X143170995Y-72477725D01*
X143228690Y-72449699D01*
X143239957Y-72444154D01*
X143417687Y-72364889D01*
X143587490Y-72305385D01*
X143751430Y-72265245D01*
X143911571Y-72244071D01*
X144069977Y-72241466D01*
X144228711Y-72257033D01*
G36*
X143423163Y-77208175D02*
G01*
X143420235Y-77231095D01*
X143416158Y-77246897D01*
X143410743Y-77258319D01*
X143403803Y-77268100D01*
X143380406Y-77297845D01*
X143214714Y-77297251D01*
X143179918Y-77296953D01*
X143081435Y-77293522D01*
X143000473Y-77285839D01*
X142933379Y-77273282D01*
X142876496Y-77255227D01*
X142826169Y-77231052D01*
X142822810Y-77229135D01*
X142764998Y-77192417D01*
X142722644Y-77155451D01*
X142689828Y-77111966D01*
X142660628Y-77055689D01*
X142656346Y-77046073D01*
X142633769Y-76982887D01*
X142628034Y-76937333D01*
X142777279Y-76937333D01*
X142782892Y-76962061D01*
X142788618Y-76977939D01*
X142821548Y-77037847D01*
X142868886Y-77083600D01*
X142932652Y-77116736D01*
X143014861Y-77138790D01*
X143017655Y-77139292D01*
X143063940Y-77145255D01*
X143120336Y-77149483D01*
X143175274Y-77151089D01*
X143269156Y-77151089D01*
X143269156Y-76710822D01*
X143181667Y-76711270D01*
X143114747Y-76713746D01*
X143022349Y-76724998D01*
X142943034Y-76744537D01*
X142881060Y-76771511D01*
X142850120Y-76792240D01*
X142822000Y-76822006D01*
X142798660Y-76864434D01*
X142791533Y-76880400D01*
X142779709Y-76912902D01*
X142777279Y-76937333D01*
X142628034Y-76937333D01*
X142626797Y-76927509D01*
X142635399Y-76872483D01*
X142659541Y-76810351D01*
X142660337Y-76808658D01*
X142700788Y-76739236D01*
X142751473Y-76682638D01*
X142814198Y-76638070D01*
X142890774Y-76604741D01*
X142983009Y-76581861D01*
X143092712Y-76568636D01*
X143221691Y-76564275D01*
X143225263Y-76564270D01*
X143285283Y-76564410D01*
X143327214Y-76565446D01*
X143355328Y-76568040D01*
X143373897Y-76572853D01*
X143387194Y-76580544D01*
X143399491Y-76591776D01*
X143427200Y-76619485D01*
X143427200Y-76928920D01*
X143427175Y-76990526D01*
X143426950Y-77069311D01*
X143426332Y-77130021D01*
X143425775Y-77151089D01*
X143425133Y-77175396D01*
X143423163Y-77208175D01*
G37*
X143423163Y-77208175D02*
X143420235Y-77231095D01*
X143416158Y-77246897D01*
X143410743Y-77258319D01*
X143403803Y-77268100D01*
X143380406Y-77297845D01*
X143214714Y-77297251D01*
X143179918Y-77296953D01*
X143081435Y-77293522D01*
X143000473Y-77285839D01*
X142933379Y-77273282D01*
X142876496Y-77255227D01*
X142826169Y-77231052D01*
X142822810Y-77229135D01*
X142764998Y-77192417D01*
X142722644Y-77155451D01*
X142689828Y-77111966D01*
X142660628Y-77055689D01*
X142656346Y-77046073D01*
X142633769Y-76982887D01*
X142628034Y-76937333D01*
X142777279Y-76937333D01*
X142782892Y-76962061D01*
X142788618Y-76977939D01*
X142821548Y-77037847D01*
X142868886Y-77083600D01*
X142932652Y-77116736D01*
X143014861Y-77138790D01*
X143017655Y-77139292D01*
X143063940Y-77145255D01*
X143120336Y-77149483D01*
X143175274Y-77151089D01*
X143269156Y-77151089D01*
X143269156Y-76710822D01*
X143181667Y-76711270D01*
X143114747Y-76713746D01*
X143022349Y-76724998D01*
X142943034Y-76744537D01*
X142881060Y-76771511D01*
X142850120Y-76792240D01*
X142822000Y-76822006D01*
X142798660Y-76864434D01*
X142791533Y-76880400D01*
X142779709Y-76912902D01*
X142777279Y-76937333D01*
X142628034Y-76937333D01*
X142626797Y-76927509D01*
X142635399Y-76872483D01*
X142659541Y-76810351D01*
X142660337Y-76808658D01*
X142700788Y-76739236D01*
X142751473Y-76682638D01*
X142814198Y-76638070D01*
X142890774Y-76604741D01*
X142983009Y-76581861D01*
X143092712Y-76568636D01*
X143221691Y-76564275D01*
X143225263Y-76564270D01*
X143285283Y-76564410D01*
X143327214Y-76565446D01*
X143355328Y-76568040D01*
X143373897Y-76572853D01*
X143387194Y-76580544D01*
X143399491Y-76591776D01*
X143427200Y-76619485D01*
X143427200Y-76928920D01*
X143427175Y-76990526D01*
X143426950Y-77069311D01*
X143426332Y-77130021D01*
X143425775Y-77151089D01*
X143425133Y-77175396D01*
X143423163Y-77208175D01*
G36*
X145571893Y-76562892D02*
G01*
X145583301Y-76569029D01*
X145593850Y-76579691D01*
X145605136Y-76593811D01*
X145609589Y-76599772D01*
X145615588Y-76610268D01*
X145620167Y-76624093D01*
X145623519Y-76643998D01*
X145625833Y-76672732D01*
X145627301Y-76713045D01*
X145628113Y-76767687D01*
X145628460Y-76839407D01*
X145628534Y-76930956D01*
X145628511Y-76989486D01*
X145628292Y-77068573D01*
X145627683Y-77129516D01*
X145626492Y-77175062D01*
X145624529Y-77207963D01*
X145621603Y-77230968D01*
X145617523Y-77246826D01*
X145612097Y-77258286D01*
X145605136Y-77268100D01*
X145574708Y-77292493D01*
X145539765Y-77295372D01*
X145502784Y-77276282D01*
X145498600Y-77272807D01*
X145490424Y-77264279D01*
X145484364Y-77252728D01*
X145479981Y-77234896D01*
X145476839Y-77207524D01*
X145474502Y-77167354D01*
X145472531Y-77111128D01*
X145470489Y-77035589D01*
X145464845Y-76816458D01*
X145199556Y-77057099D01*
X145125722Y-77123875D01*
X145060542Y-77181991D01*
X145008348Y-77226949D01*
X144967273Y-77259871D01*
X144935455Y-77281879D01*
X144911026Y-77294094D01*
X144892124Y-77297639D01*
X144876883Y-77293636D01*
X144863439Y-77283207D01*
X144849927Y-77267474D01*
X144843682Y-77258991D01*
X144838050Y-77248413D01*
X144833839Y-77234255D01*
X144830887Y-77213803D01*
X144829032Y-77184342D01*
X144828113Y-77143161D01*
X144827968Y-77087544D01*
X144828435Y-77014779D01*
X144829352Y-76922151D01*
X144832667Y-76607199D01*
X144859318Y-76585633D01*
X144885383Y-76569441D01*
X144918241Y-76566670D01*
X144952772Y-76585623D01*
X144957084Y-76589208D01*
X144965216Y-76597737D01*
X144971245Y-76609329D01*
X144975606Y-76627235D01*
X144978734Y-76654706D01*
X144981063Y-76694994D01*
X144983029Y-76751351D01*
X144985067Y-76827029D01*
X144990711Y-77046878D01*
X145171334Y-76883084D01*
X145258072Y-76804451D01*
X145333843Y-76736058D01*
X145395980Y-76680708D01*
X145446078Y-76637338D01*
X145485735Y-76604881D01*
X145516548Y-76582273D01*
X145540114Y-76568448D01*
X145558030Y-76562343D01*
X145571893Y-76562892D01*
G37*
X145571893Y-76562892D02*
X145583301Y-76569029D01*
X145593850Y-76579691D01*
X145605136Y-76593811D01*
X145609589Y-76599772D01*
X145615588Y-76610268D01*
X145620167Y-76624093D01*
X145623519Y-76643998D01*
X145625833Y-76672732D01*
X145627301Y-76713045D01*
X145628113Y-76767687D01*
X145628460Y-76839407D01*
X145628534Y-76930956D01*
X145628511Y-76989486D01*
X145628292Y-77068573D01*
X145627683Y-77129516D01*
X145626492Y-77175062D01*
X145624529Y-77207963D01*
X145621603Y-77230968D01*
X145617523Y-77246826D01*
X145612097Y-77258286D01*
X145605136Y-77268100D01*
X145574708Y-77292493D01*
X145539765Y-77295372D01*
X145502784Y-77276282D01*
X145498600Y-77272807D01*
X145490424Y-77264279D01*
X145484364Y-77252728D01*
X145479981Y-77234896D01*
X145476839Y-77207524D01*
X145474502Y-77167354D01*
X145472531Y-77111128D01*
X145470489Y-77035589D01*
X145464845Y-76816458D01*
X145199556Y-77057099D01*
X145125722Y-77123875D01*
X145060542Y-77181991D01*
X145008348Y-77226949D01*
X144967273Y-77259871D01*
X144935455Y-77281879D01*
X144911026Y-77294094D01*
X144892124Y-77297639D01*
X144876883Y-77293636D01*
X144863439Y-77283207D01*
X144849927Y-77267474D01*
X144843682Y-77258991D01*
X144838050Y-77248413D01*
X144833839Y-77234255D01*
X144830887Y-77213803D01*
X144829032Y-77184342D01*
X144828113Y-77143161D01*
X144827968Y-77087544D01*
X144828435Y-77014779D01*
X144829352Y-76922151D01*
X144832667Y-76607199D01*
X144859318Y-76585633D01*
X144885383Y-76569441D01*
X144918241Y-76566670D01*
X144952772Y-76585623D01*
X144957084Y-76589208D01*
X144965216Y-76597737D01*
X144971245Y-76609329D01*
X144975606Y-76627235D01*
X144978734Y-76654706D01*
X144981063Y-76694994D01*
X144983029Y-76751351D01*
X144985067Y-76827029D01*
X144990711Y-77046878D01*
X145171334Y-76883084D01*
X145258072Y-76804451D01*
X145333843Y-76736058D01*
X145395980Y-76680708D01*
X145446078Y-76637338D01*
X145485735Y-76604881D01*
X145516548Y-76582273D01*
X145540114Y-76568448D01*
X145558030Y-76562343D01*
X145571893Y-76562892D01*
G36*
X140529702Y-76573478D02*
G01*
X140547663Y-76591989D01*
X140568263Y-76623071D01*
X140593095Y-76668756D01*
X140623750Y-76731078D01*
X140661820Y-76812071D01*
X140676454Y-76843454D01*
X140706203Y-76906638D01*
X140732297Y-76961244D01*
X140753292Y-77004290D01*
X140767739Y-77032793D01*
X140774191Y-77043770D01*
X140775550Y-77043189D01*
X140785542Y-77029242D01*
X140802833Y-76999704D01*
X140825430Y-76958087D01*
X140851338Y-76907903D01*
X140867311Y-76876414D01*
X140896261Y-76821061D01*
X140918749Y-76782044D01*
X140936965Y-76756566D01*
X140953096Y-76741831D01*
X140969330Y-76735042D01*
X140987857Y-76733400D01*
X140998360Y-76733875D01*
X141014476Y-76738082D01*
X141029790Y-76748946D01*
X141046388Y-76769219D01*
X141066357Y-76801654D01*
X141091783Y-76849004D01*
X141124752Y-76914022D01*
X141134485Y-76933277D01*
X141158943Y-76979946D01*
X141179178Y-77016109D01*
X141193311Y-77038497D01*
X141199460Y-77043845D01*
X141200827Y-77040573D01*
X141210202Y-77019664D01*
X141227062Y-76982725D01*
X141249979Y-76932874D01*
X141277520Y-76873226D01*
X141308255Y-76806898D01*
X141334970Y-76749677D01*
X141364593Y-76687688D01*
X141387664Y-76641949D01*
X141405643Y-76609908D01*
X141419990Y-76589014D01*
X141432166Y-76576718D01*
X141443632Y-76570466D01*
X141453042Y-76567574D01*
X141478147Y-76567425D01*
X141505290Y-76582768D01*
X141506590Y-76583753D01*
X141528674Y-76606388D01*
X141539723Y-76628613D01*
X141539769Y-76629253D01*
X141535228Y-76646915D01*
X141522364Y-76681481D01*
X141502605Y-76729826D01*
X141477381Y-76788825D01*
X141448119Y-76855355D01*
X141416250Y-76926291D01*
X141383201Y-76998507D01*
X141350401Y-77068880D01*
X141319280Y-77134285D01*
X141291265Y-77191597D01*
X141267786Y-77237692D01*
X141250272Y-77269446D01*
X141240151Y-77283733D01*
X141205743Y-77297102D01*
X141164046Y-77290741D01*
X141158681Y-77286044D01*
X141142852Y-77263893D01*
X141120650Y-77227132D01*
X141094233Y-77179415D01*
X141065760Y-77124393D01*
X140985986Y-76965150D01*
X140912799Y-77111742D01*
X140903103Y-77131032D01*
X140876125Y-77183380D01*
X140852096Y-77228170D01*
X140833332Y-77261154D01*
X140822146Y-77278089D01*
X140821000Y-77279332D01*
X140792879Y-77294619D01*
X140757817Y-77296302D01*
X140726776Y-77283733D01*
X140724350Y-77280884D01*
X140712090Y-77260259D01*
X140692352Y-77222708D01*
X140666448Y-77170880D01*
X140635685Y-77107423D01*
X140601375Y-77034985D01*
X140564825Y-76956216D01*
X140544585Y-76912093D01*
X140507812Y-76831365D01*
X140479355Y-76767687D01*
X140458331Y-76718752D01*
X140443854Y-76682257D01*
X140435039Y-76655895D01*
X140431004Y-76637361D01*
X140430862Y-76624352D01*
X140433730Y-76614561D01*
X140448387Y-76593678D01*
X140474990Y-76573377D01*
X140475745Y-76573035D01*
X140495335Y-76566034D01*
X140512790Y-76565504D01*
X140529702Y-76573478D01*
G37*
X140529702Y-76573478D02*
X140547663Y-76591989D01*
X140568263Y-76623071D01*
X140593095Y-76668756D01*
X140623750Y-76731078D01*
X140661820Y-76812071D01*
X140676454Y-76843454D01*
X140706203Y-76906638D01*
X140732297Y-76961244D01*
X140753292Y-77004290D01*
X140767739Y-77032793D01*
X140774191Y-77043770D01*
X140775550Y-77043189D01*
X140785542Y-77029242D01*
X140802833Y-76999704D01*
X140825430Y-76958087D01*
X140851338Y-76907903D01*
X140867311Y-76876414D01*
X140896261Y-76821061D01*
X140918749Y-76782044D01*
X140936965Y-76756566D01*
X140953096Y-76741831D01*
X140969330Y-76735042D01*
X140987857Y-76733400D01*
X140998360Y-76733875D01*
X141014476Y-76738082D01*
X141029790Y-76748946D01*
X141046388Y-76769219D01*
X141066357Y-76801654D01*
X141091783Y-76849004D01*
X141124752Y-76914022D01*
X141134485Y-76933277D01*
X141158943Y-76979946D01*
X141179178Y-77016109D01*
X141193311Y-77038497D01*
X141199460Y-77043845D01*
X141200827Y-77040573D01*
X141210202Y-77019664D01*
X141227062Y-76982725D01*
X141249979Y-76932874D01*
X141277520Y-76873226D01*
X141308255Y-76806898D01*
X141334970Y-76749677D01*
X141364593Y-76687688D01*
X141387664Y-76641949D01*
X141405643Y-76609908D01*
X141419990Y-76589014D01*
X141432166Y-76576718D01*
X141443632Y-76570466D01*
X141453042Y-76567574D01*
X141478147Y-76567425D01*
X141505290Y-76582768D01*
X141506590Y-76583753D01*
X141528674Y-76606388D01*
X141539723Y-76628613D01*
X141539769Y-76629253D01*
X141535228Y-76646915D01*
X141522364Y-76681481D01*
X141502605Y-76729826D01*
X141477381Y-76788825D01*
X141448119Y-76855355D01*
X141416250Y-76926291D01*
X141383201Y-76998507D01*
X141350401Y-77068880D01*
X141319280Y-77134285D01*
X141291265Y-77191597D01*
X141267786Y-77237692D01*
X141250272Y-77269446D01*
X141240151Y-77283733D01*
X141205743Y-77297102D01*
X141164046Y-77290741D01*
X141158681Y-77286044D01*
X141142852Y-77263893D01*
X141120650Y-77227132D01*
X141094233Y-77179415D01*
X141065760Y-77124393D01*
X140985986Y-76965150D01*
X140912799Y-77111742D01*
X140903103Y-77131032D01*
X140876125Y-77183380D01*
X140852096Y-77228170D01*
X140833332Y-77261154D01*
X140822146Y-77278089D01*
X140821000Y-77279332D01*
X140792879Y-77294619D01*
X140757817Y-77296302D01*
X140726776Y-77283733D01*
X140724350Y-77280884D01*
X140712090Y-77260259D01*
X140692352Y-77222708D01*
X140666448Y-77170880D01*
X140635685Y-77107423D01*
X140601375Y-77034985D01*
X140564825Y-76956216D01*
X140544585Y-76912093D01*
X140507812Y-76831365D01*
X140479355Y-76767687D01*
X140458331Y-76718752D01*
X140443854Y-76682257D01*
X140435039Y-76655895D01*
X140431004Y-76637361D01*
X140430862Y-76624352D01*
X140433730Y-76614561D01*
X140448387Y-76593678D01*
X140474990Y-76573377D01*
X140475745Y-76573035D01*
X140495335Y-76566034D01*
X140512790Y-76565504D01*
X140529702Y-76573478D01*
G36*
X147226137Y-76568463D02*
G01*
X147260291Y-76591776D01*
X147288000Y-76619485D01*
X147288000Y-76932537D01*
X147287959Y-77016567D01*
X147287701Y-77090789D01*
X147287030Y-77147541D01*
X147285752Y-77189512D01*
X147283673Y-77219389D01*
X147280599Y-77239861D01*
X147276334Y-77253614D01*
X147270684Y-77263337D01*
X147263455Y-77271717D01*
X147231991Y-77293181D01*
X147196826Y-77294947D01*
X147163822Y-77275267D01*
X147158516Y-77269398D01*
X147153066Y-77260314D01*
X147148900Y-77246973D01*
X147145846Y-77226757D01*
X147143732Y-77197049D01*
X147142386Y-77155232D01*
X147141638Y-77098689D01*
X147141314Y-77024802D01*
X147141245Y-76930956D01*
X147141284Y-76855294D01*
X147141539Y-76777385D01*
X147142183Y-76717375D01*
X147143387Y-76672648D01*
X147145324Y-76640585D01*
X147148164Y-76618571D01*
X147152079Y-76603987D01*
X147157242Y-76594218D01*
X147163822Y-76586645D01*
X147193006Y-76567623D01*
X147226137Y-76568463D01*
G37*
X147226137Y-76568463D02*
X147260291Y-76591776D01*
X147288000Y-76619485D01*
X147288000Y-76932537D01*
X147287959Y-77016567D01*
X147287701Y-77090789D01*
X147287030Y-77147541D01*
X147285752Y-77189512D01*
X147283673Y-77219389D01*
X147280599Y-77239861D01*
X147276334Y-77253614D01*
X147270684Y-77263337D01*
X147263455Y-77271717D01*
X147231991Y-77293181D01*
X147196826Y-77294947D01*
X147163822Y-77275267D01*
X147158516Y-77269398D01*
X147153066Y-77260314D01*
X147148900Y-77246973D01*
X147145846Y-77226757D01*
X147143732Y-77197049D01*
X147142386Y-77155232D01*
X147141638Y-77098689D01*
X147141314Y-77024802D01*
X147141245Y-76930956D01*
X147141284Y-76855294D01*
X147141539Y-76777385D01*
X147142183Y-76717375D01*
X147143387Y-76672648D01*
X147145324Y-76640585D01*
X147148164Y-76618571D01*
X147152079Y-76603987D01*
X147157242Y-76594218D01*
X147163822Y-76586645D01*
X147193006Y-76567623D01*
X147226137Y-76568463D01*
G36*
X146694562Y-71327850D02*
G01*
X146777313Y-71355053D01*
X146852406Y-71400484D01*
X146924298Y-71466302D01*
X146962846Y-71510567D01*
X147002256Y-71568961D01*
X147027446Y-71629586D01*
X147040861Y-71698865D01*
X147044948Y-71783222D01*
X147044669Y-71829307D01*
X147042460Y-71870450D01*
X147036894Y-71902582D01*
X147026586Y-71933122D01*
X147010148Y-71969489D01*
X146996200Y-71996728D01*
X146937665Y-72082429D01*
X146865619Y-72151617D01*
X146781947Y-72202741D01*
X146688531Y-72234250D01*
X146655434Y-72241225D01*
X146614960Y-72248094D01*
X146581999Y-72249919D01*
X146547698Y-72246947D01*
X146503200Y-72239426D01*
X146451934Y-72227002D01*
X146361434Y-72189112D01*
X146282345Y-72134836D01*
X146216528Y-72066770D01*
X146165840Y-71987511D01*
X146132140Y-71899654D01*
X146117286Y-71805795D01*
X146123136Y-71708530D01*
X146149399Y-71612220D01*
X146194418Y-71523494D01*
X146255373Y-71448419D01*
X146330184Y-71388641D01*
X146416768Y-71345809D01*
X146513043Y-71321571D01*
X146616928Y-71317576D01*
X146694562Y-71327850D01*
G37*
X146694562Y-71327850D02*
X146777313Y-71355053D01*
X146852406Y-71400484D01*
X146924298Y-71466302D01*
X146962846Y-71510567D01*
X147002256Y-71568961D01*
X147027446Y-71629586D01*
X147040861Y-71698865D01*
X147044948Y-71783222D01*
X147044669Y-71829307D01*
X147042460Y-71870450D01*
X147036894Y-71902582D01*
X147026586Y-71933122D01*
X147010148Y-71969489D01*
X146996200Y-71996728D01*
X146937665Y-72082429D01*
X146865619Y-72151617D01*
X146781947Y-72202741D01*
X146688531Y-72234250D01*
X146655434Y-72241225D01*
X146614960Y-72248094D01*
X146581999Y-72249919D01*
X146547698Y-72246947D01*
X146503200Y-72239426D01*
X146451934Y-72227002D01*
X146361434Y-72189112D01*
X146282345Y-72134836D01*
X146216528Y-72066770D01*
X146165840Y-71987511D01*
X146132140Y-71899654D01*
X146117286Y-71805795D01*
X146123136Y-71708530D01*
X146149399Y-71612220D01*
X146194418Y-71523494D01*
X146255373Y-71448419D01*
X146330184Y-71388641D01*
X146416768Y-71345809D01*
X146513043Y-71321571D01*
X146616928Y-71317576D01*
X146694562Y-71327850D01*
G36*
X140425268Y-74615158D02*
G01*
X140416689Y-74766594D01*
X140397833Y-74903283D01*
X140367837Y-75029276D01*
X140325836Y-75148625D01*
X140270969Y-75265381D01*
X140204167Y-75376179D01*
X140113363Y-75489739D01*
X140009708Y-75585211D01*
X139893887Y-75662073D01*
X139766586Y-75719797D01*
X139628489Y-75757858D01*
X139590793Y-75763666D01*
X139511752Y-75769396D01*
X139423629Y-75769583D01*
X139334236Y-75764539D01*
X139251384Y-75754578D01*
X139182887Y-75740012D01*
X139152035Y-75730364D01*
X139074730Y-75700123D01*
X138997679Y-75662617D01*
X138928200Y-75621614D01*
X138873615Y-75580879D01*
X138850916Y-75561505D01*
X138828201Y-75543662D01*
X138816779Y-75536778D01*
X138815537Y-75538424D01*
X138812728Y-75556205D01*
X138810776Y-75589370D01*
X138810045Y-75632733D01*
X138810045Y-75728689D01*
X137951896Y-75728689D01*
X137986161Y-75667974D01*
X137991355Y-75658868D01*
X137999715Y-75644249D01*
X138007288Y-75630173D01*
X138014112Y-75615540D01*
X138020227Y-75599249D01*
X138025673Y-75580198D01*
X138030487Y-75557286D01*
X138034708Y-75529413D01*
X138038377Y-75495478D01*
X138041531Y-75454379D01*
X138044211Y-75405015D01*
X138046454Y-75346286D01*
X138048299Y-75277090D01*
X138049787Y-75196326D01*
X138050955Y-75102894D01*
X138051678Y-75015721D01*
X138855200Y-75015721D01*
X138925756Y-75062089D01*
X138966417Y-75085791D01*
X139020546Y-75111639D01*
X139069689Y-75129829D01*
X139133165Y-75145551D01*
X139229331Y-75156541D01*
X139313900Y-75148365D01*
X139387219Y-75120805D01*
X139449637Y-75073642D01*
X139501502Y-75006658D01*
X139543160Y-74919633D01*
X139574962Y-74812350D01*
X139577545Y-74800009D01*
X139586000Y-74738772D01*
X139591663Y-74661692D01*
X139594576Y-74574002D01*
X139594783Y-74480934D01*
X139592330Y-74387720D01*
X139587261Y-74299594D01*
X139579619Y-74221788D01*
X139569448Y-74159533D01*
X139568167Y-74153666D01*
X139539126Y-74043121D01*
X139504610Y-73952575D01*
X139463456Y-73879953D01*
X139414499Y-73823181D01*
X139356574Y-73780184D01*
X139324620Y-73764615D01*
X139251784Y-73745722D01*
X139170443Y-73742465D01*
X139085319Y-73754389D01*
X139001133Y-73781040D01*
X138922608Y-73821962D01*
X138855200Y-73865530D01*
X138855200Y-75015721D01*
X138051678Y-75015721D01*
X138051844Y-74995692D01*
X138052491Y-74873620D01*
X138052936Y-74735576D01*
X138053218Y-74580459D01*
X138053375Y-74407168D01*
X138053448Y-74214603D01*
X138053474Y-74001662D01*
X138053493Y-73767245D01*
X138053689Y-72082378D01*
X138959017Y-72082378D01*
X138934585Y-72119067D01*
X138928318Y-72128647D01*
X138902208Y-72174981D01*
X138884469Y-72222102D01*
X138872908Y-72277251D01*
X138865331Y-72347667D01*
X138864839Y-72354650D01*
X138863062Y-72392641D01*
X138861444Y-72446576D01*
X138859999Y-72513703D01*
X138858740Y-72591271D01*
X138857680Y-72676528D01*
X138856829Y-72766724D01*
X138856203Y-72859107D01*
X138855812Y-72950925D01*
X138855670Y-73039427D01*
X138855790Y-73121862D01*
X138856183Y-73195479D01*
X138856862Y-73257526D01*
X138857841Y-73305251D01*
X138859132Y-73335904D01*
X138860747Y-73346733D01*
X138868957Y-73342333D01*
X138890647Y-73327362D01*
X138920014Y-73305448D01*
X138968879Y-73271236D01*
X139057125Y-73224714D01*
X139155916Y-73191046D01*
X139268510Y-73169231D01*
X139398164Y-73158265D01*
X139490670Y-73157219D01*
X139612011Y-73167014D01*
X139722099Y-73191174D01*
X139825389Y-73230785D01*
X139926338Y-73286932D01*
X139971503Y-73317883D01*
X140076911Y-73409115D01*
X140168538Y-73518106D01*
X140246332Y-73644726D01*
X140310241Y-73788845D01*
X140360214Y-73950332D01*
X140396198Y-74129059D01*
X140418143Y-74324895D01*
X140423900Y-74480934D01*
X140425994Y-74537711D01*
X140425268Y-74615158D01*
G37*
X140425268Y-74615158D02*
X140416689Y-74766594D01*
X140397833Y-74903283D01*
X140367837Y-75029276D01*
X140325836Y-75148625D01*
X140270969Y-75265381D01*
X140204167Y-75376179D01*
X140113363Y-75489739D01*
X140009708Y-75585211D01*
X139893887Y-75662073D01*
X139766586Y-75719797D01*
X139628489Y-75757858D01*
X139590793Y-75763666D01*
X139511752Y-75769396D01*
X139423629Y-75769583D01*
X139334236Y-75764539D01*
X139251384Y-75754578D01*
X139182887Y-75740012D01*
X139152035Y-75730364D01*
X139074730Y-75700123D01*
X138997679Y-75662617D01*
X138928200Y-75621614D01*
X138873615Y-75580879D01*
X138850916Y-75561505D01*
X138828201Y-75543662D01*
X138816779Y-75536778D01*
X138815537Y-75538424D01*
X138812728Y-75556205D01*
X138810776Y-75589370D01*
X138810045Y-75632733D01*
X138810045Y-75728689D01*
X137951896Y-75728689D01*
X137986161Y-75667974D01*
X137991355Y-75658868D01*
X137999715Y-75644249D01*
X138007288Y-75630173D01*
X138014112Y-75615540D01*
X138020227Y-75599249D01*
X138025673Y-75580198D01*
X138030487Y-75557286D01*
X138034708Y-75529413D01*
X138038377Y-75495478D01*
X138041531Y-75454379D01*
X138044211Y-75405015D01*
X138046454Y-75346286D01*
X138048299Y-75277090D01*
X138049787Y-75196326D01*
X138050955Y-75102894D01*
X138051678Y-75015721D01*
X138855200Y-75015721D01*
X138925756Y-75062089D01*
X138966417Y-75085791D01*
X139020546Y-75111639D01*
X139069689Y-75129829D01*
X139133165Y-75145551D01*
X139229331Y-75156541D01*
X139313900Y-75148365D01*
X139387219Y-75120805D01*
X139449637Y-75073642D01*
X139501502Y-75006658D01*
X139543160Y-74919633D01*
X139574962Y-74812350D01*
X139577545Y-74800009D01*
X139586000Y-74738772D01*
X139591663Y-74661692D01*
X139594576Y-74574002D01*
X139594783Y-74480934D01*
X139592330Y-74387720D01*
X139587261Y-74299594D01*
X139579619Y-74221788D01*
X139569448Y-74159533D01*
X139568167Y-74153666D01*
X139539126Y-74043121D01*
X139504610Y-73952575D01*
X139463456Y-73879953D01*
X139414499Y-73823181D01*
X139356574Y-73780184D01*
X139324620Y-73764615D01*
X139251784Y-73745722D01*
X139170443Y-73742465D01*
X139085319Y-73754389D01*
X139001133Y-73781040D01*
X138922608Y-73821962D01*
X138855200Y-73865530D01*
X138855200Y-75015721D01*
X138051678Y-75015721D01*
X138051844Y-74995692D01*
X138052491Y-74873620D01*
X138052936Y-74735576D01*
X138053218Y-74580459D01*
X138053375Y-74407168D01*
X138053448Y-74214603D01*
X138053474Y-74001662D01*
X138053493Y-73767245D01*
X138053689Y-72082378D01*
X138959017Y-72082378D01*
X138934585Y-72119067D01*
X138928318Y-72128647D01*
X138902208Y-72174981D01*
X138884469Y-72222102D01*
X138872908Y-72277251D01*
X138865331Y-72347667D01*
X138864839Y-72354650D01*
X138863062Y-72392641D01*
X138861444Y-72446576D01*
X138859999Y-72513703D01*
X138858740Y-72591271D01*
X138857680Y-72676528D01*
X138856829Y-72766724D01*
X138856203Y-72859107D01*
X138855812Y-72950925D01*
X138855670Y-73039427D01*
X138855790Y-73121862D01*
X138856183Y-73195479D01*
X138856862Y-73257526D01*
X138857841Y-73305251D01*
X138859132Y-73335904D01*
X138860747Y-73346733D01*
X138868957Y-73342333D01*
X138890647Y-73327362D01*
X138920014Y-73305448D01*
X138968879Y-73271236D01*
X139057125Y-73224714D01*
X139155916Y-73191046D01*
X139268510Y-73169231D01*
X139398164Y-73158265D01*
X139490670Y-73157219D01*
X139612011Y-73167014D01*
X139722099Y-73191174D01*
X139825389Y-73230785D01*
X139926338Y-73286932D01*
X139971503Y-73317883D01*
X140076911Y-73409115D01*
X140168538Y-73518106D01*
X140246332Y-73644726D01*
X140310241Y-73788845D01*
X140360214Y-73950332D01*
X140396198Y-74129059D01*
X140418143Y-74324895D01*
X140423900Y-74480934D01*
X140425994Y-74537711D01*
X140425268Y-74615158D01*
G36*
X150516870Y-76830041D02*
G01*
X150516622Y-76930956D01*
X150516583Y-77006617D01*
X150516328Y-77084526D01*
X150515684Y-77144536D01*
X150514480Y-77189264D01*
X150512543Y-77221326D01*
X150509703Y-77243340D01*
X150505788Y-77257924D01*
X150500626Y-77267694D01*
X150494045Y-77275267D01*
X150487077Y-77281501D01*
X150474079Y-77288801D01*
X150454931Y-77293554D01*
X150425528Y-77296292D01*
X150381762Y-77297545D01*
X150319528Y-77297845D01*
X150270582Y-77297469D01*
X150163722Y-77293041D01*
X150074494Y-77282953D01*
X149999696Y-77266365D01*
X149936125Y-77242435D01*
X149880579Y-77210321D01*
X149829854Y-77169182D01*
X149823866Y-77163330D01*
X149786999Y-77114821D01*
X149755899Y-77054013D01*
X149734417Y-76989769D01*
X149729136Y-76951026D01*
X149876353Y-76951026D01*
X149894635Y-77001961D01*
X149924305Y-77047878D01*
X149971002Y-77090287D01*
X150032392Y-77120090D01*
X150111538Y-77139226D01*
X150113028Y-77139464D01*
X150161999Y-77145256D01*
X150220693Y-77149396D01*
X150276734Y-77151004D01*
X150369867Y-77151089D01*
X150369867Y-76710822D01*
X150293667Y-76710808D01*
X150290639Y-76710817D01*
X150239519Y-76712782D01*
X150179416Y-76717507D01*
X150122708Y-76724035D01*
X150072750Y-76733331D01*
X149997998Y-76759600D01*
X149940489Y-76798899D01*
X149898988Y-76851933D01*
X149877771Y-76903200D01*
X149876353Y-76951026D01*
X149729136Y-76951026D01*
X149726400Y-76930956D01*
X149727679Y-76909739D01*
X149739991Y-76852323D01*
X149762520Y-76792413D01*
X149791750Y-76738363D01*
X149824167Y-76698532D01*
X149843708Y-76681510D01*
X149898420Y-76642322D01*
X149958723Y-76612193D01*
X150027919Y-76590232D01*
X150109311Y-76575550D01*
X150206200Y-76567259D01*
X150321889Y-76564467D01*
X150361371Y-76564066D01*
X150407082Y-76563653D01*
X150442883Y-76565457D01*
X150469974Y-76571739D01*
X150489556Y-76584759D01*
X150502830Y-76606778D01*
X150510998Y-76640055D01*
X150515260Y-76686851D01*
X150515857Y-76710822D01*
X150516817Y-76749427D01*
X150516870Y-76830041D01*
G37*
X150516870Y-76830041D02*
X150516622Y-76930956D01*
X150516583Y-77006617D01*
X150516328Y-77084526D01*
X150515684Y-77144536D01*
X150514480Y-77189264D01*
X150512543Y-77221326D01*
X150509703Y-77243340D01*
X150505788Y-77257924D01*
X150500626Y-77267694D01*
X150494045Y-77275267D01*
X150487077Y-77281501D01*
X150474079Y-77288801D01*
X150454931Y-77293554D01*
X150425528Y-77296292D01*
X150381762Y-77297545D01*
X150319528Y-77297845D01*
X150270582Y-77297469D01*
X150163722Y-77293041D01*
X150074494Y-77282953D01*
X149999696Y-77266365D01*
X149936125Y-77242435D01*
X149880579Y-77210321D01*
X149829854Y-77169182D01*
X149823866Y-77163330D01*
X149786999Y-77114821D01*
X149755899Y-77054013D01*
X149734417Y-76989769D01*
X149729136Y-76951026D01*
X149876353Y-76951026D01*
X149894635Y-77001961D01*
X149924305Y-77047878D01*
X149971002Y-77090287D01*
X150032392Y-77120090D01*
X150111538Y-77139226D01*
X150113028Y-77139464D01*
X150161999Y-77145256D01*
X150220693Y-77149396D01*
X150276734Y-77151004D01*
X150369867Y-77151089D01*
X150369867Y-76710822D01*
X150293667Y-76710808D01*
X150290639Y-76710817D01*
X150239519Y-76712782D01*
X150179416Y-76717507D01*
X150122708Y-76724035D01*
X150072750Y-76733331D01*
X149997998Y-76759600D01*
X149940489Y-76798899D01*
X149898988Y-76851933D01*
X149877771Y-76903200D01*
X149876353Y-76951026D01*
X149729136Y-76951026D01*
X149726400Y-76930956D01*
X149727679Y-76909739D01*
X149739991Y-76852323D01*
X149762520Y-76792413D01*
X149791750Y-76738363D01*
X149824167Y-76698532D01*
X149843708Y-76681510D01*
X149898420Y-76642322D01*
X149958723Y-76612193D01*
X150027919Y-76590232D01*
X150109311Y-76575550D01*
X150206200Y-76567259D01*
X150321889Y-76564467D01*
X150361371Y-76564066D01*
X150407082Y-76563653D01*
X150442883Y-76565457D01*
X150469974Y-76571739D01*
X150489556Y-76584759D01*
X150502830Y-76606778D01*
X150510998Y-76640055D01*
X150515260Y-76686851D01*
X150515857Y-76710822D01*
X150516817Y-76749427D01*
X150516870Y-76830041D01*
%TD*%
M02*
