M48
; DRILL file {KiCad 6.0.2-378541a8eb~116~ubuntu21.10.1} date dom 13 feb 2022 18:24:15
; FORMAT={-:-/ absolute / inch / decimal}
; #@! TF.CreationDate,2022-02-13T18:24:15+01:00
; #@! TF.GenerationSoftware,Kicad,Pcbnew,6.0.2-378541a8eb~116~ubuntu21.10.1
; #@! TF.FileFunction,Plated,1,2,PTH
FMAT,2
INCH
; #@! TA.AperFunction,Plated,PTH,ViaDrill
T1C0.0157
; #@! TA.AperFunction,Plated,PTH,ComponentDrill
T2C0.0315
; #@! TA.AperFunction,Plated,PTH,ComponentDrill
T3C0.0394
%
G90
G05
T1
X4.8787Y-2.85
X4.9787Y-2.875
X5.0787Y-2.925
X5.1787Y-2.9681
X5.3002Y-2.595
X5.5002Y-2.595
X6.2037Y-3.0
X6.4513Y-2.5458
X6.4518Y-2.7239
X6.5537Y-2.85
X6.7037Y-3.4
X6.7287Y-2.175
X6.7738Y-2.545
T2
X6.2289Y-2.6256
X6.2289Y-2.9256
X6.3289Y-2.6256
X6.3289Y-2.9256
X6.4289Y-2.6256
X6.4289Y-2.9256
X6.5289Y-2.6256
X6.5289Y-2.9256
X6.6289Y-2.6256
X6.6289Y-2.9256
X6.7289Y-2.6256
X6.7289Y-2.9256
X6.8289Y-2.6256
X6.8289Y-2.9256
X6.9289Y-2.6256
X6.9289Y-2.9256
X7.0289Y-2.6256
X7.0289Y-2.9256
X7.1289Y-2.6256
X7.1289Y-2.9256
T3
X4.0287Y-2.275
X4.0287Y-2.375
X4.0287Y-3.175
X4.0287Y-3.275
X4.1287Y-2.275
X4.1287Y-2.375
X4.1287Y-3.175
X4.1287Y-3.275
X4.2287Y-2.275
X4.2287Y-2.375
X4.2287Y-3.175
X4.2287Y-3.275
X4.3287Y-2.275
X4.3287Y-2.375
X4.3287Y-3.175
X4.3287Y-3.275
X4.4287Y-2.275
X4.4287Y-2.375
X4.4287Y-3.175
X4.4287Y-3.275
X4.5287Y-2.275
X4.5287Y-2.375
X4.5287Y-3.175
X4.5287Y-3.275
X4.6287Y-2.275
X4.6287Y-2.375
X4.6287Y-3.175
X4.6287Y-3.275
X4.7287Y-2.275
X4.7287Y-2.375
X4.7287Y-3.175
X4.7287Y-3.275
X4.8287Y-2.275
X4.8287Y-2.375
X4.8287Y-3.175
X4.8287Y-3.275
X4.9287Y-2.275
X4.9287Y-2.375
X4.9287Y-3.175
X4.9287Y-3.275
X5.0287Y-2.275
X5.0287Y-2.375
X5.0287Y-3.175
X5.0287Y-3.275
X5.1287Y-2.275
X5.1287Y-2.375
X5.1287Y-3.175
X5.1287Y-3.275
X5.2287Y-2.275
X5.2287Y-2.375
X5.2287Y-3.175
X5.2287Y-3.275
X5.3287Y-2.275
X5.3287Y-2.375
X5.3287Y-3.175
X5.3287Y-3.275
X5.4287Y-2.275
X5.4287Y-2.375
X5.4287Y-3.175
X5.4287Y-3.275
X5.5287Y-2.275
X5.5287Y-2.375
X5.5287Y-3.175
X5.5287Y-3.275
X5.6287Y-2.275
X5.6287Y-2.375
X5.6287Y-3.175
X5.6287Y-3.275
X5.7287Y-2.275
X5.7287Y-2.375
X5.7287Y-3.175
X5.7287Y-3.275
X5.8287Y-2.275
X5.8287Y-2.375
X5.8287Y-3.175
X5.8287Y-3.275
X5.9287Y-2.275
X5.9287Y-2.375
X5.9287Y-3.175
X5.9287Y-3.275
X6.0287Y-2.275
X6.0287Y-2.375
X6.0287Y-3.175
X6.0287Y-3.275
X6.1287Y-2.275
X6.1287Y-2.375
X6.1287Y-3.175
X6.1287Y-3.275
X6.2287Y-2.275
X6.2287Y-2.375
X6.2287Y-3.175
X6.2287Y-3.275
X6.3287Y-2.275
X6.3287Y-2.375
X6.3287Y-3.175
X6.3287Y-3.275
X6.4287Y-2.275
X6.4287Y-2.375
X6.4287Y-3.175
X6.4287Y-3.275
X6.5287Y-2.275
X6.5287Y-2.375
X6.5287Y-3.175
X6.5287Y-3.275
X6.6287Y-2.275
X6.6287Y-2.375
X6.6287Y-3.175
X6.6287Y-3.275
X6.7287Y-2.275
X6.7287Y-2.375
X6.7287Y-3.175
X6.7287Y-3.275
X6.8287Y-2.275
X6.8287Y-2.375
X6.8287Y-3.175
X6.8287Y-3.275
X6.9287Y-2.275
X6.9287Y-2.375
X6.9287Y-3.175
X6.9287Y-3.275
X7.0287Y-2.275
X7.0287Y-2.375
X7.0287Y-3.175
X7.0287Y-3.275
X7.1287Y-2.275
X7.1287Y-2.375
X7.1287Y-3.175
X7.1287Y-3.275
T0
M30
