%TF.GenerationSoftware,KiCad,Pcbnew,7.0.9+1*%
%TF.CreationDate,2023-12-26T23:15:29+01:00*%
%TF.ProjectId,qlexternal512kram_MIX,716c6578-7465-4726-9e61-6c3531326b72,0.1*%
%TF.SameCoordinates,Original*%
%TF.FileFunction,Legend,Bot*%
%TF.FilePolarity,Positive*%
%FSLAX46Y46*%
G04 Gerber Fmt 4.6, Leading zero omitted, Abs format (unit mm)*
G04 Created by KiCad (PCBNEW 7.0.9+1) date 2023-12-26 23:15:29*
%MOMM*%
%LPD*%
G01*
G04 APERTURE LIST*
%ADD10C,0.150000*%
G04 APERTURE END LIST*
D10*
X118680001Y-72674819D02*
X119156191Y-72674819D01*
X119156191Y-72674819D02*
X119156191Y-71674819D01*
X118346667Y-72674819D02*
X118346667Y-72008152D01*
X118346667Y-71674819D02*
X118394286Y-71722438D01*
X118394286Y-71722438D02*
X118346667Y-71770057D01*
X118346667Y-71770057D02*
X118299048Y-71722438D01*
X118299048Y-71722438D02*
X118346667Y-71674819D01*
X118346667Y-71674819D02*
X118346667Y-71770057D01*
X117441906Y-72627200D02*
X117537144Y-72674819D01*
X117537144Y-72674819D02*
X117727620Y-72674819D01*
X117727620Y-72674819D02*
X117822858Y-72627200D01*
X117822858Y-72627200D02*
X117870477Y-72579580D01*
X117870477Y-72579580D02*
X117918096Y-72484342D01*
X117918096Y-72484342D02*
X117918096Y-72198628D01*
X117918096Y-72198628D02*
X117870477Y-72103390D01*
X117870477Y-72103390D02*
X117822858Y-72055771D01*
X117822858Y-72055771D02*
X117727620Y-72008152D01*
X117727620Y-72008152D02*
X117537144Y-72008152D01*
X117537144Y-72008152D02*
X117441906Y-72055771D01*
X116632382Y-72627200D02*
X116727620Y-72674819D01*
X116727620Y-72674819D02*
X116918096Y-72674819D01*
X116918096Y-72674819D02*
X117013334Y-72627200D01*
X117013334Y-72627200D02*
X117060953Y-72531961D01*
X117060953Y-72531961D02*
X117060953Y-72151009D01*
X117060953Y-72151009D02*
X117013334Y-72055771D01*
X117013334Y-72055771D02*
X116918096Y-72008152D01*
X116918096Y-72008152D02*
X116727620Y-72008152D01*
X116727620Y-72008152D02*
X116632382Y-72055771D01*
X116632382Y-72055771D02*
X116584763Y-72151009D01*
X116584763Y-72151009D02*
X116584763Y-72246247D01*
X116584763Y-72246247D02*
X117060953Y-72341485D01*
X116156191Y-72008152D02*
X116156191Y-72674819D01*
X116156191Y-72103390D02*
X116108572Y-72055771D01*
X116108572Y-72055771D02*
X116013334Y-72008152D01*
X116013334Y-72008152D02*
X115870477Y-72008152D01*
X115870477Y-72008152D02*
X115775239Y-72055771D01*
X115775239Y-72055771D02*
X115727620Y-72151009D01*
X115727620Y-72151009D02*
X115727620Y-72674819D01*
X115299048Y-72627200D02*
X115203810Y-72674819D01*
X115203810Y-72674819D02*
X115013334Y-72674819D01*
X115013334Y-72674819D02*
X114918096Y-72627200D01*
X114918096Y-72627200D02*
X114870477Y-72531961D01*
X114870477Y-72531961D02*
X114870477Y-72484342D01*
X114870477Y-72484342D02*
X114918096Y-72389104D01*
X114918096Y-72389104D02*
X115013334Y-72341485D01*
X115013334Y-72341485D02*
X115156191Y-72341485D01*
X115156191Y-72341485D02*
X115251429Y-72293866D01*
X115251429Y-72293866D02*
X115299048Y-72198628D01*
X115299048Y-72198628D02*
X115299048Y-72151009D01*
X115299048Y-72151009D02*
X115251429Y-72055771D01*
X115251429Y-72055771D02*
X115156191Y-72008152D01*
X115156191Y-72008152D02*
X115013334Y-72008152D01*
X115013334Y-72008152D02*
X114918096Y-72055771D01*
X114060953Y-72627200D02*
X114156191Y-72674819D01*
X114156191Y-72674819D02*
X114346667Y-72674819D01*
X114346667Y-72674819D02*
X114441905Y-72627200D01*
X114441905Y-72627200D02*
X114489524Y-72531961D01*
X114489524Y-72531961D02*
X114489524Y-72151009D01*
X114489524Y-72151009D02*
X114441905Y-72055771D01*
X114441905Y-72055771D02*
X114346667Y-72008152D01*
X114346667Y-72008152D02*
X114156191Y-72008152D01*
X114156191Y-72008152D02*
X114060953Y-72055771D01*
X114060953Y-72055771D02*
X114013334Y-72151009D01*
X114013334Y-72151009D02*
X114013334Y-72246247D01*
X114013334Y-72246247D02*
X114489524Y-72341485D01*
X113156191Y-72674819D02*
X113156191Y-71674819D01*
X113156191Y-72627200D02*
X113251429Y-72674819D01*
X113251429Y-72674819D02*
X113441905Y-72674819D01*
X113441905Y-72674819D02*
X113537143Y-72627200D01*
X113537143Y-72627200D02*
X113584762Y-72579580D01*
X113584762Y-72579580D02*
X113632381Y-72484342D01*
X113632381Y-72484342D02*
X113632381Y-72198628D01*
X113632381Y-72198628D02*
X113584762Y-72103390D01*
X113584762Y-72103390D02*
X113537143Y-72055771D01*
X113537143Y-72055771D02*
X113441905Y-72008152D01*
X113441905Y-72008152D02*
X113251429Y-72008152D01*
X113251429Y-72008152D02*
X113156191Y-72055771D01*
X111489524Y-72008152D02*
X111489524Y-72674819D01*
X111918095Y-72008152D02*
X111918095Y-72531961D01*
X111918095Y-72531961D02*
X111870476Y-72627200D01*
X111870476Y-72627200D02*
X111775238Y-72674819D01*
X111775238Y-72674819D02*
X111632381Y-72674819D01*
X111632381Y-72674819D02*
X111537143Y-72627200D01*
X111537143Y-72627200D02*
X111489524Y-72579580D01*
X111013333Y-72008152D02*
X111013333Y-72674819D01*
X111013333Y-72103390D02*
X110965714Y-72055771D01*
X110965714Y-72055771D02*
X110870476Y-72008152D01*
X110870476Y-72008152D02*
X110727619Y-72008152D01*
X110727619Y-72008152D02*
X110632381Y-72055771D01*
X110632381Y-72055771D02*
X110584762Y-72151009D01*
X110584762Y-72151009D02*
X110584762Y-72674819D01*
X109680000Y-72674819D02*
X109680000Y-71674819D01*
X109680000Y-72627200D02*
X109775238Y-72674819D01*
X109775238Y-72674819D02*
X109965714Y-72674819D01*
X109965714Y-72674819D02*
X110060952Y-72627200D01*
X110060952Y-72627200D02*
X110108571Y-72579580D01*
X110108571Y-72579580D02*
X110156190Y-72484342D01*
X110156190Y-72484342D02*
X110156190Y-72198628D01*
X110156190Y-72198628D02*
X110108571Y-72103390D01*
X110108571Y-72103390D02*
X110060952Y-72055771D01*
X110060952Y-72055771D02*
X109965714Y-72008152D01*
X109965714Y-72008152D02*
X109775238Y-72008152D01*
X109775238Y-72008152D02*
X109680000Y-72055771D01*
X108822857Y-72627200D02*
X108918095Y-72674819D01*
X108918095Y-72674819D02*
X109108571Y-72674819D01*
X109108571Y-72674819D02*
X109203809Y-72627200D01*
X109203809Y-72627200D02*
X109251428Y-72531961D01*
X109251428Y-72531961D02*
X109251428Y-72151009D01*
X109251428Y-72151009D02*
X109203809Y-72055771D01*
X109203809Y-72055771D02*
X109108571Y-72008152D01*
X109108571Y-72008152D02*
X108918095Y-72008152D01*
X108918095Y-72008152D02*
X108822857Y-72055771D01*
X108822857Y-72055771D02*
X108775238Y-72151009D01*
X108775238Y-72151009D02*
X108775238Y-72246247D01*
X108775238Y-72246247D02*
X109251428Y-72341485D01*
X108346666Y-72674819D02*
X108346666Y-72008152D01*
X108346666Y-72198628D02*
X108299047Y-72103390D01*
X108299047Y-72103390D02*
X108251428Y-72055771D01*
X108251428Y-72055771D02*
X108156190Y-72008152D01*
X108156190Y-72008152D02*
X108060952Y-72008152D01*
X106394285Y-72579580D02*
X106441904Y-72627200D01*
X106441904Y-72627200D02*
X106584761Y-72674819D01*
X106584761Y-72674819D02*
X106679999Y-72674819D01*
X106679999Y-72674819D02*
X106822856Y-72627200D01*
X106822856Y-72627200D02*
X106918094Y-72531961D01*
X106918094Y-72531961D02*
X106965713Y-72436723D01*
X106965713Y-72436723D02*
X107013332Y-72246247D01*
X107013332Y-72246247D02*
X107013332Y-72103390D01*
X107013332Y-72103390D02*
X106965713Y-71912914D01*
X106965713Y-71912914D02*
X106918094Y-71817676D01*
X106918094Y-71817676D02*
X106822856Y-71722438D01*
X106822856Y-71722438D02*
X106679999Y-71674819D01*
X106679999Y-71674819D02*
X106584761Y-71674819D01*
X106584761Y-71674819D02*
X106441904Y-71722438D01*
X106441904Y-71722438D02*
X106394285Y-71770057D01*
X105584761Y-72627200D02*
X105679999Y-72674819D01*
X105679999Y-72674819D02*
X105870475Y-72674819D01*
X105870475Y-72674819D02*
X105965713Y-72627200D01*
X105965713Y-72627200D02*
X106013332Y-72531961D01*
X106013332Y-72531961D02*
X106013332Y-72151009D01*
X106013332Y-72151009D02*
X105965713Y-72055771D01*
X105965713Y-72055771D02*
X105870475Y-72008152D01*
X105870475Y-72008152D02*
X105679999Y-72008152D01*
X105679999Y-72008152D02*
X105584761Y-72055771D01*
X105584761Y-72055771D02*
X105537142Y-72151009D01*
X105537142Y-72151009D02*
X105537142Y-72246247D01*
X105537142Y-72246247D02*
X106013332Y-72341485D01*
X105108570Y-72674819D02*
X105108570Y-72008152D01*
X105108570Y-72198628D02*
X105060951Y-72103390D01*
X105060951Y-72103390D02*
X105013332Y-72055771D01*
X105013332Y-72055771D02*
X104918094Y-72008152D01*
X104918094Y-72008152D02*
X104822856Y-72008152D01*
X104489522Y-72008152D02*
X104489522Y-72674819D01*
X104489522Y-72103390D02*
X104441903Y-72055771D01*
X104441903Y-72055771D02*
X104346665Y-72008152D01*
X104346665Y-72008152D02*
X104203808Y-72008152D01*
X104203808Y-72008152D02*
X104108570Y-72055771D01*
X104108570Y-72055771D02*
X104060951Y-72151009D01*
X104060951Y-72151009D02*
X104060951Y-72674819D01*
X102632379Y-71674819D02*
X102441903Y-71674819D01*
X102441903Y-71674819D02*
X102346665Y-71722438D01*
X102346665Y-71722438D02*
X102251427Y-71817676D01*
X102251427Y-71817676D02*
X102203808Y-72008152D01*
X102203808Y-72008152D02*
X102203808Y-72341485D01*
X102203808Y-72341485D02*
X102251427Y-72531961D01*
X102251427Y-72531961D02*
X102346665Y-72627200D01*
X102346665Y-72627200D02*
X102441903Y-72674819D01*
X102441903Y-72674819D02*
X102632379Y-72674819D01*
X102632379Y-72674819D02*
X102727617Y-72627200D01*
X102727617Y-72627200D02*
X102822855Y-72531961D01*
X102822855Y-72531961D02*
X102870474Y-72341485D01*
X102870474Y-72341485D02*
X102870474Y-72008152D01*
X102870474Y-72008152D02*
X102822855Y-71817676D01*
X102822855Y-71817676D02*
X102727617Y-71722438D01*
X102727617Y-71722438D02*
X102632379Y-71674819D01*
X101775236Y-72674819D02*
X101775236Y-71674819D01*
X101775236Y-72151009D02*
X101203808Y-72151009D01*
X101203808Y-72674819D02*
X101203808Y-71674819D01*
X100251427Y-72674819D02*
X100727617Y-72674819D01*
X100727617Y-72674819D02*
X100727617Y-71674819D01*
X99918093Y-72293866D02*
X99156189Y-72293866D01*
X98727617Y-72627200D02*
X98584760Y-72674819D01*
X98584760Y-72674819D02*
X98346665Y-72674819D01*
X98346665Y-72674819D02*
X98251427Y-72627200D01*
X98251427Y-72627200D02*
X98203808Y-72579580D01*
X98203808Y-72579580D02*
X98156189Y-72484342D01*
X98156189Y-72484342D02*
X98156189Y-72389104D01*
X98156189Y-72389104D02*
X98203808Y-72293866D01*
X98203808Y-72293866D02*
X98251427Y-72246247D01*
X98251427Y-72246247D02*
X98346665Y-72198628D01*
X98346665Y-72198628D02*
X98537141Y-72151009D01*
X98537141Y-72151009D02*
X98632379Y-72103390D01*
X98632379Y-72103390D02*
X98679998Y-72055771D01*
X98679998Y-72055771D02*
X98727617Y-71960533D01*
X98727617Y-71960533D02*
X98727617Y-71865295D01*
X98727617Y-71865295D02*
X98679998Y-71770057D01*
X98679998Y-71770057D02*
X98632379Y-71722438D01*
X98632379Y-71722438D02*
X98537141Y-71674819D01*
X98537141Y-71674819D02*
X98299046Y-71674819D01*
X98299046Y-71674819D02*
X98156189Y-71722438D01*
X121727620Y-74284819D02*
X121727620Y-73284819D01*
X121299049Y-74284819D02*
X121299049Y-73761009D01*
X121299049Y-73761009D02*
X121346668Y-73665771D01*
X121346668Y-73665771D02*
X121441906Y-73618152D01*
X121441906Y-73618152D02*
X121584763Y-73618152D01*
X121584763Y-73618152D02*
X121680001Y-73665771D01*
X121680001Y-73665771D02*
X121727620Y-73713390D01*
X120965715Y-73618152D02*
X120584763Y-73618152D01*
X120822858Y-73284819D02*
X120822858Y-74141961D01*
X120822858Y-74141961D02*
X120775239Y-74237200D01*
X120775239Y-74237200D02*
X120680001Y-74284819D01*
X120680001Y-74284819D02*
X120584763Y-74284819D01*
X120394286Y-73618152D02*
X120013334Y-73618152D01*
X120251429Y-73284819D02*
X120251429Y-74141961D01*
X120251429Y-74141961D02*
X120203810Y-74237200D01*
X120203810Y-74237200D02*
X120108572Y-74284819D01*
X120108572Y-74284819D02*
X120013334Y-74284819D01*
X119680000Y-73618152D02*
X119680000Y-74618152D01*
X119680000Y-73665771D02*
X119584762Y-73618152D01*
X119584762Y-73618152D02*
X119394286Y-73618152D01*
X119394286Y-73618152D02*
X119299048Y-73665771D01*
X119299048Y-73665771D02*
X119251429Y-73713390D01*
X119251429Y-73713390D02*
X119203810Y-73808628D01*
X119203810Y-73808628D02*
X119203810Y-74094342D01*
X119203810Y-74094342D02*
X119251429Y-74189580D01*
X119251429Y-74189580D02*
X119299048Y-74237200D01*
X119299048Y-74237200D02*
X119394286Y-74284819D01*
X119394286Y-74284819D02*
X119584762Y-74284819D01*
X119584762Y-74284819D02*
X119680000Y-74237200D01*
X118822857Y-74237200D02*
X118727619Y-74284819D01*
X118727619Y-74284819D02*
X118537143Y-74284819D01*
X118537143Y-74284819D02*
X118441905Y-74237200D01*
X118441905Y-74237200D02*
X118394286Y-74141961D01*
X118394286Y-74141961D02*
X118394286Y-74094342D01*
X118394286Y-74094342D02*
X118441905Y-73999104D01*
X118441905Y-73999104D02*
X118537143Y-73951485D01*
X118537143Y-73951485D02*
X118680000Y-73951485D01*
X118680000Y-73951485D02*
X118775238Y-73903866D01*
X118775238Y-73903866D02*
X118822857Y-73808628D01*
X118822857Y-73808628D02*
X118822857Y-73761009D01*
X118822857Y-73761009D02*
X118775238Y-73665771D01*
X118775238Y-73665771D02*
X118680000Y-73618152D01*
X118680000Y-73618152D02*
X118537143Y-73618152D01*
X118537143Y-73618152D02*
X118441905Y-73665771D01*
X117965714Y-74189580D02*
X117918095Y-74237200D01*
X117918095Y-74237200D02*
X117965714Y-74284819D01*
X117965714Y-74284819D02*
X118013333Y-74237200D01*
X118013333Y-74237200D02*
X117965714Y-74189580D01*
X117965714Y-74189580D02*
X117965714Y-74284819D01*
X117965714Y-73665771D02*
X117918095Y-73713390D01*
X117918095Y-73713390D02*
X117965714Y-73761009D01*
X117965714Y-73761009D02*
X118013333Y-73713390D01*
X118013333Y-73713390D02*
X117965714Y-73665771D01*
X117965714Y-73665771D02*
X117965714Y-73761009D01*
X116775239Y-73237200D02*
X117632381Y-74522914D01*
X115727620Y-73237200D02*
X116584762Y-74522914D01*
X115251429Y-74284819D02*
X115346667Y-74237200D01*
X115346667Y-74237200D02*
X115394286Y-74189580D01*
X115394286Y-74189580D02*
X115441905Y-74094342D01*
X115441905Y-74094342D02*
X115441905Y-73808628D01*
X115441905Y-73808628D02*
X115394286Y-73713390D01*
X115394286Y-73713390D02*
X115346667Y-73665771D01*
X115346667Y-73665771D02*
X115251429Y-73618152D01*
X115251429Y-73618152D02*
X115108572Y-73618152D01*
X115108572Y-73618152D02*
X115013334Y-73665771D01*
X115013334Y-73665771D02*
X114965715Y-73713390D01*
X114965715Y-73713390D02*
X114918096Y-73808628D01*
X114918096Y-73808628D02*
X114918096Y-74094342D01*
X114918096Y-74094342D02*
X114965715Y-74189580D01*
X114965715Y-74189580D02*
X115013334Y-74237200D01*
X115013334Y-74237200D02*
X115108572Y-74284819D01*
X115108572Y-74284819D02*
X115251429Y-74284819D01*
X114489524Y-74284819D02*
X114489524Y-73284819D01*
X114060953Y-74284819D02*
X114060953Y-73761009D01*
X114060953Y-73761009D02*
X114108572Y-73665771D01*
X114108572Y-73665771D02*
X114203810Y-73618152D01*
X114203810Y-73618152D02*
X114346667Y-73618152D01*
X114346667Y-73618152D02*
X114441905Y-73665771D01*
X114441905Y-73665771D02*
X114489524Y-73713390D01*
X113680000Y-73618152D02*
X113489524Y-74284819D01*
X113489524Y-74284819D02*
X113299048Y-73808628D01*
X113299048Y-73808628D02*
X113108572Y-74284819D01*
X113108572Y-74284819D02*
X112918096Y-73618152D01*
X112537143Y-74284819D02*
X112537143Y-73618152D01*
X112537143Y-73808628D02*
X112489524Y-73713390D01*
X112489524Y-73713390D02*
X112441905Y-73665771D01*
X112441905Y-73665771D02*
X112346667Y-73618152D01*
X112346667Y-73618152D02*
X112251429Y-73618152D01*
X111918095Y-74189580D02*
X111870476Y-74237200D01*
X111870476Y-74237200D02*
X111918095Y-74284819D01*
X111918095Y-74284819D02*
X111965714Y-74237200D01*
X111965714Y-74237200D02*
X111918095Y-74189580D01*
X111918095Y-74189580D02*
X111918095Y-74284819D01*
X111299048Y-74284819D02*
X111394286Y-74237200D01*
X111394286Y-74237200D02*
X111441905Y-74189580D01*
X111441905Y-74189580D02*
X111489524Y-74094342D01*
X111489524Y-74094342D02*
X111489524Y-73808628D01*
X111489524Y-73808628D02*
X111441905Y-73713390D01*
X111441905Y-73713390D02*
X111394286Y-73665771D01*
X111394286Y-73665771D02*
X111299048Y-73618152D01*
X111299048Y-73618152D02*
X111156191Y-73618152D01*
X111156191Y-73618152D02*
X111060953Y-73665771D01*
X111060953Y-73665771D02*
X111013334Y-73713390D01*
X111013334Y-73713390D02*
X110965715Y-73808628D01*
X110965715Y-73808628D02*
X110965715Y-74094342D01*
X110965715Y-74094342D02*
X111013334Y-74189580D01*
X111013334Y-74189580D02*
X111060953Y-74237200D01*
X111060953Y-74237200D02*
X111156191Y-74284819D01*
X111156191Y-74284819D02*
X111299048Y-74284819D01*
X110537143Y-74284819D02*
X110537143Y-73618152D01*
X110537143Y-73808628D02*
X110489524Y-73713390D01*
X110489524Y-73713390D02*
X110441905Y-73665771D01*
X110441905Y-73665771D02*
X110346667Y-73618152D01*
X110346667Y-73618152D02*
X110251429Y-73618152D01*
X109489524Y-73618152D02*
X109489524Y-74427676D01*
X109489524Y-74427676D02*
X109537143Y-74522914D01*
X109537143Y-74522914D02*
X109584762Y-74570533D01*
X109584762Y-74570533D02*
X109680000Y-74618152D01*
X109680000Y-74618152D02*
X109822857Y-74618152D01*
X109822857Y-74618152D02*
X109918095Y-74570533D01*
X109489524Y-74237200D02*
X109584762Y-74284819D01*
X109584762Y-74284819D02*
X109775238Y-74284819D01*
X109775238Y-74284819D02*
X109870476Y-74237200D01*
X109870476Y-74237200D02*
X109918095Y-74189580D01*
X109918095Y-74189580D02*
X109965714Y-74094342D01*
X109965714Y-74094342D02*
X109965714Y-73808628D01*
X109965714Y-73808628D02*
X109918095Y-73713390D01*
X109918095Y-73713390D02*
X109870476Y-73665771D01*
X109870476Y-73665771D02*
X109775238Y-73618152D01*
X109775238Y-73618152D02*
X109584762Y-73618152D01*
X109584762Y-73618152D02*
X109489524Y-73665771D01*
X108299048Y-73237200D02*
X109156190Y-74522914D01*
X107537143Y-74237200D02*
X107632381Y-74284819D01*
X107632381Y-74284819D02*
X107822857Y-74284819D01*
X107822857Y-74284819D02*
X107918095Y-74237200D01*
X107918095Y-74237200D02*
X107965714Y-74189580D01*
X107965714Y-74189580D02*
X108013333Y-74094342D01*
X108013333Y-74094342D02*
X108013333Y-73808628D01*
X108013333Y-73808628D02*
X107965714Y-73713390D01*
X107965714Y-73713390D02*
X107918095Y-73665771D01*
X107918095Y-73665771D02*
X107822857Y-73618152D01*
X107822857Y-73618152D02*
X107632381Y-73618152D01*
X107632381Y-73618152D02*
X107537143Y-73665771D01*
X106727619Y-74237200D02*
X106822857Y-74284819D01*
X106822857Y-74284819D02*
X107013333Y-74284819D01*
X107013333Y-74284819D02*
X107108571Y-74237200D01*
X107108571Y-74237200D02*
X107156190Y-74141961D01*
X107156190Y-74141961D02*
X107156190Y-73761009D01*
X107156190Y-73761009D02*
X107108571Y-73665771D01*
X107108571Y-73665771D02*
X107013333Y-73618152D01*
X107013333Y-73618152D02*
X106822857Y-73618152D01*
X106822857Y-73618152D02*
X106727619Y-73665771D01*
X106727619Y-73665771D02*
X106680000Y-73761009D01*
X106680000Y-73761009D02*
X106680000Y-73856247D01*
X106680000Y-73856247D02*
X107156190Y-73951485D01*
X106251428Y-74284819D02*
X106251428Y-73618152D01*
X106251428Y-73808628D02*
X106203809Y-73713390D01*
X106203809Y-73713390D02*
X106156190Y-73665771D01*
X106156190Y-73665771D02*
X106060952Y-73618152D01*
X106060952Y-73618152D02*
X105965714Y-73618152D01*
X105632380Y-73618152D02*
X105632380Y-74284819D01*
X105632380Y-73713390D02*
X105584761Y-73665771D01*
X105584761Y-73665771D02*
X105489523Y-73618152D01*
X105489523Y-73618152D02*
X105346666Y-73618152D01*
X105346666Y-73618152D02*
X105251428Y-73665771D01*
X105251428Y-73665771D02*
X105203809Y-73761009D01*
X105203809Y-73761009D02*
X105203809Y-74284819D01*
X104965714Y-74380057D02*
X104203809Y-74380057D01*
X103822856Y-74284819D02*
X103918094Y-74237200D01*
X103918094Y-74237200D02*
X103965713Y-74189580D01*
X103965713Y-74189580D02*
X104013332Y-74094342D01*
X104013332Y-74094342D02*
X104013332Y-73808628D01*
X104013332Y-73808628D02*
X103965713Y-73713390D01*
X103965713Y-73713390D02*
X103918094Y-73665771D01*
X103918094Y-73665771D02*
X103822856Y-73618152D01*
X103822856Y-73618152D02*
X103679999Y-73618152D01*
X103679999Y-73618152D02*
X103584761Y-73665771D01*
X103584761Y-73665771D02*
X103537142Y-73713390D01*
X103537142Y-73713390D02*
X103489523Y-73808628D01*
X103489523Y-73808628D02*
X103489523Y-74094342D01*
X103489523Y-74094342D02*
X103537142Y-74189580D01*
X103537142Y-74189580D02*
X103584761Y-74237200D01*
X103584761Y-74237200D02*
X103679999Y-74284819D01*
X103679999Y-74284819D02*
X103822856Y-74284819D01*
X103060951Y-74284819D02*
X103060951Y-73284819D01*
X102632380Y-74284819D02*
X102632380Y-73761009D01*
X102632380Y-73761009D02*
X102679999Y-73665771D01*
X102679999Y-73665771D02*
X102775237Y-73618152D01*
X102775237Y-73618152D02*
X102918094Y-73618152D01*
X102918094Y-73618152D02*
X103013332Y-73665771D01*
X103013332Y-73665771D02*
X103060951Y-73713390D01*
X102013332Y-74284819D02*
X102108570Y-74237200D01*
X102108570Y-74237200D02*
X102156189Y-74141961D01*
X102156189Y-74141961D02*
X102156189Y-73284819D01*
X101870475Y-74380057D02*
X101108570Y-74380057D01*
X100918093Y-74237200D02*
X100822855Y-74284819D01*
X100822855Y-74284819D02*
X100632379Y-74284819D01*
X100632379Y-74284819D02*
X100537141Y-74237200D01*
X100537141Y-74237200D02*
X100489522Y-74141961D01*
X100489522Y-74141961D02*
X100489522Y-74094342D01*
X100489522Y-74094342D02*
X100537141Y-73999104D01*
X100537141Y-73999104D02*
X100632379Y-73951485D01*
X100632379Y-73951485D02*
X100775236Y-73951485D01*
X100775236Y-73951485D02*
X100870474Y-73903866D01*
X100870474Y-73903866D02*
X100918093Y-73808628D01*
X100918093Y-73808628D02*
X100918093Y-73761009D01*
X100918093Y-73761009D02*
X100870474Y-73665771D01*
X100870474Y-73665771D02*
X100775236Y-73618152D01*
X100775236Y-73618152D02*
X100632379Y-73618152D01*
X100632379Y-73618152D02*
X100537141Y-73665771D01*
X100299046Y-74380057D02*
X99537141Y-74380057D01*
X99394283Y-73618152D02*
X99156188Y-74284819D01*
X99156188Y-74284819D02*
X98918093Y-73618152D01*
X98584759Y-73380057D02*
X98537140Y-73332438D01*
X98537140Y-73332438D02*
X98441902Y-73284819D01*
X98441902Y-73284819D02*
X98203807Y-73284819D01*
X98203807Y-73284819D02*
X98108569Y-73332438D01*
X98108569Y-73332438D02*
X98060950Y-73380057D01*
X98060950Y-73380057D02*
X98013331Y-73475295D01*
X98013331Y-73475295D02*
X98013331Y-73570533D01*
X98013331Y-73570533D02*
X98060950Y-73713390D01*
X98060950Y-73713390D02*
X98632378Y-74284819D01*
X98632378Y-74284819D02*
X98013331Y-74284819D01*
X97584759Y-74189580D02*
X97537140Y-74237200D01*
X97537140Y-74237200D02*
X97584759Y-74284819D01*
X97584759Y-74284819D02*
X97632378Y-74237200D01*
X97632378Y-74237200D02*
X97584759Y-74189580D01*
X97584759Y-74189580D02*
X97584759Y-74284819D01*
X97251426Y-73618152D02*
X96870474Y-73618152D01*
X97108569Y-73284819D02*
X97108569Y-74141961D01*
X97108569Y-74141961D02*
X97060950Y-74237200D01*
X97060950Y-74237200D02*
X96965712Y-74284819D01*
X96965712Y-74284819D02*
X96870474Y-74284819D01*
X96632378Y-74284819D02*
X96108569Y-73618152D01*
X96632378Y-73618152D02*
X96108569Y-74284819D01*
X95870473Y-73618152D02*
X95489521Y-73618152D01*
X95727616Y-73284819D02*
X95727616Y-74141961D01*
X95727616Y-74141961D02*
X95679997Y-74237200D01*
X95679997Y-74237200D02*
X95584759Y-74284819D01*
X95584759Y-74284819D02*
X95489521Y-74284819D01*
X151073334Y-70416009D02*
X150930477Y-70463628D01*
X150930477Y-70463628D02*
X150882858Y-70511247D01*
X150882858Y-70511247D02*
X150835239Y-70606485D01*
X150835239Y-70606485D02*
X150835239Y-70749342D01*
X150835239Y-70749342D02*
X150882858Y-70844580D01*
X150882858Y-70844580D02*
X150930477Y-70892200D01*
X150930477Y-70892200D02*
X151025715Y-70939819D01*
X151025715Y-70939819D02*
X151406667Y-70939819D01*
X151406667Y-70939819D02*
X151406667Y-69939819D01*
X151406667Y-69939819D02*
X151073334Y-69939819D01*
X151073334Y-69939819D02*
X150978096Y-69987438D01*
X150978096Y-69987438D02*
X150930477Y-70035057D01*
X150930477Y-70035057D02*
X150882858Y-70130295D01*
X150882858Y-70130295D02*
X150882858Y-70225533D01*
X150882858Y-70225533D02*
X150930477Y-70320771D01*
X150930477Y-70320771D02*
X150978096Y-70368390D01*
X150978096Y-70368390D02*
X151073334Y-70416009D01*
X151073334Y-70416009D02*
X151406667Y-70416009D01*
X150501905Y-70273152D02*
X150263810Y-70939819D01*
X150025715Y-70273152D02*
X150263810Y-70939819D01*
X150263810Y-70939819D02*
X150359048Y-71177914D01*
X150359048Y-71177914D02*
X150406667Y-71225533D01*
X150406667Y-71225533D02*
X150501905Y-71273152D01*
X148930476Y-70654104D02*
X148454286Y-70654104D01*
X149025714Y-70939819D02*
X148692381Y-69939819D01*
X148692381Y-69939819D02*
X148359048Y-70939819D01*
X147882857Y-70939819D02*
X147978095Y-70892200D01*
X147978095Y-70892200D02*
X148025714Y-70796961D01*
X148025714Y-70796961D02*
X148025714Y-69939819D01*
X147597142Y-70273152D02*
X147359047Y-70939819D01*
X147359047Y-70939819D02*
X147120952Y-70273152D01*
X146311428Y-70939819D02*
X146311428Y-70416009D01*
X146311428Y-70416009D02*
X146359047Y-70320771D01*
X146359047Y-70320771D02*
X146454285Y-70273152D01*
X146454285Y-70273152D02*
X146644761Y-70273152D01*
X146644761Y-70273152D02*
X146739999Y-70320771D01*
X146311428Y-70892200D02*
X146406666Y-70939819D01*
X146406666Y-70939819D02*
X146644761Y-70939819D01*
X146644761Y-70939819D02*
X146739999Y-70892200D01*
X146739999Y-70892200D02*
X146787618Y-70796961D01*
X146787618Y-70796961D02*
X146787618Y-70701723D01*
X146787618Y-70701723D02*
X146739999Y-70606485D01*
X146739999Y-70606485D02*
X146644761Y-70558866D01*
X146644761Y-70558866D02*
X146406666Y-70558866D01*
X146406666Y-70558866D02*
X146311428Y-70511247D01*
X145835237Y-70939819D02*
X145835237Y-70273152D01*
X145835237Y-70463628D02*
X145787618Y-70368390D01*
X145787618Y-70368390D02*
X145739999Y-70320771D01*
X145739999Y-70320771D02*
X145644761Y-70273152D01*
X145644761Y-70273152D02*
X145549523Y-70273152D01*
X145073332Y-70939819D02*
X145168570Y-70892200D01*
X145168570Y-70892200D02*
X145216189Y-70844580D01*
X145216189Y-70844580D02*
X145263808Y-70749342D01*
X145263808Y-70749342D02*
X145263808Y-70463628D01*
X145263808Y-70463628D02*
X145216189Y-70368390D01*
X145216189Y-70368390D02*
X145168570Y-70320771D01*
X145168570Y-70320771D02*
X145073332Y-70273152D01*
X145073332Y-70273152D02*
X144930475Y-70273152D01*
X144930475Y-70273152D02*
X144835237Y-70320771D01*
X144835237Y-70320771D02*
X144787618Y-70368390D01*
X144787618Y-70368390D02*
X144739999Y-70463628D01*
X144739999Y-70463628D02*
X144739999Y-70749342D01*
X144739999Y-70749342D02*
X144787618Y-70844580D01*
X144787618Y-70844580D02*
X144835237Y-70892200D01*
X144835237Y-70892200D02*
X144930475Y-70939819D01*
X144930475Y-70939819D02*
X145073332Y-70939819D01*
X143597141Y-70654104D02*
X143120951Y-70654104D01*
X143692379Y-70939819D02*
X143359046Y-69939819D01*
X143359046Y-69939819D02*
X143025713Y-70939819D01*
X142549522Y-70939819D02*
X142644760Y-70892200D01*
X142644760Y-70892200D02*
X142692379Y-70796961D01*
X142692379Y-70796961D02*
X142692379Y-69939819D01*
X141787617Y-70892200D02*
X141882855Y-70939819D01*
X141882855Y-70939819D02*
X142073331Y-70939819D01*
X142073331Y-70939819D02*
X142168569Y-70892200D01*
X142168569Y-70892200D02*
X142216188Y-70796961D01*
X142216188Y-70796961D02*
X142216188Y-70416009D01*
X142216188Y-70416009D02*
X142168569Y-70320771D01*
X142168569Y-70320771D02*
X142073331Y-70273152D01*
X142073331Y-70273152D02*
X141882855Y-70273152D01*
X141882855Y-70273152D02*
X141787617Y-70320771D01*
X141787617Y-70320771D02*
X141739998Y-70416009D01*
X141739998Y-70416009D02*
X141739998Y-70511247D01*
X141739998Y-70511247D02*
X142216188Y-70606485D01*
X140882855Y-70939819D02*
X140882855Y-70416009D01*
X140882855Y-70416009D02*
X140930474Y-70320771D01*
X140930474Y-70320771D02*
X141025712Y-70273152D01*
X141025712Y-70273152D02*
X141216188Y-70273152D01*
X141216188Y-70273152D02*
X141311426Y-70320771D01*
X140882855Y-70892200D02*
X140978093Y-70939819D01*
X140978093Y-70939819D02*
X141216188Y-70939819D01*
X141216188Y-70939819D02*
X141311426Y-70892200D01*
X141311426Y-70892200D02*
X141359045Y-70796961D01*
X141359045Y-70796961D02*
X141359045Y-70701723D01*
X141359045Y-70701723D02*
X141311426Y-70606485D01*
X141311426Y-70606485D02*
X141216188Y-70558866D01*
X141216188Y-70558866D02*
X140978093Y-70558866D01*
X140978093Y-70558866D02*
X140882855Y-70511247D01*
X139311426Y-70416009D02*
X139644759Y-70416009D01*
X139644759Y-70939819D02*
X139644759Y-69939819D01*
X139644759Y-69939819D02*
X139168569Y-69939819D01*
X138359045Y-70939819D02*
X138359045Y-69939819D01*
X138359045Y-70892200D02*
X138454283Y-70939819D01*
X138454283Y-70939819D02*
X138644759Y-70939819D01*
X138644759Y-70939819D02*
X138739997Y-70892200D01*
X138739997Y-70892200D02*
X138787616Y-70844580D01*
X138787616Y-70844580D02*
X138835235Y-70749342D01*
X138835235Y-70749342D02*
X138835235Y-70463628D01*
X138835235Y-70463628D02*
X138787616Y-70368390D01*
X138787616Y-70368390D02*
X138739997Y-70320771D01*
X138739997Y-70320771D02*
X138644759Y-70273152D01*
X138644759Y-70273152D02*
X138454283Y-70273152D01*
X138454283Y-70273152D02*
X138359045Y-70320771D01*
X137978092Y-70273152D02*
X137454283Y-70273152D01*
X137454283Y-70273152D02*
X137978092Y-70939819D01*
X137978092Y-70939819D02*
X137454283Y-70939819D01*
X137073330Y-70844580D02*
X137025711Y-70892200D01*
X137025711Y-70892200D02*
X137073330Y-70939819D01*
X137073330Y-70939819D02*
X137120949Y-70892200D01*
X137120949Y-70892200D02*
X137073330Y-70844580D01*
X137073330Y-70844580D02*
X137073330Y-70939819D01*
M02*
