%TF.GenerationSoftware,KiCad,Pcbnew,6.0.4-6f826c9f35~116~ubuntu21.10.1*%
%TF.CreationDate,2022-07-15T23:33:15+02:00*%
%TF.ProjectId,qlexternal512kram_MIX,716c6578-7465-4726-9e61-6c3531326b72,0.1*%
%TF.SameCoordinates,Original*%
%TF.FileFunction,Paste,Top*%
%TF.FilePolarity,Positive*%
%FSLAX46Y46*%
G04 Gerber Fmt 4.6, Leading zero omitted, Abs format (unit mm)*
G04 Created by KiCad (PCBNEW 6.0.4-6f826c9f35~116~ubuntu21.10.1) date 2022-07-15 23:33:15*
%MOMM*%
%LPD*%
G01*
G04 APERTURE LIST*
G04 Aperture macros list*
%AMRoundRect*
0 Rectangle with rounded corners*
0 $1 Rounding radius*
0 $2 $3 $4 $5 $6 $7 $8 $9 X,Y pos of 4 corners*
0 Add a 4 corners polygon primitive as box body*
4,1,4,$2,$3,$4,$5,$6,$7,$8,$9,$2,$3,0*
0 Add four circle primitives for the rounded corners*
1,1,$1+$1,$2,$3*
1,1,$1+$1,$4,$5*
1,1,$1+$1,$6,$7*
1,1,$1+$1,$8,$9*
0 Add four rect primitives between the rounded corners*
20,1,$1+$1,$2,$3,$4,$5,0*
20,1,$1+$1,$4,$5,$6,$7,0*
20,1,$1+$1,$6,$7,$8,$9,0*
20,1,$1+$1,$8,$9,$2,$3,0*%
G04 Aperture macros list end*
%ADD10R,2.000000X1.500000*%
%ADD11R,2.000000X3.800000*%
%ADD12RoundRect,0.250000X-0.550000X1.500000X-0.550000X-1.500000X0.550000X-1.500000X0.550000X1.500000X0*%
%ADD13RoundRect,0.250000X-0.650000X0.412500X-0.650000X-0.412500X0.650000X-0.412500X0.650000X0.412500X0*%
%ADD14RoundRect,0.250000X-0.625000X0.400000X-0.625000X-0.400000X0.625000X-0.400000X0.625000X0.400000X0*%
%ADD15RoundRect,0.150000X0.150000X-0.875000X0.150000X0.875000X-0.150000X0.875000X-0.150000X-0.875000X0*%
G04 APERTURE END LIST*
D10*
%TO.C,U3*%
X105530000Y-66280000D03*
D11*
X111830000Y-68580000D03*
D10*
X105530000Y-68580000D03*
X105530000Y-70880000D03*
%TD*%
D12*
%TO.C,C1*%
X98520000Y-65145000D03*
X98520000Y-70745000D03*
%TD*%
D13*
%TO.C,C4*%
X154654000Y-66725000D03*
X154654000Y-69850000D03*
%TD*%
D12*
%TO.C,C2*%
X118205000Y-65780000D03*
X118205000Y-71380000D03*
%TD*%
D13*
%TO.C,C3*%
X124555000Y-63842500D03*
X124555000Y-66967500D03*
%TD*%
D14*
%TO.C,R2*%
X187420000Y-71120000D03*
X187420000Y-74220000D03*
%TD*%
%TO.C,R1*%
X184245000Y-71120000D03*
X184245000Y-74220000D03*
%TD*%
D15*
%TO.C,U1*%
X128365000Y-77035000D03*
X129635000Y-77035000D03*
X130905000Y-77035000D03*
X132175000Y-77035000D03*
X133445000Y-77035000D03*
X134715000Y-77035000D03*
X135985000Y-77035000D03*
X137255000Y-77035000D03*
X138525000Y-77035000D03*
X139795000Y-77035000D03*
X141065000Y-77035000D03*
X142335000Y-77035000D03*
X143605000Y-77035000D03*
X144875000Y-77035000D03*
X146145000Y-77035000D03*
X147415000Y-77035000D03*
X147415000Y-63935000D03*
X146145000Y-63935000D03*
X144875000Y-63935000D03*
X143605000Y-63935000D03*
X142335000Y-63935000D03*
X141065000Y-63935000D03*
X139795000Y-63935000D03*
X138525000Y-63935000D03*
X137255000Y-63935000D03*
X135985000Y-63935000D03*
X134715000Y-63935000D03*
X133445000Y-63935000D03*
X132175000Y-63935000D03*
X130905000Y-63935000D03*
X129635000Y-63935000D03*
X128365000Y-63935000D03*
%TD*%
M02*
