%TF.GenerationSoftware,KiCad,Pcbnew,6.0.2-378541a8eb~116~ubuntu21.10.1*%
%TF.CreationDate,2022-02-13T18:24:12+01:00*%
%TF.ProjectId,qlexternal512kram_MIX,716c6578-7465-4726-9e61-6c3531326b72,00*%
%TF.SameCoordinates,Original*%
%TF.FileFunction,Copper,L1,Top*%
%TF.FilePolarity,Positive*%
%FSLAX46Y46*%
G04 Gerber Fmt 4.6, Leading zero omitted, Abs format (unit mm)*
G04 Created by KiCad (PCBNEW 6.0.2-378541a8eb~116~ubuntu21.10.1) date 2022-02-13 18:24:12*
%MOMM*%
%LPD*%
G01*
G04 APERTURE LIST*
G04 Aperture macros list*
%AMRoundRect*
0 Rectangle with rounded corners*
0 $1 Rounding radius*
0 $2 $3 $4 $5 $6 $7 $8 $9 X,Y pos of 4 corners*
0 Add a 4 corners polygon primitive as box body*
4,1,4,$2,$3,$4,$5,$6,$7,$8,$9,$2,$3,0*
0 Add four circle primitives for the rounded corners*
1,1,$1+$1,$2,$3*
1,1,$1+$1,$4,$5*
1,1,$1+$1,$6,$7*
1,1,$1+$1,$8,$9*
0 Add four rect primitives between the rounded corners*
20,1,$1+$1,$2,$3,$4,$5,0*
20,1,$1+$1,$4,$5,$6,$7,0*
20,1,$1+$1,$6,$7,$8,$9,0*
20,1,$1+$1,$8,$9,$2,$3,0*%
G04 Aperture macros list end*
%TA.AperFunction,ComponentPad*%
%ADD10C,1.550000*%
%TD*%
%TA.AperFunction,ComponentPad*%
%ADD11RoundRect,0.249999X-0.525001X-0.525001X0.525001X-0.525001X0.525001X0.525001X-0.525001X0.525001X0*%
%TD*%
%TA.AperFunction,ComponentPad*%
%ADD12RoundRect,0.249999X0.525001X0.525001X-0.525001X0.525001X-0.525001X-0.525001X0.525001X-0.525001X0*%
%TD*%
%TA.AperFunction,SMDPad,CuDef*%
%ADD13R,1.500000X1.000000*%
%TD*%
%TA.AperFunction,SMDPad,CuDef*%
%ADD14R,2.000000X1.500000*%
%TD*%
%TA.AperFunction,SMDPad,CuDef*%
%ADD15R,2.000000X3.800000*%
%TD*%
%TA.AperFunction,SMDPad,CuDef*%
%ADD16RoundRect,0.250000X-0.550000X1.500000X-0.550000X-1.500000X0.550000X-1.500000X0.550000X1.500000X0*%
%TD*%
%TA.AperFunction,SMDPad,CuDef*%
%ADD17RoundRect,0.250000X-0.650000X0.412500X-0.650000X-0.412500X0.650000X-0.412500X0.650000X0.412500X0*%
%TD*%
%TA.AperFunction,SMDPad,CuDef*%
%ADD18RoundRect,0.250000X-0.625000X0.400000X-0.625000X-0.400000X0.625000X-0.400000X0.625000X0.400000X0*%
%TD*%
%TA.AperFunction,ComponentPad*%
%ADD19R,1.600000X2.400000*%
%TD*%
%TA.AperFunction,ComponentPad*%
%ADD20O,1.600000X2.400000*%
%TD*%
%TA.AperFunction,SMDPad,CuDef*%
%ADD21RoundRect,0.150000X0.150000X-0.875000X0.150000X0.875000X-0.150000X0.875000X-0.150000X-0.875000X0*%
%TD*%
%TA.AperFunction,ViaPad*%
%ADD22C,0.800000*%
%TD*%
%TA.AperFunction,Conductor*%
%ADD23C,0.750000*%
%TD*%
%TA.AperFunction,Conductor*%
%ADD24C,0.250000*%
%TD*%
%TA.AperFunction,Conductor*%
%ADD25C,0.350000*%
%TD*%
%TA.AperFunction,Conductor*%
%ADD26C,0.500000*%
%TD*%
%TA.AperFunction,Conductor*%
%ADD27C,1.000000*%
%TD*%
G04 APERTURE END LIST*
D10*
%TO.P,J2,b32,GND*%
%TO.N,GND*%
X181070000Y-80645000D03*
%TO.P,J2,b31,D2*%
%TO.N,/D2*%
X178530000Y-80645000D03*
%TO.P,J2,b30,D1*%
%TO.N,/D1*%
X175990000Y-80645000D03*
%TO.P,J2,b29,D0*%
%TO.N,/D0*%
X173450000Y-80645000D03*
%TO.P,J2,b28,~{AS}*%
%TO.N,/AS*%
X170910000Y-80645000D03*
%TO.P,J2,b27,~{DS}*%
%TO.N,/DS*%
X168370000Y-80645000D03*
%TO.P,J2,b26,~{DRW}*%
%TO.N,/RW*%
X165830000Y-80645000D03*
%TO.P,J2,b25,~{DTACK}*%
%TO.N,/DTACK*%
X163290000Y-80645000D03*
%TO.P,J2,b24,~{BG}*%
%TO.N,/BG*%
X160750000Y-80645000D03*
%TO.P,J2,b23,~{BR}*%
%TO.N,/BR*%
X158210000Y-80645000D03*
%TO.P,J2,b22,A15*%
%TO.N,/A15*%
X155670000Y-80645000D03*
%TO.P,J2,b21,~{RESETCPU}*%
%TO.N,/RESET*%
X153130000Y-80645000D03*
%TO.P,J2,b20,~{CSYNC}*%
%TO.N,/CSYNC*%
X150590000Y-80645000D03*
%TO.P,J2,b19,E*%
%TO.N,/E*%
X148050000Y-80645000D03*
%TO.P,J2,b18,VSYNCH*%
%TO.N,/VSYNC*%
X145510000Y-80645000D03*
%TO.P,J2,b17,~{VPA}*%
%TO.N,/VPA*%
X142970000Y-80645000D03*
%TO.P,J2,b16,GREEN*%
%TO.N,/GREEN*%
X140430000Y-80645000D03*
%TO.P,J2,b15,BLUE*%
%TO.N,/BLUE*%
X137890000Y-80645000D03*
%TO.P,J2,b14,FC2*%
%TO.N,/FC2*%
X135350000Y-80645000D03*
%TO.P,J2,b13,FC1*%
%TO.N,/FC1*%
X132810000Y-80645000D03*
%TO.P,J2,b12,FC0*%
%TO.N,/FC0*%
X130270000Y-80645000D03*
%TO.P,J2,b11,A0*%
%TO.N,/A0*%
X127730000Y-80645000D03*
%TO.P,J2,b10,ROMOEH*%
%TO.N,/ROMOE*%
X125190000Y-80645000D03*
%TO.P,J2,b9,G9*%
%TO.N,/A1*%
X122650000Y-80645000D03*
%TO.P,J2,b8,A2*%
%TO.N,/A2*%
X120110000Y-80645000D03*
%TO.P,J2,b7,SP3*%
%TO.N,/SP3*%
X117570000Y-80645000D03*
%TO.P,J2,b6,~{IPLO}*%
%TO.N,/IPL0*%
X115030000Y-80645000D03*
%TO.P,J2,b5,~{BERR}*%
%TO.N,/BERR*%
X112490000Y-80645000D03*
%TO.P,J2,b4,~{IPL1}*%
%TO.N,/IPL1*%
X109950000Y-80645000D03*
%TO.P,J2,b3,~{EXTINT}*%
%TO.N,/EXTINT*%
X107410000Y-80645000D03*
%TO.P,J2,b2,Vin*%
%TO.N,+9V*%
X104870000Y-80645000D03*
%TO.P,J2,b1,Vin*%
X102330000Y-80645000D03*
D11*
%TO.P,J2,a32,GND*%
%TO.N,GND*%
X181070000Y-83185000D03*
D10*
%TO.P,J2,a31,D3*%
%TO.N,/D3*%
X178530000Y-83185000D03*
%TO.P,J2,a30,D4*%
%TO.N,/D4*%
X175990000Y-83185000D03*
%TO.P,J2,a29,D5*%
%TO.N,/D5*%
X173450000Y-83185000D03*
%TO.P,J2,a28,D6*%
%TO.N,/D6*%
X170910000Y-83185000D03*
%TO.P,J2,a27,D7*%
%TO.N,/D7*%
X168370000Y-83185000D03*
%TO.P,J2,a26,A19*%
%TO.N,/A19*%
X165830000Y-83185000D03*
%TO.P,J2,a25,A18*%
%TO.N,/A18*%
X163290000Y-83185000D03*
%TO.P,J2,a24,A17*%
%TO.N,/A17*%
X160750000Y-83185000D03*
%TO.P,J2,a23,A16*%
%TO.N,/A16*%
X158210000Y-83185000D03*
%TO.P,J2,a22,CLKCPU*%
%TO.N,/CLKCPU*%
X155670000Y-83185000D03*
%TO.P,J2,a21,RED*%
%TO.N,/RED*%
X153130000Y-83185000D03*
%TO.P,J2,a20,A14*%
%TO.N,/A14*%
X150590000Y-83185000D03*
%TO.P,J2,a19,A13*%
%TO.N,/A13*%
X148050000Y-83185000D03*
%TO.P,J2,a18,A12*%
%TO.N,/A12*%
X145510000Y-83185000D03*
%TO.P,J2,a17,A11*%
%TO.N,/A11*%
X142970000Y-83185000D03*
%TO.P,J2,a16,A10*%
%TO.N,/A10*%
X140430000Y-83185000D03*
%TO.P,J2,a15,A9*%
%TO.N,/A9*%
X137890000Y-83185000D03*
%TO.P,J2,a14,A8*%
%TO.N,/A8*%
X135350000Y-83185000D03*
%TO.P,J2,a13,A7*%
%TO.N,/A7*%
X132810000Y-83185000D03*
%TO.P,J2,a12,A6*%
%TO.N,/A6*%
X130270000Y-83185000D03*
%TO.P,J2,a11,A5*%
%TO.N,/A5*%
X127730000Y-83185000D03*
%TO.P,J2,a10,A4*%
%TO.N,/A4*%
X125190000Y-83185000D03*
%TO.P,J2,a9,A3*%
%TO.N,/A3*%
X122650000Y-83185000D03*
%TO.P,J2,a8,~{DBG}*%
%TO.N,/DBG*%
X120110000Y-83185000D03*
%TO.P,J2,a7,SP2*%
%TO.N,/SP2*%
X117570000Y-83185000D03*
%TO.P,J2,a6,~{DSMC}*%
%TO.N,/DSMC*%
X115030000Y-83185000D03*
%TO.P,J2,a5,SP1*%
%TO.N,/SP1*%
X112490000Y-83185000D03*
%TO.P,J2,a4,SP0*%
%TO.N,/SP0*%
X109950000Y-83185000D03*
%TO.P,J2,a3,+12V*%
%TO.N,/ma12v*%
X107410000Y-83185000D03*
%TO.P,J2,a2,-12V*%
%TO.N,/me12v*%
X104870000Y-83185000D03*
%TO.P,J2,a1,Vin*%
%TO.N,+9V*%
X102330000Y-83185000D03*
%TD*%
D12*
%TO.P,J1,a1,Vin*%
%TO.N,+9V*%
X102330000Y-57785000D03*
D10*
%TO.P,J1,a2,-12V*%
%TO.N,/me12v*%
X104870000Y-57785000D03*
%TO.P,J1,a3,+12V*%
%TO.N,/ma12v*%
X107410000Y-57785000D03*
%TO.P,J1,a4,SP0*%
%TO.N,/SP0*%
X109950000Y-57785000D03*
%TO.P,J1,a5,SP1*%
%TO.N,/SP1*%
X112490000Y-57785000D03*
%TO.P,J1,a6,~{DSMC}*%
%TO.N,/DSMC*%
X115030000Y-57785000D03*
%TO.P,J1,a7,SP2*%
%TO.N,/SP2*%
X117570000Y-57785000D03*
%TO.P,J1,a8,~{DBG}*%
%TO.N,/DBG*%
X120110000Y-57785000D03*
%TO.P,J1,a9,A3*%
%TO.N,/A3*%
X122650000Y-57785000D03*
%TO.P,J1,a10,A4*%
%TO.N,/A4*%
X125190000Y-57785000D03*
%TO.P,J1,a11,A5*%
%TO.N,/A5*%
X127730000Y-57785000D03*
%TO.P,J1,a12,A6*%
%TO.N,/A6*%
X130270000Y-57785000D03*
%TO.P,J1,a13,A7*%
%TO.N,/A7*%
X132810000Y-57785000D03*
%TO.P,J1,a14,A8*%
%TO.N,/A8*%
X135350000Y-57785000D03*
%TO.P,J1,a15,A9*%
%TO.N,/A9*%
X137890000Y-57785000D03*
%TO.P,J1,a16,A10*%
%TO.N,/A10*%
X140430000Y-57785000D03*
%TO.P,J1,a17,A11*%
%TO.N,/A11*%
X142970000Y-57785000D03*
%TO.P,J1,a18,A12*%
%TO.N,/A12*%
X145510000Y-57785000D03*
%TO.P,J1,a19,A13*%
%TO.N,/A13*%
X148050000Y-57785000D03*
%TO.P,J1,a20,A14*%
%TO.N,/A14*%
X150590000Y-57785000D03*
%TO.P,J1,a21,RED*%
%TO.N,/RED*%
X153130000Y-57785000D03*
%TO.P,J1,a22,CLKCPU*%
%TO.N,/CLKCPU*%
X155670000Y-57785000D03*
%TO.P,J1,a23,A16*%
%TO.N,/A16*%
X158210000Y-57785000D03*
%TO.P,J1,a24,A17*%
%TO.N,/A17*%
X160750000Y-57785000D03*
%TO.P,J1,a25,A18*%
%TO.N,/A18*%
X163290000Y-57785000D03*
%TO.P,J1,a26,A19*%
%TO.N,/A19*%
X165830000Y-57785000D03*
%TO.P,J1,a27,D7*%
%TO.N,/D7*%
X168370000Y-57785000D03*
%TO.P,J1,a28,D6*%
%TO.N,/D6*%
X170910000Y-57785000D03*
%TO.P,J1,a29,D5*%
%TO.N,/D5*%
X173450000Y-57785000D03*
%TO.P,J1,a30,D4*%
%TO.N,/D4*%
X175990000Y-57785000D03*
%TO.P,J1,a31,D3*%
%TO.N,/D3*%
X178530000Y-57785000D03*
%TO.P,J1,a32,GND*%
%TO.N,GND*%
X181070000Y-57785000D03*
%TO.P,J1,b1,Vin*%
%TO.N,+9V*%
X102330000Y-60325000D03*
%TO.P,J1,b2,Vin*%
X104870000Y-60325000D03*
%TO.P,J1,b3,~{EXTINT}*%
%TO.N,/EXTINT*%
X107410000Y-60325000D03*
%TO.P,J1,b4,~{IPL1}*%
%TO.N,/IPL1*%
X109950000Y-60325000D03*
%TO.P,J1,b5,~{BERR}*%
%TO.N,/BERR*%
X112490000Y-60325000D03*
%TO.P,J1,b6,~{IPLO}*%
%TO.N,/IPL0*%
X115030000Y-60325000D03*
%TO.P,J1,b7,SP3*%
%TO.N,/SP3*%
X117570000Y-60325000D03*
%TO.P,J1,b8,A2*%
%TO.N,/A2*%
X120110000Y-60325000D03*
%TO.P,J1,b9,G9*%
%TO.N,/A1*%
X122650000Y-60325000D03*
%TO.P,J1,b10,ROMOEH*%
%TO.N,/ROMOE*%
X125190000Y-60325000D03*
%TO.P,J1,b11,A0*%
%TO.N,/A0*%
X127730000Y-60325000D03*
%TO.P,J1,b12,FC0*%
%TO.N,/FC0*%
X130270000Y-60325000D03*
%TO.P,J1,b13,FC1*%
%TO.N,/FC1*%
X132810000Y-60325000D03*
%TO.P,J1,b14,FC2*%
%TO.N,/FC2*%
X135350000Y-60325000D03*
%TO.P,J1,b15,BLUE*%
%TO.N,/BLUE*%
X137890000Y-60325000D03*
%TO.P,J1,b16,GREEN*%
%TO.N,/GREEN*%
X140430000Y-60325000D03*
%TO.P,J1,b17,~{VPA}*%
%TO.N,/VPA*%
X142970000Y-60325000D03*
%TO.P,J1,b18,VSYNCH*%
%TO.N,/VSYNC*%
X145510000Y-60325000D03*
%TO.P,J1,b19,E*%
%TO.N,/E*%
X148050000Y-60325000D03*
%TO.P,J1,b20,~{CSYNC}*%
%TO.N,/CSYNC*%
X150590000Y-60325000D03*
%TO.P,J1,b21,~{RESETCPU}*%
%TO.N,/RESET*%
X153130000Y-60325000D03*
%TO.P,J1,b22,A15*%
%TO.N,/A15*%
X155670000Y-60325000D03*
%TO.P,J1,b23,~{BR}*%
%TO.N,/BR*%
X158210000Y-60325000D03*
%TO.P,J1,b24,~{BG}*%
%TO.N,/BG*%
X160750000Y-60325000D03*
%TO.P,J1,b25,~{DTACK}*%
%TO.N,/DTACK*%
X163290000Y-60325000D03*
%TO.P,J1,b26,~{DRW}*%
%TO.N,/RW*%
X165830000Y-60325000D03*
%TO.P,J1,b27,~{DS}*%
%TO.N,/DS*%
X168370000Y-60325000D03*
%TO.P,J1,b28,~{AS}*%
%TO.N,/AS*%
X170910000Y-60325000D03*
%TO.P,J1,b29,D0*%
%TO.N,/D0*%
X173450000Y-60325000D03*
%TO.P,J1,b30,D1*%
%TO.N,/D1*%
X175990000Y-60325000D03*
%TO.P,J1,b31,D2*%
%TO.N,/D2*%
X178530000Y-60325000D03*
%TO.P,J1,b32,GND*%
%TO.N,GND*%
X181070000Y-60325000D03*
%TD*%
D13*
%TO.P,JP1,1,A*%
%TO.N,GND*%
X184245000Y-78105000D03*
%TO.P,JP1,2,B*%
%TO.N,Net-(JP1-Pad2)*%
X184245000Y-76805000D03*
%TD*%
D14*
%TO.P,U3,1,GND*%
%TO.N,GND*%
X105530000Y-66280000D03*
D15*
%TO.P,U3,2,VO*%
%TO.N,VCC*%
X111830000Y-68580000D03*
D14*
X105530000Y-68580000D03*
%TO.P,U3,3,VI*%
%TO.N,+9V*%
X105530000Y-70880000D03*
%TD*%
D16*
%TO.P,C1,1*%
%TO.N,+9V*%
X98520000Y-65145000D03*
%TO.P,C1,2*%
%TO.N,GND*%
X98520000Y-70745000D03*
%TD*%
D17*
%TO.P,C4,1*%
%TO.N,VCC*%
X154654000Y-66725000D03*
%TO.P,C4,2*%
%TO.N,GND*%
X154654000Y-69850000D03*
%TD*%
D16*
%TO.P,C2,1*%
%TO.N,VCC*%
X118205000Y-65780000D03*
%TO.P,C2,2*%
%TO.N,GND*%
X118205000Y-71380000D03*
%TD*%
D17*
%TO.P,C3,1*%
%TO.N,VCC*%
X124555000Y-63842500D03*
%TO.P,C3,2*%
%TO.N,GND*%
X124555000Y-66967500D03*
%TD*%
D18*
%TO.P,R2,1*%
%TO.N,VCC*%
X187420000Y-71120000D03*
%TO.P,R2,2*%
%TO.N,Net-(JP2-Pad2)*%
X187420000Y-74220000D03*
%TD*%
D13*
%TO.P,JP2,1,A*%
%TO.N,GND*%
X187420000Y-78120000D03*
%TO.P,JP2,2,B*%
%TO.N,Net-(JP2-Pad2)*%
X187420000Y-76820000D03*
%TD*%
D19*
%TO.P,U2,1,I1/CLK*%
%TO.N,/DS*%
X158215000Y-74310000D03*
D20*
%TO.P,U2,2,I2*%
%TO.N,/A17*%
X160755000Y-74310000D03*
%TO.P,U2,3,I3*%
%TO.N,/A16*%
X163295000Y-74310000D03*
%TO.P,U2,4,I4*%
%TO.N,unconnected-(U2-Pad4)*%
X165835000Y-74310000D03*
%TO.P,U2,5,I5*%
%TO.N,unconnected-(U2-Pad5)*%
X168375000Y-74310000D03*
%TO.P,U2,6,I6*%
%TO.N,/AS*%
X170915000Y-74310000D03*
%TO.P,U2,7,I7*%
%TO.N,Net-(JP1-Pad2)*%
X173455000Y-74310000D03*
%TO.P,U2,8,I8*%
%TO.N,Net-(JP2-Pad2)*%
X175995000Y-74310000D03*
%TO.P,U2,9,I9*%
%TO.N,/A19*%
X178535000Y-74310000D03*
%TO.P,U2,10,GND*%
%TO.N,GND*%
X181075000Y-74310000D03*
%TO.P,U2,11,I10/~{OE}*%
%TO.N,/A18*%
X181075000Y-66690000D03*
%TO.P,U2,12,IO8*%
%TO.N,unconnected-(U2-Pad12)*%
X178535000Y-66690000D03*
%TO.P,U2,13,IO7*%
%TO.N,unconnected-(U2-Pad13)*%
X175995000Y-66690000D03*
%TO.P,U2,14,IO6*%
%TO.N,/DTACK*%
X173455000Y-66690000D03*
%TO.P,U2,15,IO5*%
%TO.N,unconnected-(U2-Pad15)*%
X170915000Y-66690000D03*
%TO.P,U2,16,IO4*%
%TO.N,/DSMC*%
X168375000Y-66690000D03*
%TO.P,U2,17,I03*%
%TO.N,unconnected-(U2-Pad17)*%
X165835000Y-66690000D03*
%TO.P,U2,18,IO2*%
%TO.N,/RAM_OE*%
X163295000Y-66690000D03*
%TO.P,U2,19,IO1*%
%TO.N,/RAM_CE*%
X160755000Y-66690000D03*
%TO.P,U2,20,VCC*%
%TO.N,VCC*%
X158215000Y-66690000D03*
%TD*%
D18*
%TO.P,R1,1*%
%TO.N,VCC*%
X184245000Y-71120000D03*
%TO.P,R1,2*%
%TO.N,Net-(JP1-Pad2)*%
X184245000Y-74220000D03*
%TD*%
D21*
%TO.P,U1,1,A18*%
%TO.N,/A18*%
X128365000Y-77035000D03*
%TO.P,U1,2,A16*%
%TO.N,/A16*%
X129635000Y-77035000D03*
%TO.P,U1,3,A14*%
%TO.N,/A14*%
X130905000Y-77035000D03*
%TO.P,U1,4,A12*%
%TO.N,/A12*%
X132175000Y-77035000D03*
%TO.P,U1,5,A7*%
%TO.N,/A7*%
X133445000Y-77035000D03*
%TO.P,U1,6,A6*%
%TO.N,/A6*%
X134715000Y-77035000D03*
%TO.P,U1,7,A5*%
%TO.N,/A5*%
X135985000Y-77035000D03*
%TO.P,U1,8,A4*%
%TO.N,/A4*%
X137255000Y-77035000D03*
%TO.P,U1,9,A3*%
%TO.N,/A3*%
X138525000Y-77035000D03*
%TO.P,U1,10,A2*%
%TO.N,/A2*%
X139795000Y-77035000D03*
%TO.P,U1,11,A1*%
%TO.N,/A1*%
X141065000Y-77035000D03*
%TO.P,U1,12,A0*%
%TO.N,/A0*%
X142335000Y-77035000D03*
%TO.P,U1,13,DQ0*%
%TO.N,/D0*%
X143605000Y-77035000D03*
%TO.P,U1,14,DQ1*%
%TO.N,/D1*%
X144875000Y-77035000D03*
%TO.P,U1,15,DQ2*%
%TO.N,/D2*%
X146145000Y-77035000D03*
%TO.P,U1,16,VSS*%
%TO.N,GND*%
X147415000Y-77035000D03*
%TO.P,U1,17,DQ3*%
%TO.N,/D3*%
X147415000Y-63935000D03*
%TO.P,U1,18,DQ4*%
%TO.N,/D4*%
X146145000Y-63935000D03*
%TO.P,U1,19,DQ5*%
%TO.N,/D5*%
X144875000Y-63935000D03*
%TO.P,U1,20,DQ6*%
%TO.N,/D6*%
X143605000Y-63935000D03*
%TO.P,U1,21,DQ7*%
%TO.N,/D7*%
X142335000Y-63935000D03*
%TO.P,U1,22,CE#*%
%TO.N,/RAM_CE*%
X141065000Y-63935000D03*
%TO.P,U1,23,A10*%
%TO.N,/A10*%
X139795000Y-63935000D03*
%TO.P,U1,24,OE#*%
%TO.N,/RAM_OE*%
X138525000Y-63935000D03*
%TO.P,U1,25,A11*%
%TO.N,/A11*%
X137255000Y-63935000D03*
%TO.P,U1,26,A9*%
%TO.N,/A9*%
X135985000Y-63935000D03*
%TO.P,U1,27,A8*%
%TO.N,/A8*%
X134715000Y-63935000D03*
%TO.P,U1,28,A13*%
%TO.N,/A13*%
X133445000Y-63935000D03*
%TO.P,U1,29,WE#*%
%TO.N,/RW*%
X132175000Y-63935000D03*
%TO.P,U1,30,A17*%
%TO.N,/A17*%
X130905000Y-63935000D03*
%TO.P,U1,31,A15*%
%TO.N,/A15*%
X129635000Y-63935000D03*
%TO.P,U1,32,VCC*%
%TO.N,VCC*%
X128365000Y-63935000D03*
%TD*%
D22*
%TO.N,/A4*%
X123920000Y-72390000D03*
%TO.N,/A5*%
X126460000Y-73025000D03*
%TO.N,/A6*%
X129000000Y-74295000D03*
%TO.N,/A7*%
X131540000Y-75390400D03*
%TO.N,/A8*%
X134625500Y-65913000D03*
%TO.N,/A10*%
X139705500Y-65913000D03*
%TO.N,/D7*%
X170275000Y-86360000D03*
X170910000Y-55245000D03*
%TO.N,/A17*%
X157575000Y-76200000D03*
%TO.N,/A18*%
X163876200Y-69187500D03*
%TO.N,/DS*%
X166465000Y-72390000D03*
%TO.N,/AS*%
X172053400Y-64643000D03*
%TO.N,/DTACK*%
X163863300Y-64664400D03*
%TD*%
D23*
%TO.N,+9V*%
X94710000Y-67310000D02*
X94710000Y-71120000D01*
X101955000Y-65145000D02*
X102330000Y-64770000D01*
X98520000Y-65145000D02*
X101955000Y-65145000D01*
X103360000Y-70880000D02*
X102330000Y-69850000D01*
X104870000Y-80645000D02*
X102330000Y-80645000D01*
X102330000Y-80645000D02*
X102330000Y-83185000D01*
X94710000Y-71120000D02*
X102330000Y-78740000D01*
X98520000Y-65145000D02*
X96875000Y-65145000D01*
X104870000Y-60360000D02*
X102330000Y-60360000D01*
X94710000Y-67310000D02*
X96875000Y-65145000D01*
X102330000Y-57820000D02*
X102330000Y-60360000D01*
X105530000Y-70880000D02*
X103360000Y-70880000D01*
X102330000Y-69850000D02*
X102330000Y-60360000D01*
X102330000Y-78740000D02*
X102330000Y-80645000D01*
D24*
%TO.N,GND*%
X118840000Y-61595000D02*
X118840000Y-56515000D01*
X182040000Y-59390000D02*
X181070000Y-60360000D01*
D25*
X154654000Y-69850000D02*
X154654000Y-72517000D01*
D24*
X106140000Y-61341000D02*
X105632000Y-61849000D01*
X109061000Y-55880000D02*
X108680000Y-56261000D01*
X119475000Y-85090000D02*
X118840000Y-84455000D01*
D26*
X118205000Y-71380000D02*
X119850000Y-71380000D01*
D23*
X155670000Y-72517000D02*
X149447000Y-72517000D01*
D24*
X114268000Y-61849000D02*
X115792000Y-61849000D01*
X116300000Y-61341000D02*
X116300000Y-56515000D01*
X123920000Y-56515000D02*
X124555000Y-55880000D01*
X118840000Y-56515000D02*
X118205000Y-55880000D01*
X106140000Y-56515000D02*
X106140000Y-61341000D01*
D23*
X123216100Y-68648900D02*
X138593900Y-68648900D01*
D24*
X116300000Y-78740000D02*
X113760000Y-78740000D01*
X181070000Y-57820000D02*
X182040000Y-58790000D01*
X112109000Y-55880000D02*
X113125000Y-55880000D01*
X106775000Y-55880000D02*
X106140000Y-56515000D01*
X111220000Y-84455000D02*
X111220000Y-75565000D01*
X111220000Y-56515000D02*
X111855000Y-55880000D01*
D23*
X109950000Y-75565000D02*
X111220000Y-75565000D01*
D24*
X113760000Y-56515000D02*
X113760000Y-61341000D01*
D23*
X108680000Y-75565000D02*
X111982000Y-75565000D01*
D24*
X116300000Y-84455000D02*
X116300000Y-78740000D01*
X109061000Y-55880000D02*
X106775000Y-55880000D01*
D23*
X149447000Y-72517000D02*
X147415000Y-70485000D01*
D24*
X104108000Y-61849000D02*
X103600000Y-62357000D01*
D23*
X179492300Y-70952000D02*
X157235000Y-70952000D01*
X118205000Y-75565000D02*
X109950000Y-75565000D01*
D24*
X106140000Y-79375000D02*
X106140000Y-84455000D01*
X108680000Y-78740000D02*
X106775000Y-78740000D01*
D23*
X108680000Y-75565000D02*
X109950000Y-75565000D01*
X145510000Y-68580000D02*
X138662800Y-68580000D01*
X105124000Y-75565000D02*
X108680000Y-75565000D01*
D24*
X108680000Y-56261000D02*
X108680000Y-61595000D01*
X118840000Y-79375000D02*
X118205000Y-78740000D01*
X123285000Y-85090000D02*
X119475000Y-85090000D01*
D23*
X138593900Y-68648900D02*
X139817700Y-68648900D01*
D24*
X105632000Y-61849000D02*
X104108000Y-61849000D01*
D26*
X98520000Y-70745000D02*
X100552000Y-70739000D01*
D24*
X123920000Y-56515000D02*
X123920000Y-62230000D01*
D23*
X100552000Y-70739000D02*
X105124000Y-75565000D01*
D24*
X103967000Y-66280000D02*
X105530000Y-66280000D01*
D26*
X124555000Y-68580000D02*
X124555000Y-66967500D01*
D24*
X113760000Y-61341000D02*
X114268000Y-61849000D01*
X106775000Y-78740000D02*
X106140000Y-79375000D01*
X182040000Y-58790000D02*
X182040000Y-59390000D01*
X111855000Y-55880000D02*
X112109000Y-55880000D01*
X115792000Y-61849000D02*
X116300000Y-61341000D01*
D23*
X138662800Y-68580000D02*
X138593900Y-68648900D01*
D24*
X113125000Y-55880000D02*
X113760000Y-56515000D01*
D23*
X145510000Y-68580000D02*
X147415000Y-70485000D01*
D25*
X181075000Y-74310000D02*
X181075000Y-72534700D01*
D24*
X116935000Y-55880000D02*
X125825000Y-55880000D01*
X181070000Y-57820000D02*
X181070000Y-56723985D01*
X118840000Y-79375000D02*
X118840000Y-84455000D01*
X103600000Y-62357000D02*
X103600000Y-65913000D01*
X121380000Y-56515000D02*
X121380000Y-62230000D01*
X111220000Y-56515000D02*
X111220000Y-61595000D01*
X113760000Y-78740000D02*
X108680000Y-78740000D01*
X103600000Y-65913000D02*
X103967000Y-66280000D01*
D23*
X157235000Y-70952000D02*
X155670000Y-72517000D01*
D24*
X126460000Y-56515000D02*
X126460000Y-61595000D01*
X116300000Y-56515000D02*
X116935000Y-55880000D01*
X181070000Y-56723985D02*
X179591015Y-55245000D01*
X122015000Y-55880000D02*
X121380000Y-56515000D01*
X125825000Y-55880000D02*
X126460000Y-56515000D01*
X108680000Y-84455000D02*
X108680000Y-78740000D01*
D25*
X181075000Y-72534700D02*
X179492300Y-70952000D01*
D23*
X119850000Y-71380000D02*
X122581100Y-68648900D01*
D24*
X123920000Y-84455000D02*
X123285000Y-85090000D01*
X109061000Y-55880000D02*
X112109000Y-55880000D01*
D23*
X122581100Y-68648900D02*
X123216100Y-68648900D01*
D24*
X147415000Y-77035000D02*
X147415000Y-70485000D01*
X118205000Y-78740000D02*
X116300000Y-78740000D01*
X113760000Y-84455000D02*
X113760000Y-78740000D01*
D26*
X118205000Y-75565000D02*
X118205000Y-71380000D01*
%TO.N,VCC*%
X158215000Y-66690000D02*
X158215000Y-69210000D01*
X153130000Y-66675000D02*
X152957200Y-66675000D01*
D27*
X111830000Y-68580000D02*
X111830000Y-65049000D01*
D26*
X153145000Y-66690000D02*
X153130000Y-66675000D01*
D27*
X111830000Y-68580000D02*
X113760000Y-68580000D01*
D26*
X119735000Y-65780000D02*
X121607500Y-63907500D01*
D27*
X111830000Y-68580000D02*
X111830000Y-72365000D01*
D26*
X158215000Y-66690000D02*
X153145000Y-66690000D01*
X126232500Y-63907500D02*
X129635000Y-67310000D01*
X187420000Y-71120000D02*
X184245000Y-71120000D01*
X158215000Y-69210000D02*
X158210000Y-69215000D01*
X118205000Y-65780000D02*
X119735000Y-65780000D01*
D27*
X105530000Y-68580000D02*
X111830000Y-68580000D01*
D26*
X152957200Y-66675000D02*
X152322200Y-67310000D01*
X116560000Y-65780000D02*
X118205000Y-65780000D01*
X121607500Y-63907500D02*
X125190000Y-63907500D01*
X159122480Y-70127480D02*
X180077480Y-70127480D01*
X181070000Y-71120000D02*
X184245000Y-71120000D01*
X158210000Y-69215000D02*
X159122480Y-70127480D01*
X129635000Y-67310000D02*
X152322200Y-67310000D01*
X180077480Y-70127480D02*
X181070000Y-71120000D01*
X125190000Y-63907500D02*
X126232500Y-63907500D01*
D25*
X128365000Y-63935000D02*
X128365000Y-66040000D01*
D26*
X113760000Y-68580000D02*
X116560000Y-65780000D01*
D24*
%TO.N,/A3*%
X121380000Y-81915000D02*
X122650000Y-83185000D01*
X123285000Y-71120000D02*
X121380000Y-73025000D01*
X138525000Y-77035000D02*
X138525000Y-73025000D01*
X121380000Y-73025000D02*
X121380000Y-81915000D01*
X136620000Y-71120000D02*
X123285000Y-71120000D01*
X136620000Y-71120000D02*
X138525000Y-73025000D01*
%TO.N,/A4*%
X137255000Y-73025000D02*
X137255000Y-77035000D01*
X123920000Y-72390000D02*
X124555000Y-71755000D01*
X135985000Y-71755000D02*
X137255000Y-73025000D01*
X124555000Y-71755000D02*
X135985000Y-71755000D01*
%TO.N,/A5*%
X126460000Y-73025000D02*
X127095000Y-72390000D01*
X127095000Y-72390000D02*
X134080000Y-72390000D01*
X135985000Y-74295000D02*
X135985000Y-77035000D01*
X134080000Y-72390000D02*
X135985000Y-74295000D01*
%TO.N,/A6*%
X134715000Y-74930718D02*
X134715000Y-77035000D01*
X129635000Y-73660000D02*
X133444282Y-73660000D01*
X129000000Y-74295000D02*
X129635000Y-73660000D01*
X133444282Y-73660000D02*
X134715000Y-74930718D01*
%TO.N,/A7*%
X131540000Y-75390400D02*
X133269682Y-75390400D01*
X133445000Y-75565718D02*
X133445000Y-77035000D01*
X133269682Y-75390400D02*
X133445000Y-75565718D01*
%TO.N,/A8*%
X134715000Y-65823500D02*
X134625500Y-65913000D01*
X134715000Y-63935000D02*
X134715000Y-65823500D01*
%TO.N,/A9*%
X136620000Y-61595000D02*
X135985000Y-62230000D01*
X135985000Y-62230000D02*
X135985000Y-63935000D01*
X137890000Y-57820000D02*
X136655000Y-59055000D01*
X136620000Y-59055000D02*
X136620000Y-61595000D01*
X136655000Y-59055000D02*
X136620000Y-59055000D01*
%TO.N,/A10*%
X139795000Y-63935000D02*
X139795000Y-65823500D01*
X139795000Y-65823500D02*
X139705500Y-65913000D01*
%TO.N,/A11*%
X142970000Y-57820000D02*
X141700000Y-59090000D01*
X141700000Y-60960000D02*
X140430000Y-62230000D01*
X140430000Y-62230000D02*
X137935001Y-62230000D01*
X141700000Y-59090000D02*
X141700000Y-60960000D01*
X137255000Y-62910001D02*
X137255000Y-63935000D01*
X137935001Y-62230000D02*
X137255000Y-62910001D01*
%TO.N,/A12*%
X134080000Y-80010000D02*
X133445000Y-79375000D01*
X134715000Y-81915000D02*
X134080000Y-81280000D01*
X145510000Y-83185000D02*
X144240000Y-81915000D01*
X132810000Y-79375000D02*
X132175000Y-78740000D01*
X132175000Y-78740000D02*
X132175000Y-77035000D01*
X133445000Y-79375000D02*
X132810000Y-79375000D01*
X144240000Y-81915000D02*
X134715000Y-81915000D01*
X134080000Y-81280000D02*
X134080000Y-80010000D01*
%TO.N,/D7*%
X170910000Y-55245000D02*
X170910000Y-55280000D01*
X166149300Y-61910700D02*
X167100000Y-60960000D01*
X168370000Y-83185000D02*
X168370000Y-84455000D01*
X170910000Y-55280000D02*
X168370000Y-57820000D01*
X142335000Y-62230000D02*
X142935700Y-61629300D01*
X142335000Y-63935000D02*
X142335000Y-62230000D01*
X167100000Y-60960000D02*
X167100000Y-59090000D01*
X168370000Y-84455000D02*
X170275000Y-86360000D01*
X167100000Y-59090000D02*
X168370000Y-57820000D01*
X154326700Y-61629300D02*
X154608100Y-61910700D01*
X154608100Y-61910700D02*
X166149300Y-61910700D01*
X142935700Y-61629300D02*
X154326700Y-61629300D01*
%TO.N,/D6*%
X170910000Y-57820000D02*
X169640000Y-59090000D01*
X144389300Y-62080700D02*
X143605000Y-62865000D01*
X154421500Y-62361000D02*
X154141200Y-62080700D01*
X168416800Y-62361000D02*
X154421500Y-62361000D01*
X143605000Y-62865000D02*
X143605000Y-63935000D01*
X169640000Y-61137800D02*
X168416800Y-62361000D01*
X169640000Y-59090000D02*
X169640000Y-61137800D01*
X154141200Y-62080700D02*
X144389300Y-62080700D01*
%TO.N,/D5*%
X179165000Y-56515000D02*
X174720000Y-56515000D01*
X170910000Y-62865000D02*
X177895000Y-62865000D01*
X174720000Y-56515000D02*
X174720000Y-56550000D01*
X149955000Y-65405000D02*
X151648100Y-63711900D01*
X179800000Y-57150000D02*
X179165000Y-56515000D01*
X144875000Y-63935000D02*
X144875000Y-64770000D01*
X174720000Y-56550000D02*
X173450000Y-57820000D01*
X151648100Y-63711900D02*
X170063100Y-63711900D01*
X177895000Y-62865000D02*
X179800000Y-60960000D01*
X179800000Y-60960000D02*
X179800000Y-57150000D01*
X144875000Y-64770000D02*
X145510000Y-65405000D01*
X145510000Y-65405000D02*
X149955000Y-65405000D01*
X170063100Y-63711900D02*
X170910000Y-62865000D01*
%TO.N,/D4*%
X174720000Y-59090000D02*
X174720000Y-60960000D01*
X175990000Y-57820000D02*
X174720000Y-59090000D01*
X174085000Y-61595000D02*
X170275000Y-61595000D01*
X169058700Y-62811300D02*
X154234900Y-62811300D01*
X147090800Y-62531100D02*
X146145000Y-63476900D01*
X154234900Y-62811300D02*
X153954700Y-62531100D01*
X174720000Y-60960000D02*
X174085000Y-61595000D01*
X146145000Y-63476900D02*
X146145000Y-63935000D01*
X153954700Y-62531100D02*
X147090800Y-62531100D01*
X170275000Y-61595000D02*
X169058700Y-62811300D01*
%TO.N,/D3*%
X177260000Y-60960000D02*
X175990000Y-62230000D01*
X169655600Y-63261600D02*
X149716600Y-63261600D01*
X177260000Y-59090000D02*
X177260000Y-60960000D01*
X149716600Y-63261600D02*
X149043200Y-63935000D01*
X175990000Y-62230000D02*
X170687200Y-62230000D01*
X149043200Y-63935000D02*
X147415000Y-63935000D01*
X178530000Y-57820000D02*
X177260000Y-59090000D01*
X170687200Y-62230000D02*
X169655600Y-63261600D01*
%TO.N,/A2*%
X137255000Y-70485000D02*
X122650000Y-70485000D01*
X122650000Y-70485000D02*
X120110000Y-73025000D01*
X139795000Y-73025000D02*
X137255000Y-70485000D01*
X120110000Y-73025000D02*
X120110000Y-80645000D01*
X139795000Y-77035000D02*
X139795000Y-73025000D01*
%TO.N,/A1*%
X135970800Y-78740000D02*
X135350000Y-78119200D01*
X140430000Y-78740000D02*
X135970800Y-78740000D01*
X128365000Y-73025000D02*
X122650000Y-78740000D01*
X135350000Y-78119200D02*
X135350000Y-74930000D01*
X141065000Y-78105000D02*
X140430000Y-78740000D01*
X122650000Y-78740000D02*
X122650000Y-80645000D01*
X141065000Y-77035000D02*
X141065000Y-78105000D01*
X135350000Y-74930000D02*
X133445000Y-73025000D01*
X133445000Y-73025000D02*
X128365000Y-73025000D01*
%TO.N,/A0*%
X132810000Y-74295000D02*
X134080000Y-75565000D01*
X142335000Y-78740000D02*
X142335000Y-77035000D01*
X134080000Y-78740000D02*
X134715000Y-79375000D01*
X127730000Y-80645000D02*
X127730000Y-79375000D01*
X130270000Y-74295000D02*
X132810000Y-74295000D01*
X134080000Y-75565000D02*
X134080000Y-78740000D01*
X127730000Y-79375000D02*
X129000000Y-78105000D01*
X129000000Y-75565000D02*
X130270000Y-74295000D01*
X141700000Y-79375000D02*
X142335000Y-78740000D01*
X134715000Y-79375000D02*
X141700000Y-79375000D01*
X129000000Y-78105000D02*
X129000000Y-75565000D01*
%TO.N,/RW*%
X139160000Y-57150000D02*
X139160000Y-60960000D01*
X154900400Y-61460400D02*
X154400000Y-60960000D01*
X139160000Y-60960000D02*
X138525000Y-61595000D01*
X165830000Y-60360000D02*
X164729600Y-61460400D01*
X153765000Y-59055000D02*
X144875000Y-59055000D01*
X139795000Y-56515000D02*
X139160000Y-57150000D01*
X138525000Y-61595000D02*
X137894772Y-61595000D01*
X136620000Y-65405000D02*
X136620000Y-64770000D01*
X143605000Y-56515000D02*
X144240000Y-57150000D01*
X132175000Y-66040000D02*
X132810000Y-66675000D01*
X144875000Y-59055000D02*
X144240000Y-58420000D01*
X135350000Y-66675000D02*
X136620000Y-65405000D01*
X136609520Y-62880252D02*
X136609520Y-65010708D01*
X143605000Y-56515000D02*
X139795000Y-56515000D01*
X154400000Y-60960000D02*
X154400000Y-59690000D01*
X137894772Y-61595000D02*
X136609520Y-62880252D01*
X132175000Y-63935000D02*
X132175000Y-66040000D01*
X132810000Y-66675000D02*
X135350000Y-66675000D01*
X144240000Y-58420000D02*
X144240000Y-57150000D01*
X154400000Y-59690000D02*
X153765000Y-59055000D01*
X164729600Y-61460400D02*
X154900400Y-61460400D01*
%TO.N,/D0*%
X173450000Y-79375000D02*
X172815000Y-78740000D01*
X146144400Y-79374400D02*
X146143800Y-79375000D01*
X146143800Y-79375000D02*
X144240000Y-79375000D01*
X143605000Y-78740000D02*
X143605000Y-77035000D01*
X149320600Y-79374400D02*
X146144400Y-79374400D01*
X172815000Y-78740000D02*
X149955000Y-78740000D01*
X149955000Y-78740000D02*
X149320600Y-79374400D01*
X173450000Y-80645000D02*
X173450000Y-79375000D01*
X144240000Y-79375000D02*
X143605000Y-78740000D01*
%TO.N,/D1*%
X144875000Y-78105000D02*
X144875000Y-77035000D01*
X175990000Y-79375000D02*
X174720000Y-78105000D01*
X145691500Y-78921500D02*
X144875000Y-78105000D01*
X148866500Y-78921500D02*
X145691500Y-78921500D01*
X175990000Y-80645000D02*
X175990000Y-79375000D01*
X149683000Y-78105000D02*
X148866500Y-78921500D01*
X174720000Y-78105000D02*
X149683000Y-78105000D01*
%TO.N,/D2*%
X146145000Y-77471400D02*
X146145000Y-77035000D01*
X149309300Y-77459300D02*
X148356800Y-78411800D01*
X178530000Y-80645000D02*
X178530000Y-79375000D01*
X178530000Y-79375000D02*
X176625000Y-77470000D01*
X147085400Y-78411800D02*
X146145000Y-77471400D01*
X149320000Y-77470000D02*
X149309300Y-77459300D01*
X148356800Y-78411800D02*
X147085400Y-78411800D01*
X176625000Y-77470000D02*
X149320000Y-77470000D01*
%TO.N,/RAM_CE*%
X160755000Y-64801420D02*
X160115000Y-64161420D01*
X160115000Y-64161420D02*
X152560280Y-64161420D01*
X160755000Y-66690000D02*
X160755000Y-64801420D01*
X141700000Y-66040000D02*
X141065000Y-65405000D01*
X152560280Y-64161420D02*
X150681700Y-66040000D01*
X150681700Y-66040000D02*
X141700000Y-66040000D01*
X141065000Y-65405000D02*
X141065000Y-63935000D01*
%TO.N,/RAM_OE*%
X153076400Y-64770000D02*
X151171400Y-66675000D01*
X162655000Y-68580000D02*
X163295000Y-67940000D01*
X159480000Y-67945000D02*
X160115000Y-68580000D01*
X138525000Y-66040000D02*
X138525000Y-63935000D01*
X151171400Y-66675000D02*
X139160000Y-66675000D01*
X163295000Y-67940000D02*
X163295000Y-66690000D01*
X158845000Y-64770000D02*
X153076400Y-64770000D01*
X160115000Y-68580000D02*
X162655000Y-68580000D01*
X159480000Y-65405000D02*
X159480000Y-67945000D01*
X139160000Y-66675000D02*
X138525000Y-66040000D01*
X159480000Y-65405000D02*
X158845000Y-64770000D01*
%TO.N,/DSMC*%
X168375000Y-65410000D02*
X168370000Y-65405000D01*
X179800000Y-53975000D02*
X116300000Y-53975000D01*
X169613580Y-64161420D02*
X170883580Y-64161420D01*
X168375000Y-66690000D02*
X168375000Y-65410000D01*
X168370000Y-65405000D02*
X169613580Y-64161420D01*
X116300000Y-53975000D02*
X115030000Y-55245000D01*
X182975000Y-57150000D02*
X179800000Y-53975000D01*
X171545000Y-63500000D02*
X181070000Y-63500000D01*
X115030000Y-55245000D02*
X115030000Y-57820000D01*
X182975000Y-61595000D02*
X182975000Y-57150000D01*
X181070000Y-63500000D02*
X182975000Y-61595000D01*
X170883580Y-64161420D02*
X171545000Y-63500000D01*
%TO.N,/A13*%
X134080000Y-61595000D02*
X133445000Y-62230000D01*
X146110000Y-55880000D02*
X135350000Y-55880000D01*
X135350000Y-55880000D02*
X134080000Y-57150000D01*
X133445000Y-62230000D02*
X133445000Y-63935000D01*
X134080000Y-57150000D02*
X134080000Y-61595000D01*
X148050000Y-57820000D02*
X146110000Y-55880000D01*
%TO.N,/A14*%
X150590000Y-83185000D02*
X149320000Y-84455000D01*
X131540000Y-79375000D02*
X130905000Y-78740000D01*
X130905000Y-78740000D02*
X130905000Y-77035000D01*
X132175000Y-84455000D02*
X131540000Y-83820000D01*
X149320000Y-84455000D02*
X132175000Y-84455000D01*
X131540000Y-83820000D02*
X131540000Y-79375000D01*
%TO.N,/A16*%
X130270000Y-85090000D02*
X156305000Y-85090000D01*
X156305000Y-85090000D02*
X158210000Y-83185000D01*
X129635000Y-77035000D02*
X129635000Y-78740000D01*
X129000000Y-83820000D02*
X130270000Y-85090000D01*
X129635000Y-78740000D02*
X129000000Y-79375000D01*
X129000000Y-79375000D02*
X129000000Y-83820000D01*
%TO.N,/A17*%
X160755000Y-74925000D02*
X159480000Y-76200000D01*
X131540000Y-57150000D02*
X131540000Y-61595000D01*
X160755000Y-74310000D02*
X160755000Y-74925000D01*
X159480000Y-76200000D02*
X157575000Y-76200000D01*
X160750000Y-57820000D02*
X160750000Y-56515000D01*
X133445000Y-55245000D02*
X131540000Y-57150000D01*
X130905000Y-62230000D02*
X130905000Y-63935000D01*
X160750000Y-56515000D02*
X159480000Y-55245000D01*
X131540000Y-61595000D02*
X130905000Y-62230000D01*
X159480000Y-55245000D02*
X133445000Y-55245000D01*
%TO.N,/A18*%
X127095000Y-85725000D02*
X160750000Y-85725000D01*
X181075000Y-66690000D02*
X181075000Y-68215300D01*
X180102800Y-69187500D02*
X163876200Y-69187500D01*
X126460000Y-78940000D02*
X126460000Y-85090000D01*
X160750000Y-85725000D02*
X163290000Y-83185000D01*
X181075000Y-68215300D02*
X180102800Y-69187500D01*
X126460000Y-85090000D02*
X127095000Y-85725000D01*
X128365000Y-77035000D02*
X126460000Y-78940000D01*
%TO.N,/A15*%
X130905000Y-54610000D02*
X129000000Y-56515000D01*
X129635000Y-62230000D02*
X129635000Y-63935000D01*
X129000000Y-56515000D02*
X129000000Y-61595000D01*
X160115000Y-54610000D02*
X130905000Y-54610000D01*
X162020000Y-58420000D02*
X162020000Y-56515000D01*
X161385000Y-59055000D02*
X162020000Y-58420000D01*
X155670000Y-60360000D02*
X156940000Y-59090000D01*
X156940000Y-59055000D02*
X161385000Y-59055000D01*
X156940000Y-59090000D02*
X156940000Y-59055000D01*
X162020000Y-56515000D02*
X160115000Y-54610000D01*
X129000000Y-61595000D02*
X129635000Y-62230000D01*
%TO.N,/DS*%
X158609700Y-72390000D02*
X158215000Y-72784700D01*
X166465000Y-72390000D02*
X158609700Y-72390000D01*
X158215000Y-72784700D02*
X158215000Y-74310000D01*
%TO.N,/AS*%
X185515000Y-82550000D02*
X184245000Y-82550000D01*
X169640000Y-81915000D02*
X169640000Y-83820000D01*
X172056800Y-64646400D02*
X172053400Y-64643000D01*
X170275000Y-84455000D02*
X182340000Y-84455000D01*
X183486400Y-64646400D02*
X172056800Y-64646400D01*
X189325000Y-70485000D02*
X183486400Y-64646400D01*
X185515000Y-82550000D02*
X189325000Y-78740000D01*
X189325000Y-78740000D02*
X189325000Y-70485000D01*
X169640000Y-83820000D02*
X170275000Y-84455000D01*
X184245000Y-82550000D02*
X182340000Y-84455000D01*
X170910000Y-80645000D02*
X169640000Y-81915000D01*
%TO.N,/DTACK*%
X172815000Y-68580000D02*
X173455000Y-67940000D01*
X173455000Y-67940000D02*
X173455000Y-66690000D01*
X163863300Y-64664400D02*
X163863300Y-64708300D01*
X163863300Y-64708300D02*
X164560000Y-65405000D01*
X185514282Y-81915000D02*
X188690000Y-78739282D01*
X188690000Y-70485718D02*
X183368982Y-65164700D01*
X164560000Y-79375000D02*
X171544282Y-79375000D01*
X164560000Y-65405000D02*
X164560000Y-67945000D01*
X173455000Y-66189400D02*
X173455000Y-66690000D01*
X188690000Y-78739282D02*
X188690000Y-70485718D01*
X165195000Y-68580000D02*
X172815000Y-68580000D01*
X164560000Y-67945000D02*
X165195000Y-68580000D01*
X183368982Y-65164700D02*
X174479700Y-65164700D01*
X171544282Y-79375000D02*
X172180000Y-80010718D01*
X174479700Y-65164700D02*
X173455000Y-66189400D01*
X172180000Y-81280000D02*
X172815000Y-81915000D01*
X172815000Y-81915000D02*
X185514282Y-81915000D01*
X172180000Y-80010718D02*
X172180000Y-81280000D01*
X163290000Y-80645000D02*
X164560000Y-79375000D01*
%TO.N,Net-(JP1-Pad2)*%
X173455000Y-76195000D02*
X173455000Y-74310000D01*
X184245000Y-76805000D02*
X174055000Y-76805000D01*
X184245000Y-74220000D02*
X184245000Y-76805000D01*
X174055000Y-76805000D02*
X173450000Y-76200000D01*
X173450000Y-76200000D02*
X173455000Y-76195000D01*
%TO.N,Net-(JP2-Pad2)*%
X181705000Y-76200000D02*
X182975000Y-74930000D01*
X176625000Y-76200000D02*
X181705000Y-76200000D01*
X175995000Y-74310000D02*
X175995000Y-75570000D01*
X175995000Y-75570000D02*
X176625000Y-76200000D01*
X183602507Y-73025000D02*
X186785000Y-73025000D01*
X182975000Y-73652507D02*
X183602507Y-73025000D01*
X187420000Y-73660000D02*
X187420000Y-74220000D01*
X182975000Y-74930000D02*
X182975000Y-73652507D01*
X186785000Y-73025000D02*
X187420000Y-73660000D01*
X187420000Y-74220000D02*
X187420000Y-76820000D01*
%TD*%
%TA.AperFunction,Conductor*%
%TO.N,GND*%
G36*
X96277878Y-53360002D02*
G01*
X96324371Y-53413658D01*
X96334475Y-53483932D01*
X96304981Y-53548512D01*
X96269589Y-53576888D01*
X96215248Y-53606209D01*
X96211332Y-53608322D01*
X95991085Y-53770999D01*
X95795955Y-53963087D01*
X95793256Y-53966624D01*
X95793253Y-53966627D01*
X95763074Y-54006172D01*
X95629838Y-54180753D01*
X95496048Y-54419653D01*
X95397254Y-54675021D01*
X95396251Y-54679346D01*
X95396250Y-54679351D01*
X95382685Y-54737873D01*
X95335426Y-54941761D01*
X95311800Y-55214552D01*
X95312044Y-55218987D01*
X95312044Y-55218991D01*
X95325886Y-55470499D01*
X95326846Y-55487951D01*
X95380264Y-55756502D01*
X95470989Y-56014847D01*
X95473042Y-56018798D01*
X95473044Y-56018804D01*
X95588568Y-56241198D01*
X95597209Y-56257832D01*
X95599792Y-56261447D01*
X95599796Y-56261453D01*
X95681864Y-56376295D01*
X95756407Y-56480608D01*
X95807892Y-56534578D01*
X95932899Y-56665619D01*
X95945406Y-56678730D01*
X95948902Y-56681486D01*
X96101531Y-56801808D01*
X96160436Y-56848245D01*
X96164278Y-56850477D01*
X96164283Y-56850480D01*
X96393351Y-56983534D01*
X96393357Y-56983537D01*
X96397205Y-56985772D01*
X96465023Y-57013241D01*
X96646857Y-57086892D01*
X96646865Y-57086895D01*
X96650989Y-57088565D01*
X96783858Y-57121570D01*
X96912401Y-57153500D01*
X96912405Y-57153501D01*
X96916726Y-57154574D01*
X97150247Y-57178500D01*
X97319754Y-57178500D01*
X97523128Y-57164100D01*
X97527483Y-57163162D01*
X97527486Y-57163162D01*
X97786460Y-57107407D01*
X97786462Y-57107407D01*
X97790807Y-57106471D01*
X98005953Y-57027099D01*
X98043518Y-57013241D01*
X98047695Y-57011700D01*
X98051613Y-57009586D01*
X98284752Y-56883791D01*
X98288668Y-56881678D01*
X98401924Y-56798026D01*
X98505329Y-56721650D01*
X98505332Y-56721647D01*
X98508915Y-56719001D01*
X98704045Y-56526913D01*
X98706747Y-56523373D01*
X98867460Y-56312788D01*
X98867462Y-56312784D01*
X98870162Y-56309247D01*
X99003952Y-56070347D01*
X99102746Y-55814979D01*
X99115325Y-55760713D01*
X99147412Y-55622279D01*
X99164574Y-55548239D01*
X99188200Y-55275448D01*
X99186886Y-55251565D01*
X99173399Y-55006492D01*
X99173398Y-55006485D01*
X99173154Y-55002049D01*
X99119736Y-54733498D01*
X99029011Y-54475153D01*
X99002336Y-54423800D01*
X98904843Y-54236118D01*
X98904842Y-54236116D01*
X98902791Y-54232168D01*
X98900208Y-54228553D01*
X98900204Y-54228547D01*
X98746181Y-54013014D01*
X98743593Y-54009392D01*
X98554594Y-53811270D01*
X98339564Y-53641755D01*
X98335722Y-53639523D01*
X98335717Y-53639520D01*
X98224558Y-53574954D01*
X98175700Y-53523443D01*
X98162446Y-53453694D01*
X98189006Y-53387853D01*
X98246945Y-53346822D01*
X98287844Y-53340000D01*
X115734905Y-53340000D01*
X115803026Y-53360002D01*
X115849519Y-53413658D01*
X115859623Y-53483932D01*
X115830129Y-53548512D01*
X115824000Y-53555095D01*
X114637747Y-54741348D01*
X114629461Y-54748888D01*
X114622982Y-54753000D01*
X114617557Y-54758777D01*
X114576357Y-54802651D01*
X114573602Y-54805493D01*
X114553865Y-54825230D01*
X114551385Y-54828427D01*
X114543682Y-54837447D01*
X114513414Y-54869679D01*
X114509595Y-54876625D01*
X114509593Y-54876628D01*
X114503652Y-54887434D01*
X114492801Y-54903953D01*
X114480386Y-54919959D01*
X114477241Y-54927228D01*
X114477238Y-54927232D01*
X114462826Y-54960537D01*
X114457609Y-54971187D01*
X114436305Y-55009940D01*
X114434334Y-55017615D01*
X114434334Y-55017616D01*
X114431267Y-55029562D01*
X114424863Y-55048266D01*
X114416819Y-55066855D01*
X114415580Y-55074678D01*
X114415577Y-55074688D01*
X114409901Y-55110524D01*
X114407495Y-55122144D01*
X114396500Y-55164970D01*
X114396500Y-55185224D01*
X114394949Y-55204934D01*
X114391780Y-55224943D01*
X114392526Y-55232835D01*
X114395941Y-55268961D01*
X114396500Y-55280819D01*
X114396500Y-56596126D01*
X114376498Y-56664247D01*
X114342772Y-56699338D01*
X114280826Y-56742713D01*
X114206342Y-56794867D01*
X114206339Y-56794869D01*
X114201831Y-56798026D01*
X114043026Y-56956831D01*
X114039869Y-56961339D01*
X114039867Y-56961342D01*
X113938430Y-57106209D01*
X113914210Y-57140799D01*
X113911887Y-57145781D01*
X113911884Y-57145786D01*
X113874195Y-57226611D01*
X113827277Y-57279896D01*
X113759000Y-57299357D01*
X113691040Y-57278815D01*
X113645805Y-57226611D01*
X113608116Y-57145786D01*
X113608113Y-57145781D01*
X113605790Y-57140799D01*
X113581570Y-57106209D01*
X113480133Y-56961342D01*
X113480131Y-56961339D01*
X113476974Y-56956831D01*
X113318169Y-56798026D01*
X113308610Y-56791332D01*
X113221347Y-56730230D01*
X113134202Y-56669210D01*
X113129220Y-56666887D01*
X113129215Y-56666884D01*
X112935642Y-56576620D01*
X112935641Y-56576620D01*
X112930660Y-56574297D01*
X112925352Y-56572875D01*
X112925350Y-56572874D01*
X112719044Y-56517595D01*
X112719042Y-56517595D01*
X112713729Y-56516171D01*
X112490000Y-56496597D01*
X112266271Y-56516171D01*
X112260958Y-56517595D01*
X112260956Y-56517595D01*
X112054650Y-56572874D01*
X112054648Y-56572875D01*
X112049340Y-56574297D01*
X112044359Y-56576619D01*
X112044358Y-56576620D01*
X111850786Y-56666884D01*
X111850781Y-56666887D01*
X111845799Y-56669210D01*
X111841292Y-56672366D01*
X111841290Y-56672367D01*
X111666342Y-56794867D01*
X111666339Y-56794869D01*
X111661831Y-56798026D01*
X111503026Y-56956831D01*
X111499869Y-56961339D01*
X111499867Y-56961342D01*
X111398430Y-57106209D01*
X111374210Y-57140799D01*
X111371887Y-57145781D01*
X111371884Y-57145786D01*
X111334195Y-57226611D01*
X111287277Y-57279896D01*
X111219000Y-57299357D01*
X111151040Y-57278815D01*
X111105805Y-57226611D01*
X111068116Y-57145786D01*
X111068113Y-57145781D01*
X111065790Y-57140799D01*
X111041570Y-57106209D01*
X110940133Y-56961342D01*
X110940131Y-56961339D01*
X110936974Y-56956831D01*
X110778169Y-56798026D01*
X110768610Y-56791332D01*
X110681347Y-56730230D01*
X110594202Y-56669210D01*
X110589220Y-56666887D01*
X110589215Y-56666884D01*
X110395642Y-56576620D01*
X110395641Y-56576620D01*
X110390660Y-56574297D01*
X110385352Y-56572875D01*
X110385350Y-56572874D01*
X110179044Y-56517595D01*
X110179042Y-56517595D01*
X110173729Y-56516171D01*
X109950000Y-56496597D01*
X109726271Y-56516171D01*
X109720958Y-56517595D01*
X109720956Y-56517595D01*
X109514650Y-56572874D01*
X109514648Y-56572875D01*
X109509340Y-56574297D01*
X109504359Y-56576619D01*
X109504358Y-56576620D01*
X109310786Y-56666884D01*
X109310781Y-56666887D01*
X109305799Y-56669210D01*
X109301292Y-56672366D01*
X109301290Y-56672367D01*
X109126342Y-56794867D01*
X109126339Y-56794869D01*
X109121831Y-56798026D01*
X108963026Y-56956831D01*
X108959869Y-56961339D01*
X108959867Y-56961342D01*
X108858430Y-57106209D01*
X108834210Y-57140799D01*
X108831887Y-57145781D01*
X108831884Y-57145786D01*
X108794195Y-57226611D01*
X108747277Y-57279896D01*
X108679000Y-57299357D01*
X108611040Y-57278815D01*
X108565805Y-57226611D01*
X108528116Y-57145786D01*
X108528113Y-57145781D01*
X108525790Y-57140799D01*
X108501570Y-57106209D01*
X108400133Y-56961342D01*
X108400131Y-56961339D01*
X108396974Y-56956831D01*
X108238169Y-56798026D01*
X108228610Y-56791332D01*
X108141347Y-56730230D01*
X108054202Y-56669210D01*
X108049220Y-56666887D01*
X108049215Y-56666884D01*
X107855642Y-56576620D01*
X107855641Y-56576620D01*
X107850660Y-56574297D01*
X107845352Y-56572875D01*
X107845350Y-56572874D01*
X107639044Y-56517595D01*
X107639042Y-56517595D01*
X107633729Y-56516171D01*
X107410000Y-56496597D01*
X107186271Y-56516171D01*
X107180958Y-56517595D01*
X107180956Y-56517595D01*
X106974650Y-56572874D01*
X106974648Y-56572875D01*
X106969340Y-56574297D01*
X106964359Y-56576619D01*
X106964358Y-56576620D01*
X106770786Y-56666884D01*
X106770781Y-56666887D01*
X106765799Y-56669210D01*
X106761292Y-56672366D01*
X106761290Y-56672367D01*
X106586342Y-56794867D01*
X106586339Y-56794869D01*
X106581831Y-56798026D01*
X106423026Y-56956831D01*
X106419869Y-56961339D01*
X106419867Y-56961342D01*
X106318430Y-57106209D01*
X106294210Y-57140799D01*
X106291887Y-57145781D01*
X106291884Y-57145786D01*
X106254195Y-57226611D01*
X106207277Y-57279896D01*
X106139000Y-57299357D01*
X106071040Y-57278815D01*
X106025805Y-57226611D01*
X105988116Y-57145786D01*
X105988113Y-57145781D01*
X105985790Y-57140799D01*
X105961570Y-57106209D01*
X105860133Y-56961342D01*
X105860131Y-56961339D01*
X105856974Y-56956831D01*
X105698169Y-56798026D01*
X105688610Y-56791332D01*
X105601347Y-56730230D01*
X105514202Y-56669210D01*
X105509220Y-56666887D01*
X105509215Y-56666884D01*
X105315642Y-56576620D01*
X105315641Y-56576620D01*
X105310660Y-56574297D01*
X105305352Y-56572875D01*
X105305350Y-56572874D01*
X105099044Y-56517595D01*
X105099042Y-56517595D01*
X105093729Y-56516171D01*
X104870000Y-56496597D01*
X104646271Y-56516171D01*
X104640958Y-56517595D01*
X104640956Y-56517595D01*
X104434650Y-56572874D01*
X104434648Y-56572875D01*
X104429340Y-56574297D01*
X104424359Y-56576619D01*
X104424358Y-56576620D01*
X104230786Y-56666884D01*
X104230781Y-56666887D01*
X104225799Y-56669210D01*
X104221292Y-56672366D01*
X104221290Y-56672367D01*
X104046342Y-56794867D01*
X104046339Y-56794869D01*
X104041831Y-56798026D01*
X103883026Y-56956831D01*
X103879869Y-56961339D01*
X103879867Y-56961342D01*
X103803366Y-57070597D01*
X103747909Y-57114925D01*
X103677289Y-57122234D01*
X103613929Y-57090203D01*
X103580630Y-57038203D01*
X103548867Y-56942998D01*
X103548866Y-56942996D01*
X103546550Y-56936054D01*
X103453479Y-56785651D01*
X103328303Y-56660694D01*
X103235000Y-56603181D01*
X103183969Y-56571725D01*
X103183967Y-56571724D01*
X103177739Y-56567885D01*
X103027608Y-56518089D01*
X103016390Y-56514368D01*
X103016388Y-56514368D01*
X103009862Y-56512203D01*
X103003026Y-56511503D01*
X103003023Y-56511502D01*
X102959970Y-56507091D01*
X102905401Y-56501500D01*
X102334438Y-56501500D01*
X101754600Y-56501501D01*
X101648833Y-56512474D01*
X101642286Y-56514658D01*
X101642287Y-56514658D01*
X101487998Y-56566133D01*
X101487996Y-56566134D01*
X101481054Y-56568450D01*
X101330651Y-56661521D01*
X101205694Y-56786697D01*
X101112885Y-56937261D01*
X101088195Y-57011700D01*
X101062157Y-57090203D01*
X101057203Y-57105138D01*
X101046500Y-57209599D01*
X101046501Y-58360400D01*
X101057474Y-58466167D01*
X101059658Y-58472713D01*
X101110730Y-58625792D01*
X101113450Y-58633946D01*
X101206521Y-58784349D01*
X101331697Y-58909306D01*
X101337926Y-58913146D01*
X101337929Y-58913148D01*
X101386617Y-58943160D01*
X101434110Y-58995932D01*
X101446500Y-59050419D01*
X101446500Y-59341167D01*
X101426498Y-59409288D01*
X101409595Y-59430262D01*
X101343026Y-59496831D01*
X101339869Y-59501339D01*
X101339867Y-59501342D01*
X101217368Y-59676289D01*
X101214210Y-59680799D01*
X101211887Y-59685781D01*
X101211884Y-59685786D01*
X101174195Y-59766611D01*
X101119297Y-59884340D01*
X101061171Y-60101271D01*
X101041597Y-60325000D01*
X101061171Y-60548729D01*
X101119297Y-60765660D01*
X101121619Y-60770641D01*
X101121620Y-60770642D01*
X101211884Y-60964214D01*
X101211887Y-60964219D01*
X101214210Y-60969201D01*
X101217366Y-60973708D01*
X101217367Y-60973710D01*
X101255772Y-61028557D01*
X101343026Y-61153169D01*
X101409595Y-61219738D01*
X101443621Y-61282050D01*
X101446500Y-61308833D01*
X101446500Y-64135500D01*
X101426498Y-64203621D01*
X101372842Y-64250114D01*
X101320500Y-64261500D01*
X99954500Y-64261500D01*
X99886379Y-64241498D01*
X99839886Y-64187842D01*
X99828500Y-64135500D01*
X99828500Y-63594600D01*
X99827803Y-63587885D01*
X99818238Y-63495692D01*
X99818237Y-63495688D01*
X99817526Y-63488834D01*
X99761550Y-63321054D01*
X99668478Y-63170652D01*
X99644645Y-63146860D01*
X99548483Y-63050866D01*
X99543303Y-63045695D01*
X99537072Y-63041854D01*
X99398968Y-62956725D01*
X99398966Y-62956724D01*
X99392738Y-62952885D01*
X99232254Y-62899655D01*
X99231389Y-62899368D01*
X99231387Y-62899368D01*
X99224861Y-62897203D01*
X99218025Y-62896503D01*
X99218022Y-62896502D01*
X99174969Y-62892091D01*
X99120400Y-62886500D01*
X97919600Y-62886500D01*
X97916354Y-62886837D01*
X97916350Y-62886837D01*
X97820692Y-62896762D01*
X97820688Y-62896763D01*
X97813834Y-62897474D01*
X97807298Y-62899655D01*
X97807296Y-62899655D01*
X97675194Y-62943728D01*
X97646054Y-62953450D01*
X97495652Y-63046522D01*
X97490479Y-63051704D01*
X97436224Y-63106054D01*
X97370695Y-63171697D01*
X97366855Y-63177927D01*
X97366854Y-63177928D01*
X97313376Y-63264686D01*
X97277885Y-63322262D01*
X97222203Y-63490139D01*
X97211500Y-63594600D01*
X97211500Y-64135500D01*
X97191498Y-64203621D01*
X97137842Y-64250114D01*
X97085500Y-64261500D01*
X96954450Y-64261500D01*
X96934739Y-64259949D01*
X96928009Y-64258883D01*
X96921493Y-64257851D01*
X96914906Y-64258196D01*
X96914902Y-64258196D01*
X96855169Y-64261327D01*
X96848574Y-64261500D01*
X96828694Y-64261500D01*
X96808912Y-64263579D01*
X96802353Y-64264095D01*
X96775429Y-64265506D01*
X96742627Y-64267225D01*
X96742625Y-64267225D01*
X96736029Y-64267571D01*
X96723074Y-64271042D01*
X96703645Y-64274642D01*
X96696874Y-64275354D01*
X96696867Y-64275356D01*
X96690298Y-64276046D01*
X96627112Y-64296576D01*
X96620817Y-64298441D01*
X96556637Y-64315638D01*
X96550755Y-64318635D01*
X96544683Y-64321728D01*
X96526421Y-64329292D01*
X96519957Y-64331392D01*
X96519949Y-64331395D01*
X96513669Y-64333436D01*
X96507950Y-64336738D01*
X96507945Y-64336740D01*
X96456133Y-64366654D01*
X96450363Y-64369787D01*
X96391161Y-64399953D01*
X96386029Y-64404109D01*
X96380741Y-64408391D01*
X96364448Y-64419589D01*
X96352831Y-64426296D01*
X96347925Y-64430713D01*
X96347920Y-64430717D01*
X96303462Y-64470747D01*
X96298446Y-64475031D01*
X96285591Y-64485441D01*
X96283014Y-64487528D01*
X96268969Y-64501573D01*
X96264184Y-64506114D01*
X96214815Y-64550566D01*
X96206925Y-64561426D01*
X96194088Y-64576454D01*
X94141454Y-66629088D01*
X94126426Y-66641925D01*
X94115566Y-66649815D01*
X94111145Y-66654725D01*
X94111144Y-66654726D01*
X94071114Y-66699184D01*
X94066573Y-66703969D01*
X94052528Y-66718014D01*
X94050444Y-66720588D01*
X94050441Y-66720591D01*
X94040031Y-66733446D01*
X94035747Y-66738462D01*
X93995717Y-66782920D01*
X93995713Y-66782925D01*
X93991296Y-66787831D01*
X93987557Y-66794308D01*
X93984589Y-66799448D01*
X93973391Y-66815741D01*
X93964953Y-66826161D01*
X93934787Y-66885363D01*
X93931654Y-66891133D01*
X93901740Y-66942945D01*
X93901738Y-66942950D01*
X93898436Y-66948669D01*
X93896395Y-66954949D01*
X93896392Y-66954957D01*
X93894292Y-66961421D01*
X93886728Y-66979683D01*
X93883637Y-66985749D01*
X93883634Y-66985758D01*
X93880638Y-66991637D01*
X93878929Y-66998015D01*
X93863444Y-67055804D01*
X93861578Y-67062106D01*
X93841046Y-67125298D01*
X93840356Y-67131866D01*
X93839645Y-67138628D01*
X93836042Y-67158071D01*
X93832570Y-67171029D01*
X93829215Y-67235048D01*
X93829093Y-67237367D01*
X93828577Y-67243931D01*
X93826500Y-67263694D01*
X93826500Y-67283555D01*
X93826327Y-67290150D01*
X93823745Y-67339419D01*
X93822850Y-67356493D01*
X93823882Y-67363007D01*
X93824949Y-67369744D01*
X93826500Y-67389456D01*
X93826500Y-71040543D01*
X93824949Y-71060255D01*
X93822850Y-71073507D01*
X93823195Y-71080094D01*
X93823195Y-71080098D01*
X93826327Y-71139850D01*
X93826500Y-71146445D01*
X93826500Y-71166306D01*
X93826844Y-71169577D01*
X93828576Y-71186059D01*
X93829093Y-71192628D01*
X93832570Y-71258971D01*
X93836042Y-71271929D01*
X93839645Y-71291372D01*
X93841046Y-71304702D01*
X93861578Y-71367894D01*
X93863444Y-71374196D01*
X93880638Y-71438363D01*
X93883634Y-71444242D01*
X93883637Y-71444251D01*
X93886728Y-71450317D01*
X93894292Y-71468579D01*
X93896392Y-71475043D01*
X93896395Y-71475051D01*
X93898436Y-71481331D01*
X93901738Y-71487050D01*
X93901740Y-71487055D01*
X93931654Y-71538867D01*
X93934787Y-71544637D01*
X93964953Y-71603839D01*
X93969109Y-71608971D01*
X93973391Y-71614259D01*
X93984589Y-71630552D01*
X93991296Y-71642169D01*
X93995713Y-71647075D01*
X93995717Y-71647080D01*
X94035747Y-71691538D01*
X94040031Y-71696554D01*
X94050403Y-71709362D01*
X94052528Y-71711986D01*
X94066573Y-71726031D01*
X94071114Y-71730816D01*
X94101874Y-71764978D01*
X94115566Y-71780185D01*
X94126426Y-71788075D01*
X94141454Y-71800912D01*
X101409595Y-79069053D01*
X101443621Y-79131365D01*
X101446500Y-79158148D01*
X101446500Y-79661167D01*
X101426498Y-79729288D01*
X101409595Y-79750262D01*
X101343026Y-79816831D01*
X101339869Y-79821339D01*
X101339867Y-79821342D01*
X101219898Y-79992676D01*
X101214210Y-80000799D01*
X101211887Y-80005781D01*
X101211884Y-80005786D01*
X101140273Y-80159357D01*
X101119297Y-80204340D01*
X101117875Y-80209648D01*
X101117874Y-80209650D01*
X101062595Y-80415956D01*
X101061171Y-80421271D01*
X101041597Y-80645000D01*
X101061171Y-80868729D01*
X101062595Y-80874042D01*
X101062595Y-80874044D01*
X101092700Y-80986396D01*
X101119297Y-81085660D01*
X101121619Y-81090641D01*
X101121620Y-81090642D01*
X101211884Y-81284214D01*
X101211887Y-81284219D01*
X101214210Y-81289201D01*
X101217366Y-81293708D01*
X101217367Y-81293710D01*
X101221162Y-81299129D01*
X101343026Y-81473169D01*
X101409595Y-81539738D01*
X101443621Y-81602050D01*
X101446500Y-81628833D01*
X101446500Y-82201167D01*
X101426498Y-82269288D01*
X101409595Y-82290262D01*
X101343026Y-82356831D01*
X101339869Y-82361339D01*
X101339867Y-82361342D01*
X101217368Y-82536289D01*
X101214210Y-82540799D01*
X101211887Y-82545781D01*
X101211884Y-82545786D01*
X101174195Y-82626611D01*
X101119297Y-82744340D01*
X101117875Y-82749648D01*
X101117874Y-82749650D01*
X101070481Y-82926525D01*
X101061171Y-82961271D01*
X101041597Y-83185000D01*
X101061171Y-83408729D01*
X101062595Y-83414042D01*
X101062595Y-83414044D01*
X101092700Y-83526396D01*
X101119297Y-83625660D01*
X101121619Y-83630641D01*
X101121620Y-83630642D01*
X101211884Y-83824214D01*
X101211887Y-83824219D01*
X101214210Y-83829201D01*
X101217366Y-83833708D01*
X101217367Y-83833710D01*
X101250785Y-83881435D01*
X101343026Y-84013169D01*
X101501831Y-84171974D01*
X101685798Y-84300790D01*
X101690780Y-84303113D01*
X101690785Y-84303116D01*
X101872750Y-84387967D01*
X101889340Y-84395703D01*
X101894648Y-84397125D01*
X101894650Y-84397126D01*
X102100956Y-84452405D01*
X102100958Y-84452405D01*
X102106271Y-84453829D01*
X102330000Y-84473403D01*
X102553729Y-84453829D01*
X102559042Y-84452405D01*
X102559044Y-84452405D01*
X102765350Y-84397126D01*
X102765352Y-84397125D01*
X102770660Y-84395703D01*
X102787250Y-84387967D01*
X102969215Y-84303116D01*
X102969220Y-84303113D01*
X102974202Y-84300790D01*
X103158169Y-84171974D01*
X103316974Y-84013169D01*
X103409216Y-83881435D01*
X103442633Y-83833710D01*
X103442634Y-83833708D01*
X103445790Y-83829201D01*
X103448113Y-83824219D01*
X103448116Y-83824214D01*
X103485805Y-83743389D01*
X103532723Y-83690104D01*
X103601000Y-83670643D01*
X103668960Y-83691185D01*
X103714195Y-83743389D01*
X103751884Y-83824214D01*
X103751887Y-83824219D01*
X103754210Y-83829201D01*
X103757366Y-83833708D01*
X103757367Y-83833710D01*
X103790785Y-83881435D01*
X103883026Y-84013169D01*
X104041831Y-84171974D01*
X104225798Y-84300790D01*
X104230780Y-84303113D01*
X104230785Y-84303116D01*
X104412750Y-84387967D01*
X104429340Y-84395703D01*
X104434648Y-84397125D01*
X104434650Y-84397126D01*
X104640956Y-84452405D01*
X104640958Y-84452405D01*
X104646271Y-84453829D01*
X104870000Y-84473403D01*
X105093729Y-84453829D01*
X105099042Y-84452405D01*
X105099044Y-84452405D01*
X105305350Y-84397126D01*
X105305352Y-84397125D01*
X105310660Y-84395703D01*
X105327250Y-84387967D01*
X105509215Y-84303116D01*
X105509220Y-84303113D01*
X105514202Y-84300790D01*
X105698169Y-84171974D01*
X105856974Y-84013169D01*
X105949216Y-83881435D01*
X105982633Y-83833710D01*
X105982634Y-83833708D01*
X105985790Y-83829201D01*
X105988113Y-83824219D01*
X105988116Y-83824214D01*
X106025805Y-83743389D01*
X106072723Y-83690104D01*
X106141000Y-83670643D01*
X106208960Y-83691185D01*
X106254195Y-83743389D01*
X106291884Y-83824214D01*
X106291887Y-83824219D01*
X106294210Y-83829201D01*
X106297366Y-83833708D01*
X106297367Y-83833710D01*
X106330785Y-83881435D01*
X106423026Y-84013169D01*
X106581831Y-84171974D01*
X106765798Y-84300790D01*
X106770780Y-84303113D01*
X106770785Y-84303116D01*
X106952750Y-84387967D01*
X106969340Y-84395703D01*
X106974648Y-84397125D01*
X106974650Y-84397126D01*
X107180956Y-84452405D01*
X107180958Y-84452405D01*
X107186271Y-84453829D01*
X107410000Y-84473403D01*
X107633729Y-84453829D01*
X107639042Y-84452405D01*
X107639044Y-84452405D01*
X107845350Y-84397126D01*
X107845352Y-84397125D01*
X107850660Y-84395703D01*
X107867250Y-84387967D01*
X108049215Y-84303116D01*
X108049220Y-84303113D01*
X108054202Y-84300790D01*
X108238169Y-84171974D01*
X108396974Y-84013169D01*
X108489216Y-83881435D01*
X108522633Y-83833710D01*
X108522634Y-83833708D01*
X108525790Y-83829201D01*
X108528113Y-83824219D01*
X108528116Y-83824214D01*
X108565805Y-83743389D01*
X108612723Y-83690104D01*
X108681000Y-83670643D01*
X108748960Y-83691185D01*
X108794195Y-83743389D01*
X108831884Y-83824214D01*
X108831887Y-83824219D01*
X108834210Y-83829201D01*
X108837366Y-83833708D01*
X108837367Y-83833710D01*
X108870785Y-83881435D01*
X108963026Y-84013169D01*
X109121831Y-84171974D01*
X109305798Y-84300790D01*
X109310780Y-84303113D01*
X109310785Y-84303116D01*
X109492750Y-84387967D01*
X109509340Y-84395703D01*
X109514648Y-84397125D01*
X109514650Y-84397126D01*
X109720956Y-84452405D01*
X109720958Y-84452405D01*
X109726271Y-84453829D01*
X109950000Y-84473403D01*
X110173729Y-84453829D01*
X110179042Y-84452405D01*
X110179044Y-84452405D01*
X110385350Y-84397126D01*
X110385352Y-84397125D01*
X110390660Y-84395703D01*
X110407250Y-84387967D01*
X110589215Y-84303116D01*
X110589220Y-84303113D01*
X110594202Y-84300790D01*
X110778169Y-84171974D01*
X110936974Y-84013169D01*
X111029216Y-83881435D01*
X111062633Y-83833710D01*
X111062634Y-83833708D01*
X111065790Y-83829201D01*
X111068113Y-83824219D01*
X111068116Y-83824214D01*
X111105805Y-83743389D01*
X111152723Y-83690104D01*
X111221000Y-83670643D01*
X111288960Y-83691185D01*
X111334195Y-83743389D01*
X111371884Y-83824214D01*
X111371887Y-83824219D01*
X111374210Y-83829201D01*
X111377366Y-83833708D01*
X111377367Y-83833710D01*
X111410785Y-83881435D01*
X111503026Y-84013169D01*
X111661831Y-84171974D01*
X111845798Y-84300790D01*
X111850780Y-84303113D01*
X111850785Y-84303116D01*
X112032750Y-84387967D01*
X112049340Y-84395703D01*
X112054648Y-84397125D01*
X112054650Y-84397126D01*
X112260956Y-84452405D01*
X112260958Y-84452405D01*
X112266271Y-84453829D01*
X112490000Y-84473403D01*
X112713729Y-84453829D01*
X112719042Y-84452405D01*
X112719044Y-84452405D01*
X112925350Y-84397126D01*
X112925352Y-84397125D01*
X112930660Y-84395703D01*
X112947250Y-84387967D01*
X113129215Y-84303116D01*
X113129220Y-84303113D01*
X113134202Y-84300790D01*
X113318169Y-84171974D01*
X113476974Y-84013169D01*
X113569216Y-83881435D01*
X113602633Y-83833710D01*
X113602634Y-83833708D01*
X113605790Y-83829201D01*
X113608113Y-83824219D01*
X113608116Y-83824214D01*
X113645805Y-83743389D01*
X113692723Y-83690104D01*
X113761000Y-83670643D01*
X113828960Y-83691185D01*
X113874195Y-83743389D01*
X113911884Y-83824214D01*
X113911887Y-83824219D01*
X113914210Y-83829201D01*
X113917366Y-83833708D01*
X113917367Y-83833710D01*
X113950785Y-83881435D01*
X114043026Y-84013169D01*
X114201831Y-84171974D01*
X114385798Y-84300790D01*
X114390780Y-84303113D01*
X114390785Y-84303116D01*
X114572750Y-84387967D01*
X114589340Y-84395703D01*
X114594648Y-84397125D01*
X114594650Y-84397126D01*
X114800956Y-84452405D01*
X114800958Y-84452405D01*
X114806271Y-84453829D01*
X115030000Y-84473403D01*
X115253729Y-84453829D01*
X115259042Y-84452405D01*
X115259044Y-84452405D01*
X115465350Y-84397126D01*
X115465352Y-84397125D01*
X115470660Y-84395703D01*
X115487250Y-84387967D01*
X115669215Y-84303116D01*
X115669220Y-84303113D01*
X115674202Y-84300790D01*
X115858169Y-84171974D01*
X116016974Y-84013169D01*
X116109216Y-83881435D01*
X116142633Y-83833710D01*
X116142634Y-83833708D01*
X116145790Y-83829201D01*
X116148113Y-83824219D01*
X116148116Y-83824214D01*
X116185805Y-83743389D01*
X116232723Y-83690104D01*
X116301000Y-83670643D01*
X116368960Y-83691185D01*
X116414195Y-83743389D01*
X116451884Y-83824214D01*
X116451887Y-83824219D01*
X116454210Y-83829201D01*
X116457366Y-83833708D01*
X116457367Y-83833710D01*
X116490785Y-83881435D01*
X116583026Y-84013169D01*
X116741831Y-84171974D01*
X116925798Y-84300790D01*
X116930780Y-84303113D01*
X116930785Y-84303116D01*
X117112750Y-84387967D01*
X117129340Y-84395703D01*
X117134648Y-84397125D01*
X117134650Y-84397126D01*
X117340956Y-84452405D01*
X117340958Y-84452405D01*
X117346271Y-84453829D01*
X117570000Y-84473403D01*
X117793729Y-84453829D01*
X117799042Y-84452405D01*
X117799044Y-84452405D01*
X118005350Y-84397126D01*
X118005352Y-84397125D01*
X118010660Y-84395703D01*
X118027250Y-84387967D01*
X118209215Y-84303116D01*
X118209220Y-84303113D01*
X118214202Y-84300790D01*
X118398169Y-84171974D01*
X118556974Y-84013169D01*
X118649216Y-83881435D01*
X118682633Y-83833710D01*
X118682634Y-83833708D01*
X118685790Y-83829201D01*
X118688113Y-83824219D01*
X118688116Y-83824214D01*
X118725805Y-83743389D01*
X118772723Y-83690104D01*
X118841000Y-83670643D01*
X118908960Y-83691185D01*
X118954195Y-83743389D01*
X118991884Y-83824214D01*
X118991887Y-83824219D01*
X118994210Y-83829201D01*
X118997366Y-83833708D01*
X118997367Y-83833710D01*
X119030785Y-83881435D01*
X119123026Y-84013169D01*
X119281831Y-84171974D01*
X119465798Y-84300790D01*
X119470780Y-84303113D01*
X119470785Y-84303116D01*
X119652750Y-84387967D01*
X119669340Y-84395703D01*
X119674648Y-84397125D01*
X119674650Y-84397126D01*
X119880956Y-84452405D01*
X119880958Y-84452405D01*
X119886271Y-84453829D01*
X120110000Y-84473403D01*
X120333729Y-84453829D01*
X120339042Y-84452405D01*
X120339044Y-84452405D01*
X120545350Y-84397126D01*
X120545352Y-84397125D01*
X120550660Y-84395703D01*
X120567250Y-84387967D01*
X120749215Y-84303116D01*
X120749220Y-84303113D01*
X120754202Y-84300790D01*
X120938169Y-84171974D01*
X121096974Y-84013169D01*
X121189216Y-83881435D01*
X121222633Y-83833710D01*
X121222634Y-83833708D01*
X121225790Y-83829201D01*
X121228113Y-83824219D01*
X121228116Y-83824214D01*
X121265805Y-83743389D01*
X121312723Y-83690104D01*
X121381000Y-83670643D01*
X121448960Y-83691185D01*
X121494195Y-83743389D01*
X121531884Y-83824214D01*
X121531887Y-83824219D01*
X121534210Y-83829201D01*
X121537366Y-83833708D01*
X121537367Y-83833710D01*
X121570785Y-83881435D01*
X121663026Y-84013169D01*
X121821831Y-84171974D01*
X122005798Y-84300790D01*
X122010780Y-84303113D01*
X122010785Y-84303116D01*
X122192750Y-84387967D01*
X122209340Y-84395703D01*
X122214648Y-84397125D01*
X122214650Y-84397126D01*
X122420956Y-84452405D01*
X122420958Y-84452405D01*
X122426271Y-84453829D01*
X122650000Y-84473403D01*
X122873729Y-84453829D01*
X122879042Y-84452405D01*
X122879044Y-84452405D01*
X123085350Y-84397126D01*
X123085352Y-84397125D01*
X123090660Y-84395703D01*
X123107250Y-84387967D01*
X123289215Y-84303116D01*
X123289220Y-84303113D01*
X123294202Y-84300790D01*
X123478169Y-84171974D01*
X123636974Y-84013169D01*
X123729216Y-83881435D01*
X123762633Y-83833710D01*
X123762634Y-83833708D01*
X123765790Y-83829201D01*
X123768113Y-83824219D01*
X123768116Y-83824214D01*
X123805805Y-83743389D01*
X123852723Y-83690104D01*
X123921000Y-83670643D01*
X123988960Y-83691185D01*
X124034195Y-83743389D01*
X124071884Y-83824214D01*
X124071887Y-83824219D01*
X124074210Y-83829201D01*
X124077366Y-83833708D01*
X124077367Y-83833710D01*
X124110785Y-83881435D01*
X124203026Y-84013169D01*
X124361831Y-84171974D01*
X124545798Y-84300790D01*
X124550780Y-84303113D01*
X124550785Y-84303116D01*
X124732750Y-84387967D01*
X124749340Y-84395703D01*
X124754648Y-84397125D01*
X124754650Y-84397126D01*
X124960956Y-84452405D01*
X124960958Y-84452405D01*
X124966271Y-84453829D01*
X125190000Y-84473403D01*
X125413729Y-84453829D01*
X125419042Y-84452405D01*
X125419044Y-84452405D01*
X125625350Y-84397126D01*
X125625352Y-84397125D01*
X125630660Y-84395703D01*
X125647250Y-84387967D01*
X125717442Y-84377306D01*
X125782255Y-84406286D01*
X125821111Y-84465706D01*
X125826500Y-84502162D01*
X125826500Y-85011233D01*
X125825973Y-85022416D01*
X125824298Y-85029909D01*
X125824547Y-85037835D01*
X125824547Y-85037836D01*
X125826438Y-85097986D01*
X125826500Y-85101945D01*
X125826500Y-85129856D01*
X125826997Y-85133790D01*
X125826997Y-85133791D01*
X125827005Y-85133856D01*
X125827938Y-85145693D01*
X125829327Y-85189889D01*
X125834963Y-85209287D01*
X125834978Y-85209339D01*
X125838987Y-85228700D01*
X125841526Y-85248797D01*
X125844445Y-85256168D01*
X125844445Y-85256170D01*
X125857804Y-85289912D01*
X125861649Y-85301142D01*
X125873982Y-85343593D01*
X125878015Y-85350412D01*
X125878017Y-85350417D01*
X125884293Y-85361028D01*
X125892988Y-85378776D01*
X125900448Y-85397617D01*
X125905110Y-85404033D01*
X125905110Y-85404034D01*
X125926436Y-85433387D01*
X125932952Y-85443307D01*
X125955458Y-85481362D01*
X125969779Y-85495683D01*
X125982619Y-85510716D01*
X125994528Y-85527107D01*
X126000634Y-85532158D01*
X126028605Y-85555298D01*
X126037384Y-85563288D01*
X126591343Y-86117247D01*
X126598887Y-86125537D01*
X126603000Y-86132018D01*
X126608777Y-86137443D01*
X126652667Y-86178658D01*
X126655509Y-86181413D01*
X126675231Y-86201135D01*
X126678355Y-86203558D01*
X126678359Y-86203562D01*
X126678424Y-86203612D01*
X126687445Y-86211317D01*
X126719679Y-86241586D01*
X126726627Y-86245405D01*
X126726629Y-86245407D01*
X126737432Y-86251346D01*
X126753959Y-86262202D01*
X126763698Y-86269757D01*
X126763700Y-86269758D01*
X126769960Y-86274614D01*
X126810540Y-86292174D01*
X126821188Y-86297391D01*
X126845976Y-86311018D01*
X126859940Y-86318695D01*
X126867616Y-86320666D01*
X126867619Y-86320667D01*
X126879562Y-86323733D01*
X126898267Y-86330137D01*
X126916855Y-86338181D01*
X126924678Y-86339420D01*
X126924688Y-86339423D01*
X126960524Y-86345099D01*
X126972144Y-86347505D01*
X127003959Y-86355673D01*
X127014970Y-86358500D01*
X127035224Y-86358500D01*
X127054934Y-86360051D01*
X127074943Y-86363220D01*
X127082835Y-86362474D01*
X127101580Y-86360702D01*
X127118962Y-86359059D01*
X127130819Y-86358500D01*
X160671233Y-86358500D01*
X160682416Y-86359027D01*
X160689909Y-86360702D01*
X160697835Y-86360453D01*
X160697836Y-86360453D01*
X160757986Y-86358562D01*
X160761945Y-86358500D01*
X160789856Y-86358500D01*
X160793791Y-86358003D01*
X160793856Y-86357995D01*
X160805693Y-86357062D01*
X160837951Y-86356048D01*
X160841970Y-86355922D01*
X160849889Y-86355673D01*
X160869343Y-86350021D01*
X160888700Y-86346013D01*
X160900930Y-86344468D01*
X160900931Y-86344468D01*
X160908797Y-86343474D01*
X160916168Y-86340555D01*
X160916170Y-86340555D01*
X160949912Y-86327196D01*
X160961142Y-86323351D01*
X160995983Y-86313229D01*
X160995984Y-86313229D01*
X161003593Y-86311018D01*
X161010412Y-86306985D01*
X161010417Y-86306983D01*
X161021028Y-86300707D01*
X161038776Y-86292012D01*
X161057617Y-86284552D01*
X161093387Y-86258564D01*
X161103307Y-86252048D01*
X161134535Y-86233580D01*
X161134538Y-86233578D01*
X161141362Y-86229542D01*
X161155683Y-86215221D01*
X161170717Y-86202380D01*
X161172431Y-86201135D01*
X161187107Y-86190472D01*
X161215298Y-86156395D01*
X161223288Y-86147616D01*
X162897164Y-84473740D01*
X162959476Y-84439714D01*
X163018870Y-84441128D01*
X163060956Y-84452405D01*
X163060958Y-84452405D01*
X163066271Y-84453829D01*
X163290000Y-84473403D01*
X163513729Y-84453829D01*
X163519042Y-84452405D01*
X163519044Y-84452405D01*
X163725350Y-84397126D01*
X163725352Y-84397125D01*
X163730660Y-84395703D01*
X163747250Y-84387967D01*
X163929215Y-84303116D01*
X163929220Y-84303113D01*
X163934202Y-84300790D01*
X164118169Y-84171974D01*
X164276974Y-84013169D01*
X164369216Y-83881435D01*
X164402633Y-83833710D01*
X164402634Y-83833708D01*
X164405790Y-83829201D01*
X164408113Y-83824219D01*
X164408116Y-83824214D01*
X164445805Y-83743389D01*
X164492723Y-83690104D01*
X164561000Y-83670643D01*
X164628960Y-83691185D01*
X164674195Y-83743389D01*
X164711884Y-83824214D01*
X164711887Y-83824219D01*
X164714210Y-83829201D01*
X164717366Y-83833708D01*
X164717367Y-83833710D01*
X164750785Y-83881435D01*
X164843026Y-84013169D01*
X165001831Y-84171974D01*
X165185798Y-84300790D01*
X165190780Y-84303113D01*
X165190785Y-84303116D01*
X165372750Y-84387967D01*
X165389340Y-84395703D01*
X165394648Y-84397125D01*
X165394650Y-84397126D01*
X165600956Y-84452405D01*
X165600958Y-84452405D01*
X165606271Y-84453829D01*
X165830000Y-84473403D01*
X166053729Y-84453829D01*
X166059042Y-84452405D01*
X166059044Y-84452405D01*
X166265350Y-84397126D01*
X166265352Y-84397125D01*
X166270660Y-84395703D01*
X166287250Y-84387967D01*
X166469215Y-84303116D01*
X166469220Y-84303113D01*
X166474202Y-84300790D01*
X166658169Y-84171974D01*
X166816974Y-84013169D01*
X166909216Y-83881435D01*
X166942633Y-83833710D01*
X166942634Y-83833708D01*
X166945790Y-83829201D01*
X166948113Y-83824219D01*
X166948116Y-83824214D01*
X166985805Y-83743389D01*
X167032723Y-83690104D01*
X167101000Y-83670643D01*
X167168960Y-83691185D01*
X167214195Y-83743389D01*
X167251884Y-83824214D01*
X167251887Y-83824219D01*
X167254210Y-83829201D01*
X167257366Y-83833708D01*
X167257367Y-83833710D01*
X167290785Y-83881435D01*
X167383026Y-84013169D01*
X167541831Y-84171974D01*
X167546340Y-84175131D01*
X167546342Y-84175133D01*
X167682771Y-84270662D01*
X167727099Y-84326119D01*
X167736500Y-84373875D01*
X167736500Y-84376233D01*
X167735973Y-84387416D01*
X167734298Y-84394909D01*
X167734547Y-84402835D01*
X167734547Y-84402836D01*
X167736438Y-84462986D01*
X167736500Y-84466945D01*
X167736500Y-84494856D01*
X167736997Y-84498790D01*
X167736997Y-84498791D01*
X167737005Y-84498856D01*
X167737938Y-84510693D01*
X167739327Y-84554889D01*
X167744978Y-84574339D01*
X167748987Y-84593700D01*
X167751526Y-84613797D01*
X167754445Y-84621168D01*
X167754445Y-84621170D01*
X167767804Y-84654912D01*
X167771649Y-84666142D01*
X167783982Y-84708593D01*
X167788015Y-84715412D01*
X167788017Y-84715417D01*
X167794293Y-84726028D01*
X167802988Y-84743776D01*
X167810448Y-84762617D01*
X167815110Y-84769033D01*
X167815110Y-84769034D01*
X167836436Y-84798387D01*
X167842952Y-84808307D01*
X167865458Y-84846362D01*
X167879779Y-84860683D01*
X167892619Y-84875716D01*
X167904528Y-84892107D01*
X167938605Y-84920298D01*
X167947384Y-84928288D01*
X169327878Y-86308783D01*
X169361904Y-86371095D01*
X169364093Y-86384706D01*
X169381458Y-86549928D01*
X169440473Y-86731556D01*
X169535960Y-86896944D01*
X169540378Y-86901851D01*
X169540379Y-86901852D01*
X169631789Y-87003373D01*
X169663747Y-87038866D01*
X169818248Y-87151118D01*
X169824276Y-87153802D01*
X169824278Y-87153803D01*
X169931745Y-87201650D01*
X169992712Y-87228794D01*
X170086113Y-87248647D01*
X170173056Y-87267128D01*
X170173061Y-87267128D01*
X170179513Y-87268500D01*
X170370487Y-87268500D01*
X170376939Y-87267128D01*
X170376944Y-87267128D01*
X170463888Y-87248647D01*
X170557288Y-87228794D01*
X170618255Y-87201650D01*
X170725722Y-87153803D01*
X170725724Y-87153802D01*
X170731752Y-87151118D01*
X170886253Y-87038866D01*
X170918211Y-87003373D01*
X171009621Y-86901852D01*
X171009622Y-86901851D01*
X171014040Y-86896944D01*
X171109527Y-86731556D01*
X171168542Y-86549928D01*
X171188504Y-86360000D01*
X171175064Y-86232127D01*
X171169232Y-86176635D01*
X171169232Y-86176633D01*
X171168542Y-86170072D01*
X171109527Y-85988444D01*
X171014040Y-85823056D01*
X170902332Y-85698991D01*
X170890675Y-85686045D01*
X170890674Y-85686044D01*
X170886253Y-85681134D01*
X170731752Y-85568882D01*
X170725724Y-85566198D01*
X170725722Y-85566197D01*
X170563319Y-85493891D01*
X170563318Y-85493891D01*
X170557288Y-85491206D01*
X170463887Y-85471353D01*
X170376944Y-85452872D01*
X170376939Y-85452872D01*
X170370487Y-85451500D01*
X170314594Y-85451500D01*
X170246473Y-85431498D01*
X170225499Y-85414595D01*
X170114499Y-85303595D01*
X170080473Y-85241283D01*
X170085538Y-85170468D01*
X170128085Y-85113632D01*
X170194605Y-85088821D01*
X170203594Y-85088500D01*
X170215224Y-85088500D01*
X170234934Y-85090051D01*
X170254943Y-85093220D01*
X170262835Y-85092474D01*
X170281580Y-85090702D01*
X170298962Y-85089059D01*
X170310819Y-85088500D01*
X182261233Y-85088500D01*
X182272416Y-85089027D01*
X182279909Y-85090702D01*
X182287835Y-85090453D01*
X182287836Y-85090453D01*
X182347986Y-85088562D01*
X182351945Y-85088500D01*
X182379856Y-85088500D01*
X182383791Y-85088003D01*
X182383856Y-85087995D01*
X182395693Y-85087062D01*
X182427951Y-85086048D01*
X182431970Y-85085922D01*
X182439889Y-85085673D01*
X182459343Y-85080021D01*
X182478700Y-85076013D01*
X182490930Y-85074468D01*
X182490931Y-85074468D01*
X182498797Y-85073474D01*
X182506168Y-85070555D01*
X182506170Y-85070555D01*
X182539912Y-85057196D01*
X182551142Y-85053351D01*
X182585983Y-85043229D01*
X182585984Y-85043229D01*
X182593593Y-85041018D01*
X182600412Y-85036985D01*
X182600417Y-85036983D01*
X182611028Y-85030707D01*
X182628776Y-85022012D01*
X182647617Y-85014552D01*
X182683387Y-84988564D01*
X182693307Y-84982048D01*
X182724535Y-84963580D01*
X182724538Y-84963578D01*
X182731362Y-84959542D01*
X182745683Y-84945221D01*
X182760717Y-84932380D01*
X182770694Y-84925131D01*
X182777107Y-84920472D01*
X182805298Y-84886395D01*
X182813288Y-84877616D01*
X184470500Y-83220405D01*
X184532812Y-83186379D01*
X184559595Y-83183500D01*
X185436233Y-83183500D01*
X185447416Y-83184027D01*
X185454909Y-83185702D01*
X185462835Y-83185453D01*
X185462836Y-83185453D01*
X185522986Y-83183562D01*
X185526945Y-83183500D01*
X185554856Y-83183500D01*
X185558791Y-83183003D01*
X185558856Y-83182995D01*
X185570693Y-83182062D01*
X185602951Y-83181048D01*
X185606970Y-83180922D01*
X185614889Y-83180673D01*
X185634343Y-83175021D01*
X185653700Y-83171013D01*
X185665930Y-83169468D01*
X185665931Y-83169468D01*
X185673797Y-83168474D01*
X185681168Y-83165555D01*
X185681170Y-83165555D01*
X185714912Y-83152196D01*
X185726142Y-83148351D01*
X185760983Y-83138229D01*
X185760984Y-83138229D01*
X185768593Y-83136018D01*
X185775412Y-83131985D01*
X185775417Y-83131983D01*
X185786028Y-83125707D01*
X185803776Y-83117012D01*
X185822617Y-83109552D01*
X185858387Y-83083564D01*
X185868307Y-83077048D01*
X185899535Y-83058580D01*
X185899538Y-83058578D01*
X185906362Y-83054542D01*
X185920683Y-83040221D01*
X185935717Y-83027380D01*
X185945694Y-83020131D01*
X185952107Y-83015472D01*
X185980298Y-82981395D01*
X185988288Y-82972616D01*
X189717247Y-79243657D01*
X189725537Y-79236113D01*
X189732018Y-79232000D01*
X189742149Y-79221211D01*
X189803360Y-79185245D01*
X189874300Y-79188082D01*
X189932445Y-79228821D01*
X189959334Y-79294528D01*
X189960000Y-79307463D01*
X189960000Y-87504000D01*
X189939998Y-87572121D01*
X189886342Y-87618614D01*
X189834000Y-87630000D01*
X187190243Y-87630000D01*
X187122122Y-87609998D01*
X187075629Y-87556342D01*
X187065525Y-87486068D01*
X187095019Y-87421488D01*
X187130411Y-87393112D01*
X187184752Y-87363791D01*
X187188668Y-87361678D01*
X187314821Y-87268500D01*
X187405329Y-87201650D01*
X187405332Y-87201647D01*
X187408915Y-87199001D01*
X187604045Y-87006913D01*
X187606747Y-87003373D01*
X187767460Y-86792788D01*
X187767462Y-86792784D01*
X187770162Y-86789247D01*
X187903952Y-86550347D01*
X188002746Y-86294979D01*
X188006244Y-86279890D01*
X188031698Y-86170072D01*
X188064574Y-86028239D01*
X188088200Y-85755448D01*
X188084381Y-85686045D01*
X188073399Y-85486492D01*
X188073398Y-85486485D01*
X188073154Y-85482049D01*
X188019736Y-85213498D01*
X187929011Y-84955153D01*
X187920474Y-84938717D01*
X187804843Y-84716118D01*
X187804842Y-84716116D01*
X187802791Y-84712168D01*
X187800208Y-84708553D01*
X187800204Y-84708547D01*
X187654575Y-84504760D01*
X187643593Y-84489392D01*
X187487838Y-84326119D01*
X187457666Y-84294490D01*
X187457664Y-84294488D01*
X187454594Y-84291270D01*
X187380294Y-84232697D01*
X187243059Y-84124510D01*
X187243057Y-84124509D01*
X187239564Y-84121755D01*
X187235722Y-84119523D01*
X187235717Y-84119520D01*
X187006649Y-83986466D01*
X187006643Y-83986463D01*
X187002795Y-83984228D01*
X186897664Y-83941645D01*
X186753143Y-83883108D01*
X186753135Y-83883105D01*
X186749011Y-83881435D01*
X186616142Y-83848430D01*
X186487599Y-83816500D01*
X186487595Y-83816499D01*
X186483274Y-83815426D01*
X186249753Y-83791500D01*
X186080246Y-83791500D01*
X185876872Y-83805900D01*
X185872517Y-83806838D01*
X185872514Y-83806838D01*
X185613540Y-83862593D01*
X185613538Y-83862593D01*
X185609193Y-83863529D01*
X185352305Y-83958300D01*
X185348387Y-83960414D01*
X185243393Y-84017066D01*
X185111332Y-84088322D01*
X185008893Y-84163984D01*
X184895162Y-84247988D01*
X184891085Y-84250999D01*
X184695955Y-84443087D01*
X184693256Y-84446624D01*
X184693253Y-84446627D01*
X184534296Y-84654912D01*
X184529838Y-84660753D01*
X184396048Y-84899653D01*
X184297254Y-85155021D01*
X184296251Y-85159346D01*
X184296250Y-85159351D01*
X184273809Y-85256170D01*
X184235426Y-85421761D01*
X184211800Y-85694552D01*
X184212044Y-85698987D01*
X184212044Y-85698991D01*
X184219187Y-85828774D01*
X184226846Y-85967951D01*
X184280264Y-86236502D01*
X184370989Y-86494847D01*
X184373042Y-86498798D01*
X184373044Y-86498804D01*
X184401834Y-86554227D01*
X184497209Y-86737832D01*
X184499792Y-86741447D01*
X184499796Y-86741453D01*
X184536481Y-86792788D01*
X184656407Y-86960608D01*
X184659479Y-86963828D01*
X184838145Y-87151118D01*
X184845406Y-87158730D01*
X185060436Y-87328245D01*
X185064278Y-87330477D01*
X185064283Y-87330480D01*
X185175442Y-87395046D01*
X185224300Y-87446557D01*
X185237554Y-87516306D01*
X185210994Y-87582147D01*
X185153055Y-87623178D01*
X185112156Y-87630000D01*
X98290243Y-87630000D01*
X98222122Y-87609998D01*
X98175629Y-87556342D01*
X98165525Y-87486068D01*
X98195019Y-87421488D01*
X98230411Y-87393112D01*
X98284752Y-87363791D01*
X98288668Y-87361678D01*
X98414821Y-87268500D01*
X98505329Y-87201650D01*
X98505332Y-87201647D01*
X98508915Y-87199001D01*
X98704045Y-87006913D01*
X98706747Y-87003373D01*
X98867460Y-86792788D01*
X98867462Y-86792784D01*
X98870162Y-86789247D01*
X99003952Y-86550347D01*
X99102746Y-86294979D01*
X99106244Y-86279890D01*
X99131698Y-86170072D01*
X99164574Y-86028239D01*
X99188200Y-85755448D01*
X99184381Y-85686045D01*
X99173399Y-85486492D01*
X99173398Y-85486485D01*
X99173154Y-85482049D01*
X99119736Y-85213498D01*
X99029011Y-84955153D01*
X99020474Y-84938717D01*
X98904843Y-84716118D01*
X98904842Y-84716116D01*
X98902791Y-84712168D01*
X98900208Y-84708553D01*
X98900204Y-84708547D01*
X98754575Y-84504760D01*
X98743593Y-84489392D01*
X98587838Y-84326119D01*
X98557666Y-84294490D01*
X98557664Y-84294488D01*
X98554594Y-84291270D01*
X98480294Y-84232697D01*
X98343059Y-84124510D01*
X98343057Y-84124509D01*
X98339564Y-84121755D01*
X98335722Y-84119523D01*
X98335717Y-84119520D01*
X98106649Y-83986466D01*
X98106643Y-83986463D01*
X98102795Y-83984228D01*
X97997664Y-83941645D01*
X97853143Y-83883108D01*
X97853135Y-83883105D01*
X97849011Y-83881435D01*
X97716142Y-83848430D01*
X97587599Y-83816500D01*
X97587595Y-83816499D01*
X97583274Y-83815426D01*
X97349753Y-83791500D01*
X97180246Y-83791500D01*
X96976872Y-83805900D01*
X96972517Y-83806838D01*
X96972514Y-83806838D01*
X96713540Y-83862593D01*
X96713538Y-83862593D01*
X96709193Y-83863529D01*
X96452305Y-83958300D01*
X96448387Y-83960414D01*
X96343393Y-84017066D01*
X96211332Y-84088322D01*
X96108893Y-84163984D01*
X95995162Y-84247988D01*
X95991085Y-84250999D01*
X95795955Y-84443087D01*
X95793256Y-84446624D01*
X95793253Y-84446627D01*
X95634296Y-84654912D01*
X95629838Y-84660753D01*
X95496048Y-84899653D01*
X95397254Y-85155021D01*
X95396251Y-85159346D01*
X95396250Y-85159351D01*
X95373809Y-85256170D01*
X95335426Y-85421761D01*
X95311800Y-85694552D01*
X95312044Y-85698987D01*
X95312044Y-85698991D01*
X95319187Y-85828774D01*
X95326846Y-85967951D01*
X95380264Y-86236502D01*
X95470989Y-86494847D01*
X95473042Y-86498798D01*
X95473044Y-86498804D01*
X95501834Y-86554227D01*
X95597209Y-86737832D01*
X95599792Y-86741447D01*
X95599796Y-86741453D01*
X95636481Y-86792788D01*
X95756407Y-86960608D01*
X95759479Y-86963828D01*
X95938145Y-87151118D01*
X95945406Y-87158730D01*
X96160436Y-87328245D01*
X96164278Y-87330477D01*
X96164283Y-87330480D01*
X96275442Y-87395046D01*
X96324300Y-87446557D01*
X96337554Y-87516306D01*
X96310994Y-87582147D01*
X96253055Y-87623178D01*
X96212156Y-87630000D01*
X93566000Y-87630000D01*
X93497879Y-87609998D01*
X93451386Y-87556342D01*
X93440000Y-87504000D01*
X93440000Y-53466000D01*
X93460002Y-53397879D01*
X93513658Y-53351386D01*
X93566000Y-53340000D01*
X96209757Y-53340000D01*
X96277878Y-53360002D01*
G37*
%TD.AperFunction*%
%TA.AperFunction,Conductor*%
G36*
X183114527Y-82568502D02*
G01*
X183161020Y-82622158D01*
X183171124Y-82692432D01*
X183141630Y-82757012D01*
X183135517Y-82763579D01*
X182487189Y-83411907D01*
X182424878Y-83445931D01*
X182371311Y-83445930D01*
X182339455Y-83439000D01*
X180942000Y-83439000D01*
X180873879Y-83418998D01*
X180827386Y-83365342D01*
X180816000Y-83313000D01*
X180816000Y-83057000D01*
X180836002Y-82988879D01*
X180889658Y-82942386D01*
X180942000Y-82931000D01*
X182334885Y-82931000D01*
X182350124Y-82926525D01*
X182351329Y-82925135D01*
X182353000Y-82917452D01*
X182353000Y-82674500D01*
X182373002Y-82606379D01*
X182426658Y-82559886D01*
X182479000Y-82548500D01*
X183046406Y-82548500D01*
X183114527Y-82568502D01*
G37*
%TD.AperFunction*%
%TA.AperFunction,Conductor*%
G36*
X185978621Y-73678502D02*
G01*
X186025114Y-73732158D01*
X186036500Y-73784500D01*
X186036500Y-74670400D01*
X186047474Y-74776166D01*
X186049655Y-74782702D01*
X186049655Y-74782704D01*
X186093728Y-74914806D01*
X186103450Y-74943946D01*
X186196522Y-75094348D01*
X186321697Y-75219305D01*
X186327927Y-75223145D01*
X186327928Y-75223146D01*
X186465090Y-75307694D01*
X186472262Y-75312115D01*
X186526003Y-75329940D01*
X186633611Y-75365632D01*
X186633613Y-75365632D01*
X186640139Y-75367797D01*
X186646977Y-75368498D01*
X186646979Y-75368498D01*
X186673342Y-75371199D01*
X186739070Y-75398040D01*
X186779852Y-75456155D01*
X186786500Y-75496543D01*
X186786500Y-75685500D01*
X186766498Y-75753621D01*
X186712842Y-75800114D01*
X186660500Y-75811500D01*
X186621866Y-75811500D01*
X186559684Y-75818255D01*
X186423295Y-75869385D01*
X186306739Y-75956739D01*
X186219385Y-76073295D01*
X186168255Y-76209684D01*
X186161500Y-76271866D01*
X186161500Y-77368134D01*
X186168255Y-77430316D01*
X186171029Y-77437716D01*
X186172034Y-77441942D01*
X186172034Y-77500239D01*
X186167895Y-77517646D01*
X186162369Y-77568514D01*
X186162000Y-77575328D01*
X186162000Y-77847885D01*
X186166475Y-77863124D01*
X186167865Y-77864329D01*
X186175548Y-77866000D01*
X187548000Y-77866000D01*
X187616121Y-77886002D01*
X187662614Y-77939658D01*
X187674000Y-77992000D01*
X187674000Y-78248000D01*
X187653998Y-78316121D01*
X187600342Y-78362614D01*
X187548000Y-78374000D01*
X186180116Y-78374000D01*
X186164877Y-78378475D01*
X186163672Y-78379865D01*
X186162001Y-78387548D01*
X186162001Y-78664669D01*
X186162371Y-78671490D01*
X186167895Y-78722352D01*
X186171521Y-78737604D01*
X186216676Y-78858054D01*
X186225214Y-78873649D01*
X186301715Y-78975724D01*
X186314276Y-78988285D01*
X186416351Y-79064786D01*
X186431946Y-79073324D01*
X186552394Y-79118478D01*
X186567649Y-79122105D01*
X186618514Y-79127631D01*
X186625328Y-79128000D01*
X187101187Y-79128000D01*
X187169308Y-79148002D01*
X187215801Y-79201658D01*
X187225905Y-79271932D01*
X187196411Y-79336512D01*
X187190282Y-79343095D01*
X185288782Y-81244595D01*
X185226470Y-81278621D01*
X185199687Y-81281500D01*
X182386610Y-81281500D01*
X182318489Y-81261498D01*
X182271996Y-81207842D01*
X182261892Y-81137568D01*
X182272415Y-81102251D01*
X182277906Y-81090476D01*
X182281654Y-81080178D01*
X182336911Y-80873957D01*
X182338814Y-80863162D01*
X182357422Y-80650475D01*
X182357422Y-80639525D01*
X182338814Y-80426838D01*
X182336911Y-80416043D01*
X182281654Y-80209822D01*
X182277908Y-80199530D01*
X182187681Y-80006037D01*
X182182198Y-79996541D01*
X182149540Y-79949901D01*
X182139063Y-79941526D01*
X182125615Y-79948595D01*
X181159095Y-80915115D01*
X181096783Y-80949141D01*
X181025968Y-80944076D01*
X180980905Y-80915115D01*
X180013663Y-79947873D01*
X180001888Y-79941443D01*
X179989873Y-79950739D01*
X179957802Y-79996541D01*
X179952319Y-80006037D01*
X179914471Y-80087203D01*
X179867553Y-80140488D01*
X179799276Y-80159949D01*
X179731316Y-80139407D01*
X179686081Y-80087203D01*
X179648116Y-80005786D01*
X179648113Y-80005781D01*
X179645790Y-80000799D01*
X179640102Y-79992676D01*
X179520133Y-79821342D01*
X179520131Y-79821339D01*
X179516974Y-79816831D01*
X179358169Y-79658026D01*
X179348610Y-79651332D01*
X179240935Y-79575937D01*
X180366526Y-79575937D01*
X180373595Y-79589385D01*
X181057188Y-80272978D01*
X181071132Y-80280592D01*
X181072965Y-80280461D01*
X181079580Y-80276210D01*
X181767127Y-79588663D01*
X181773557Y-79576888D01*
X181764261Y-79564873D01*
X181718459Y-79532802D01*
X181708964Y-79527319D01*
X181515470Y-79437092D01*
X181505178Y-79433346D01*
X181298957Y-79378089D01*
X181288162Y-79376186D01*
X181075475Y-79357578D01*
X181064525Y-79357578D01*
X180851838Y-79376186D01*
X180841043Y-79378089D01*
X180634822Y-79433346D01*
X180624530Y-79437092D01*
X180431037Y-79527319D01*
X180421541Y-79532802D01*
X180374901Y-79565460D01*
X180366526Y-79575937D01*
X179240935Y-79575937D01*
X179217229Y-79559338D01*
X179172901Y-79503881D01*
X179163500Y-79456125D01*
X179163500Y-79453767D01*
X179164027Y-79442584D01*
X179165702Y-79435091D01*
X179163911Y-79378089D01*
X179163562Y-79367001D01*
X179163500Y-79363043D01*
X179163500Y-79335144D01*
X179162995Y-79331144D01*
X179162063Y-79319311D01*
X179160923Y-79283036D01*
X179160674Y-79275111D01*
X179158461Y-79267493D01*
X179158461Y-79267492D01*
X179155023Y-79255659D01*
X179151012Y-79236295D01*
X179150470Y-79232000D01*
X179148474Y-79216203D01*
X179145556Y-79208832D01*
X179145556Y-79208831D01*
X179132198Y-79175092D01*
X179128354Y-79163865D01*
X179123071Y-79145683D01*
X179116018Y-79121407D01*
X179110057Y-79111328D01*
X179105707Y-79103972D01*
X179097012Y-79086224D01*
X179089552Y-79067383D01*
X179083587Y-79059172D01*
X179063564Y-79031613D01*
X179057048Y-79021693D01*
X179038580Y-78990465D01*
X179038578Y-78990462D01*
X179034542Y-78983638D01*
X179020221Y-78969317D01*
X179007380Y-78954283D01*
X179007376Y-78954278D01*
X178995472Y-78937893D01*
X178961395Y-78909702D01*
X178952616Y-78901712D01*
X178700573Y-78649669D01*
X182987001Y-78649669D01*
X182987371Y-78656490D01*
X182992895Y-78707352D01*
X182996521Y-78722604D01*
X183041676Y-78843054D01*
X183050214Y-78858649D01*
X183126715Y-78960724D01*
X183139276Y-78973285D01*
X183241351Y-79049786D01*
X183256946Y-79058324D01*
X183377394Y-79103478D01*
X183392649Y-79107105D01*
X183443514Y-79112631D01*
X183450328Y-79113000D01*
X183972885Y-79113000D01*
X183988124Y-79108525D01*
X183989329Y-79107135D01*
X183991000Y-79099452D01*
X183991000Y-79094884D01*
X184499000Y-79094884D01*
X184503475Y-79110123D01*
X184504865Y-79111328D01*
X184512548Y-79112999D01*
X185039669Y-79112999D01*
X185046490Y-79112629D01*
X185097352Y-79107105D01*
X185112604Y-79103479D01*
X185233054Y-79058324D01*
X185248649Y-79049786D01*
X185350724Y-78973285D01*
X185363285Y-78960724D01*
X185439786Y-78858649D01*
X185448324Y-78843054D01*
X185493478Y-78722606D01*
X185497105Y-78707351D01*
X185502631Y-78656486D01*
X185503000Y-78649672D01*
X185503000Y-78377115D01*
X185498525Y-78361876D01*
X185497135Y-78360671D01*
X185489452Y-78359000D01*
X184517115Y-78359000D01*
X184501876Y-78363475D01*
X184500671Y-78364865D01*
X184499000Y-78372548D01*
X184499000Y-79094884D01*
X183991000Y-79094884D01*
X183991000Y-78377115D01*
X183986525Y-78361876D01*
X183985135Y-78360671D01*
X183977452Y-78359000D01*
X183005116Y-78359000D01*
X182989877Y-78363475D01*
X182988672Y-78364865D01*
X182987001Y-78372548D01*
X182987001Y-78649669D01*
X178700573Y-78649669D01*
X177704500Y-77653595D01*
X177670474Y-77591283D01*
X177675539Y-77520467D01*
X177718086Y-77463632D01*
X177784606Y-77438821D01*
X177793595Y-77438500D01*
X182861000Y-77438500D01*
X182929121Y-77458502D01*
X182975614Y-77512158D01*
X182987000Y-77564500D01*
X182987000Y-77832885D01*
X182991475Y-77848124D01*
X182992865Y-77849329D01*
X183000548Y-77851000D01*
X185484884Y-77851000D01*
X185500123Y-77846525D01*
X185501328Y-77845135D01*
X185502999Y-77837452D01*
X185502999Y-77560331D01*
X185502629Y-77553510D01*
X185497105Y-77502651D01*
X185492965Y-77485236D01*
X185492966Y-77426942D01*
X185493971Y-77422716D01*
X185496745Y-77415316D01*
X185503500Y-77353134D01*
X185503500Y-76256866D01*
X185496745Y-76194684D01*
X185445615Y-76058295D01*
X185358261Y-75941739D01*
X185241705Y-75854385D01*
X185105316Y-75803255D01*
X185043134Y-75796500D01*
X185004500Y-75796500D01*
X184936379Y-75776498D01*
X184889886Y-75722842D01*
X184878500Y-75670500D01*
X184878500Y-75496450D01*
X184898502Y-75428329D01*
X184952158Y-75381836D01*
X184991496Y-75371123D01*
X184999135Y-75370331D01*
X185019308Y-75368238D01*
X185019312Y-75368237D01*
X185026166Y-75367526D01*
X185032702Y-75365345D01*
X185032704Y-75365345D01*
X185164806Y-75321272D01*
X185193946Y-75311550D01*
X185344348Y-75218478D01*
X185469305Y-75093303D01*
X185514510Y-75019967D01*
X185558275Y-74948968D01*
X185558276Y-74948966D01*
X185562115Y-74942738D01*
X185617797Y-74774861D01*
X185618590Y-74767127D01*
X185628172Y-74673598D01*
X185628500Y-74670400D01*
X185628500Y-73784500D01*
X185648502Y-73716379D01*
X185702158Y-73669886D01*
X185754500Y-73658500D01*
X185910500Y-73658500D01*
X185978621Y-73678502D01*
G37*
%TD.AperFunction*%
%TA.AperFunction,Conductor*%
G36*
X123265240Y-64686002D02*
G01*
X123296982Y-64718294D01*
X123298125Y-64717388D01*
X123302668Y-64723120D01*
X123306522Y-64729348D01*
X123431697Y-64854305D01*
X123437927Y-64858145D01*
X123437928Y-64858146D01*
X123575090Y-64942694D01*
X123582262Y-64947115D01*
X123629672Y-64962840D01*
X123743611Y-65000632D01*
X123743613Y-65000632D01*
X123750139Y-65002797D01*
X123756975Y-65003497D01*
X123756978Y-65003498D01*
X123800031Y-65007909D01*
X123854600Y-65013500D01*
X125255400Y-65013500D01*
X125258646Y-65013163D01*
X125258650Y-65013163D01*
X125354308Y-65003238D01*
X125354312Y-65003237D01*
X125361166Y-65002526D01*
X125367702Y-65000345D01*
X125367704Y-65000345D01*
X125507482Y-64953711D01*
X125528946Y-64946550D01*
X125679348Y-64853478D01*
X125739053Y-64793669D01*
X125803292Y-64729318D01*
X125865575Y-64695239D01*
X125936395Y-64700242D01*
X125981560Y-64729241D01*
X129051230Y-67798911D01*
X129063616Y-67813323D01*
X129072149Y-67824918D01*
X129072154Y-67824923D01*
X129076492Y-67830818D01*
X129082070Y-67835557D01*
X129082073Y-67835560D01*
X129116768Y-67865035D01*
X129124284Y-67871965D01*
X129129980Y-67877661D01*
X129132841Y-67879924D01*
X129132846Y-67879929D01*
X129152256Y-67895285D01*
X129155658Y-67898074D01*
X129192989Y-67929789D01*
X129211285Y-67945333D01*
X129217802Y-67948661D01*
X129222850Y-67952027D01*
X129227972Y-67955190D01*
X129233716Y-67959735D01*
X129299895Y-67990664D01*
X129303779Y-67992563D01*
X129368808Y-68025769D01*
X129375923Y-68027510D01*
X129381578Y-68029613D01*
X129387317Y-68031522D01*
X129393950Y-68034622D01*
X129465435Y-68049491D01*
X129469701Y-68050457D01*
X129540610Y-68067808D01*
X129546212Y-68068156D01*
X129546215Y-68068156D01*
X129551764Y-68068500D01*
X129551762Y-68068535D01*
X129555734Y-68068775D01*
X129559955Y-68069152D01*
X129567115Y-68070641D01*
X129644542Y-68068546D01*
X129647950Y-68068500D01*
X152255130Y-68068500D01*
X152274080Y-68069933D01*
X152288315Y-68072099D01*
X152288319Y-68072099D01*
X152295549Y-68073199D01*
X152302841Y-68072606D01*
X152302844Y-68072606D01*
X152348218Y-68068915D01*
X152358433Y-68068500D01*
X152366493Y-68068500D01*
X152383880Y-68066473D01*
X152394707Y-68065211D01*
X152399082Y-68064778D01*
X152464539Y-68059454D01*
X152464542Y-68059453D01*
X152471837Y-68058860D01*
X152478801Y-68056604D01*
X152484760Y-68055413D01*
X152490615Y-68054029D01*
X152497881Y-68053182D01*
X152566527Y-68028265D01*
X152570655Y-68026848D01*
X152633136Y-68006607D01*
X152633138Y-68006606D01*
X152640099Y-68004351D01*
X152646354Y-68000555D01*
X152651828Y-67998049D01*
X152657258Y-67995330D01*
X152664137Y-67992833D01*
X152670258Y-67988820D01*
X152725176Y-67952814D01*
X152728880Y-67950477D01*
X152791307Y-67912595D01*
X152799684Y-67905197D01*
X152799708Y-67905224D01*
X152802700Y-67902571D01*
X152805933Y-67899868D01*
X152812052Y-67895856D01*
X152865328Y-67839617D01*
X152867706Y-67837175D01*
X153173557Y-67531324D01*
X153235869Y-67497298D01*
X153306684Y-67502363D01*
X153363520Y-67544910D01*
X153369796Y-67554116D01*
X153405522Y-67611848D01*
X153530697Y-67736805D01*
X153536927Y-67740645D01*
X153536928Y-67740646D01*
X153674090Y-67825194D01*
X153681262Y-67829615D01*
X153761005Y-67856064D01*
X153842611Y-67883132D01*
X153842613Y-67883132D01*
X153849139Y-67885297D01*
X153855975Y-67885997D01*
X153855978Y-67885998D01*
X153899031Y-67890409D01*
X153953600Y-67896000D01*
X155354400Y-67896000D01*
X155357646Y-67895663D01*
X155357650Y-67895663D01*
X155453308Y-67885738D01*
X155453312Y-67885737D01*
X155460166Y-67885026D01*
X155466702Y-67882845D01*
X155466704Y-67882845D01*
X155608433Y-67835560D01*
X155627946Y-67829050D01*
X155778348Y-67735978D01*
X155903305Y-67610803D01*
X155915079Y-67591703D01*
X155928353Y-67570167D01*
X155966438Y-67508383D01*
X156019209Y-67460891D01*
X156073697Y-67448500D01*
X156859973Y-67448500D01*
X156928094Y-67468502D01*
X156974587Y-67522158D01*
X156978376Y-67531411D01*
X156979291Y-67533926D01*
X156980716Y-67539243D01*
X157007085Y-67595791D01*
X157075151Y-67741762D01*
X157075154Y-67741767D01*
X157077477Y-67746749D01*
X157116562Y-67802568D01*
X157195642Y-67915505D01*
X157208802Y-67934300D01*
X157370700Y-68096198D01*
X157402771Y-68118655D01*
X157447099Y-68174110D01*
X157456500Y-68221867D01*
X157456500Y-69099821D01*
X157453860Y-69125479D01*
X157451771Y-69135526D01*
X157449360Y-69147115D01*
X157449558Y-69154426D01*
X157449617Y-69156594D01*
X157448229Y-69178962D01*
X157446801Y-69188349D01*
X157447394Y-69195640D01*
X157447394Y-69195643D01*
X157452030Y-69252632D01*
X157452399Y-69259441D01*
X157454143Y-69323921D01*
X157456578Y-69333104D01*
X157460370Y-69355172D01*
X157461140Y-69364637D01*
X157481026Y-69426023D01*
X157482932Y-69432498D01*
X157499474Y-69494884D01*
X157502928Y-69501339D01*
X157503949Y-69503247D01*
X157512722Y-69523865D01*
X157513392Y-69525933D01*
X157515649Y-69532899D01*
X157519443Y-69539151D01*
X157519447Y-69539160D01*
X157549117Y-69588054D01*
X157552492Y-69593970D01*
X157582918Y-69650834D01*
X157587766Y-69656323D01*
X157587770Y-69656329D01*
X157589207Y-69657957D01*
X157602482Y-69675993D01*
X157607405Y-69684107D01*
X157614803Y-69692484D01*
X157653969Y-69731650D01*
X157659315Y-69737337D01*
X157700000Y-69783404D01*
X157705983Y-69787632D01*
X157710741Y-69790995D01*
X157727116Y-69804797D01*
X158538710Y-70616391D01*
X158551096Y-70630803D01*
X158559629Y-70642398D01*
X158559634Y-70642403D01*
X158563972Y-70648298D01*
X158569550Y-70653037D01*
X158569553Y-70653040D01*
X158604248Y-70682515D01*
X158611764Y-70689445D01*
X158617460Y-70695141D01*
X158620321Y-70697404D01*
X158620326Y-70697409D01*
X158639736Y-70712765D01*
X158643138Y-70715554D01*
X158656264Y-70726705D01*
X158698765Y-70762813D01*
X158705282Y-70766141D01*
X158710330Y-70769507D01*
X158715452Y-70772670D01*
X158721196Y-70777215D01*
X158787375Y-70808144D01*
X158791259Y-70810043D01*
X158856288Y-70843249D01*
X158863403Y-70844990D01*
X158869058Y-70847093D01*
X158874797Y-70849002D01*
X158881430Y-70852102D01*
X158952915Y-70866971D01*
X158957181Y-70867937D01*
X159028090Y-70885288D01*
X159033692Y-70885636D01*
X159033695Y-70885636D01*
X159039244Y-70885980D01*
X159039242Y-70886015D01*
X159043214Y-70886255D01*
X159047435Y-70886632D01*
X159054595Y-70888121D01*
X159132022Y-70886026D01*
X159135430Y-70885980D01*
X179711109Y-70885980D01*
X179779230Y-70905982D01*
X179800204Y-70922885D01*
X180486230Y-71608911D01*
X180498616Y-71623323D01*
X180507149Y-71634918D01*
X180507154Y-71634923D01*
X180511492Y-71640818D01*
X180517070Y-71645557D01*
X180517073Y-71645560D01*
X180551768Y-71675035D01*
X180559284Y-71681965D01*
X180564979Y-71687660D01*
X180567861Y-71689940D01*
X180587251Y-71705281D01*
X180590655Y-71708072D01*
X180640703Y-71750591D01*
X180646285Y-71755333D01*
X180652801Y-71758661D01*
X180657850Y-71762028D01*
X180662979Y-71765195D01*
X180668716Y-71769734D01*
X180734875Y-71800655D01*
X180738769Y-71802558D01*
X180803808Y-71835769D01*
X180810916Y-71837508D01*
X180816559Y-71839607D01*
X180822322Y-71841524D01*
X180828950Y-71844622D01*
X180896989Y-71858774D01*
X180900412Y-71859486D01*
X180904696Y-71860456D01*
X180975610Y-71877808D01*
X180981212Y-71878156D01*
X180981215Y-71878156D01*
X180986764Y-71878500D01*
X180986762Y-71878536D01*
X180990755Y-71878775D01*
X180994947Y-71879149D01*
X181002115Y-71880640D01*
X181079520Y-71878546D01*
X181082928Y-71878500D01*
X182879631Y-71878500D01*
X182947752Y-71898502D01*
X182986772Y-71938193D01*
X183021522Y-71994348D01*
X183146697Y-72119305D01*
X183152927Y-72123145D01*
X183152928Y-72123146D01*
X183288372Y-72206635D01*
X183297262Y-72212115D01*
X183313398Y-72217467D01*
X183371758Y-72257897D01*
X183398995Y-72323461D01*
X183386462Y-72393343D01*
X183337873Y-72445512D01*
X183331477Y-72449294D01*
X183313731Y-72457988D01*
X183294890Y-72465448D01*
X183288474Y-72470110D01*
X183288473Y-72470110D01*
X183259120Y-72491436D01*
X183249200Y-72497952D01*
X183217972Y-72516420D01*
X183217969Y-72516422D01*
X183211145Y-72520458D01*
X183196824Y-72534779D01*
X183181791Y-72547619D01*
X183165400Y-72559528D01*
X183148524Y-72579928D01*
X183137219Y-72593593D01*
X183129229Y-72602374D01*
X182582742Y-73148860D01*
X182574463Y-73156394D01*
X182567982Y-73160507D01*
X182546106Y-73183803D01*
X182521357Y-73210158D01*
X182518602Y-73213000D01*
X182498865Y-73232737D01*
X182496385Y-73235934D01*
X182488682Y-73244954D01*
X182458414Y-73277186D01*
X182454595Y-73284132D01*
X182454593Y-73284135D01*
X182450759Y-73291109D01*
X182400413Y-73341167D01*
X182330996Y-73356060D01*
X182264547Y-73331058D01*
X182226151Y-73283658D01*
X182214417Y-73258495D01*
X182208931Y-73248993D01*
X182083972Y-73070533D01*
X182076916Y-73062125D01*
X181922875Y-72908084D01*
X181914467Y-72901028D01*
X181736007Y-72776069D01*
X181726511Y-72770586D01*
X181529053Y-72678510D01*
X181518761Y-72674764D01*
X181346497Y-72628606D01*
X181332401Y-72628942D01*
X181329000Y-72636884D01*
X181329000Y-74438000D01*
X181308998Y-74506121D01*
X181255342Y-74552614D01*
X181203000Y-74564000D01*
X180947000Y-74564000D01*
X180878879Y-74543998D01*
X180832386Y-74490342D01*
X180821000Y-74438000D01*
X180821000Y-72642033D01*
X180817027Y-72628502D01*
X180808478Y-72627273D01*
X180631239Y-72674764D01*
X180620947Y-72678510D01*
X180423489Y-72770586D01*
X180413993Y-72776069D01*
X180235533Y-72901028D01*
X180227125Y-72908084D01*
X180073084Y-73062125D01*
X180066028Y-73070533D01*
X179941069Y-73248993D01*
X179935586Y-73258489D01*
X179919471Y-73293049D01*
X179872554Y-73346334D01*
X179804277Y-73365795D01*
X179736317Y-73345253D01*
X179691081Y-73293049D01*
X179674849Y-73258238D01*
X179674846Y-73258233D01*
X179672523Y-73253251D01*
X179559548Y-73091906D01*
X179544357Y-73070211D01*
X179544355Y-73070208D01*
X179541198Y-73065700D01*
X179379300Y-72903802D01*
X179374792Y-72900645D01*
X179374789Y-72900643D01*
X179259007Y-72819572D01*
X179191749Y-72772477D01*
X179186767Y-72770154D01*
X179186762Y-72770151D01*
X178989225Y-72678039D01*
X178989224Y-72678039D01*
X178984243Y-72675716D01*
X178978935Y-72674294D01*
X178978933Y-72674293D01*
X178768402Y-72617881D01*
X178768400Y-72617881D01*
X178763087Y-72616457D01*
X178535000Y-72596502D01*
X178306913Y-72616457D01*
X178301600Y-72617881D01*
X178301598Y-72617881D01*
X178091067Y-72674293D01*
X178091065Y-72674294D01*
X178085757Y-72675716D01*
X178080776Y-72678039D01*
X178080775Y-72678039D01*
X177883238Y-72770151D01*
X177883233Y-72770154D01*
X177878251Y-72772477D01*
X177810993Y-72819572D01*
X177695211Y-72900643D01*
X177695208Y-72900645D01*
X177690700Y-72903802D01*
X177528802Y-73065700D01*
X177525645Y-73070208D01*
X177525643Y-73070211D01*
X177510452Y-73091906D01*
X177397477Y-73253251D01*
X177395154Y-73258233D01*
X177395151Y-73258238D01*
X177379195Y-73292457D01*
X177332278Y-73345742D01*
X177264001Y-73365203D01*
X177196041Y-73344661D01*
X177150805Y-73292457D01*
X177134849Y-73258238D01*
X177134846Y-73258233D01*
X177132523Y-73253251D01*
X177019548Y-73091906D01*
X177004357Y-73070211D01*
X177004355Y-73070208D01*
X177001198Y-73065700D01*
X176839300Y-72903802D01*
X176834792Y-72900645D01*
X176834789Y-72900643D01*
X176719007Y-72819572D01*
X176651749Y-72772477D01*
X176646767Y-72770154D01*
X176646762Y-72770151D01*
X176449225Y-72678039D01*
X176449224Y-72678039D01*
X176444243Y-72675716D01*
X176438935Y-72674294D01*
X176438933Y-72674293D01*
X176228402Y-72617881D01*
X176228400Y-72617881D01*
X176223087Y-72616457D01*
X175995000Y-72596502D01*
X175766913Y-72616457D01*
X175761600Y-72617881D01*
X175761598Y-72617881D01*
X175551067Y-72674293D01*
X175551065Y-72674294D01*
X175545757Y-72675716D01*
X175540776Y-72678039D01*
X175540775Y-72678039D01*
X175343238Y-72770151D01*
X175343233Y-72770154D01*
X175338251Y-72772477D01*
X175270993Y-72819572D01*
X175155211Y-72900643D01*
X175155208Y-72900645D01*
X175150700Y-72903802D01*
X174988802Y-73065700D01*
X174985645Y-73070208D01*
X174985643Y-73070211D01*
X174970452Y-73091906D01*
X174857477Y-73253251D01*
X174855154Y-73258233D01*
X174855151Y-73258238D01*
X174839195Y-73292457D01*
X174792278Y-73345742D01*
X174724001Y-73365203D01*
X174656041Y-73344661D01*
X174610805Y-73292457D01*
X174594849Y-73258238D01*
X174594846Y-73258233D01*
X174592523Y-73253251D01*
X174479548Y-73091906D01*
X174464357Y-73070211D01*
X174464355Y-73070208D01*
X174461198Y-73065700D01*
X174299300Y-72903802D01*
X174294792Y-72900645D01*
X174294789Y-72900643D01*
X174179007Y-72819572D01*
X174111749Y-72772477D01*
X174106767Y-72770154D01*
X174106762Y-72770151D01*
X173909225Y-72678039D01*
X173909224Y-72678039D01*
X173904243Y-72675716D01*
X173898935Y-72674294D01*
X173898933Y-72674293D01*
X173688402Y-72617881D01*
X173688400Y-72617881D01*
X173683087Y-72616457D01*
X173455000Y-72596502D01*
X173226913Y-72616457D01*
X173221600Y-72617881D01*
X173221598Y-72617881D01*
X173011067Y-72674293D01*
X173011065Y-72674294D01*
X173005757Y-72675716D01*
X173000776Y-72678039D01*
X173000775Y-72678039D01*
X172803238Y-72770151D01*
X172803233Y-72770154D01*
X172798251Y-72772477D01*
X172730993Y-72819572D01*
X172615211Y-72900643D01*
X172615208Y-72900645D01*
X172610700Y-72903802D01*
X172448802Y-73065700D01*
X172445645Y-73070208D01*
X172445643Y-73070211D01*
X172430452Y-73091906D01*
X172317477Y-73253251D01*
X172315154Y-73258233D01*
X172315151Y-73258238D01*
X172299195Y-73292457D01*
X172252278Y-73345742D01*
X172184001Y-73365203D01*
X172116041Y-73344661D01*
X172070805Y-73292457D01*
X172054849Y-73258238D01*
X172054846Y-73258233D01*
X172052523Y-73253251D01*
X171939548Y-73091906D01*
X171924357Y-73070211D01*
X171924355Y-73070208D01*
X171921198Y-73065700D01*
X171759300Y-72903802D01*
X171754792Y-72900645D01*
X171754789Y-72900643D01*
X171639007Y-72819572D01*
X171571749Y-72772477D01*
X171566767Y-72770154D01*
X171566762Y-72770151D01*
X171369225Y-72678039D01*
X171369224Y-72678039D01*
X171364243Y-72675716D01*
X171358935Y-72674294D01*
X171358933Y-72674293D01*
X171148402Y-72617881D01*
X171148400Y-72617881D01*
X171143087Y-72616457D01*
X170915000Y-72596502D01*
X170686913Y-72616457D01*
X170681600Y-72617881D01*
X170681598Y-72617881D01*
X170471067Y-72674293D01*
X170471065Y-72674294D01*
X170465757Y-72675716D01*
X170460776Y-72678039D01*
X170460775Y-72678039D01*
X170263238Y-72770151D01*
X170263233Y-72770154D01*
X170258251Y-72772477D01*
X170190993Y-72819572D01*
X170075211Y-72900643D01*
X170075208Y-72900645D01*
X170070700Y-72903802D01*
X169908802Y-73065700D01*
X169905645Y-73070208D01*
X169905643Y-73070211D01*
X169890452Y-73091906D01*
X169777477Y-73253251D01*
X169775154Y-73258233D01*
X169775151Y-73258238D01*
X169759195Y-73292457D01*
X169712278Y-73345742D01*
X169644001Y-73365203D01*
X169576041Y-73344661D01*
X169530805Y-73292457D01*
X169514849Y-73258238D01*
X169514846Y-73258233D01*
X169512523Y-73253251D01*
X169399548Y-73091906D01*
X169384357Y-73070211D01*
X169384355Y-73070208D01*
X169381198Y-73065700D01*
X169219300Y-72903802D01*
X169214792Y-72900645D01*
X169214789Y-72900643D01*
X169099007Y-72819572D01*
X169031749Y-72772477D01*
X169026767Y-72770154D01*
X169026762Y-72770151D01*
X168829225Y-72678039D01*
X168829224Y-72678039D01*
X168824243Y-72675716D01*
X168818935Y-72674294D01*
X168818933Y-72674293D01*
X168608402Y-72617881D01*
X168608400Y-72617881D01*
X168603087Y-72616457D01*
X168375000Y-72596502D01*
X168146913Y-72616457D01*
X168141600Y-72617881D01*
X168141598Y-72617881D01*
X167931067Y-72674293D01*
X167931065Y-72674294D01*
X167925757Y-72675716D01*
X167920776Y-72678039D01*
X167920775Y-72678039D01*
X167723238Y-72770151D01*
X167723233Y-72770154D01*
X167718251Y-72772477D01*
X167650993Y-72819572D01*
X167535211Y-72900643D01*
X167535208Y-72900645D01*
X167530700Y-72903802D01*
X167466172Y-72968330D01*
X167403860Y-73002356D01*
X167333045Y-72997291D01*
X167276209Y-72954744D01*
X167251398Y-72888224D01*
X167267958Y-72816235D01*
X167296223Y-72767279D01*
X167296224Y-72767278D01*
X167299527Y-72761556D01*
X167358542Y-72579928D01*
X167359733Y-72568602D01*
X167377814Y-72396565D01*
X167378504Y-72390000D01*
X167368885Y-72298481D01*
X167359232Y-72206635D01*
X167359232Y-72206633D01*
X167358542Y-72200072D01*
X167299527Y-72018444D01*
X167288003Y-71998483D01*
X167245304Y-71924528D01*
X167204040Y-71853056D01*
X167191931Y-71839607D01*
X167080675Y-71716045D01*
X167080674Y-71716044D01*
X167076253Y-71711134D01*
X166935556Y-71608911D01*
X166927094Y-71602763D01*
X166927093Y-71602762D01*
X166921752Y-71598882D01*
X166915724Y-71596198D01*
X166915722Y-71596197D01*
X166753319Y-71523891D01*
X166753318Y-71523891D01*
X166747288Y-71521206D01*
X166653887Y-71501353D01*
X166566944Y-71482872D01*
X166566939Y-71482872D01*
X166560487Y-71481500D01*
X166369513Y-71481500D01*
X166363061Y-71482872D01*
X166363056Y-71482872D01*
X166276113Y-71501353D01*
X166182712Y-71521206D01*
X166176682Y-71523891D01*
X166176681Y-71523891D01*
X166014278Y-71596197D01*
X166014276Y-71596198D01*
X166008248Y-71598882D01*
X166002907Y-71602762D01*
X166002906Y-71602763D01*
X165889629Y-71685064D01*
X165853747Y-71711134D01*
X165849332Y-71716037D01*
X165844420Y-71720460D01*
X165843295Y-71719211D01*
X165789986Y-71752051D01*
X165756800Y-71756500D01*
X158688467Y-71756500D01*
X158677284Y-71755973D01*
X158669791Y-71754298D01*
X158661865Y-71754547D01*
X158661864Y-71754547D01*
X158601714Y-71756438D01*
X158597755Y-71756500D01*
X158569844Y-71756500D01*
X158565910Y-71756997D01*
X158565909Y-71756997D01*
X158565844Y-71757005D01*
X158554007Y-71757938D01*
X158522190Y-71758938D01*
X158517729Y-71759078D01*
X158509810Y-71759327D01*
X158500513Y-71762028D01*
X158490358Y-71764978D01*
X158471006Y-71768986D01*
X158465086Y-71769734D01*
X158450903Y-71771526D01*
X158443534Y-71774443D01*
X158443532Y-71774444D01*
X158409797Y-71787800D01*
X158398569Y-71791645D01*
X158356107Y-71803982D01*
X158349284Y-71808017D01*
X158349282Y-71808018D01*
X158338672Y-71814293D01*
X158320924Y-71822988D01*
X158302083Y-71830448D01*
X158295667Y-71835110D01*
X158295666Y-71835110D01*
X158266313Y-71856436D01*
X158256392Y-71862952D01*
X158218338Y-71885458D01*
X158212731Y-71891064D01*
X158204015Y-71899780D01*
X158188982Y-71912620D01*
X158172593Y-71924528D01*
X158167541Y-71930635D01*
X158144412Y-71958593D01*
X158136422Y-71967374D01*
X157822742Y-72281053D01*
X157814463Y-72288587D01*
X157807982Y-72292700D01*
X157779096Y-72323461D01*
X157761356Y-72342352D01*
X157758601Y-72345194D01*
X157738865Y-72364930D01*
X157736385Y-72368127D01*
X157728682Y-72377147D01*
X157698414Y-72409379D01*
X157694595Y-72416325D01*
X157694593Y-72416328D01*
X157688652Y-72427134D01*
X157677801Y-72443653D01*
X157665386Y-72459659D01*
X157662241Y-72466928D01*
X157662238Y-72466932D01*
X157647826Y-72500237D01*
X157642604Y-72510896D01*
X157628694Y-72536199D01*
X157578350Y-72586259D01*
X157518279Y-72601500D01*
X157366866Y-72601500D01*
X157304684Y-72608255D01*
X157168295Y-72659385D01*
X157051739Y-72746739D01*
X156964385Y-72863295D01*
X156913255Y-72999684D01*
X156906500Y-73061866D01*
X156906500Y-75536347D01*
X156886498Y-75604468D01*
X156874138Y-75620655D01*
X156835960Y-75663056D01*
X156832657Y-75668777D01*
X156746356Y-75818255D01*
X156740473Y-75828444D01*
X156681458Y-76010072D01*
X156680768Y-76016633D01*
X156680768Y-76016635D01*
X156666594Y-76151498D01*
X156661496Y-76200000D01*
X156662186Y-76206565D01*
X156671162Y-76291963D01*
X156681458Y-76389928D01*
X156740473Y-76571556D01*
X156743776Y-76577278D01*
X156743777Y-76577279D01*
X156784319Y-76647500D01*
X156801057Y-76716496D01*
X156777836Y-76783587D01*
X156722029Y-76827474D01*
X156675200Y-76836500D01*
X149441020Y-76836500D01*
X149413534Y-76833466D01*
X149390771Y-76828378D01*
X149369391Y-76823599D01*
X149361159Y-76823858D01*
X149337491Y-76822368D01*
X149329357Y-76821080D01*
X149321465Y-76821826D01*
X149321462Y-76821826D01*
X149273436Y-76826366D01*
X149265536Y-76826863D01*
X149219108Y-76828322D01*
X149209410Y-76828627D01*
X149201501Y-76830925D01*
X149178207Y-76835368D01*
X149177898Y-76835397D01*
X149177897Y-76835397D01*
X149170008Y-76836143D01*
X149162550Y-76838828D01*
X149117168Y-76855166D01*
X149109646Y-76857611D01*
X149055706Y-76873282D01*
X149048880Y-76877319D01*
X149048619Y-76877473D01*
X149027158Y-76887572D01*
X149019411Y-76890361D01*
X149012852Y-76894818D01*
X149012853Y-76894818D01*
X148972961Y-76921929D01*
X148966276Y-76926171D01*
X148930048Y-76947596D01*
X148917937Y-76954758D01*
X148912115Y-76960580D01*
X148893847Y-76975695D01*
X148887029Y-76980328D01*
X148881785Y-76986276D01*
X148881784Y-76986277D01*
X148849889Y-77022455D01*
X148844470Y-77028225D01*
X148438095Y-77434600D01*
X148375783Y-77468626D01*
X148304968Y-77463561D01*
X148248132Y-77421014D01*
X148223321Y-77354494D01*
X148223000Y-77345505D01*
X148223000Y-77307115D01*
X148218525Y-77291876D01*
X148217135Y-77290671D01*
X148209452Y-77289000D01*
X147287000Y-77289000D01*
X147218879Y-77268998D01*
X147172386Y-77215342D01*
X147161000Y-77163000D01*
X147161000Y-76762885D01*
X147669000Y-76762885D01*
X147673475Y-76778124D01*
X147674865Y-76779329D01*
X147682548Y-76781000D01*
X148204884Y-76781000D01*
X148220123Y-76776525D01*
X148221328Y-76775135D01*
X148222999Y-76767452D01*
X148222999Y-76096017D01*
X148222805Y-76091080D01*
X148220570Y-76062664D01*
X148218270Y-76050069D01*
X148175893Y-75904210D01*
X148169648Y-75889779D01*
X148093089Y-75760322D01*
X148083449Y-75747896D01*
X147977104Y-75641551D01*
X147964678Y-75631911D01*
X147835221Y-75555352D01*
X147820790Y-75549107D01*
X147686395Y-75510061D01*
X147672294Y-75510101D01*
X147669000Y-75517370D01*
X147669000Y-76762885D01*
X147161000Y-76762885D01*
X147161000Y-75523122D01*
X147157027Y-75509591D01*
X147149129Y-75508456D01*
X147009210Y-75549107D01*
X146994779Y-75555352D01*
X146865324Y-75631910D01*
X146857636Y-75637874D01*
X146791551Y-75663821D01*
X146721928Y-75649920D01*
X146705842Y-75639582D01*
X146701807Y-75635547D01*
X146649256Y-75604468D01*
X146582810Y-75565172D01*
X146558601Y-75550855D01*
X146550990Y-75548644D01*
X146550988Y-75548643D01*
X146498769Y-75533472D01*
X146398831Y-75504438D01*
X146392426Y-75503934D01*
X146392421Y-75503933D01*
X146363958Y-75501693D01*
X146363950Y-75501693D01*
X146361502Y-75501500D01*
X145928498Y-75501500D01*
X145926050Y-75501693D01*
X145926042Y-75501693D01*
X145897579Y-75503933D01*
X145897574Y-75503934D01*
X145891169Y-75504438D01*
X145791231Y-75533472D01*
X145739012Y-75548643D01*
X145739010Y-75548644D01*
X145731399Y-75550855D01*
X145588193Y-75635547D01*
X145585511Y-75638229D01*
X145521139Y-75663502D01*
X145451516Y-75649600D01*
X145435688Y-75639428D01*
X145431807Y-75635547D01*
X145288601Y-75550855D01*
X145280990Y-75548644D01*
X145280988Y-75548643D01*
X145228769Y-75533472D01*
X145128831Y-75504438D01*
X145122426Y-75503934D01*
X145122421Y-75503933D01*
X145093958Y-75501693D01*
X145093950Y-75501693D01*
X145091502Y-75501500D01*
X144658498Y-75501500D01*
X144656050Y-75501693D01*
X144656042Y-75501693D01*
X144627579Y-75503933D01*
X144627574Y-75503934D01*
X144621169Y-75504438D01*
X144521231Y-75533472D01*
X144469012Y-75548643D01*
X144469010Y-75548644D01*
X144461399Y-75550855D01*
X144318193Y-75635547D01*
X144315511Y-75638229D01*
X144251139Y-75663502D01*
X144181516Y-75649600D01*
X144165688Y-75639428D01*
X144161807Y-75635547D01*
X144018601Y-75550855D01*
X144010990Y-75548644D01*
X144010988Y-75548643D01*
X143958769Y-75533472D01*
X143858831Y-75504438D01*
X143852426Y-75503934D01*
X143852421Y-75503933D01*
X143823958Y-75501693D01*
X143823950Y-75501693D01*
X143821502Y-75501500D01*
X143388498Y-75501500D01*
X143386050Y-75501693D01*
X143386042Y-75501693D01*
X143357579Y-75503933D01*
X143357574Y-75503934D01*
X143351169Y-75504438D01*
X143251231Y-75533472D01*
X143199012Y-75548643D01*
X143199010Y-75548644D01*
X143191399Y-75550855D01*
X143048193Y-75635547D01*
X143045511Y-75638229D01*
X142981139Y-75663502D01*
X142911516Y-75649600D01*
X142895688Y-75639428D01*
X142891807Y-75635547D01*
X142748601Y-75550855D01*
X142740990Y-75548644D01*
X142740988Y-75548643D01*
X142688769Y-75533472D01*
X142588831Y-75504438D01*
X142582426Y-75503934D01*
X142582421Y-75503933D01*
X142553958Y-75501693D01*
X142553950Y-75501693D01*
X142551502Y-75501500D01*
X142118498Y-75501500D01*
X142116050Y-75501693D01*
X142116042Y-75501693D01*
X142087579Y-75503933D01*
X142087574Y-75503934D01*
X142081169Y-75504438D01*
X141981231Y-75533472D01*
X141929012Y-75548643D01*
X141929010Y-75548644D01*
X141921399Y-75550855D01*
X141778193Y-75635547D01*
X141775511Y-75638229D01*
X141711139Y-75663502D01*
X141641516Y-75649600D01*
X141625688Y-75639428D01*
X141621807Y-75635547D01*
X141478601Y-75550855D01*
X141470990Y-75548644D01*
X141470988Y-75548643D01*
X141418769Y-75533472D01*
X141318831Y-75504438D01*
X141312426Y-75503934D01*
X141312421Y-75503933D01*
X141283958Y-75501693D01*
X141283950Y-75501693D01*
X141281502Y-75501500D01*
X140848498Y-75501500D01*
X140846050Y-75501693D01*
X140846042Y-75501693D01*
X140817579Y-75503933D01*
X140817574Y-75503934D01*
X140811169Y-75504438D01*
X140711231Y-75533472D01*
X140659012Y-75548643D01*
X140659010Y-75548644D01*
X140651399Y-75550855D01*
X140618637Y-75570231D01*
X140549822Y-75587689D01*
X140482491Y-75565172D01*
X140438022Y-75509827D01*
X140428500Y-75461776D01*
X140428500Y-73103763D01*
X140429027Y-73092579D01*
X140430701Y-73085091D01*
X140428562Y-73017032D01*
X140428500Y-73013075D01*
X140428500Y-72985144D01*
X140427994Y-72981138D01*
X140427061Y-72969292D01*
X140425922Y-72933037D01*
X140425673Y-72925110D01*
X140420022Y-72905658D01*
X140416014Y-72886306D01*
X140414468Y-72874068D01*
X140414467Y-72874066D01*
X140413474Y-72866203D01*
X140397194Y-72825086D01*
X140393359Y-72813885D01*
X140381018Y-72771406D01*
X140376985Y-72764587D01*
X140376983Y-72764582D01*
X140370707Y-72753971D01*
X140362010Y-72736221D01*
X140354552Y-72717383D01*
X140328571Y-72681623D01*
X140322053Y-72671701D01*
X140303578Y-72640460D01*
X140303574Y-72640455D01*
X140299542Y-72633637D01*
X140285218Y-72619313D01*
X140272376Y-72604278D01*
X140267940Y-72598172D01*
X140260472Y-72587893D01*
X140226406Y-72559711D01*
X140217627Y-72551722D01*
X137975500Y-70309595D01*
X153246001Y-70309595D01*
X153246338Y-70316114D01*
X153256257Y-70411706D01*
X153259149Y-70425100D01*
X153310588Y-70579284D01*
X153316761Y-70592462D01*
X153402063Y-70730307D01*
X153411099Y-70741708D01*
X153525829Y-70856239D01*
X153537240Y-70865251D01*
X153675243Y-70950316D01*
X153688424Y-70956463D01*
X153842710Y-71007638D01*
X153856086Y-71010505D01*
X153950438Y-71020172D01*
X153956854Y-71020500D01*
X154381885Y-71020500D01*
X154397124Y-71016025D01*
X154398329Y-71014635D01*
X154400000Y-71006952D01*
X154400000Y-71002384D01*
X154908000Y-71002384D01*
X154912475Y-71017623D01*
X154913865Y-71018828D01*
X154921548Y-71020499D01*
X155351095Y-71020499D01*
X155357614Y-71020162D01*
X155453206Y-71010243D01*
X155466600Y-71007351D01*
X155620784Y-70955912D01*
X155633962Y-70949739D01*
X155771807Y-70864437D01*
X155783208Y-70855401D01*
X155897739Y-70740671D01*
X155906751Y-70729260D01*
X155991816Y-70591257D01*
X155997963Y-70578076D01*
X156049138Y-70423790D01*
X156052005Y-70410414D01*
X156061672Y-70316062D01*
X156062000Y-70309646D01*
X156062000Y-70122115D01*
X156057525Y-70106876D01*
X156056135Y-70105671D01*
X156048452Y-70104000D01*
X154926115Y-70104000D01*
X154910876Y-70108475D01*
X154909671Y-70109865D01*
X154908000Y-70117548D01*
X154908000Y-71002384D01*
X154400000Y-71002384D01*
X154400000Y-70122115D01*
X154395525Y-70106876D01*
X154394135Y-70105671D01*
X154386452Y-70104000D01*
X153264116Y-70104000D01*
X153248877Y-70108475D01*
X153247672Y-70109865D01*
X153246001Y-70117548D01*
X153246001Y-70309595D01*
X137975500Y-70309595D01*
X137758652Y-70092747D01*
X137751112Y-70084461D01*
X137747000Y-70077982D01*
X137697348Y-70031356D01*
X137694507Y-70028602D01*
X137674770Y-70008865D01*
X137671573Y-70006385D01*
X137662551Y-69998680D01*
X137645190Y-69982377D01*
X137630321Y-69968414D01*
X137623375Y-69964595D01*
X137623372Y-69964593D01*
X137612566Y-69958652D01*
X137596047Y-69947801D01*
X137595583Y-69947441D01*
X137580041Y-69935386D01*
X137572772Y-69932241D01*
X137572768Y-69932238D01*
X137539463Y-69917826D01*
X137528813Y-69912609D01*
X137490060Y-69891305D01*
X137470437Y-69886267D01*
X137451734Y-69879863D01*
X137440420Y-69874967D01*
X137440419Y-69874967D01*
X137433145Y-69871819D01*
X137425322Y-69870580D01*
X137425312Y-69870577D01*
X137389476Y-69864901D01*
X137377856Y-69862495D01*
X137342711Y-69853472D01*
X137342710Y-69853472D01*
X137335030Y-69851500D01*
X137314776Y-69851500D01*
X137295065Y-69849949D01*
X137292534Y-69849548D01*
X137275057Y-69846780D01*
X137267165Y-69847526D01*
X137231039Y-69850941D01*
X137219181Y-69851500D01*
X122728763Y-69851500D01*
X122717579Y-69850973D01*
X122710091Y-69849299D01*
X122702168Y-69849548D01*
X122642033Y-69851438D01*
X122638075Y-69851500D01*
X122610144Y-69851500D01*
X122606229Y-69851995D01*
X122606225Y-69851995D01*
X122606167Y-69852003D01*
X122606138Y-69852006D01*
X122594296Y-69852939D01*
X122550110Y-69854327D01*
X122532744Y-69859372D01*
X122530658Y-69859978D01*
X122511306Y-69863986D01*
X122499068Y-69865532D01*
X122499066Y-69865533D01*
X122491203Y-69866526D01*
X122450086Y-69882806D01*
X122438885Y-69886641D01*
X122396406Y-69898982D01*
X122389587Y-69903015D01*
X122389582Y-69903017D01*
X122378971Y-69909293D01*
X122361221Y-69917990D01*
X122342383Y-69925448D01*
X122335967Y-69930109D01*
X122335966Y-69930110D01*
X122306625Y-69951428D01*
X122296701Y-69957947D01*
X122265460Y-69976422D01*
X122265455Y-69976426D01*
X122258637Y-69980458D01*
X122244313Y-69994782D01*
X122229281Y-70007621D01*
X122212893Y-70019528D01*
X122184712Y-70053593D01*
X122176722Y-70062373D01*
X119728095Y-72511000D01*
X119665783Y-72545026D01*
X119594968Y-72539961D01*
X119538132Y-72497414D01*
X119513321Y-72430894D01*
X119513000Y-72421905D01*
X119513000Y-71652115D01*
X119508525Y-71636876D01*
X119507135Y-71635671D01*
X119499452Y-71634000D01*
X118477115Y-71634000D01*
X118461876Y-71638475D01*
X118460671Y-71639865D01*
X118459000Y-71647548D01*
X118459000Y-73619884D01*
X118463475Y-73635123D01*
X118464865Y-73636328D01*
X118472548Y-73637999D01*
X118802095Y-73637999D01*
X118808614Y-73637662D01*
X118904206Y-73627743D01*
X118917600Y-73624851D01*
X119071784Y-73573412D01*
X119084962Y-73567239D01*
X119222807Y-73481937D01*
X119234208Y-73472901D01*
X119261327Y-73445735D01*
X119323610Y-73411656D01*
X119394430Y-73416659D01*
X119451303Y-73459157D01*
X119476171Y-73525655D01*
X119476500Y-73534753D01*
X119476500Y-79456126D01*
X119456498Y-79524247D01*
X119422772Y-79559338D01*
X119367527Y-79598021D01*
X119286342Y-79654867D01*
X119286339Y-79654869D01*
X119281831Y-79658026D01*
X119123026Y-79816831D01*
X119119869Y-79821339D01*
X119119867Y-79821342D01*
X118999898Y-79992676D01*
X118994210Y-80000799D01*
X118991887Y-80005781D01*
X118991884Y-80005786D01*
X118954195Y-80086611D01*
X118907277Y-80139896D01*
X118839000Y-80159357D01*
X118771040Y-80138815D01*
X118725805Y-80086611D01*
X118688116Y-80005786D01*
X118688113Y-80005781D01*
X118685790Y-80000799D01*
X118680102Y-79992676D01*
X118560133Y-79821342D01*
X118560131Y-79821339D01*
X118556974Y-79816831D01*
X118398169Y-79658026D01*
X118388610Y-79651332D01*
X118299109Y-79588663D01*
X118214202Y-79529210D01*
X118209220Y-79526887D01*
X118209215Y-79526884D01*
X118015642Y-79436620D01*
X118015641Y-79436620D01*
X118010660Y-79434297D01*
X118005352Y-79432875D01*
X118005350Y-79432874D01*
X117799044Y-79377595D01*
X117799042Y-79377595D01*
X117793729Y-79376171D01*
X117570000Y-79356597D01*
X117346271Y-79376171D01*
X117340958Y-79377595D01*
X117340956Y-79377595D01*
X117134650Y-79432874D01*
X117134648Y-79432875D01*
X117129340Y-79434297D01*
X117124359Y-79436619D01*
X117124358Y-79436620D01*
X116930786Y-79526884D01*
X116930781Y-79526887D01*
X116925799Y-79529210D01*
X116921292Y-79532366D01*
X116921290Y-79532367D01*
X116746342Y-79654867D01*
X116746339Y-79654869D01*
X116741831Y-79658026D01*
X116583026Y-79816831D01*
X116579869Y-79821339D01*
X116579867Y-79821342D01*
X116459898Y-79992676D01*
X116454210Y-80000799D01*
X116451887Y-80005781D01*
X116451884Y-80005786D01*
X116414195Y-80086611D01*
X116367277Y-80139896D01*
X116299000Y-80159357D01*
X116231040Y-80138815D01*
X116185805Y-80086611D01*
X116148116Y-80005786D01*
X116148113Y-80005781D01*
X116145790Y-80000799D01*
X116140102Y-79992676D01*
X116020133Y-79821342D01*
X116020131Y-79821339D01*
X116016974Y-79816831D01*
X115858169Y-79658026D01*
X115848610Y-79651332D01*
X115759109Y-79588663D01*
X115674202Y-79529210D01*
X115669220Y-79526887D01*
X115669215Y-79526884D01*
X115475642Y-79436620D01*
X115475641Y-79436620D01*
X115470660Y-79434297D01*
X115465352Y-79432875D01*
X115465350Y-79432874D01*
X115259044Y-79377595D01*
X115259042Y-79377595D01*
X115253729Y-79376171D01*
X115030000Y-79356597D01*
X114806271Y-79376171D01*
X114800958Y-79377595D01*
X114800956Y-79377595D01*
X114594650Y-79432874D01*
X114594648Y-79432875D01*
X114589340Y-79434297D01*
X114584359Y-79436619D01*
X114584358Y-79436620D01*
X114390786Y-79526884D01*
X114390781Y-79526887D01*
X114385799Y-79529210D01*
X114381292Y-79532366D01*
X114381290Y-79532367D01*
X114206342Y-79654867D01*
X114206339Y-79654869D01*
X114201831Y-79658026D01*
X114043026Y-79816831D01*
X114039869Y-79821339D01*
X114039867Y-79821342D01*
X113919898Y-79992676D01*
X113914210Y-80000799D01*
X113911887Y-80005781D01*
X113911884Y-80005786D01*
X113874195Y-80086611D01*
X113827277Y-80139896D01*
X113759000Y-80159357D01*
X113691040Y-80138815D01*
X113645805Y-80086611D01*
X113608116Y-80005786D01*
X113608113Y-80005781D01*
X113605790Y-80000799D01*
X113600102Y-79992676D01*
X113480133Y-79821342D01*
X113480131Y-79821339D01*
X113476974Y-79816831D01*
X113318169Y-79658026D01*
X113308610Y-79651332D01*
X113219109Y-79588663D01*
X113134202Y-79529210D01*
X113129220Y-79526887D01*
X113129215Y-79526884D01*
X112935642Y-79436620D01*
X112935641Y-79436620D01*
X112930660Y-79434297D01*
X112925352Y-79432875D01*
X112925350Y-79432874D01*
X112719044Y-79377595D01*
X112719042Y-79377595D01*
X112713729Y-79376171D01*
X112490000Y-79356597D01*
X112266271Y-79376171D01*
X112260958Y-79377595D01*
X112260956Y-79377595D01*
X112054650Y-79432874D01*
X112054648Y-79432875D01*
X112049340Y-79434297D01*
X112044359Y-79436619D01*
X112044358Y-79436620D01*
X111850786Y-79526884D01*
X111850781Y-79526887D01*
X111845799Y-79529210D01*
X111841292Y-79532366D01*
X111841290Y-79532367D01*
X111666342Y-79654867D01*
X111666339Y-79654869D01*
X111661831Y-79658026D01*
X111503026Y-79816831D01*
X111499869Y-79821339D01*
X111499867Y-79821342D01*
X111379898Y-79992676D01*
X111374210Y-80000799D01*
X111371887Y-80005781D01*
X111371884Y-80005786D01*
X111334195Y-80086611D01*
X111287277Y-80139896D01*
X111219000Y-80159357D01*
X111151040Y-80138815D01*
X111105805Y-80086611D01*
X111068116Y-80005786D01*
X111068113Y-80005781D01*
X111065790Y-80000799D01*
X111060102Y-79992676D01*
X110940133Y-79821342D01*
X110940131Y-79821339D01*
X110936974Y-79816831D01*
X110778169Y-79658026D01*
X110768610Y-79651332D01*
X110679109Y-79588663D01*
X110594202Y-79529210D01*
X110589220Y-79526887D01*
X110589215Y-79526884D01*
X110395642Y-79436620D01*
X110395641Y-79436620D01*
X110390660Y-79434297D01*
X110385352Y-79432875D01*
X110385350Y-79432874D01*
X110179044Y-79377595D01*
X110179042Y-79377595D01*
X110173729Y-79376171D01*
X109950000Y-79356597D01*
X109726271Y-79376171D01*
X109720958Y-79377595D01*
X109720956Y-79377595D01*
X109514650Y-79432874D01*
X109514648Y-79432875D01*
X109509340Y-79434297D01*
X109504359Y-79436619D01*
X109504358Y-79436620D01*
X109310786Y-79526884D01*
X109310781Y-79526887D01*
X109305799Y-79529210D01*
X109301292Y-79532366D01*
X109301290Y-79532367D01*
X109126342Y-79654867D01*
X109126339Y-79654869D01*
X109121831Y-79658026D01*
X108963026Y-79816831D01*
X108959869Y-79821339D01*
X108959867Y-79821342D01*
X108839898Y-79992676D01*
X108834210Y-80000799D01*
X108831887Y-80005781D01*
X108831884Y-80005786D01*
X108794195Y-80086611D01*
X108747277Y-80139896D01*
X108679000Y-80159357D01*
X108611040Y-80138815D01*
X108565805Y-80086611D01*
X108528116Y-80005786D01*
X108528113Y-80005781D01*
X108525790Y-80000799D01*
X108520102Y-79992676D01*
X108400133Y-79821342D01*
X108400131Y-79821339D01*
X108396974Y-79816831D01*
X108238169Y-79658026D01*
X108228610Y-79651332D01*
X108139109Y-79588663D01*
X108054202Y-79529210D01*
X108049220Y-79526887D01*
X108049215Y-79526884D01*
X107855642Y-79436620D01*
X107855641Y-79436620D01*
X107850660Y-79434297D01*
X107845352Y-79432875D01*
X107845350Y-79432874D01*
X107639044Y-79377595D01*
X107639042Y-79377595D01*
X107633729Y-79376171D01*
X107410000Y-79356597D01*
X107186271Y-79376171D01*
X107180958Y-79377595D01*
X107180956Y-79377595D01*
X106974650Y-79432874D01*
X106974648Y-79432875D01*
X106969340Y-79434297D01*
X106964359Y-79436619D01*
X106964358Y-79436620D01*
X106770786Y-79526884D01*
X106770781Y-79526887D01*
X106765799Y-79529210D01*
X106761292Y-79532366D01*
X106761290Y-79532367D01*
X106586342Y-79654867D01*
X106586339Y-79654869D01*
X106581831Y-79658026D01*
X106423026Y-79816831D01*
X106419869Y-79821339D01*
X106419867Y-79821342D01*
X106299898Y-79992676D01*
X106294210Y-80000799D01*
X106291887Y-80005781D01*
X106291884Y-80005786D01*
X106254195Y-80086611D01*
X106207277Y-80139896D01*
X106139000Y-80159357D01*
X106071040Y-80138815D01*
X106025805Y-80086611D01*
X105988116Y-80005786D01*
X105988113Y-80005781D01*
X105985790Y-80000799D01*
X105980102Y-79992676D01*
X105860133Y-79821342D01*
X105860131Y-79821339D01*
X105856974Y-79816831D01*
X105698169Y-79658026D01*
X105688610Y-79651332D01*
X105599109Y-79588663D01*
X105514202Y-79529210D01*
X105509220Y-79526887D01*
X105509215Y-79526884D01*
X105315642Y-79436620D01*
X105315641Y-79436620D01*
X105310660Y-79434297D01*
X105305352Y-79432875D01*
X105305350Y-79432874D01*
X105099044Y-79377595D01*
X105099042Y-79377595D01*
X105093729Y-79376171D01*
X104870000Y-79356597D01*
X104646271Y-79376171D01*
X104640958Y-79377595D01*
X104640956Y-79377595D01*
X104434650Y-79432874D01*
X104434648Y-79432875D01*
X104429340Y-79434297D01*
X104424359Y-79436619D01*
X104424358Y-79436620D01*
X104230786Y-79526884D01*
X104230781Y-79526887D01*
X104225799Y-79529210D01*
X104221292Y-79532366D01*
X104221290Y-79532367D01*
X104046342Y-79654867D01*
X104046339Y-79654869D01*
X104041831Y-79658026D01*
X103975262Y-79724595D01*
X103912950Y-79758621D01*
X103886167Y-79761500D01*
X103339500Y-79761500D01*
X103271379Y-79741498D01*
X103224886Y-79687842D01*
X103213500Y-79635500D01*
X103213500Y-78819450D01*
X103215051Y-78799739D01*
X103216117Y-78793009D01*
X103217149Y-78786493D01*
X103216802Y-78779856D01*
X103213673Y-78720169D01*
X103213500Y-78713574D01*
X103213500Y-78693694D01*
X103211421Y-78673912D01*
X103210905Y-78667348D01*
X103207775Y-78607627D01*
X103207775Y-78607625D01*
X103207429Y-78601029D01*
X103203958Y-78588074D01*
X103200358Y-78568645D01*
X103199646Y-78561874D01*
X103199644Y-78561867D01*
X103198954Y-78555298D01*
X103178424Y-78492112D01*
X103176558Y-78485813D01*
X103175087Y-78480321D01*
X103159362Y-78421637D01*
X103156365Y-78415755D01*
X103153272Y-78409683D01*
X103145708Y-78391421D01*
X103143608Y-78384957D01*
X103143605Y-78384949D01*
X103141564Y-78378669D01*
X103138262Y-78372950D01*
X103138260Y-78372945D01*
X103108346Y-78321133D01*
X103105213Y-78315363D01*
X103075047Y-78256161D01*
X103066609Y-78245741D01*
X103055411Y-78229448D01*
X103055209Y-78229097D01*
X103048704Y-78217831D01*
X103044287Y-78212925D01*
X103044283Y-78212920D01*
X103004253Y-78168462D01*
X102999969Y-78163446D01*
X102989559Y-78150591D01*
X102989556Y-78150588D01*
X102987472Y-78148014D01*
X102973427Y-78133969D01*
X102968886Y-78129184D01*
X102928856Y-78084726D01*
X102928855Y-78084725D01*
X102924434Y-78079815D01*
X102913574Y-78071925D01*
X102898546Y-78059088D01*
X98057553Y-73218095D01*
X98023527Y-73155783D01*
X98028592Y-73084968D01*
X98071139Y-73028132D01*
X98137659Y-73003321D01*
X98146648Y-73003000D01*
X98247885Y-73003000D01*
X98263124Y-72998525D01*
X98264329Y-72997135D01*
X98266000Y-72989452D01*
X98266000Y-72984884D01*
X98774000Y-72984884D01*
X98778475Y-73000123D01*
X98779865Y-73001328D01*
X98787548Y-73002999D01*
X99117095Y-73002999D01*
X99123614Y-73002662D01*
X99219206Y-72992743D01*
X99232600Y-72989851D01*
X99386784Y-72938412D01*
X99399962Y-72932239D01*
X99537807Y-72846937D01*
X99549208Y-72837901D01*
X99663739Y-72723171D01*
X99672751Y-72711760D01*
X99757816Y-72573757D01*
X99763963Y-72560576D01*
X99815138Y-72406290D01*
X99818005Y-72392914D01*
X99827672Y-72298562D01*
X99828000Y-72292146D01*
X99828000Y-71017115D01*
X99823525Y-71001876D01*
X99822135Y-71000671D01*
X99814452Y-70999000D01*
X98792115Y-70999000D01*
X98776876Y-71003475D01*
X98775671Y-71004865D01*
X98774000Y-71012548D01*
X98774000Y-72984884D01*
X98266000Y-72984884D01*
X98266000Y-71017115D01*
X98261525Y-71001876D01*
X98260135Y-71000671D01*
X98252452Y-70999000D01*
X97230116Y-70999000D01*
X97214877Y-71003475D01*
X97213672Y-71004865D01*
X97212001Y-71012548D01*
X97212001Y-72068353D01*
X97191999Y-72136474D01*
X97138343Y-72182967D01*
X97068069Y-72193071D01*
X97003489Y-72163577D01*
X96996906Y-72157448D01*
X95630405Y-70790947D01*
X95596379Y-70728635D01*
X95593500Y-70701852D01*
X95593500Y-70472885D01*
X97212000Y-70472885D01*
X97216475Y-70488124D01*
X97217865Y-70489329D01*
X97225548Y-70491000D01*
X98247885Y-70491000D01*
X98263124Y-70486525D01*
X98264329Y-70485135D01*
X98266000Y-70477452D01*
X98266000Y-70472885D01*
X98774000Y-70472885D01*
X98778475Y-70488124D01*
X98779865Y-70489329D01*
X98787548Y-70491000D01*
X99809884Y-70491000D01*
X99825123Y-70486525D01*
X99826328Y-70485135D01*
X99827999Y-70477452D01*
X99827999Y-69197905D01*
X99827662Y-69191386D01*
X99817743Y-69095794D01*
X99814851Y-69082400D01*
X99763412Y-68928216D01*
X99757239Y-68915038D01*
X99671937Y-68777193D01*
X99662901Y-68765792D01*
X99548171Y-68651261D01*
X99536760Y-68642249D01*
X99398757Y-68557184D01*
X99385576Y-68551037D01*
X99231290Y-68499862D01*
X99217914Y-68496995D01*
X99123562Y-68487328D01*
X99117145Y-68487000D01*
X98792115Y-68487000D01*
X98776876Y-68491475D01*
X98775671Y-68492865D01*
X98774000Y-68500548D01*
X98774000Y-70472885D01*
X98266000Y-70472885D01*
X98266000Y-68505116D01*
X98261525Y-68489877D01*
X98260135Y-68488672D01*
X98252452Y-68487001D01*
X97922905Y-68487001D01*
X97916386Y-68487338D01*
X97820794Y-68497257D01*
X97807400Y-68500149D01*
X97653216Y-68551588D01*
X97640038Y-68557761D01*
X97502193Y-68643063D01*
X97490792Y-68652099D01*
X97376261Y-68766829D01*
X97367249Y-68778240D01*
X97282184Y-68916243D01*
X97276037Y-68929424D01*
X97224862Y-69083710D01*
X97221995Y-69097086D01*
X97212328Y-69191438D01*
X97212000Y-69197855D01*
X97212000Y-70472885D01*
X95593500Y-70472885D01*
X95593500Y-67728148D01*
X95613502Y-67660027D01*
X95630405Y-67639053D01*
X96996405Y-66273053D01*
X97058717Y-66239027D01*
X97129532Y-66244092D01*
X97186368Y-66286639D01*
X97211179Y-66353159D01*
X97211500Y-66362148D01*
X97211500Y-66695400D01*
X97211837Y-66698646D01*
X97211837Y-66698650D01*
X97221684Y-66793548D01*
X97222474Y-66801166D01*
X97224655Y-66807702D01*
X97224655Y-66807704D01*
X97229101Y-66821029D01*
X97278450Y-66968946D01*
X97371522Y-67119348D01*
X97496697Y-67244305D01*
X97502927Y-67248145D01*
X97502928Y-67248146D01*
X97640090Y-67332694D01*
X97647262Y-67337115D01*
X97705685Y-67356493D01*
X97808611Y-67390632D01*
X97808613Y-67390632D01*
X97815139Y-67392797D01*
X97821975Y-67393497D01*
X97821978Y-67393498D01*
X97865031Y-67397909D01*
X97919600Y-67403500D01*
X99120400Y-67403500D01*
X99123646Y-67403163D01*
X99123650Y-67403163D01*
X99219308Y-67393238D01*
X99219312Y-67393237D01*
X99226166Y-67392526D01*
X99232702Y-67390345D01*
X99232704Y-67390345D01*
X99364806Y-67346272D01*
X99393946Y-67336550D01*
X99544348Y-67243478D01*
X99669305Y-67118303D01*
X99703933Y-67062126D01*
X99758275Y-66973968D01*
X99758276Y-66973966D01*
X99762115Y-66967738D01*
X99817797Y-66799861D01*
X99828500Y-66695400D01*
X99828500Y-66154500D01*
X99848502Y-66086379D01*
X99902158Y-66039886D01*
X99954500Y-66028500D01*
X101320500Y-66028500D01*
X101388621Y-66048502D01*
X101435114Y-66102158D01*
X101446500Y-66154500D01*
X101446500Y-69770543D01*
X101444949Y-69790255D01*
X101442850Y-69803507D01*
X101443195Y-69810094D01*
X101443195Y-69810098D01*
X101446327Y-69869850D01*
X101446500Y-69876445D01*
X101446500Y-69896306D01*
X101448436Y-69914731D01*
X101448576Y-69916059D01*
X101449093Y-69922628D01*
X101449485Y-69930110D01*
X101452124Y-69980458D01*
X101452570Y-69988971D01*
X101456042Y-70001929D01*
X101459645Y-70021372D01*
X101461046Y-70034702D01*
X101481578Y-70097894D01*
X101483444Y-70104196D01*
X101497773Y-70157672D01*
X101500638Y-70168363D01*
X101503634Y-70174242D01*
X101503637Y-70174251D01*
X101506728Y-70180317D01*
X101514292Y-70198579D01*
X101516392Y-70205043D01*
X101516395Y-70205051D01*
X101518436Y-70211331D01*
X101521738Y-70217050D01*
X101521740Y-70217055D01*
X101551654Y-70268867D01*
X101554787Y-70274637D01*
X101584953Y-70333839D01*
X101589109Y-70338971D01*
X101593391Y-70344259D01*
X101604589Y-70360552D01*
X101611296Y-70372169D01*
X101615713Y-70377075D01*
X101615717Y-70377080D01*
X101655747Y-70421538D01*
X101660031Y-70426554D01*
X101667065Y-70435240D01*
X101672528Y-70441986D01*
X101686573Y-70456031D01*
X101691114Y-70460816D01*
X101735566Y-70510185D01*
X101746426Y-70518075D01*
X101761454Y-70530912D01*
X102679088Y-71448546D01*
X102691925Y-71463574D01*
X102699815Y-71474434D01*
X102704725Y-71478855D01*
X102704726Y-71478856D01*
X102749184Y-71518886D01*
X102753969Y-71523427D01*
X102768014Y-71537472D01*
X102770588Y-71539556D01*
X102770591Y-71539559D01*
X102783446Y-71549969D01*
X102788462Y-71554253D01*
X102832920Y-71594283D01*
X102832925Y-71594287D01*
X102837831Y-71598704D01*
X102849097Y-71605209D01*
X102849448Y-71605411D01*
X102865741Y-71616609D01*
X102876161Y-71625047D01*
X102935363Y-71655213D01*
X102941133Y-71658346D01*
X102992945Y-71688260D01*
X102992950Y-71688262D01*
X102998669Y-71691564D01*
X103004949Y-71693605D01*
X103004957Y-71693608D01*
X103011421Y-71695708D01*
X103029683Y-71703272D01*
X103035749Y-71706363D01*
X103035758Y-71706366D01*
X103041637Y-71709362D01*
X103048015Y-71711071D01*
X103105804Y-71726556D01*
X103112106Y-71728422D01*
X103175298Y-71748954D01*
X103188205Y-71750311D01*
X103188628Y-71750355D01*
X103208071Y-71753958D01*
X103221029Y-71757430D01*
X103227619Y-71757775D01*
X103227623Y-71757776D01*
X103271573Y-71760079D01*
X103287372Y-71760907D01*
X103293931Y-71761423D01*
X103313694Y-71763500D01*
X103333555Y-71763500D01*
X103340150Y-71763673D01*
X103399902Y-71766805D01*
X103399906Y-71766805D01*
X103406493Y-71767150D01*
X103419747Y-71765051D01*
X103439456Y-71763500D01*
X103949618Y-71763500D01*
X104017739Y-71783502D01*
X104064232Y-71837158D01*
X104067599Y-71845269D01*
X104074229Y-71862952D01*
X104079385Y-71876705D01*
X104166739Y-71993261D01*
X104283295Y-72080615D01*
X104419684Y-72131745D01*
X104481866Y-72138500D01*
X104998000Y-72138500D01*
X105066121Y-72158502D01*
X105112614Y-72212158D01*
X105124000Y-72264500D01*
X105124000Y-74549000D01*
X116808000Y-74549000D01*
X116808000Y-73394849D01*
X116828002Y-73326728D01*
X116881658Y-73280235D01*
X116951932Y-73270131D01*
X117016512Y-73299625D01*
X117041145Y-73328546D01*
X117053068Y-73347813D01*
X117062099Y-73359208D01*
X117176829Y-73473739D01*
X117188240Y-73482751D01*
X117326243Y-73567816D01*
X117339424Y-73573963D01*
X117493710Y-73625138D01*
X117507086Y-73628005D01*
X117601438Y-73637672D01*
X117607854Y-73638000D01*
X117932885Y-73638000D01*
X117948124Y-73633525D01*
X117949329Y-73632135D01*
X117951000Y-73624452D01*
X117951000Y-71107885D01*
X118459000Y-71107885D01*
X118463475Y-71123124D01*
X118464865Y-71124329D01*
X118472548Y-71126000D01*
X119494884Y-71126000D01*
X119510123Y-71121525D01*
X119511328Y-71120135D01*
X119512999Y-71112452D01*
X119512999Y-69832905D01*
X119512662Y-69826386D01*
X119502743Y-69730794D01*
X119499851Y-69717400D01*
X119453306Y-69577885D01*
X153246000Y-69577885D01*
X153250475Y-69593124D01*
X153251865Y-69594329D01*
X153259548Y-69596000D01*
X154381885Y-69596000D01*
X154397124Y-69591525D01*
X154398329Y-69590135D01*
X154400000Y-69582452D01*
X154400000Y-69577885D01*
X154908000Y-69577885D01*
X154912475Y-69593124D01*
X154913865Y-69594329D01*
X154921548Y-69596000D01*
X156043884Y-69596000D01*
X156059123Y-69591525D01*
X156060328Y-69590135D01*
X156061999Y-69582452D01*
X156061999Y-69390405D01*
X156061662Y-69383886D01*
X156051743Y-69288294D01*
X156048851Y-69274900D01*
X155997412Y-69120716D01*
X155991239Y-69107538D01*
X155905937Y-68969693D01*
X155896901Y-68958292D01*
X155782171Y-68843761D01*
X155770760Y-68834749D01*
X155632757Y-68749684D01*
X155619576Y-68743537D01*
X155465290Y-68692362D01*
X155451914Y-68689495D01*
X155357562Y-68679828D01*
X155351145Y-68679500D01*
X154926115Y-68679500D01*
X154910876Y-68683975D01*
X154909671Y-68685365D01*
X154908000Y-68693048D01*
X154908000Y-69577885D01*
X154400000Y-69577885D01*
X154400000Y-68697616D01*
X154395525Y-68682377D01*
X154394135Y-68681172D01*
X154386452Y-68679501D01*
X153956905Y-68679501D01*
X153950386Y-68679838D01*
X153854794Y-68689757D01*
X153841400Y-68692649D01*
X153687216Y-68744088D01*
X153674038Y-68750261D01*
X153536193Y-68835563D01*
X153524792Y-68844599D01*
X153410261Y-68959329D01*
X153401249Y-68970740D01*
X153316184Y-69108743D01*
X153310037Y-69121924D01*
X153258862Y-69276210D01*
X153255995Y-69289586D01*
X153246328Y-69383938D01*
X153246000Y-69390355D01*
X153246000Y-69577885D01*
X119453306Y-69577885D01*
X119448412Y-69563216D01*
X119442239Y-69550038D01*
X119356937Y-69412193D01*
X119347901Y-69400792D01*
X119233171Y-69286261D01*
X119221760Y-69277249D01*
X119083757Y-69192184D01*
X119070576Y-69186037D01*
X118916290Y-69134862D01*
X118902914Y-69131995D01*
X118808562Y-69122328D01*
X118802145Y-69122000D01*
X118477115Y-69122000D01*
X118461876Y-69126475D01*
X118460671Y-69127865D01*
X118459000Y-69135548D01*
X118459000Y-71107885D01*
X117951000Y-71107885D01*
X117951000Y-69140116D01*
X117946525Y-69124877D01*
X117945135Y-69123672D01*
X117937452Y-69122001D01*
X117607905Y-69122001D01*
X117601386Y-69122338D01*
X117505794Y-69132257D01*
X117492400Y-69135149D01*
X117338216Y-69186588D01*
X117325038Y-69192761D01*
X117187193Y-69278063D01*
X117175792Y-69287099D01*
X117061261Y-69401829D01*
X117052247Y-69413243D01*
X117041260Y-69431067D01*
X116988488Y-69478561D01*
X116918417Y-69489985D01*
X116853293Y-69461711D01*
X116813793Y-69402718D01*
X116808000Y-69364952D01*
X116808000Y-67795801D01*
X116828002Y-67727680D01*
X116881658Y-67681187D01*
X116951932Y-67671083D01*
X117016512Y-67700577D01*
X117041143Y-67729496D01*
X117056522Y-67754348D01*
X117181697Y-67879305D01*
X117187927Y-67883145D01*
X117187928Y-67883146D01*
X117325090Y-67967694D01*
X117332262Y-67972115D01*
X117393981Y-67992586D01*
X117493611Y-68025632D01*
X117493613Y-68025632D01*
X117500139Y-68027797D01*
X117506975Y-68028497D01*
X117506978Y-68028498D01*
X117550031Y-68032909D01*
X117604600Y-68038500D01*
X118805400Y-68038500D01*
X118808646Y-68038163D01*
X118808650Y-68038163D01*
X118904308Y-68028238D01*
X118904312Y-68028237D01*
X118911166Y-68027526D01*
X118917702Y-68025345D01*
X118917704Y-68025345D01*
X119049806Y-67981272D01*
X119078946Y-67971550D01*
X119229348Y-67878478D01*
X119354305Y-67753303D01*
X119398758Y-67681187D01*
X119443275Y-67608968D01*
X119443276Y-67608966D01*
X119447115Y-67602738D01*
X119502797Y-67434861D01*
X119503588Y-67427146D01*
X119503593Y-67427095D01*
X123147001Y-67427095D01*
X123147338Y-67433614D01*
X123157257Y-67529206D01*
X123160149Y-67542600D01*
X123211588Y-67696784D01*
X123217761Y-67709962D01*
X123303063Y-67847807D01*
X123312099Y-67859208D01*
X123426829Y-67973739D01*
X123438240Y-67982751D01*
X123576243Y-68067816D01*
X123589424Y-68073963D01*
X123743710Y-68125138D01*
X123757086Y-68128005D01*
X123851438Y-68137672D01*
X123857854Y-68138000D01*
X124282885Y-68138000D01*
X124298124Y-68133525D01*
X124299329Y-68132135D01*
X124301000Y-68124452D01*
X124301000Y-68119884D01*
X124809000Y-68119884D01*
X124813475Y-68135123D01*
X124814865Y-68136328D01*
X124822548Y-68137999D01*
X125252095Y-68137999D01*
X125258614Y-68137662D01*
X125354206Y-68127743D01*
X125367600Y-68124851D01*
X125521784Y-68073412D01*
X125534962Y-68067239D01*
X125672807Y-67981937D01*
X125684208Y-67972901D01*
X125798739Y-67858171D01*
X125807751Y-67846760D01*
X125892816Y-67708757D01*
X125898963Y-67695576D01*
X125950138Y-67541290D01*
X125953005Y-67527914D01*
X125962672Y-67433562D01*
X125963000Y-67427146D01*
X125963000Y-67239615D01*
X125958525Y-67224376D01*
X125957135Y-67223171D01*
X125949452Y-67221500D01*
X124827115Y-67221500D01*
X124811876Y-67225975D01*
X124810671Y-67227365D01*
X124809000Y-67235048D01*
X124809000Y-68119884D01*
X124301000Y-68119884D01*
X124301000Y-67239615D01*
X124296525Y-67224376D01*
X124295135Y-67223171D01*
X124287452Y-67221500D01*
X123165116Y-67221500D01*
X123149877Y-67225975D01*
X123148672Y-67227365D01*
X123147001Y-67235048D01*
X123147001Y-67427095D01*
X119503593Y-67427095D01*
X119510159Y-67363007D01*
X119513500Y-67330400D01*
X119513500Y-66695385D01*
X123147000Y-66695385D01*
X123151475Y-66710624D01*
X123152865Y-66711829D01*
X123160548Y-66713500D01*
X124282885Y-66713500D01*
X124298124Y-66709025D01*
X124299329Y-66707635D01*
X124301000Y-66699952D01*
X124301000Y-66695385D01*
X124809000Y-66695385D01*
X124813475Y-66710624D01*
X124814865Y-66711829D01*
X124822548Y-66713500D01*
X125944884Y-66713500D01*
X125960123Y-66709025D01*
X125961328Y-66707635D01*
X125962999Y-66699952D01*
X125962999Y-66507905D01*
X125962662Y-66501386D01*
X125952743Y-66405794D01*
X125949851Y-66392400D01*
X125898412Y-66238216D01*
X125892239Y-66225038D01*
X125806937Y-66087193D01*
X125797901Y-66075792D01*
X125683171Y-65961261D01*
X125671760Y-65952249D01*
X125533757Y-65867184D01*
X125520576Y-65861037D01*
X125366290Y-65809862D01*
X125352914Y-65806995D01*
X125258562Y-65797328D01*
X125252145Y-65797000D01*
X124827115Y-65797000D01*
X124811876Y-65801475D01*
X124810671Y-65802865D01*
X124809000Y-65810548D01*
X124809000Y-66695385D01*
X124301000Y-66695385D01*
X124301000Y-65815116D01*
X124296525Y-65799877D01*
X124295135Y-65798672D01*
X124287452Y-65797001D01*
X123857905Y-65797001D01*
X123851386Y-65797338D01*
X123755794Y-65807257D01*
X123742400Y-65810149D01*
X123588216Y-65861588D01*
X123575038Y-65867761D01*
X123437193Y-65953063D01*
X123425792Y-65962099D01*
X123311261Y-66076829D01*
X123302249Y-66088240D01*
X123217184Y-66226243D01*
X123211037Y-66239424D01*
X123159862Y-66393710D01*
X123156995Y-66407086D01*
X123147328Y-66501438D01*
X123147000Y-66507855D01*
X123147000Y-66695385D01*
X119513500Y-66695385D01*
X119513500Y-66664500D01*
X119533502Y-66596379D01*
X119587158Y-66549886D01*
X119639500Y-66538500D01*
X119667930Y-66538500D01*
X119686880Y-66539933D01*
X119701115Y-66542099D01*
X119701119Y-66542099D01*
X119708349Y-66543199D01*
X119715641Y-66542606D01*
X119715644Y-66542606D01*
X119761018Y-66538915D01*
X119771233Y-66538500D01*
X119779293Y-66538500D01*
X119792726Y-66536934D01*
X119807507Y-66535211D01*
X119811882Y-66534778D01*
X119877339Y-66529454D01*
X119877342Y-66529453D01*
X119884637Y-66528860D01*
X119891601Y-66526604D01*
X119897560Y-66525413D01*
X119903415Y-66524029D01*
X119910681Y-66523182D01*
X119979327Y-66498265D01*
X119983455Y-66496848D01*
X120045936Y-66476607D01*
X120045938Y-66476606D01*
X120052899Y-66474351D01*
X120059154Y-66470555D01*
X120064628Y-66468049D01*
X120070058Y-66465330D01*
X120076937Y-66462833D01*
X120137976Y-66422814D01*
X120141680Y-66420477D01*
X120204107Y-66382595D01*
X120212484Y-66375197D01*
X120212508Y-66375224D01*
X120215500Y-66372571D01*
X120218733Y-66369868D01*
X120224852Y-66365856D01*
X120278128Y-66309617D01*
X120280506Y-66307175D01*
X121884776Y-64702905D01*
X121947088Y-64668879D01*
X121973871Y-64666000D01*
X123197119Y-64666000D01*
X123265240Y-64686002D01*
G37*
%TD.AperFunction*%
%TA.AperFunction,Conductor*%
G36*
X126528960Y-60831185D02*
G01*
X126574195Y-60883389D01*
X126611884Y-60964214D01*
X126611887Y-60964219D01*
X126614210Y-60969201D01*
X126617366Y-60973708D01*
X126617367Y-60973710D01*
X126655772Y-61028557D01*
X126743026Y-61153169D01*
X126901831Y-61311974D01*
X126906340Y-61315131D01*
X126906342Y-61315133D01*
X126982575Y-61368512D01*
X127085798Y-61440790D01*
X127090780Y-61443113D01*
X127090785Y-61443116D01*
X127272304Y-61527759D01*
X127289340Y-61535703D01*
X127294648Y-61537125D01*
X127294650Y-61537126D01*
X127500956Y-61592405D01*
X127500958Y-61592405D01*
X127506271Y-61593829D01*
X127730000Y-61613403D01*
X127953729Y-61593829D01*
X127959042Y-61592405D01*
X127959044Y-61592405D01*
X128165350Y-61537126D01*
X128165352Y-61537125D01*
X128170660Y-61535703D01*
X128187696Y-61527759D01*
X128257888Y-61517098D01*
X128322700Y-61546078D01*
X128361557Y-61605498D01*
X128366500Y-61632946D01*
X128366500Y-61634856D01*
X128366995Y-61638772D01*
X128366995Y-61638778D01*
X128367005Y-61638856D01*
X128367938Y-61650693D01*
X128369327Y-61694889D01*
X128374978Y-61714339D01*
X128378987Y-61733700D01*
X128381526Y-61753797D01*
X128384445Y-61761168D01*
X128384445Y-61761170D01*
X128397804Y-61794912D01*
X128401649Y-61806142D01*
X128411090Y-61838638D01*
X128413982Y-61848593D01*
X128418015Y-61855412D01*
X128418017Y-61855417D01*
X128424293Y-61866028D01*
X128432988Y-61883776D01*
X128440448Y-61902617D01*
X128445110Y-61909033D01*
X128445110Y-61909034D01*
X128466436Y-61938387D01*
X128472952Y-61948307D01*
X128489571Y-61976407D01*
X128495458Y-61986362D01*
X128509779Y-62000683D01*
X128522619Y-62015716D01*
X128534528Y-62032107D01*
X128558399Y-62051855D01*
X128568605Y-62060298D01*
X128577384Y-62068288D01*
X128697205Y-62188109D01*
X128731231Y-62250421D01*
X128726166Y-62321236D01*
X128683619Y-62378072D01*
X128617099Y-62402883D01*
X128598225Y-62402816D01*
X128583961Y-62401693D01*
X128583947Y-62401692D01*
X128581502Y-62401500D01*
X128148498Y-62401500D01*
X128146050Y-62401693D01*
X128146042Y-62401693D01*
X128117579Y-62403933D01*
X128117574Y-62403934D01*
X128111169Y-62404438D01*
X128043564Y-62424079D01*
X127959012Y-62448643D01*
X127959010Y-62448644D01*
X127951399Y-62450855D01*
X127944572Y-62454892D01*
X127944573Y-62454892D01*
X127815020Y-62531509D01*
X127815017Y-62531511D01*
X127808193Y-62535547D01*
X127690547Y-62653193D01*
X127686511Y-62660017D01*
X127686509Y-62660020D01*
X127622893Y-62767589D01*
X127605855Y-62796399D01*
X127603644Y-62804010D01*
X127603643Y-62804012D01*
X127596211Y-62829595D01*
X127559438Y-62956169D01*
X127556500Y-62993498D01*
X127556500Y-63854629D01*
X127536498Y-63922750D01*
X127482842Y-63969243D01*
X127412568Y-63979347D01*
X127347988Y-63949853D01*
X127341405Y-63943724D01*
X126816270Y-63418589D01*
X126803884Y-63404177D01*
X126795351Y-63392582D01*
X126795346Y-63392577D01*
X126791008Y-63386682D01*
X126785430Y-63381943D01*
X126785427Y-63381940D01*
X126750732Y-63352465D01*
X126743216Y-63345535D01*
X126737521Y-63339840D01*
X126715303Y-63322262D01*
X126715249Y-63322219D01*
X126711845Y-63319428D01*
X126661797Y-63276909D01*
X126661795Y-63276908D01*
X126656215Y-63272167D01*
X126649699Y-63268839D01*
X126644650Y-63265472D01*
X126639521Y-63262305D01*
X126633784Y-63257766D01*
X126567625Y-63226845D01*
X126563725Y-63224939D01*
X126498692Y-63191731D01*
X126491584Y-63189992D01*
X126485941Y-63187893D01*
X126480178Y-63185976D01*
X126473550Y-63182878D01*
X126444714Y-63176880D01*
X126402088Y-63168014D01*
X126397799Y-63167043D01*
X126326890Y-63149692D01*
X126321288Y-63149344D01*
X126321285Y-63149344D01*
X126315736Y-63149000D01*
X126315738Y-63148964D01*
X126311745Y-63148725D01*
X126307553Y-63148351D01*
X126300385Y-63146860D01*
X126236620Y-63148585D01*
X126222979Y-63148954D01*
X126219572Y-63149000D01*
X125993328Y-63149000D01*
X125925207Y-63128998D01*
X125886184Y-63089303D01*
X125859199Y-63045695D01*
X125803478Y-62955652D01*
X125678303Y-62830695D01*
X125672072Y-62826854D01*
X125533968Y-62741725D01*
X125533966Y-62741724D01*
X125527738Y-62737885D01*
X125367254Y-62684655D01*
X125366389Y-62684368D01*
X125366387Y-62684368D01*
X125359861Y-62682203D01*
X125353025Y-62681503D01*
X125353022Y-62681502D01*
X125309969Y-62677091D01*
X125255400Y-62671500D01*
X123854600Y-62671500D01*
X123851354Y-62671837D01*
X123851350Y-62671837D01*
X123755692Y-62681762D01*
X123755688Y-62681763D01*
X123748834Y-62682474D01*
X123742298Y-62684655D01*
X123742296Y-62684655D01*
X123628658Y-62722568D01*
X123581054Y-62738450D01*
X123430652Y-62831522D01*
X123305695Y-62956697D01*
X123301855Y-62962927D01*
X123301854Y-62962928D01*
X123224070Y-63089116D01*
X123171297Y-63136610D01*
X123116810Y-63149000D01*
X121674570Y-63149000D01*
X121655620Y-63147567D01*
X121641385Y-63145401D01*
X121641381Y-63145401D01*
X121634151Y-63144301D01*
X121626859Y-63144894D01*
X121626856Y-63144894D01*
X121581482Y-63148585D01*
X121571267Y-63149000D01*
X121563207Y-63149000D01*
X121559573Y-63149424D01*
X121559567Y-63149424D01*
X121546542Y-63150943D01*
X121534980Y-63152291D01*
X121530632Y-63152721D01*
X121457864Y-63158640D01*
X121450903Y-63160895D01*
X121444963Y-63162082D01*
X121439088Y-63163471D01*
X121431819Y-63164318D01*
X121363170Y-63189236D01*
X121359042Y-63190653D01*
X121296564Y-63210893D01*
X121296562Y-63210894D01*
X121289601Y-63213149D01*
X121283346Y-63216945D01*
X121277872Y-63219451D01*
X121272442Y-63222170D01*
X121265563Y-63224667D01*
X121259443Y-63228680D01*
X121259442Y-63228680D01*
X121204524Y-63264686D01*
X121200820Y-63267023D01*
X121138393Y-63304905D01*
X121130016Y-63312303D01*
X121129992Y-63312276D01*
X121127000Y-63314929D01*
X121123767Y-63317632D01*
X121117648Y-63321644D01*
X121088451Y-63352465D01*
X121064372Y-63377883D01*
X121061994Y-63380325D01*
X119728595Y-64713724D01*
X119666283Y-64747750D01*
X119595468Y-64742685D01*
X119538632Y-64700138D01*
X119513821Y-64633618D01*
X119513500Y-64624629D01*
X119513500Y-64229600D01*
X119511349Y-64208870D01*
X119503238Y-64130692D01*
X119503237Y-64130688D01*
X119502526Y-64123834D01*
X119495780Y-64103612D01*
X119448868Y-63963002D01*
X119446550Y-63956054D01*
X119353478Y-63805652D01*
X119228303Y-63680695D01*
X119088632Y-63594600D01*
X119083968Y-63591725D01*
X119083966Y-63591724D01*
X119077738Y-63587885D01*
X118917254Y-63534655D01*
X118916389Y-63534368D01*
X118916387Y-63534368D01*
X118909861Y-63532203D01*
X118903025Y-63531503D01*
X118903022Y-63531502D01*
X118859969Y-63527091D01*
X118805400Y-63521500D01*
X117604600Y-63521500D01*
X117601354Y-63521837D01*
X117601350Y-63521837D01*
X117505692Y-63531762D01*
X117505688Y-63531763D01*
X117498834Y-63532474D01*
X117492298Y-63534655D01*
X117492296Y-63534655D01*
X117360194Y-63578728D01*
X117331054Y-63588450D01*
X117180652Y-63681522D01*
X117055695Y-63806697D01*
X117051855Y-63812927D01*
X117051854Y-63812928D01*
X117041260Y-63830115D01*
X116988488Y-63877608D01*
X116918416Y-63889032D01*
X116853293Y-63860758D01*
X116813793Y-63801764D01*
X116808000Y-63763999D01*
X116808000Y-62103000D01*
X105124000Y-62103000D01*
X105124000Y-64896001D01*
X105103998Y-64964122D01*
X105050342Y-65010615D01*
X104998000Y-65022001D01*
X104485331Y-65022001D01*
X104478510Y-65022371D01*
X104427648Y-65027895D01*
X104412396Y-65031521D01*
X104291946Y-65076676D01*
X104276351Y-65085214D01*
X104174276Y-65161715D01*
X104161715Y-65174276D01*
X104085214Y-65276351D01*
X104076676Y-65291946D01*
X104031522Y-65412394D01*
X104027895Y-65427649D01*
X104022369Y-65478514D01*
X104022000Y-65485328D01*
X104022000Y-66007885D01*
X104026475Y-66023124D01*
X104027865Y-66024329D01*
X104035548Y-66026000D01*
X105124000Y-66026000D01*
X105124000Y-66534000D01*
X104040116Y-66534000D01*
X104024877Y-66538475D01*
X104023672Y-66539865D01*
X104022001Y-66547548D01*
X104022001Y-67074669D01*
X104022371Y-67081490D01*
X104027895Y-67132352D01*
X104031521Y-67147604D01*
X104076676Y-67268054D01*
X104085214Y-67283648D01*
X104137953Y-67354018D01*
X104162801Y-67420524D01*
X104147748Y-67489907D01*
X104137953Y-67505148D01*
X104079385Y-67583295D01*
X104028255Y-67719684D01*
X104021500Y-67781866D01*
X104021500Y-69378134D01*
X104021869Y-69381531D01*
X104022185Y-69384440D01*
X104028255Y-69440316D01*
X104079385Y-69576705D01*
X104084770Y-69583890D01*
X104084771Y-69583892D01*
X104137640Y-69654435D01*
X104162488Y-69720942D01*
X104147435Y-69790324D01*
X104137640Y-69805565D01*
X104085626Y-69874967D01*
X104079385Y-69883295D01*
X104076232Y-69891704D01*
X104076231Y-69891707D01*
X104067599Y-69914731D01*
X104024957Y-69971495D01*
X103958395Y-69996194D01*
X103949618Y-69996500D01*
X103778148Y-69996500D01*
X103710027Y-69976498D01*
X103689053Y-69959595D01*
X103250405Y-69520947D01*
X103216379Y-69458635D01*
X103213500Y-69431852D01*
X103213500Y-64796445D01*
X103213673Y-64789850D01*
X103216805Y-64730098D01*
X103216805Y-64730094D01*
X103217150Y-64723507D01*
X103215051Y-64710253D01*
X103213500Y-64690544D01*
X103213500Y-61369500D01*
X103233502Y-61301379D01*
X103287158Y-61254886D01*
X103339500Y-61243500D01*
X103921167Y-61243500D01*
X103989288Y-61263502D01*
X104010262Y-61280405D01*
X104041831Y-61311974D01*
X104046340Y-61315131D01*
X104046342Y-61315133D01*
X104122575Y-61368512D01*
X104225798Y-61440790D01*
X104230780Y-61443113D01*
X104230785Y-61443116D01*
X104412304Y-61527759D01*
X104429340Y-61535703D01*
X104434648Y-61537125D01*
X104434650Y-61537126D01*
X104640956Y-61592405D01*
X104640958Y-61592405D01*
X104646271Y-61593829D01*
X104870000Y-61613403D01*
X105093729Y-61593829D01*
X105099042Y-61592405D01*
X105099044Y-61592405D01*
X105305350Y-61537126D01*
X105305352Y-61537125D01*
X105310660Y-61535703D01*
X105327696Y-61527759D01*
X105509215Y-61443116D01*
X105509220Y-61443113D01*
X105514202Y-61440790D01*
X105617425Y-61368512D01*
X105693658Y-61315133D01*
X105693660Y-61315131D01*
X105698169Y-61311974D01*
X105856974Y-61153169D01*
X105944229Y-61028557D01*
X105982633Y-60973710D01*
X105982634Y-60973708D01*
X105985790Y-60969201D01*
X105988113Y-60964219D01*
X105988116Y-60964214D01*
X106025805Y-60883389D01*
X106072723Y-60830104D01*
X106141000Y-60810643D01*
X106208960Y-60831185D01*
X106254195Y-60883389D01*
X106291884Y-60964214D01*
X106291887Y-60964219D01*
X106294210Y-60969201D01*
X106297366Y-60973708D01*
X106297367Y-60973710D01*
X106335772Y-61028557D01*
X106423026Y-61153169D01*
X106581831Y-61311974D01*
X106586340Y-61315131D01*
X106586342Y-61315133D01*
X106662575Y-61368512D01*
X106765798Y-61440790D01*
X106770780Y-61443113D01*
X106770785Y-61443116D01*
X106952304Y-61527759D01*
X106969340Y-61535703D01*
X106974648Y-61537125D01*
X106974650Y-61537126D01*
X107180956Y-61592405D01*
X107180958Y-61592405D01*
X107186271Y-61593829D01*
X107410000Y-61613403D01*
X107633729Y-61593829D01*
X107639042Y-61592405D01*
X107639044Y-61592405D01*
X107845350Y-61537126D01*
X107845352Y-61537125D01*
X107850660Y-61535703D01*
X107867696Y-61527759D01*
X108049215Y-61443116D01*
X108049220Y-61443113D01*
X108054202Y-61440790D01*
X108157425Y-61368512D01*
X108233658Y-61315133D01*
X108233660Y-61315131D01*
X108238169Y-61311974D01*
X108396974Y-61153169D01*
X108484229Y-61028557D01*
X108522633Y-60973710D01*
X108522634Y-60973708D01*
X108525790Y-60969201D01*
X108528113Y-60964219D01*
X108528116Y-60964214D01*
X108565805Y-60883389D01*
X108612723Y-60830104D01*
X108681000Y-60810643D01*
X108748960Y-60831185D01*
X108794195Y-60883389D01*
X108831884Y-60964214D01*
X108831887Y-60964219D01*
X108834210Y-60969201D01*
X108837366Y-60973708D01*
X108837367Y-60973710D01*
X108875772Y-61028557D01*
X108963026Y-61153169D01*
X109121831Y-61311974D01*
X109126340Y-61315131D01*
X109126342Y-61315133D01*
X109202575Y-61368512D01*
X109305798Y-61440790D01*
X109310780Y-61443113D01*
X109310785Y-61443116D01*
X109492304Y-61527759D01*
X109509340Y-61535703D01*
X109514648Y-61537125D01*
X109514650Y-61537126D01*
X109720956Y-61592405D01*
X109720958Y-61592405D01*
X109726271Y-61593829D01*
X109950000Y-61613403D01*
X110173729Y-61593829D01*
X110179042Y-61592405D01*
X110179044Y-61592405D01*
X110385350Y-61537126D01*
X110385352Y-61537125D01*
X110390660Y-61535703D01*
X110407696Y-61527759D01*
X110589215Y-61443116D01*
X110589220Y-61443113D01*
X110594202Y-61440790D01*
X110697425Y-61368512D01*
X110773658Y-61315133D01*
X110773660Y-61315131D01*
X110778169Y-61311974D01*
X110936974Y-61153169D01*
X111024229Y-61028557D01*
X111062633Y-60973710D01*
X111062634Y-60973708D01*
X111065790Y-60969201D01*
X111068113Y-60964219D01*
X111068116Y-60964214D01*
X111105805Y-60883389D01*
X111152723Y-60830104D01*
X111221000Y-60810643D01*
X111288960Y-60831185D01*
X111334195Y-60883389D01*
X111371884Y-60964214D01*
X111371887Y-60964219D01*
X111374210Y-60969201D01*
X111377366Y-60973708D01*
X111377367Y-60973710D01*
X111415772Y-61028557D01*
X111503026Y-61153169D01*
X111661831Y-61311974D01*
X111666340Y-61315131D01*
X111666342Y-61315133D01*
X111742575Y-61368512D01*
X111845798Y-61440790D01*
X111850780Y-61443113D01*
X111850785Y-61443116D01*
X112032304Y-61527759D01*
X112049340Y-61535703D01*
X112054648Y-61537125D01*
X112054650Y-61537126D01*
X112260956Y-61592405D01*
X112260958Y-61592405D01*
X112266271Y-61593829D01*
X112490000Y-61613403D01*
X112713729Y-61593829D01*
X112719042Y-61592405D01*
X112719044Y-61592405D01*
X112925350Y-61537126D01*
X112925352Y-61537125D01*
X112930660Y-61535703D01*
X112947696Y-61527759D01*
X113129215Y-61443116D01*
X113129220Y-61443113D01*
X113134202Y-61440790D01*
X113237425Y-61368512D01*
X113313658Y-61315133D01*
X113313660Y-61315131D01*
X113318169Y-61311974D01*
X113476974Y-61153169D01*
X113564229Y-61028557D01*
X113602633Y-60973710D01*
X113602634Y-60973708D01*
X113605790Y-60969201D01*
X113608113Y-60964219D01*
X113608116Y-60964214D01*
X113645805Y-60883389D01*
X113692723Y-60830104D01*
X113761000Y-60810643D01*
X113828960Y-60831185D01*
X113874195Y-60883389D01*
X113911884Y-60964214D01*
X113911887Y-60964219D01*
X113914210Y-60969201D01*
X113917366Y-60973708D01*
X113917367Y-60973710D01*
X113955772Y-61028557D01*
X114043026Y-61153169D01*
X114201831Y-61311974D01*
X114206340Y-61315131D01*
X114206342Y-61315133D01*
X114282575Y-61368512D01*
X114385798Y-61440790D01*
X114390780Y-61443113D01*
X114390785Y-61443116D01*
X114572304Y-61527759D01*
X114589340Y-61535703D01*
X114594648Y-61537125D01*
X114594650Y-61537126D01*
X114800956Y-61592405D01*
X114800958Y-61592405D01*
X114806271Y-61593829D01*
X115030000Y-61613403D01*
X115253729Y-61593829D01*
X115259042Y-61592405D01*
X115259044Y-61592405D01*
X115465350Y-61537126D01*
X115465352Y-61537125D01*
X115470660Y-61535703D01*
X115487696Y-61527759D01*
X115669215Y-61443116D01*
X115669220Y-61443113D01*
X115674202Y-61440790D01*
X115777425Y-61368512D01*
X115853658Y-61315133D01*
X115853660Y-61315131D01*
X115858169Y-61311974D01*
X116016974Y-61153169D01*
X116104229Y-61028557D01*
X116142633Y-60973710D01*
X116142634Y-60973708D01*
X116145790Y-60969201D01*
X116148113Y-60964219D01*
X116148116Y-60964214D01*
X116185805Y-60883389D01*
X116232723Y-60830104D01*
X116301000Y-60810643D01*
X116368960Y-60831185D01*
X116414195Y-60883389D01*
X116451884Y-60964214D01*
X116451887Y-60964219D01*
X116454210Y-60969201D01*
X116457366Y-60973708D01*
X116457367Y-60973710D01*
X116495772Y-61028557D01*
X116583026Y-61153169D01*
X116741831Y-61311974D01*
X116746340Y-61315131D01*
X116746342Y-61315133D01*
X116822575Y-61368512D01*
X116925798Y-61440790D01*
X116930780Y-61443113D01*
X116930785Y-61443116D01*
X117112304Y-61527759D01*
X117129340Y-61535703D01*
X117134648Y-61537125D01*
X117134650Y-61537126D01*
X117340956Y-61592405D01*
X117340958Y-61592405D01*
X117346271Y-61593829D01*
X117570000Y-61613403D01*
X117793729Y-61593829D01*
X117799042Y-61592405D01*
X117799044Y-61592405D01*
X118005350Y-61537126D01*
X118005352Y-61537125D01*
X118010660Y-61535703D01*
X118027696Y-61527759D01*
X118209215Y-61443116D01*
X118209220Y-61443113D01*
X118214202Y-61440790D01*
X118317425Y-61368512D01*
X118393658Y-61315133D01*
X118393660Y-61315131D01*
X118398169Y-61311974D01*
X118556974Y-61153169D01*
X118644229Y-61028557D01*
X118682633Y-60973710D01*
X118682634Y-60973708D01*
X118685790Y-60969201D01*
X118688113Y-60964219D01*
X118688116Y-60964214D01*
X118725805Y-60883389D01*
X118772723Y-60830104D01*
X118841000Y-60810643D01*
X118908960Y-60831185D01*
X118954195Y-60883389D01*
X118991884Y-60964214D01*
X118991887Y-60964219D01*
X118994210Y-60969201D01*
X118997366Y-60973708D01*
X118997367Y-60973710D01*
X119035772Y-61028557D01*
X119123026Y-61153169D01*
X119281831Y-61311974D01*
X119286340Y-61315131D01*
X119286342Y-61315133D01*
X119362575Y-61368512D01*
X119465798Y-61440790D01*
X119470780Y-61443113D01*
X119470785Y-61443116D01*
X119652304Y-61527759D01*
X119669340Y-61535703D01*
X119674648Y-61537125D01*
X119674650Y-61537126D01*
X119880956Y-61592405D01*
X119880958Y-61592405D01*
X119886271Y-61593829D01*
X120110000Y-61613403D01*
X120333729Y-61593829D01*
X120339042Y-61592405D01*
X120339044Y-61592405D01*
X120545350Y-61537126D01*
X120545352Y-61537125D01*
X120550660Y-61535703D01*
X120567696Y-61527759D01*
X120749215Y-61443116D01*
X120749220Y-61443113D01*
X120754202Y-61440790D01*
X120857425Y-61368512D01*
X120933658Y-61315133D01*
X120933660Y-61315131D01*
X120938169Y-61311974D01*
X121096974Y-61153169D01*
X121184229Y-61028557D01*
X121222633Y-60973710D01*
X121222634Y-60973708D01*
X121225790Y-60969201D01*
X121228113Y-60964219D01*
X121228116Y-60964214D01*
X121265805Y-60883389D01*
X121312723Y-60830104D01*
X121381000Y-60810643D01*
X121448960Y-60831185D01*
X121494195Y-60883389D01*
X121531884Y-60964214D01*
X121531887Y-60964219D01*
X121534210Y-60969201D01*
X121537366Y-60973708D01*
X121537367Y-60973710D01*
X121575772Y-61028557D01*
X121663026Y-61153169D01*
X121821831Y-61311974D01*
X121826340Y-61315131D01*
X121826342Y-61315133D01*
X121902575Y-61368512D01*
X122005798Y-61440790D01*
X122010780Y-61443113D01*
X122010785Y-61443116D01*
X122192304Y-61527759D01*
X122209340Y-61535703D01*
X122214648Y-61537125D01*
X122214650Y-61537126D01*
X122420956Y-61592405D01*
X122420958Y-61592405D01*
X122426271Y-61593829D01*
X122650000Y-61613403D01*
X122873729Y-61593829D01*
X122879042Y-61592405D01*
X122879044Y-61592405D01*
X123085350Y-61537126D01*
X123085352Y-61537125D01*
X123090660Y-61535703D01*
X123107696Y-61527759D01*
X123289215Y-61443116D01*
X123289220Y-61443113D01*
X123294202Y-61440790D01*
X123397425Y-61368512D01*
X123473658Y-61315133D01*
X123473660Y-61315131D01*
X123478169Y-61311974D01*
X123636974Y-61153169D01*
X123724229Y-61028557D01*
X123762633Y-60973710D01*
X123762634Y-60973708D01*
X123765790Y-60969201D01*
X123768113Y-60964219D01*
X123768116Y-60964214D01*
X123805805Y-60883389D01*
X123852723Y-60830104D01*
X123921000Y-60810643D01*
X123988960Y-60831185D01*
X124034195Y-60883389D01*
X124071884Y-60964214D01*
X124071887Y-60964219D01*
X124074210Y-60969201D01*
X124077366Y-60973708D01*
X124077367Y-60973710D01*
X124115772Y-61028557D01*
X124203026Y-61153169D01*
X124361831Y-61311974D01*
X124366340Y-61315131D01*
X124366342Y-61315133D01*
X124442575Y-61368512D01*
X124545798Y-61440790D01*
X124550780Y-61443113D01*
X124550785Y-61443116D01*
X124732304Y-61527759D01*
X124749340Y-61535703D01*
X124754648Y-61537125D01*
X124754650Y-61537126D01*
X124960956Y-61592405D01*
X124960958Y-61592405D01*
X124966271Y-61593829D01*
X125190000Y-61613403D01*
X125413729Y-61593829D01*
X125419042Y-61592405D01*
X125419044Y-61592405D01*
X125625350Y-61537126D01*
X125625352Y-61537125D01*
X125630660Y-61535703D01*
X125647696Y-61527759D01*
X125829215Y-61443116D01*
X125829220Y-61443113D01*
X125834202Y-61440790D01*
X125937425Y-61368512D01*
X126013658Y-61315133D01*
X126013660Y-61315131D01*
X126018169Y-61311974D01*
X126176974Y-61153169D01*
X126264229Y-61028557D01*
X126302633Y-60973710D01*
X126302634Y-60973708D01*
X126305790Y-60969201D01*
X126308113Y-60964219D01*
X126308116Y-60964214D01*
X126345805Y-60883389D01*
X126392723Y-60830104D01*
X126461000Y-60810643D01*
X126528960Y-60831185D01*
G37*
%TD.AperFunction*%
%TA.AperFunction,Conductor*%
G36*
X181114032Y-57485924D02*
G01*
X181159095Y-57514885D01*
X182126337Y-58482127D01*
X182138112Y-58488557D01*
X182138401Y-58488334D01*
X182204520Y-58462471D01*
X182274124Y-58476461D01*
X182325116Y-58525861D01*
X182341500Y-58587992D01*
X182341500Y-59521319D01*
X182321498Y-59589440D01*
X182267842Y-59635933D01*
X182197568Y-59646037D01*
X182139917Y-59621077D01*
X182125615Y-59628595D01*
X181442022Y-60312188D01*
X181434408Y-60326132D01*
X181434539Y-60327965D01*
X181438790Y-60334580D01*
X182126337Y-61022127D01*
X182138112Y-61028557D01*
X182138401Y-61028334D01*
X182204520Y-61002471D01*
X182274124Y-61016461D01*
X182325116Y-61065861D01*
X182341500Y-61127992D01*
X182341500Y-61280406D01*
X182321498Y-61348527D01*
X182304595Y-61369501D01*
X180844500Y-62829595D01*
X180782188Y-62863621D01*
X180755405Y-62866500D01*
X179093594Y-62866500D01*
X179025473Y-62846498D01*
X178978980Y-62792842D01*
X178968876Y-62722568D01*
X178998370Y-62657988D01*
X179004499Y-62651405D01*
X179497311Y-62158594D01*
X180192253Y-61463652D01*
X180200539Y-61456112D01*
X180207018Y-61452000D01*
X180225789Y-61432011D01*
X180286999Y-61396045D01*
X180357939Y-61398882D01*
X180389910Y-61415050D01*
X180421541Y-61437198D01*
X180431036Y-61442681D01*
X180624530Y-61532908D01*
X180634822Y-61536654D01*
X180841043Y-61591911D01*
X180851838Y-61593814D01*
X181064525Y-61612422D01*
X181075475Y-61612422D01*
X181288162Y-61593814D01*
X181298957Y-61591911D01*
X181505178Y-61536654D01*
X181515470Y-61532908D01*
X181708964Y-61442681D01*
X181718459Y-61437198D01*
X181765099Y-61404540D01*
X181773474Y-61394063D01*
X181766406Y-61380616D01*
X180799885Y-60414095D01*
X180765859Y-60351783D01*
X180770924Y-60280968D01*
X180799885Y-60235905D01*
X181767127Y-59268663D01*
X181773557Y-59256888D01*
X181764261Y-59244873D01*
X181718459Y-59212802D01*
X181708964Y-59207320D01*
X181627205Y-59169195D01*
X181573920Y-59122278D01*
X181554459Y-59054001D01*
X181575001Y-58986041D01*
X181627205Y-58940805D01*
X181708964Y-58902680D01*
X181718459Y-58897198D01*
X181765099Y-58864540D01*
X181773474Y-58854063D01*
X181766406Y-58840616D01*
X180799885Y-57874095D01*
X180765859Y-57811783D01*
X180770924Y-57740968D01*
X180799885Y-57695905D01*
X180980905Y-57514885D01*
X181043217Y-57480859D01*
X181114032Y-57485924D01*
G37*
%TD.AperFunction*%
%TA.AperFunction,Conductor*%
G36*
X129774527Y-54628502D02*
G01*
X129821020Y-54682158D01*
X129831124Y-54752432D01*
X129801630Y-54817012D01*
X129795503Y-54823593D01*
X129190730Y-55428365D01*
X128607747Y-56011348D01*
X128599461Y-56018888D01*
X128592982Y-56023000D01*
X128587557Y-56028777D01*
X128546357Y-56072651D01*
X128543602Y-56075493D01*
X128523865Y-56095230D01*
X128521385Y-56098427D01*
X128513682Y-56107447D01*
X128483414Y-56139679D01*
X128479595Y-56146625D01*
X128479593Y-56146628D01*
X128473652Y-56157434D01*
X128462801Y-56173953D01*
X128450386Y-56189959D01*
X128447241Y-56197228D01*
X128447238Y-56197232D01*
X128432826Y-56230537D01*
X128427609Y-56241187D01*
X128406305Y-56279940D01*
X128404334Y-56287615D01*
X128404334Y-56287616D01*
X128401267Y-56299562D01*
X128394863Y-56318266D01*
X128386819Y-56336855D01*
X128385580Y-56344678D01*
X128385577Y-56344688D01*
X128379901Y-56380524D01*
X128377495Y-56392144D01*
X128366500Y-56434970D01*
X128366500Y-56455224D01*
X128364948Y-56474941D01*
X128363087Y-56486687D01*
X128332671Y-56550839D01*
X128272401Y-56588362D01*
X128201412Y-56587345D01*
X128185391Y-56581166D01*
X128175642Y-56576620D01*
X128175641Y-56576619D01*
X128170660Y-56574297D01*
X128165352Y-56572875D01*
X128165350Y-56572874D01*
X127959044Y-56517595D01*
X127959042Y-56517595D01*
X127953729Y-56516171D01*
X127730000Y-56496597D01*
X127506271Y-56516171D01*
X127500958Y-56517595D01*
X127500956Y-56517595D01*
X127294650Y-56572874D01*
X127294648Y-56572875D01*
X127289340Y-56574297D01*
X127284359Y-56576619D01*
X127284358Y-56576620D01*
X127090786Y-56666884D01*
X127090781Y-56666887D01*
X127085799Y-56669210D01*
X127081292Y-56672366D01*
X127081290Y-56672367D01*
X126906342Y-56794867D01*
X126906339Y-56794869D01*
X126901831Y-56798026D01*
X126743026Y-56956831D01*
X126739869Y-56961339D01*
X126739867Y-56961342D01*
X126638430Y-57106209D01*
X126614210Y-57140799D01*
X126611887Y-57145781D01*
X126611884Y-57145786D01*
X126574195Y-57226611D01*
X126527277Y-57279896D01*
X126459000Y-57299357D01*
X126391040Y-57278815D01*
X126345805Y-57226611D01*
X126308116Y-57145786D01*
X126308113Y-57145781D01*
X126305790Y-57140799D01*
X126281570Y-57106209D01*
X126180133Y-56961342D01*
X126180131Y-56961339D01*
X126176974Y-56956831D01*
X126018169Y-56798026D01*
X126008610Y-56791332D01*
X125921347Y-56730230D01*
X125834202Y-56669210D01*
X125829220Y-56666887D01*
X125829215Y-56666884D01*
X125635642Y-56576620D01*
X125635641Y-56576620D01*
X125630660Y-56574297D01*
X125625352Y-56572875D01*
X125625350Y-56572874D01*
X125419044Y-56517595D01*
X125419042Y-56517595D01*
X125413729Y-56516171D01*
X125190000Y-56496597D01*
X124966271Y-56516171D01*
X124960958Y-56517595D01*
X124960956Y-56517595D01*
X124754650Y-56572874D01*
X124754648Y-56572875D01*
X124749340Y-56574297D01*
X124744359Y-56576619D01*
X124744358Y-56576620D01*
X124550786Y-56666884D01*
X124550781Y-56666887D01*
X124545799Y-56669210D01*
X124541292Y-56672366D01*
X124541290Y-56672367D01*
X124366342Y-56794867D01*
X124366339Y-56794869D01*
X124361831Y-56798026D01*
X124203026Y-56956831D01*
X124199869Y-56961339D01*
X124199867Y-56961342D01*
X124098430Y-57106209D01*
X124074210Y-57140799D01*
X124071887Y-57145781D01*
X124071884Y-57145786D01*
X124034195Y-57226611D01*
X123987277Y-57279896D01*
X123919000Y-57299357D01*
X123851040Y-57278815D01*
X123805805Y-57226611D01*
X123768116Y-57145786D01*
X123768113Y-57145781D01*
X123765790Y-57140799D01*
X123741570Y-57106209D01*
X123640133Y-56961342D01*
X123640131Y-56961339D01*
X123636974Y-56956831D01*
X123478169Y-56798026D01*
X123468610Y-56791332D01*
X123381347Y-56730230D01*
X123294202Y-56669210D01*
X123289220Y-56666887D01*
X123289215Y-56666884D01*
X123095642Y-56576620D01*
X123095641Y-56576620D01*
X123090660Y-56574297D01*
X123085352Y-56572875D01*
X123085350Y-56572874D01*
X122879044Y-56517595D01*
X122879042Y-56517595D01*
X122873729Y-56516171D01*
X122650000Y-56496597D01*
X122426271Y-56516171D01*
X122420958Y-56517595D01*
X122420956Y-56517595D01*
X122214650Y-56572874D01*
X122214648Y-56572875D01*
X122209340Y-56574297D01*
X122204359Y-56576619D01*
X122204358Y-56576620D01*
X122010786Y-56666884D01*
X122010781Y-56666887D01*
X122005799Y-56669210D01*
X122001292Y-56672366D01*
X122001290Y-56672367D01*
X121826342Y-56794867D01*
X121826339Y-56794869D01*
X121821831Y-56798026D01*
X121663026Y-56956831D01*
X121659869Y-56961339D01*
X121659867Y-56961342D01*
X121558430Y-57106209D01*
X121534210Y-57140799D01*
X121531887Y-57145781D01*
X121531884Y-57145786D01*
X121494195Y-57226611D01*
X121447277Y-57279896D01*
X121379000Y-57299357D01*
X121311040Y-57278815D01*
X121265805Y-57226611D01*
X121228116Y-57145786D01*
X121228113Y-57145781D01*
X121225790Y-57140799D01*
X121201570Y-57106209D01*
X121100133Y-56961342D01*
X121100131Y-56961339D01*
X121096974Y-56956831D01*
X120938169Y-56798026D01*
X120928610Y-56791332D01*
X120841347Y-56730230D01*
X120754202Y-56669210D01*
X120749220Y-56666887D01*
X120749215Y-56666884D01*
X120555642Y-56576620D01*
X120555641Y-56576620D01*
X120550660Y-56574297D01*
X120545352Y-56572875D01*
X120545350Y-56572874D01*
X120339044Y-56517595D01*
X120339042Y-56517595D01*
X120333729Y-56516171D01*
X120110000Y-56496597D01*
X119886271Y-56516171D01*
X119880958Y-56517595D01*
X119880956Y-56517595D01*
X119674650Y-56572874D01*
X119674648Y-56572875D01*
X119669340Y-56574297D01*
X119664359Y-56576619D01*
X119664358Y-56576620D01*
X119470786Y-56666884D01*
X119470781Y-56666887D01*
X119465799Y-56669210D01*
X119461292Y-56672366D01*
X119461290Y-56672367D01*
X119286342Y-56794867D01*
X119286339Y-56794869D01*
X119281831Y-56798026D01*
X119123026Y-56956831D01*
X119119869Y-56961339D01*
X119119867Y-56961342D01*
X119018430Y-57106209D01*
X118994210Y-57140799D01*
X118991887Y-57145781D01*
X118991884Y-57145786D01*
X118954195Y-57226611D01*
X118907277Y-57279896D01*
X118839000Y-57299357D01*
X118771040Y-57278815D01*
X118725805Y-57226611D01*
X118688116Y-57145786D01*
X118688113Y-57145781D01*
X118685790Y-57140799D01*
X118661570Y-57106209D01*
X118560133Y-56961342D01*
X118560131Y-56961339D01*
X118556974Y-56956831D01*
X118398169Y-56798026D01*
X118388610Y-56791332D01*
X118301347Y-56730230D01*
X118214202Y-56669210D01*
X118209220Y-56666887D01*
X118209215Y-56666884D01*
X118015642Y-56576620D01*
X118015641Y-56576620D01*
X118010660Y-56574297D01*
X118005352Y-56572875D01*
X118005350Y-56572874D01*
X117799044Y-56517595D01*
X117799042Y-56517595D01*
X117793729Y-56516171D01*
X117570000Y-56496597D01*
X117346271Y-56516171D01*
X117340958Y-56517595D01*
X117340956Y-56517595D01*
X117134650Y-56572874D01*
X117134648Y-56572875D01*
X117129340Y-56574297D01*
X117124359Y-56576619D01*
X117124358Y-56576620D01*
X116930786Y-56666884D01*
X116930781Y-56666887D01*
X116925799Y-56669210D01*
X116921292Y-56672366D01*
X116921290Y-56672367D01*
X116746342Y-56794867D01*
X116746339Y-56794869D01*
X116741831Y-56798026D01*
X116583026Y-56956831D01*
X116579869Y-56961339D01*
X116579867Y-56961342D01*
X116478430Y-57106209D01*
X116454210Y-57140799D01*
X116451887Y-57145781D01*
X116451884Y-57145786D01*
X116414195Y-57226611D01*
X116367277Y-57279896D01*
X116299000Y-57299357D01*
X116231040Y-57278815D01*
X116185805Y-57226611D01*
X116148116Y-57145786D01*
X116148113Y-57145781D01*
X116145790Y-57140799D01*
X116121570Y-57106209D01*
X116020133Y-56961342D01*
X116020131Y-56961339D01*
X116016974Y-56956831D01*
X115858169Y-56798026D01*
X115848610Y-56791332D01*
X115717229Y-56699338D01*
X115672901Y-56643881D01*
X115663500Y-56596125D01*
X115663500Y-55559594D01*
X115683502Y-55491473D01*
X115700405Y-55470499D01*
X116525499Y-54645405D01*
X116587811Y-54611379D01*
X116614594Y-54608500D01*
X129706406Y-54608500D01*
X129774527Y-54628502D01*
G37*
%TD.AperFunction*%
%TA.AperFunction,Conductor*%
G36*
X179553527Y-54628502D02*
G01*
X179574501Y-54645405D01*
X181215557Y-56286462D01*
X181249583Y-56348774D01*
X181244518Y-56419590D01*
X181201971Y-56476425D01*
X181135451Y-56501236D01*
X181115480Y-56501078D01*
X181075475Y-56497578D01*
X181064525Y-56497578D01*
X180851838Y-56516186D01*
X180841043Y-56518089D01*
X180634822Y-56573346D01*
X180624530Y-56577092D01*
X180431037Y-56667319D01*
X180421543Y-56672801D01*
X180389395Y-56695311D01*
X180322121Y-56717998D01*
X180253261Y-56700712D01*
X180236807Y-56689179D01*
X180231404Y-56684709D01*
X180222626Y-56676722D01*
X179668647Y-56122742D01*
X179661113Y-56114463D01*
X179657000Y-56107982D01*
X179607348Y-56061356D01*
X179604507Y-56058602D01*
X179584770Y-56038865D01*
X179581573Y-56036385D01*
X179572551Y-56028680D01*
X179540321Y-55998414D01*
X179533375Y-55994595D01*
X179533372Y-55994593D01*
X179522566Y-55988652D01*
X179506047Y-55977801D01*
X179505583Y-55977441D01*
X179490041Y-55965386D01*
X179482772Y-55962241D01*
X179482768Y-55962238D01*
X179449463Y-55947826D01*
X179438813Y-55942609D01*
X179400060Y-55921305D01*
X179390908Y-55918955D01*
X179380438Y-55916267D01*
X179361734Y-55909863D01*
X179350420Y-55904967D01*
X179350419Y-55904967D01*
X179343145Y-55901819D01*
X179335322Y-55900580D01*
X179335312Y-55900577D01*
X179299476Y-55894901D01*
X179287856Y-55892495D01*
X179252711Y-55883472D01*
X179252710Y-55883472D01*
X179245030Y-55881500D01*
X179224776Y-55881500D01*
X179205065Y-55879949D01*
X179200766Y-55879268D01*
X179185057Y-55876780D01*
X179159351Y-55879210D01*
X179141039Y-55880941D01*
X179129181Y-55881500D01*
X174791793Y-55881500D01*
X174768184Y-55879268D01*
X174767881Y-55879210D01*
X174767877Y-55879210D01*
X174760094Y-55877725D01*
X174704049Y-55881251D01*
X174696138Y-55881500D01*
X174680144Y-55881500D01*
X174664270Y-55883506D01*
X174656410Y-55884248D01*
X174628951Y-55885976D01*
X174608263Y-55887277D01*
X174608262Y-55887277D01*
X174600350Y-55887775D01*
X174592809Y-55890225D01*
X174592513Y-55890321D01*
X174569369Y-55895494D01*
X174569065Y-55895532D01*
X174569060Y-55895533D01*
X174561203Y-55896526D01*
X174553838Y-55899442D01*
X174553834Y-55899443D01*
X174508989Y-55917199D01*
X174501570Y-55919871D01*
X174448125Y-55937236D01*
X174441429Y-55941486D01*
X174441428Y-55941486D01*
X174441169Y-55941650D01*
X174420042Y-55952415D01*
X174419754Y-55952529D01*
X174419749Y-55952532D01*
X174412383Y-55955448D01*
X174405975Y-55960104D01*
X174405969Y-55960107D01*
X174366948Y-55988458D01*
X174360411Y-55992901D01*
X174312982Y-56023000D01*
X174307557Y-56028777D01*
X174307555Y-56028779D01*
X174307341Y-56029007D01*
X174289554Y-56044688D01*
X174289309Y-56044866D01*
X174289307Y-56044868D01*
X174282893Y-56049528D01*
X174277839Y-56055637D01*
X174277838Y-56055638D01*
X174247097Y-56092796D01*
X174241866Y-56098730D01*
X174208842Y-56133898D01*
X174208841Y-56133900D01*
X174203414Y-56139679D01*
X174199594Y-56146628D01*
X174199445Y-56146899D01*
X174186119Y-56166506D01*
X174185921Y-56166746D01*
X174180867Y-56172856D01*
X174177493Y-56180025D01*
X174177491Y-56180029D01*
X174172122Y-56191439D01*
X174147209Y-56226886D01*
X173870439Y-56503656D01*
X173808127Y-56537682D01*
X173748733Y-56536268D01*
X173679044Y-56517595D01*
X173679042Y-56517595D01*
X173673729Y-56516171D01*
X173450000Y-56496597D01*
X173226271Y-56516171D01*
X173220958Y-56517595D01*
X173220956Y-56517595D01*
X173014650Y-56572874D01*
X173014648Y-56572875D01*
X173009340Y-56574297D01*
X173004359Y-56576619D01*
X173004358Y-56576620D01*
X172810786Y-56666884D01*
X172810781Y-56666887D01*
X172805799Y-56669210D01*
X172801292Y-56672366D01*
X172801290Y-56672367D01*
X172626342Y-56794867D01*
X172626339Y-56794869D01*
X172621831Y-56798026D01*
X172463026Y-56956831D01*
X172459869Y-56961339D01*
X172459867Y-56961342D01*
X172358430Y-57106209D01*
X172334210Y-57140799D01*
X172331887Y-57145781D01*
X172331884Y-57145786D01*
X172294195Y-57226611D01*
X172247277Y-57279896D01*
X172179000Y-57299357D01*
X172111040Y-57278815D01*
X172065805Y-57226611D01*
X172028116Y-57145786D01*
X172028113Y-57145781D01*
X172025790Y-57140799D01*
X172001570Y-57106209D01*
X171900133Y-56961342D01*
X171900131Y-56961339D01*
X171896974Y-56956831D01*
X171738169Y-56798026D01*
X171728610Y-56791332D01*
X171641347Y-56730230D01*
X171554202Y-56669210D01*
X171549220Y-56666887D01*
X171549215Y-56666884D01*
X171355642Y-56576620D01*
X171355641Y-56576620D01*
X171350660Y-56574297D01*
X171345352Y-56572875D01*
X171345350Y-56572874D01*
X171139044Y-56517595D01*
X171139042Y-56517595D01*
X171133729Y-56516171D01*
X170910000Y-56496597D01*
X170904525Y-56497076D01*
X170904518Y-56497076D01*
X170903420Y-56497172D01*
X170902942Y-56497076D01*
X170899018Y-56497076D01*
X170899018Y-56496287D01*
X170833816Y-56483181D01*
X170782825Y-56433779D01*
X170766637Y-56364653D01*
X170790392Y-56297748D01*
X170803348Y-56282556D01*
X170895499Y-56190405D01*
X170957811Y-56156379D01*
X170984594Y-56153500D01*
X171005487Y-56153500D01*
X171011939Y-56152128D01*
X171011944Y-56152128D01*
X171098888Y-56133647D01*
X171192288Y-56113794D01*
X171205342Y-56107982D01*
X171360722Y-56038803D01*
X171360724Y-56038802D01*
X171366752Y-56036118D01*
X171376540Y-56029007D01*
X171432350Y-55988458D01*
X171521253Y-55923866D01*
X171541104Y-55901819D01*
X171644621Y-55786852D01*
X171644622Y-55786851D01*
X171649040Y-55781944D01*
X171744527Y-55616556D01*
X171803542Y-55434928D01*
X171823504Y-55245000D01*
X171814285Y-55157289D01*
X171804232Y-55061635D01*
X171804232Y-55061633D01*
X171803542Y-55055072D01*
X171744527Y-54873444D01*
X171739017Y-54863900D01*
X171700681Y-54797500D01*
X171683943Y-54728504D01*
X171707164Y-54661413D01*
X171762971Y-54617526D01*
X171809800Y-54608500D01*
X179485406Y-54608500D01*
X179553527Y-54628502D01*
G37*
%TD.AperFunction*%
%TD*%
%TA.AperFunction,Conductor*%
%TO.N,VCC*%
G36*
X110973476Y-62611233D02*
G01*
X116175650Y-62611460D01*
X116243768Y-62631465D01*
X116290259Y-62685123D01*
X116301643Y-62737499D01*
X116300295Y-67147715D01*
X116298731Y-72264500D01*
X116298226Y-73915388D01*
X116278203Y-73983502D01*
X116224533Y-74029979D01*
X116172223Y-74041349D01*
X110980881Y-74041177D01*
X105757996Y-74041004D01*
X105689876Y-74021000D01*
X105643385Y-73967342D01*
X105632000Y-73915004D01*
X105632000Y-72264500D01*
X105652002Y-72196379D01*
X105705658Y-72149886D01*
X105758000Y-72138500D01*
X106578134Y-72138500D01*
X106640316Y-72131745D01*
X106776705Y-72080615D01*
X106893261Y-71993261D01*
X106980615Y-71876705D01*
X107031745Y-71740316D01*
X107038500Y-71678134D01*
X107038500Y-70524669D01*
X110322001Y-70524669D01*
X110322371Y-70531490D01*
X110327895Y-70582352D01*
X110331521Y-70597604D01*
X110376676Y-70718054D01*
X110385214Y-70733649D01*
X110461715Y-70835724D01*
X110474276Y-70848285D01*
X110576351Y-70924786D01*
X110591946Y-70933324D01*
X110712394Y-70978478D01*
X110727649Y-70982105D01*
X110778514Y-70987631D01*
X110785328Y-70988000D01*
X111557885Y-70988000D01*
X111573124Y-70983525D01*
X111574329Y-70982135D01*
X111576000Y-70974452D01*
X111576000Y-70969884D01*
X112084000Y-70969884D01*
X112088475Y-70985123D01*
X112089865Y-70986328D01*
X112097548Y-70987999D01*
X112874669Y-70987999D01*
X112881490Y-70987629D01*
X112932352Y-70982105D01*
X112947604Y-70978479D01*
X113068054Y-70933324D01*
X113083649Y-70924786D01*
X113185724Y-70848285D01*
X113198285Y-70835724D01*
X113274786Y-70733649D01*
X113283324Y-70718054D01*
X113328478Y-70597606D01*
X113332105Y-70582351D01*
X113337631Y-70531486D01*
X113338000Y-70524672D01*
X113338000Y-68852115D01*
X113333525Y-68836876D01*
X113332135Y-68835671D01*
X113324452Y-68834000D01*
X112102115Y-68834000D01*
X112086876Y-68838475D01*
X112085671Y-68839865D01*
X112084000Y-68847548D01*
X112084000Y-70969884D01*
X111576000Y-70969884D01*
X111576000Y-68852115D01*
X111571525Y-68836876D01*
X111570135Y-68835671D01*
X111562452Y-68834000D01*
X110340116Y-68834000D01*
X110324877Y-68838475D01*
X110323672Y-68839865D01*
X110322001Y-68847548D01*
X110322001Y-70524669D01*
X107038500Y-70524669D01*
X107038500Y-70081866D01*
X107031745Y-70019684D01*
X106980615Y-69883295D01*
X106922047Y-69805148D01*
X106897199Y-69738642D01*
X106912252Y-69669259D01*
X106922047Y-69654018D01*
X106974786Y-69583648D01*
X106983324Y-69568054D01*
X107028478Y-69447606D01*
X107032105Y-69432351D01*
X107037631Y-69381486D01*
X107038000Y-69374672D01*
X107038000Y-68852115D01*
X107033525Y-68836876D01*
X107032135Y-68835671D01*
X107024452Y-68834000D01*
X105632000Y-68834000D01*
X105632000Y-68326000D01*
X107019884Y-68326000D01*
X107035123Y-68321525D01*
X107036328Y-68320135D01*
X107037999Y-68312452D01*
X107037999Y-68307885D01*
X110322000Y-68307885D01*
X110326475Y-68323124D01*
X110327865Y-68324329D01*
X110335548Y-68326000D01*
X111557885Y-68326000D01*
X111573124Y-68321525D01*
X111574329Y-68320135D01*
X111576000Y-68312452D01*
X111576000Y-68307885D01*
X112084000Y-68307885D01*
X112088475Y-68323124D01*
X112089865Y-68324329D01*
X112097548Y-68326000D01*
X113319884Y-68326000D01*
X113335123Y-68321525D01*
X113336328Y-68320135D01*
X113337999Y-68312452D01*
X113337999Y-66635331D01*
X113337629Y-66628510D01*
X113332105Y-66577648D01*
X113328479Y-66562396D01*
X113283324Y-66441946D01*
X113274786Y-66426351D01*
X113198285Y-66324276D01*
X113185724Y-66311715D01*
X113083649Y-66235214D01*
X113068054Y-66226676D01*
X112947606Y-66181522D01*
X112932351Y-66177895D01*
X112881486Y-66172369D01*
X112874672Y-66172000D01*
X112102115Y-66172000D01*
X112086876Y-66176475D01*
X112085671Y-66177865D01*
X112084000Y-66185548D01*
X112084000Y-68307885D01*
X111576000Y-68307885D01*
X111576000Y-66190116D01*
X111571525Y-66174877D01*
X111570135Y-66173672D01*
X111562452Y-66172001D01*
X110785331Y-66172001D01*
X110778510Y-66172371D01*
X110727648Y-66177895D01*
X110712396Y-66181521D01*
X110591946Y-66226676D01*
X110576351Y-66235214D01*
X110474276Y-66311715D01*
X110461715Y-66324276D01*
X110385214Y-66426351D01*
X110376676Y-66441946D01*
X110331522Y-66562394D01*
X110327895Y-66577649D01*
X110322369Y-66628514D01*
X110322000Y-66635328D01*
X110322000Y-68307885D01*
X107037999Y-68307885D01*
X107037999Y-67785331D01*
X107037629Y-67778510D01*
X107032105Y-67727648D01*
X107028479Y-67712396D01*
X106983324Y-67591946D01*
X106974786Y-67576352D01*
X106922047Y-67505982D01*
X106897199Y-67439476D01*
X106912252Y-67370093D01*
X106922047Y-67354852D01*
X106975229Y-67283891D01*
X106980615Y-67276705D01*
X107031745Y-67140316D01*
X107038500Y-67078134D01*
X107038500Y-65481866D01*
X107031745Y-65419684D01*
X106980615Y-65283295D01*
X106893261Y-65166739D01*
X106776705Y-65079385D01*
X106640316Y-65028255D01*
X106578134Y-65021500D01*
X105758000Y-65021500D01*
X105689879Y-65001498D01*
X105643386Y-64947842D01*
X105632000Y-64895500D01*
X105632000Y-62737006D01*
X105652002Y-62668885D01*
X105705658Y-62622392D01*
X105758005Y-62611006D01*
X110973476Y-62611233D01*
G37*
%TD.AperFunction*%
%TD*%
M02*
