%TF.GenerationSoftware,KiCad,Pcbnew,6.0.4-6f826c9f35~116~ubuntu21.10.1*%
%TF.CreationDate,2022-07-15T23:33:15+02:00*%
%TF.ProjectId,qlexternal512kram_MIX,716c6578-7465-4726-9e61-6c3531326b72,0.1*%
%TF.SameCoordinates,Original*%
%TF.FileFunction,Copper,L2,Bot*%
%TF.FilePolarity,Positive*%
%FSLAX46Y46*%
G04 Gerber Fmt 4.6, Leading zero omitted, Abs format (unit mm)*
G04 Created by KiCad (PCBNEW 6.0.4-6f826c9f35~116~ubuntu21.10.1) date 2022-07-15 23:33:15*
%MOMM*%
%LPD*%
G01*
G04 APERTURE LIST*
G04 Aperture macros list*
%AMRoundRect*
0 Rectangle with rounded corners*
0 $1 Rounding radius*
0 $2 $3 $4 $5 $6 $7 $8 $9 X,Y pos of 4 corners*
0 Add a 4 corners polygon primitive as box body*
4,1,4,$2,$3,$4,$5,$6,$7,$8,$9,$2,$3,0*
0 Add four circle primitives for the rounded corners*
1,1,$1+$1,$2,$3*
1,1,$1+$1,$4,$5*
1,1,$1+$1,$6,$7*
1,1,$1+$1,$8,$9*
0 Add four rect primitives between the rounded corners*
20,1,$1+$1,$2,$3,$4,$5,0*
20,1,$1+$1,$4,$5,$6,$7,0*
20,1,$1+$1,$6,$7,$8,$9,0*
20,1,$1+$1,$8,$9,$2,$3,0*%
G04 Aperture macros list end*
%TA.AperFunction,ComponentPad*%
%ADD10RoundRect,0.249999X0.525001X0.525001X-0.525001X0.525001X-0.525001X-0.525001X0.525001X-0.525001X0*%
%TD*%
%TA.AperFunction,ComponentPad*%
%ADD11C,1.550000*%
%TD*%
%TA.AperFunction,ComponentPad*%
%ADD12RoundRect,0.249999X-0.525001X-0.525001X0.525001X-0.525001X0.525001X0.525001X-0.525001X0.525001X0*%
%TD*%
%TA.AperFunction,ComponentPad*%
%ADD13R,1.600000X2.400000*%
%TD*%
%TA.AperFunction,ComponentPad*%
%ADD14O,1.600000X2.400000*%
%TD*%
%TA.AperFunction,ViaPad*%
%ADD15C,0.800000*%
%TD*%
%TA.AperFunction,Conductor*%
%ADD16C,0.750000*%
%TD*%
%TA.AperFunction,Conductor*%
%ADD17C,0.250000*%
%TD*%
G04 APERTURE END LIST*
D10*
%TO.P,J1,a1,Vin*%
%TO.N,+9V*%
X102330000Y-57785000D03*
D11*
%TO.P,J1,a2,-12V*%
%TO.N,/me12v*%
X104870000Y-57785000D03*
%TO.P,J1,a3,+12V*%
%TO.N,/ma12v*%
X107410000Y-57785000D03*
%TO.P,J1,a4,SP0*%
%TO.N,/SP0*%
X109950000Y-57785000D03*
%TO.P,J1,a5,SP1*%
%TO.N,/SP1*%
X112490000Y-57785000D03*
%TO.P,J1,a6,~{DSMC}*%
%TO.N,/DSMC*%
X115030000Y-57785000D03*
%TO.P,J1,a7,SP2*%
%TO.N,/SP2*%
X117570000Y-57785000D03*
%TO.P,J1,a8,~{DBG}*%
%TO.N,/DBG*%
X120110000Y-57785000D03*
%TO.P,J1,a9,A3*%
%TO.N,/A3*%
X122650000Y-57785000D03*
%TO.P,J1,a10,A4*%
%TO.N,/A4*%
X125190000Y-57785000D03*
%TO.P,J1,a11,A5*%
%TO.N,/A5*%
X127730000Y-57785000D03*
%TO.P,J1,a12,A6*%
%TO.N,/A6*%
X130270000Y-57785000D03*
%TO.P,J1,a13,A7*%
%TO.N,/A7*%
X132810000Y-57785000D03*
%TO.P,J1,a14,A8*%
%TO.N,/A8*%
X135350000Y-57785000D03*
%TO.P,J1,a15,A9*%
%TO.N,/A9*%
X137890000Y-57785000D03*
%TO.P,J1,a16,A10*%
%TO.N,/A10*%
X140430000Y-57785000D03*
%TO.P,J1,a17,A11*%
%TO.N,/A11*%
X142970000Y-57785000D03*
%TO.P,J1,a18,A12*%
%TO.N,/A12*%
X145510000Y-57785000D03*
%TO.P,J1,a19,A13*%
%TO.N,/A13*%
X148050000Y-57785000D03*
%TO.P,J1,a20,A14*%
%TO.N,/A14*%
X150590000Y-57785000D03*
%TO.P,J1,a21,RED*%
%TO.N,/RED*%
X153130000Y-57785000D03*
%TO.P,J1,a22,CLKCPU*%
%TO.N,/CLKCPU*%
X155670000Y-57785000D03*
%TO.P,J1,a23,A16*%
%TO.N,/A16*%
X158210000Y-57785000D03*
%TO.P,J1,a24,A17*%
%TO.N,/A17*%
X160750000Y-57785000D03*
%TO.P,J1,a25,A18*%
%TO.N,/A18*%
X163290000Y-57785000D03*
%TO.P,J1,a26,A19*%
%TO.N,/A19*%
X165830000Y-57785000D03*
%TO.P,J1,a27,D7*%
%TO.N,/D7*%
X168370000Y-57785000D03*
%TO.P,J1,a28,D6*%
%TO.N,/D6*%
X170910000Y-57785000D03*
%TO.P,J1,a29,D5*%
%TO.N,/D5*%
X173450000Y-57785000D03*
%TO.P,J1,a30,D4*%
%TO.N,/D4*%
X175990000Y-57785000D03*
%TO.P,J1,a31,D3*%
%TO.N,/D3*%
X178530000Y-57785000D03*
%TO.P,J1,a32,GND*%
%TO.N,GND*%
X181070000Y-57785000D03*
%TO.P,J1,b1,Vin*%
%TO.N,+9V*%
X102330000Y-60325000D03*
%TO.P,J1,b2,Vin*%
X104870000Y-60325000D03*
%TO.P,J1,b3,~{EXTINT}*%
%TO.N,/EXTINT*%
X107410000Y-60325000D03*
%TO.P,J1,b4,~{IPL1}*%
%TO.N,/IPL1*%
X109950000Y-60325000D03*
%TO.P,J1,b5,~{BERR}*%
%TO.N,/BERR*%
X112490000Y-60325000D03*
%TO.P,J1,b6,~{IPLO}*%
%TO.N,/IPL0*%
X115030000Y-60325000D03*
%TO.P,J1,b7,SP3*%
%TO.N,/SP3*%
X117570000Y-60325000D03*
%TO.P,J1,b8,A2*%
%TO.N,/A2*%
X120110000Y-60325000D03*
%TO.P,J1,b9,G9*%
%TO.N,/A1*%
X122650000Y-60325000D03*
%TO.P,J1,b10,ROMOEH*%
%TO.N,/ROMOE*%
X125190000Y-60325000D03*
%TO.P,J1,b11,A0*%
%TO.N,/A0*%
X127730000Y-60325000D03*
%TO.P,J1,b12,FC0*%
%TO.N,/FC0*%
X130270000Y-60325000D03*
%TO.P,J1,b13,FC1*%
%TO.N,/FC1*%
X132810000Y-60325000D03*
%TO.P,J1,b14,FC2*%
%TO.N,/FC2*%
X135350000Y-60325000D03*
%TO.P,J1,b15,BLUE*%
%TO.N,/BLUE*%
X137890000Y-60325000D03*
%TO.P,J1,b16,GREEN*%
%TO.N,/GREEN*%
X140430000Y-60325000D03*
%TO.P,J1,b17,~{VPA}*%
%TO.N,/VPA*%
X142970000Y-60325000D03*
%TO.P,J1,b18,VSYNCH*%
%TO.N,/VSYNC*%
X145510000Y-60325000D03*
%TO.P,J1,b19,E*%
%TO.N,/E*%
X148050000Y-60325000D03*
%TO.P,J1,b20,~{CSYNC}*%
%TO.N,/CSYNC*%
X150590000Y-60325000D03*
%TO.P,J1,b21,~{RESETCPU}*%
%TO.N,/RESET*%
X153130000Y-60325000D03*
%TO.P,J1,b22,A15*%
%TO.N,/A15*%
X155670000Y-60325000D03*
%TO.P,J1,b23,~{BR}*%
%TO.N,/BR*%
X158210000Y-60325000D03*
%TO.P,J1,b24,~{BG}*%
%TO.N,/BG*%
X160750000Y-60325000D03*
%TO.P,J1,b25,~{DTACK}*%
%TO.N,/DTACK*%
X163290000Y-60325000D03*
%TO.P,J1,b26,~{DRW}*%
%TO.N,/RW*%
X165830000Y-60325000D03*
%TO.P,J1,b27,~{DS}*%
%TO.N,/DS*%
X168370000Y-60325000D03*
%TO.P,J1,b28,~{AS}*%
%TO.N,/AS*%
X170910000Y-60325000D03*
%TO.P,J1,b29,D0*%
%TO.N,/D0*%
X173450000Y-60325000D03*
%TO.P,J1,b30,D1*%
%TO.N,/D1*%
X175990000Y-60325000D03*
%TO.P,J1,b31,D2*%
%TO.N,/D2*%
X178530000Y-60325000D03*
%TO.P,J1,b32,GND*%
%TO.N,GND*%
X181070000Y-60325000D03*
%TD*%
%TO.P,J2,a1,Vin*%
%TO.N,+9V*%
X102330000Y-83185000D03*
%TO.P,J2,a2,-12V*%
%TO.N,/me12v*%
X104870000Y-83185000D03*
%TO.P,J2,a3,+12V*%
%TO.N,/ma12v*%
X107410000Y-83185000D03*
%TO.P,J2,a4,SP0*%
%TO.N,/SP0*%
X109950000Y-83185000D03*
%TO.P,J2,a5,SP1*%
%TO.N,/SP1*%
X112490000Y-83185000D03*
%TO.P,J2,a6,~{DSMC}*%
%TO.N,/DSMC*%
X115030000Y-83185000D03*
%TO.P,J2,a7,SP2*%
%TO.N,/SP2*%
X117570000Y-83185000D03*
%TO.P,J2,a8,~{DBG}*%
%TO.N,/DBG*%
X120110000Y-83185000D03*
%TO.P,J2,a9,A3*%
%TO.N,/A3*%
X122650000Y-83185000D03*
%TO.P,J2,a10,A4*%
%TO.N,/A4*%
X125190000Y-83185000D03*
%TO.P,J2,a11,A5*%
%TO.N,/A5*%
X127730000Y-83185000D03*
%TO.P,J2,a12,A6*%
%TO.N,/A6*%
X130270000Y-83185000D03*
%TO.P,J2,a13,A7*%
%TO.N,/A7*%
X132810000Y-83185000D03*
%TO.P,J2,a14,A8*%
%TO.N,/A8*%
X135350000Y-83185000D03*
%TO.P,J2,a15,A9*%
%TO.N,/A9*%
X137890000Y-83185000D03*
%TO.P,J2,a16,A10*%
%TO.N,/A10*%
X140430000Y-83185000D03*
%TO.P,J2,a17,A11*%
%TO.N,/A11*%
X142970000Y-83185000D03*
%TO.P,J2,a18,A12*%
%TO.N,/A12*%
X145510000Y-83185000D03*
%TO.P,J2,a19,A13*%
%TO.N,/A13*%
X148050000Y-83185000D03*
%TO.P,J2,a20,A14*%
%TO.N,/A14*%
X150590000Y-83185000D03*
%TO.P,J2,a21,RED*%
%TO.N,/RED*%
X153130000Y-83185000D03*
%TO.P,J2,a22,CLKCPU*%
%TO.N,/CLKCPU*%
X155670000Y-83185000D03*
%TO.P,J2,a23,A16*%
%TO.N,/A16*%
X158210000Y-83185000D03*
%TO.P,J2,a24,A17*%
%TO.N,/A17*%
X160750000Y-83185000D03*
%TO.P,J2,a25,A18*%
%TO.N,/A18*%
X163290000Y-83185000D03*
%TO.P,J2,a26,A19*%
%TO.N,/A19*%
X165830000Y-83185000D03*
%TO.P,J2,a27,D7*%
%TO.N,/D7*%
X168370000Y-83185000D03*
%TO.P,J2,a28,D6*%
%TO.N,/D6*%
X170910000Y-83185000D03*
%TO.P,J2,a29,D5*%
%TO.N,/D5*%
X173450000Y-83185000D03*
%TO.P,J2,a30,D4*%
%TO.N,/D4*%
X175990000Y-83185000D03*
%TO.P,J2,a31,D3*%
%TO.N,/D3*%
X178530000Y-83185000D03*
D12*
%TO.P,J2,a32,GND*%
%TO.N,GND*%
X181070000Y-83185000D03*
D11*
%TO.P,J2,b1,Vin*%
%TO.N,+9V*%
X102330000Y-80645000D03*
%TO.P,J2,b2,Vin*%
X104870000Y-80645000D03*
%TO.P,J2,b3,~{EXTINT}*%
%TO.N,/EXTINT*%
X107410000Y-80645000D03*
%TO.P,J2,b4,~{IPL1}*%
%TO.N,/IPL1*%
X109950000Y-80645000D03*
%TO.P,J2,b5,~{BERR}*%
%TO.N,/BERR*%
X112490000Y-80645000D03*
%TO.P,J2,b6,~{IPLO}*%
%TO.N,/IPL0*%
X115030000Y-80645000D03*
%TO.P,J2,b7,SP3*%
%TO.N,/SP3*%
X117570000Y-80645000D03*
%TO.P,J2,b8,A2*%
%TO.N,/A2*%
X120110000Y-80645000D03*
%TO.P,J2,b9,G9*%
%TO.N,/A1*%
X122650000Y-80645000D03*
%TO.P,J2,b10,ROMOEH*%
%TO.N,/ROMOE*%
X125190000Y-80645000D03*
%TO.P,J2,b11,A0*%
%TO.N,/A0*%
X127730000Y-80645000D03*
%TO.P,J2,b12,FC0*%
%TO.N,/FC0*%
X130270000Y-80645000D03*
%TO.P,J2,b13,FC1*%
%TO.N,/FC1*%
X132810000Y-80645000D03*
%TO.P,J2,b14,FC2*%
%TO.N,/FC2*%
X135350000Y-80645000D03*
%TO.P,J2,b15,BLUE*%
%TO.N,/BLUE*%
X137890000Y-80645000D03*
%TO.P,J2,b16,GREEN*%
%TO.N,/GREEN*%
X140430000Y-80645000D03*
%TO.P,J2,b17,~{VPA}*%
%TO.N,/VPA*%
X142970000Y-80645000D03*
%TO.P,J2,b18,VSYNCH*%
%TO.N,/VSYNC*%
X145510000Y-80645000D03*
%TO.P,J2,b19,E*%
%TO.N,/E*%
X148050000Y-80645000D03*
%TO.P,J2,b20,~{CSYNC}*%
%TO.N,/CSYNC*%
X150590000Y-80645000D03*
%TO.P,J2,b21,~{RESETCPU}*%
%TO.N,/RESET*%
X153130000Y-80645000D03*
%TO.P,J2,b22,A15*%
%TO.N,/A15*%
X155670000Y-80645000D03*
%TO.P,J2,b23,~{BR}*%
%TO.N,/BR*%
X158210000Y-80645000D03*
%TO.P,J2,b24,~{BG}*%
%TO.N,/BG*%
X160750000Y-80645000D03*
%TO.P,J2,b25,~{DTACK}*%
%TO.N,/DTACK*%
X163290000Y-80645000D03*
%TO.P,J2,b26,~{DRW}*%
%TO.N,/RW*%
X165830000Y-80645000D03*
%TO.P,J2,b27,~{DS}*%
%TO.N,/DS*%
X168370000Y-80645000D03*
%TO.P,J2,b28,~{AS}*%
%TO.N,/AS*%
X170910000Y-80645000D03*
%TO.P,J2,b29,D0*%
%TO.N,/D0*%
X173450000Y-80645000D03*
%TO.P,J2,b30,D1*%
%TO.N,/D1*%
X175990000Y-80645000D03*
%TO.P,J2,b31,D2*%
%TO.N,/D2*%
X178530000Y-80645000D03*
%TO.P,J2,b32,GND*%
%TO.N,GND*%
X181070000Y-80645000D03*
%TD*%
D13*
%TO.P,U2,1,I1/CLK*%
%TO.N,/DS*%
X158215000Y-74310000D03*
D14*
%TO.P,U2,2,I2*%
%TO.N,/A17*%
X160755000Y-74310000D03*
%TO.P,U2,3,I3*%
%TO.N,/A16*%
X163295000Y-74310000D03*
%TO.P,U2,4,I4*%
%TO.N,unconnected-(U2-Pad4)*%
X165835000Y-74310000D03*
%TO.P,U2,5,I5*%
%TO.N,unconnected-(U2-Pad5)*%
X168375000Y-74310000D03*
%TO.P,U2,6,I6*%
%TO.N,/AS*%
X170915000Y-74310000D03*
%TO.P,U2,7,I7*%
%TO.N,Net-(JP1-Pad2)*%
X173455000Y-74310000D03*
%TO.P,U2,8,I8*%
%TO.N,Net-(JP2-Pad2)*%
X175995000Y-74310000D03*
%TO.P,U2,9,I9*%
%TO.N,/A19*%
X178535000Y-74310000D03*
%TO.P,U2,10,GND*%
%TO.N,GND*%
X181075000Y-74310000D03*
%TO.P,U2,11,I10/~{OE}*%
%TO.N,/A18*%
X181075000Y-66690000D03*
%TO.P,U2,12,IO8*%
%TO.N,unconnected-(U2-Pad12)*%
X178535000Y-66690000D03*
%TO.P,U2,13,IO7*%
%TO.N,unconnected-(U2-Pad13)*%
X175995000Y-66690000D03*
%TO.P,U2,14,IO6*%
%TO.N,/DTACK*%
X173455000Y-66690000D03*
%TO.P,U2,15,IO5*%
%TO.N,unconnected-(U2-Pad15)*%
X170915000Y-66690000D03*
%TO.P,U2,16,IO4*%
%TO.N,/DSMC*%
X168375000Y-66690000D03*
%TO.P,U2,17,I03*%
%TO.N,unconnected-(U2-Pad17)*%
X165835000Y-66690000D03*
%TO.P,U2,18,IO2*%
%TO.N,/RAM_OE*%
X163295000Y-66690000D03*
%TO.P,U2,19,IO1*%
%TO.N,/RAM_CE*%
X160755000Y-66690000D03*
%TO.P,U2,20,VCC*%
%TO.N,VCC*%
X158215000Y-66690000D03*
%TD*%
D15*
%TO.N,/A4*%
X123920000Y-72390000D03*
%TO.N,/A5*%
X126460000Y-73025000D03*
%TO.N,/A6*%
X129000000Y-74295000D03*
%TO.N,/A7*%
X131540000Y-75390400D03*
%TO.N,/A8*%
X134625500Y-65913000D03*
%TO.N,/A10*%
X139705500Y-65913000D03*
%TO.N,/D7*%
X170275000Y-86360000D03*
X170910000Y-55245000D03*
%TO.N,/A17*%
X157575000Y-76200000D03*
%TO.N,/A18*%
X163876200Y-69187500D03*
%TO.N,/DS*%
X166465000Y-72390000D03*
%TO.N,/AS*%
X172053400Y-64643000D03*
%TO.N,/DTACK*%
X163863300Y-64664400D03*
%TD*%
D16*
%TO.N,GND*%
X181075000Y-80640000D02*
X181070000Y-80645000D01*
X181075000Y-74310000D02*
X181075000Y-72534700D01*
X181070000Y-80645000D02*
X181070000Y-83185000D01*
X182450500Y-61740500D02*
X181070000Y-60360000D01*
X181075000Y-74310000D02*
X181075000Y-80640000D01*
X182450500Y-71159200D02*
X182450500Y-61740500D01*
X181075000Y-72534700D02*
X182450500Y-71159200D01*
D17*
%TO.N,/A3*%
X121380000Y-81915000D02*
X122650000Y-83185000D01*
X121380000Y-59090000D02*
X121380000Y-81915000D01*
X122650000Y-57820000D02*
X121380000Y-59090000D01*
%TO.N,/A4*%
X123920000Y-72390000D02*
X123920000Y-59090000D01*
X123920000Y-72390000D02*
X123920000Y-81915000D01*
X123920000Y-81915000D02*
X125190000Y-83185000D01*
X123920000Y-59090000D02*
X125190000Y-57820000D01*
%TO.N,/A5*%
X126460000Y-59090000D02*
X127730000Y-57820000D01*
X126460000Y-81915000D02*
X127730000Y-83185000D01*
X126460000Y-81915000D02*
X126460000Y-59090000D01*
%TO.N,/A6*%
X129000000Y-81915000D02*
X130270000Y-83185000D01*
X129000000Y-59090000D02*
X130270000Y-57820000D01*
X129000000Y-74295000D02*
X129000000Y-59090000D01*
X129000000Y-74295000D02*
X129000000Y-81915000D01*
%TO.N,/A7*%
X131540000Y-75390400D02*
X131540000Y-81915000D01*
X131540000Y-81915000D02*
X132810000Y-83185000D01*
X131540000Y-75390400D02*
X131540000Y-59090000D01*
X131540000Y-59090000D02*
X132810000Y-57820000D01*
%TO.N,/A8*%
X135350000Y-83185000D02*
X134080000Y-81915000D01*
X134080000Y-81915000D02*
X134080000Y-65579000D01*
X134080000Y-59090000D02*
X134080000Y-65579000D01*
X135350000Y-57820000D02*
X134080000Y-59090000D01*
X134625500Y-65913000D02*
X134414000Y-65913000D01*
X134414000Y-65913000D02*
X134080000Y-65579000D01*
%TO.N,/A9*%
X136620000Y-81915000D02*
X136620000Y-59090000D01*
X136620000Y-59090000D02*
X137890000Y-57820000D01*
X137890000Y-83185000D02*
X136620000Y-81915000D01*
%TO.N,/A10*%
X139160000Y-59055000D02*
X139160000Y-81915000D01*
X140430000Y-57820000D02*
X139195000Y-59055000D01*
X139195000Y-59055000D02*
X139160000Y-59055000D01*
X139705500Y-65913000D02*
X139541000Y-65913000D01*
X139541000Y-65913000D02*
X139160000Y-65532000D01*
X139160000Y-81915000D02*
X140430000Y-83185000D01*
%TO.N,/A11*%
X141700000Y-59090000D02*
X142970000Y-57820000D01*
X142970000Y-83185000D02*
X141700000Y-81915000D01*
X141700000Y-81915000D02*
X141700000Y-59090000D01*
%TO.N,/A12*%
X144240000Y-59090000D02*
X145510000Y-57820000D01*
X144240000Y-81915000D02*
X144240000Y-59090000D01*
X145510000Y-83185000D02*
X144240000Y-81915000D01*
%TO.N,/D7*%
X185515000Y-82550000D02*
X181705000Y-86360000D01*
X185515000Y-57785000D02*
X185515000Y-82550000D01*
X170910000Y-55245000D02*
X182975000Y-55245000D01*
X181705000Y-86360000D02*
X170275000Y-86360000D01*
X182975000Y-55245000D02*
X185515000Y-57785000D01*
%TO.N,/D6*%
X169640000Y-59090000D02*
X169640000Y-81915000D01*
X169640000Y-81915000D02*
X170910000Y-83185000D01*
X170910000Y-57820000D02*
X169640000Y-59090000D01*
%TO.N,/D5*%
X175990000Y-85725000D02*
X173450000Y-83185000D01*
X181704282Y-85725000D02*
X175990000Y-85725000D01*
X184880000Y-82549282D02*
X181704282Y-85725000D01*
X175390000Y-55880000D02*
X182340000Y-55880000D01*
X184880000Y-58420000D02*
X182340000Y-55880000D01*
X184880000Y-58420000D02*
X184880000Y-82549282D01*
X173450000Y-57820000D02*
X175390000Y-55880000D01*
%TO.N,/D4*%
X181705000Y-56515000D02*
X177295000Y-56515000D01*
X184245000Y-82548564D02*
X184245000Y-59055000D01*
X175990000Y-83185000D02*
X177895000Y-85090000D01*
X184245000Y-59055000D02*
X181705000Y-56515000D01*
X181703564Y-85090000D02*
X184245000Y-82548564D01*
X177895000Y-85090000D02*
X181703564Y-85090000D01*
X177295000Y-56515000D02*
X175990000Y-57820000D01*
%TO.N,/D3*%
X179800000Y-84455000D02*
X181702846Y-84455000D01*
X179765000Y-59055000D02*
X178530000Y-57820000D01*
X183610000Y-82547846D02*
X183610000Y-60960000D01*
X181702846Y-84455000D02*
X183610000Y-82547846D01*
X181705000Y-59055000D02*
X179765000Y-59055000D01*
X183610000Y-60960000D02*
X181705000Y-59055000D01*
X178530000Y-83185000D02*
X179800000Y-84455000D01*
%TO.N,/A2*%
X120810000Y-64315000D02*
X120810000Y-64365000D01*
X119760000Y-63965000D02*
X120460000Y-63965000D01*
X119760000Y-65465000D02*
X120460000Y-65465000D01*
X120110000Y-60360000D02*
X120110000Y-62865000D01*
X119410000Y-66565000D02*
X119410000Y-66615000D01*
X119760000Y-66965000D02*
X120460000Y-66965000D01*
X120810000Y-67315000D02*
X120810000Y-67365000D01*
X119760000Y-64715000D02*
X120460000Y-64715000D01*
X120110000Y-68065000D02*
X120110000Y-80645000D01*
X119410000Y-63565000D02*
X119410000Y-63615000D01*
X119410000Y-65065000D02*
X119410000Y-65115000D01*
X120810000Y-65815000D02*
X120810000Y-65865000D01*
X119760000Y-66215000D02*
X120460000Y-66215000D01*
X119410000Y-66565000D02*
G75*
G02*
X119760000Y-66215000I350000J0D01*
G01*
X119410000Y-65065000D02*
G75*
G02*
X119760000Y-64715000I350000J0D01*
G01*
X120810000Y-65815000D02*
G75*
G03*
X120460000Y-65465000I-350000J0D01*
G01*
X119760000Y-63965000D02*
G75*
G02*
X119410000Y-63615000I0J350000D01*
G01*
X119760000Y-65465000D02*
G75*
G02*
X119410000Y-65115000I0J350000D01*
G01*
X120110000Y-68065000D02*
G75*
G02*
X120460000Y-67715000I350000J0D01*
G01*
X120810000Y-67315000D02*
G75*
G03*
X120460000Y-66965000I-350000J0D01*
G01*
X120460000Y-67715000D02*
G75*
G03*
X120810000Y-67365000I0J350000D01*
G01*
X120460000Y-66215000D02*
G75*
G03*
X120810000Y-65865000I0J350000D01*
G01*
X119760000Y-63215000D02*
G75*
G03*
X120110000Y-62865000I0J350000D01*
G01*
X119760000Y-66965000D02*
G75*
G02*
X119410000Y-66615000I0J350000D01*
G01*
X120460000Y-64715000D02*
G75*
G03*
X120810000Y-64365000I0J350000D01*
G01*
X120810000Y-64315000D02*
G75*
G03*
X120460000Y-63965000I-350000J0D01*
G01*
X119410000Y-63565000D02*
G75*
G02*
X119760000Y-63215000I350000J0D01*
G01*
%TO.N,/A1*%
X123350000Y-64315000D02*
X123350000Y-64365000D01*
X123350000Y-67315000D02*
X123350000Y-67365000D01*
X122650000Y-68065000D02*
X122650000Y-80645000D01*
X123350000Y-65815000D02*
X123350000Y-65865000D01*
X122300000Y-63965000D02*
X123000000Y-63965000D01*
X121950000Y-66565000D02*
X121950000Y-66615000D01*
X122300000Y-65465000D02*
X123000000Y-65465000D01*
X122300000Y-66215000D02*
X123000000Y-66215000D01*
X122650000Y-60360000D02*
X122650000Y-62865000D01*
X122300000Y-64715000D02*
X123000000Y-64715000D01*
X122300000Y-66965000D02*
X123000000Y-66965000D01*
X121950000Y-65065000D02*
X121950000Y-65115000D01*
X121950000Y-63565000D02*
X121950000Y-63615000D01*
X122300000Y-63215000D02*
G75*
G03*
X122650000Y-62865000I0J350000D01*
G01*
X121950000Y-65065000D02*
G75*
G02*
X122300000Y-64715000I350000J0D01*
G01*
X123000000Y-64715000D02*
G75*
G03*
X123350000Y-64365000I0J350000D01*
G01*
X122300000Y-65465000D02*
G75*
G02*
X121950000Y-65115000I0J350000D01*
G01*
X123000000Y-67715000D02*
G75*
G03*
X123350000Y-67365000I0J350000D01*
G01*
X123350000Y-64315000D02*
G75*
G03*
X123000000Y-63965000I-350000J0D01*
G01*
X122300000Y-66965000D02*
G75*
G02*
X121950000Y-66615000I0J350000D01*
G01*
X122300000Y-63965000D02*
G75*
G02*
X121950000Y-63615000I0J350000D01*
G01*
X123000000Y-66215000D02*
G75*
G03*
X123350000Y-65865000I0J350000D01*
G01*
X123350000Y-67315000D02*
G75*
G03*
X123000000Y-66965000I-350000J0D01*
G01*
X122650000Y-68065000D02*
G75*
G02*
X123000000Y-67715000I350000J0D01*
G01*
X123350000Y-65815000D02*
G75*
G03*
X123000000Y-65465000I-350000J0D01*
G01*
X121950000Y-63565000D02*
G75*
G02*
X122300000Y-63215000I350000J0D01*
G01*
X121950000Y-66565000D02*
G75*
G02*
X122300000Y-66215000I350000J0D01*
G01*
%TO.N,/A0*%
X127380000Y-64715000D02*
X128080000Y-64715000D01*
X127030000Y-63565000D02*
X127030000Y-63615000D01*
X127730000Y-68065000D02*
X127730000Y-80645000D01*
X128430000Y-65815000D02*
X128430000Y-65865000D01*
X127380000Y-65465000D02*
X128080000Y-65465000D01*
X128430000Y-64315000D02*
X128430000Y-64365000D01*
X128430000Y-67315000D02*
X128430000Y-67365000D01*
X127730000Y-60360000D02*
X127730000Y-62865000D01*
X127380000Y-66215000D02*
X128080000Y-66215000D01*
X127380000Y-63965000D02*
X128080000Y-63965000D01*
X127030000Y-65065000D02*
X127030000Y-65115000D01*
X127380000Y-66965000D02*
X128080000Y-66965000D01*
X127030000Y-66565000D02*
X127030000Y-66615000D01*
X128080000Y-66215000D02*
G75*
G03*
X128430000Y-65865000I0J350000D01*
G01*
X127730000Y-68065000D02*
G75*
G02*
X128080000Y-67715000I350000J0D01*
G01*
X128080000Y-67715000D02*
G75*
G03*
X128430000Y-67365000I0J350000D01*
G01*
X128430000Y-65815000D02*
G75*
G03*
X128080000Y-65465000I-350000J0D01*
G01*
X127030000Y-63565000D02*
G75*
G02*
X127380000Y-63215000I350000J0D01*
G01*
X127380000Y-66965000D02*
G75*
G02*
X127030000Y-66615000I0J350000D01*
G01*
X128430000Y-64315000D02*
G75*
G03*
X128080000Y-63965000I-350000J0D01*
G01*
X127380000Y-65465000D02*
G75*
G02*
X127030000Y-65115000I0J350000D01*
G01*
X127030000Y-66565000D02*
G75*
G02*
X127380000Y-66215000I350000J0D01*
G01*
X128080000Y-64715000D02*
G75*
G03*
X128430000Y-64365000I0J350000D01*
G01*
X128430000Y-67315000D02*
G75*
G03*
X128080000Y-66965000I-350000J0D01*
G01*
X127380000Y-63215000D02*
G75*
G03*
X127730000Y-62865000I0J350000D01*
G01*
X127380000Y-63965000D02*
G75*
G02*
X127030000Y-63615000I0J350000D01*
G01*
X127030000Y-65065000D02*
G75*
G02*
X127380000Y-64715000I350000J0D01*
G01*
%TO.N,/RW*%
X165300711Y-63720711D02*
X165300711Y-63770711D01*
X164560000Y-79375000D02*
X165830000Y-80645000D01*
X164210000Y-77415000D02*
X164910000Y-77415000D01*
X164210000Y-76665000D02*
X164910000Y-76665000D01*
X164600711Y-72984289D02*
X164560000Y-73025000D01*
X164250711Y-63370711D02*
X164950711Y-63370711D01*
X164560000Y-78515000D02*
X164560000Y-79375000D01*
X164560000Y-73025000D02*
X164560000Y-75565000D01*
X165260000Y-77765000D02*
X165260000Y-77815000D01*
X164600711Y-61589289D02*
X164600711Y-62270711D01*
X165260000Y-76265000D02*
X165260000Y-76315000D01*
X164600711Y-64470711D02*
X164600711Y-72984289D01*
X163900711Y-62970711D02*
X163900711Y-63020711D01*
X165830000Y-60360000D02*
X164600711Y-61589289D01*
X163860000Y-77015000D02*
X163860000Y-77065000D01*
X163900711Y-62970711D02*
G75*
G02*
X164250711Y-62620711I349989J11D01*
G01*
X164910000Y-76665000D02*
G75*
G03*
X165260000Y-76315000I0J350000D01*
G01*
X163860000Y-77015000D02*
G75*
G02*
X164210000Y-76665000I350000J0D01*
G01*
X165300689Y-63720711D02*
G75*
G03*
X164950711Y-63370711I-349989J11D01*
G01*
X164250711Y-62620711D02*
G75*
G03*
X164600711Y-62270711I-11J350011D01*
G01*
X165260000Y-77765000D02*
G75*
G03*
X164910000Y-77415000I-350000J0D01*
G01*
X164950711Y-64120711D02*
G75*
G03*
X165300711Y-63770711I-11J350011D01*
G01*
X164210000Y-77415000D02*
G75*
G02*
X163860000Y-77065000I0J350000D01*
G01*
X164250711Y-63370689D02*
G75*
G02*
X163900711Y-63020711I-11J349989D01*
G01*
X164600711Y-64470711D02*
G75*
G02*
X164950711Y-64120711I349989J11D01*
G01*
X165260000Y-76265000D02*
G75*
G03*
X164910000Y-75915000I-350000J0D01*
G01*
X164560000Y-78515000D02*
G75*
G02*
X164910000Y-78165000I350000J0D01*
G01*
X164910000Y-78165000D02*
G75*
G03*
X165260000Y-77815000I0J350000D01*
G01*
X164910000Y-75915000D02*
G75*
G02*
X164560000Y-75565000I0J350000D01*
G01*
%TO.N,/D0*%
X172880000Y-71645000D02*
X172880000Y-71695000D01*
X172880000Y-70145000D02*
X172880000Y-70195000D01*
X173450000Y-64462100D02*
X172180000Y-65732100D01*
X172180000Y-72395000D02*
X172180000Y-79375000D01*
X171480000Y-69395000D02*
X171480000Y-69445000D01*
X172880000Y-68645000D02*
X172880000Y-68695000D01*
X171830000Y-70545000D02*
X172530000Y-70545000D01*
X173450000Y-60360000D02*
X173450000Y-64462100D01*
X171830000Y-69045000D02*
X172530000Y-69045000D01*
X171480000Y-70895000D02*
X171480000Y-70945000D01*
X172180000Y-65732100D02*
X172180000Y-67945000D01*
X171830000Y-69795000D02*
X172530000Y-69795000D01*
X172180000Y-79375000D02*
X173450000Y-80645000D01*
X171830000Y-71295000D02*
X172530000Y-71295000D01*
X171830000Y-71295000D02*
G75*
G02*
X171480000Y-70945000I0J350000D01*
G01*
X172530000Y-68295000D02*
G75*
G02*
X172180000Y-67945000I0J350000D01*
G01*
X172880000Y-70145000D02*
G75*
G03*
X172530000Y-69795000I-350000J0D01*
G01*
X172180000Y-72395000D02*
G75*
G02*
X172530000Y-72045000I350000J0D01*
G01*
X172880000Y-71645000D02*
G75*
G03*
X172530000Y-71295000I-350000J0D01*
G01*
X171480000Y-70895000D02*
G75*
G02*
X171830000Y-70545000I350000J0D01*
G01*
X172880000Y-68645000D02*
G75*
G03*
X172530000Y-68295000I-350000J0D01*
G01*
X171830000Y-69795000D02*
G75*
G02*
X171480000Y-69445000I0J350000D01*
G01*
X171480000Y-69395000D02*
G75*
G02*
X171830000Y-69045000I350000J0D01*
G01*
X172530000Y-69045000D02*
G75*
G03*
X172880000Y-68695000I0J350000D01*
G01*
X172530000Y-72045000D02*
G75*
G03*
X172880000Y-71695000I0J350000D01*
G01*
X172530000Y-70545000D02*
G75*
G03*
X172880000Y-70195000I0J350000D01*
G01*
%TO.N,/D1*%
X175420000Y-71645000D02*
X175420000Y-71695000D01*
X174020000Y-69395000D02*
X174020000Y-69445000D01*
X174720000Y-79375000D02*
X175990000Y-80645000D01*
X174370000Y-69045000D02*
X175070000Y-69045000D01*
X175420000Y-70145000D02*
X175420000Y-70195000D01*
X174020000Y-70895000D02*
X174020000Y-70945000D01*
X175420000Y-68645000D02*
X175420000Y-68695000D01*
X175990000Y-60360000D02*
X174755000Y-61595000D01*
X174370000Y-70545000D02*
X175070000Y-70545000D01*
X174370000Y-71295000D02*
X175070000Y-71295000D01*
X174755000Y-61595000D02*
X174720000Y-61595000D01*
X174720000Y-61595000D02*
X174720000Y-67945000D01*
X174370000Y-69795000D02*
X175070000Y-69795000D01*
X174720000Y-72395000D02*
X174720000Y-79375000D01*
X175070000Y-70545000D02*
G75*
G03*
X175420000Y-70195000I0J350000D01*
G01*
X175070000Y-72045000D02*
G75*
G03*
X175420000Y-71695000I0J350000D01*
G01*
X175420000Y-70145000D02*
G75*
G03*
X175070000Y-69795000I-350000J0D01*
G01*
X174370000Y-69795000D02*
G75*
G02*
X174020000Y-69445000I0J350000D01*
G01*
X175420000Y-68645000D02*
G75*
G03*
X175070000Y-68295000I-350000J0D01*
G01*
X174020000Y-69395000D02*
G75*
G02*
X174370000Y-69045000I350000J0D01*
G01*
X175070000Y-69045000D02*
G75*
G03*
X175420000Y-68695000I0J350000D01*
G01*
X175070000Y-68295000D02*
G75*
G02*
X174720000Y-67945000I0J350000D01*
G01*
X174720000Y-72395000D02*
G75*
G02*
X175070000Y-72045000I350000J0D01*
G01*
X174020000Y-70895000D02*
G75*
G02*
X174370000Y-70545000I350000J0D01*
G01*
X174370000Y-71295000D02*
G75*
G02*
X174020000Y-70945000I0J350000D01*
G01*
X175420000Y-71645000D02*
G75*
G03*
X175070000Y-71295000I-350000J0D01*
G01*
%TO.N,/D2*%
X179450000Y-70545000D02*
X180150000Y-70545000D01*
X179100000Y-70895000D02*
X179100000Y-70945000D01*
X179450000Y-69045000D02*
X180150000Y-69045000D01*
X178530000Y-60360000D02*
X179800000Y-61630000D01*
X179450000Y-71295000D02*
X180150000Y-71295000D01*
X179800000Y-72395000D02*
X179800000Y-79375000D01*
X179100000Y-69395000D02*
X179100000Y-69445000D01*
X179800000Y-61630000D02*
X179800000Y-67945000D01*
X180500000Y-70145000D02*
X180500000Y-70195000D01*
X180500000Y-68645000D02*
X180500000Y-68695000D01*
X179800000Y-79375000D02*
X178530000Y-80645000D01*
X179450000Y-69795000D02*
X180150000Y-69795000D01*
X180500000Y-71645000D02*
X180500000Y-71695000D01*
X179100000Y-69395000D02*
G75*
G02*
X179450000Y-69045000I350000J0D01*
G01*
X179800000Y-72395000D02*
G75*
G02*
X180150000Y-72045000I350000J0D01*
G01*
X179450000Y-71295000D02*
G75*
G02*
X179100000Y-70945000I0J350000D01*
G01*
X180500000Y-68645000D02*
G75*
G03*
X180150000Y-68295000I-350000J0D01*
G01*
X179450000Y-69795000D02*
G75*
G02*
X179100000Y-69445000I0J350000D01*
G01*
X180150000Y-69045000D02*
G75*
G03*
X180500000Y-68695000I0J350000D01*
G01*
X180500000Y-70145000D02*
G75*
G03*
X180150000Y-69795000I-350000J0D01*
G01*
X179100000Y-70895000D02*
G75*
G02*
X179450000Y-70545000I350000J0D01*
G01*
X180500000Y-71645000D02*
G75*
G03*
X180150000Y-71295000I-350000J0D01*
G01*
X180150000Y-70545000D02*
G75*
G03*
X180500000Y-70195000I0J350000D01*
G01*
X180150000Y-72045000D02*
G75*
G03*
X180500000Y-71695000I0J350000D01*
G01*
X180150000Y-68295000D02*
G75*
G02*
X179800000Y-67945000I0J350000D01*
G01*
%TO.N,/SP0*%
X109950000Y-57820000D02*
X108680000Y-59090000D01*
X108680000Y-59090000D02*
X108680000Y-81915000D01*
X108680000Y-81915000D02*
X109950000Y-83185000D01*
%TO.N,/SP1*%
X112490000Y-57820000D02*
X111255000Y-59055000D01*
X111220000Y-59055000D02*
X111220000Y-81915000D01*
X111220000Y-81915000D02*
X112490000Y-83185000D01*
X111255000Y-59055000D02*
X111220000Y-59055000D01*
%TO.N,/DSMC*%
X113760000Y-59090000D02*
X115030000Y-57820000D01*
X115030000Y-83185000D02*
X113760000Y-81915000D01*
X113760000Y-81915000D02*
X113760000Y-59090000D01*
%TO.N,/SP2*%
X116300000Y-59090000D02*
X116300000Y-81915000D01*
X117570000Y-57820000D02*
X116300000Y-59090000D01*
X116300000Y-81915000D02*
X117570000Y-83185000D01*
%TO.N,/A13*%
X146780000Y-59090000D02*
X146780000Y-81915000D01*
X148050000Y-57820000D02*
X146780000Y-59090000D01*
X146780000Y-81915000D02*
X148050000Y-83185000D01*
%TO.N,/A14*%
X149320000Y-59090000D02*
X150590000Y-57820000D01*
X150590000Y-83185000D02*
X149320000Y-81915000D01*
X149320000Y-81915000D02*
X149320000Y-59090000D01*
%TO.N,/A16*%
X155670000Y-78741900D02*
X155670000Y-61971600D01*
X155670000Y-61971600D02*
X157106400Y-60535200D01*
X156940000Y-80011900D02*
X155670000Y-78741900D01*
X163323648Y-78774366D02*
X164560000Y-80010718D01*
X163925000Y-84455000D02*
X159480000Y-84455000D01*
X156940000Y-81915000D02*
X156940000Y-80011900D01*
X164560000Y-83820000D02*
X163925000Y-84455000D01*
X163323648Y-74338648D02*
X163323648Y-78774366D01*
X159480000Y-84455000D02*
X158210000Y-83185000D01*
X157106400Y-58923600D02*
X158210000Y-57820000D01*
X157106400Y-60535200D02*
X157106400Y-58923600D01*
X158210000Y-83185000D02*
X156940000Y-81915000D01*
X163295000Y-74310000D02*
X163323648Y-74338648D01*
X164560000Y-80010718D02*
X164560000Y-83820000D01*
%TO.N,/A17*%
X159480000Y-78105000D02*
X156940000Y-75565000D01*
X160750000Y-83185000D02*
X159480000Y-81915000D01*
X159400800Y-59169200D02*
X160750000Y-57820000D01*
X156940000Y-75565000D02*
X156940000Y-65405000D01*
X159400800Y-62944200D02*
X159400800Y-59169200D01*
X159480000Y-81915000D02*
X159480000Y-78105000D01*
X156940000Y-65405000D02*
X159400800Y-62944200D01*
%TO.N,/A18*%
X163876200Y-69187500D02*
X163837700Y-69226000D01*
X162169600Y-75410400D02*
X162169600Y-70894100D01*
X161469600Y-79160400D02*
X161469600Y-79110400D01*
X163876200Y-69187500D02*
X163802189Y-69187500D01*
X162869600Y-78410400D02*
X162869600Y-78360400D01*
X162869600Y-76910400D02*
X162869600Y-76860400D01*
X162169600Y-70894100D02*
X163837700Y-69226000D01*
X162158400Y-67546800D02*
X163837700Y-69226000D01*
X161819600Y-78010400D02*
X162519600Y-78010400D01*
X161819600Y-78760400D02*
X162519600Y-78760400D01*
X162020000Y-59090000D02*
X163290000Y-57820000D01*
X163802189Y-69187500D02*
X162020000Y-67405311D01*
X161469600Y-77660400D02*
X161469600Y-77610400D01*
X161469600Y-76160400D02*
X161469600Y-76110400D01*
X163290000Y-83185000D02*
X162169600Y-82064600D01*
X161819600Y-76510400D02*
X162519600Y-76510400D01*
X162169600Y-82064600D02*
X162169600Y-79860400D01*
X161819600Y-77260400D02*
X162519600Y-77260400D01*
X162020000Y-67405311D02*
X162020000Y-59090000D01*
X161819600Y-77260400D02*
G75*
G03*
X161469600Y-77610400I0J-350000D01*
G01*
X162869600Y-78410400D02*
G75*
G02*
X162519600Y-78760400I-350000J0D01*
G01*
X161819600Y-75760400D02*
G75*
G03*
X161469600Y-76110400I0J-350000D01*
G01*
X161469600Y-77660400D02*
G75*
G03*
X161819600Y-78010400I350000J0D01*
G01*
X162519600Y-76510400D02*
G75*
G02*
X162869600Y-76860400I0J-350000D01*
G01*
X161819600Y-79510400D02*
G75*
G02*
X162169600Y-79860400I0J-350000D01*
G01*
X161819600Y-78760400D02*
G75*
G03*
X161469600Y-79110400I0J-350000D01*
G01*
X161469600Y-76160400D02*
G75*
G03*
X161819600Y-76510400I350000J0D01*
G01*
X161469600Y-79160400D02*
G75*
G03*
X161819600Y-79510400I350000J0D01*
G01*
X162169600Y-75410400D02*
G75*
G02*
X161819600Y-75760400I-350000J0D01*
G01*
X162519600Y-78010400D02*
G75*
G02*
X162869600Y-78360400I0J-350000D01*
G01*
X162869600Y-76910400D02*
G75*
G02*
X162519600Y-77260400I-350000J0D01*
G01*
%TO.N,/A19*%
X171545000Y-84455000D02*
X172180000Y-83820000D01*
X172815000Y-59055000D02*
X176625000Y-59055000D01*
X171580000Y-56550000D02*
X172180000Y-57150000D01*
X178535000Y-73030000D02*
X178535000Y-74310000D01*
X172180000Y-82550000D02*
X172815000Y-81915000D01*
X176625000Y-81915000D02*
X177260000Y-81280000D01*
X177260000Y-81280000D02*
X177260000Y-77470000D01*
X165830000Y-57820000D02*
X167100000Y-56550000D01*
X178535000Y-76195000D02*
X178535000Y-74310000D01*
X176625000Y-59055000D02*
X177260000Y-59690000D01*
X177260000Y-59690000D02*
X177260000Y-71755000D01*
X165830000Y-83185000D02*
X167100000Y-84455000D01*
X172180000Y-58420000D02*
X172815000Y-59055000D01*
X172180000Y-57150000D02*
X172180000Y-58420000D01*
X172815000Y-81915000D02*
X176625000Y-81915000D01*
X177260000Y-71755000D02*
X178535000Y-73030000D01*
X167100000Y-84455000D02*
X171545000Y-84455000D01*
X177260000Y-77470000D02*
X178535000Y-76195000D01*
X172180000Y-83820000D02*
X172180000Y-82550000D01*
X167100000Y-56550000D02*
X171580000Y-56550000D01*
%TO.N,/SP3*%
X117220000Y-64715000D02*
X117920000Y-64715000D01*
X117220000Y-63965000D02*
X117920000Y-63965000D01*
X118270000Y-64315000D02*
X118270000Y-64365000D01*
X117220000Y-66965000D02*
X117920000Y-66965000D01*
X116870000Y-66565000D02*
X116870000Y-66615000D01*
X117220000Y-65465000D02*
X117920000Y-65465000D01*
X117570000Y-60360000D02*
X117570000Y-62865000D01*
X118270000Y-65815000D02*
X118270000Y-65865000D01*
X116870000Y-63565000D02*
X116870000Y-63615000D01*
X117570000Y-68065000D02*
X117570000Y-80645000D01*
X117220000Y-66215000D02*
X117920000Y-66215000D01*
X116870000Y-65065000D02*
X116870000Y-65115000D01*
X118270000Y-67315000D02*
X118270000Y-67365000D01*
X117220000Y-63965000D02*
G75*
G02*
X116870000Y-63615000I0J350000D01*
G01*
X117220000Y-65465000D02*
G75*
G02*
X116870000Y-65115000I0J350000D01*
G01*
X117220000Y-63215000D02*
G75*
G03*
X117570000Y-62865000I0J350000D01*
G01*
X118270000Y-64315000D02*
G75*
G03*
X117920000Y-63965000I-350000J0D01*
G01*
X116870000Y-65065000D02*
G75*
G02*
X117220000Y-64715000I350000J0D01*
G01*
X117920000Y-67715000D02*
G75*
G03*
X118270000Y-67365000I0J350000D01*
G01*
X117920000Y-64715000D02*
G75*
G03*
X118270000Y-64365000I0J350000D01*
G01*
X117570000Y-68065000D02*
G75*
G02*
X117920000Y-67715000I350000J0D01*
G01*
X116870000Y-66565000D02*
G75*
G02*
X117220000Y-66215000I350000J0D01*
G01*
X117920000Y-66215000D02*
G75*
G03*
X118270000Y-65865000I0J350000D01*
G01*
X118270000Y-67315000D02*
G75*
G03*
X117920000Y-66965000I-350000J0D01*
G01*
X118270000Y-65815000D02*
G75*
G03*
X117920000Y-65465000I-350000J0D01*
G01*
X117220000Y-66965000D02*
G75*
G02*
X116870000Y-66615000I0J350000D01*
G01*
X116870000Y-63565000D02*
G75*
G02*
X117220000Y-63215000I350000J0D01*
G01*
%TO.N,/VPA*%
X142620000Y-66215000D02*
X143320000Y-66215000D01*
X142270000Y-66565000D02*
X142270000Y-66615000D01*
X142970000Y-68065000D02*
X142970000Y-80645000D01*
X143670000Y-64315000D02*
X143670000Y-64365000D01*
X142620000Y-65465000D02*
X143320000Y-65465000D01*
X143670000Y-67315000D02*
X143670000Y-67365000D01*
X142620000Y-66965000D02*
X143320000Y-66965000D01*
X142620000Y-63965000D02*
X143320000Y-63965000D01*
X142270000Y-63565000D02*
X142270000Y-63615000D01*
X142270000Y-65065000D02*
X142270000Y-65115000D01*
X142970000Y-60360000D02*
X142970000Y-62865000D01*
X142620000Y-64715000D02*
X143320000Y-64715000D01*
X143670000Y-65815000D02*
X143670000Y-65865000D01*
X142270000Y-66565000D02*
G75*
G02*
X142620000Y-66215000I350000J0D01*
G01*
X142620000Y-63965000D02*
G75*
G02*
X142270000Y-63615000I0J350000D01*
G01*
X142270000Y-65065000D02*
G75*
G02*
X142620000Y-64715000I350000J0D01*
G01*
X142620000Y-66965000D02*
G75*
G02*
X142270000Y-66615000I0J350000D01*
G01*
X143320000Y-64715000D02*
G75*
G03*
X143670000Y-64365000I0J350000D01*
G01*
X142270000Y-63565000D02*
G75*
G02*
X142620000Y-63215000I350000J0D01*
G01*
X142620000Y-65465000D02*
G75*
G02*
X142270000Y-65115000I0J350000D01*
G01*
X143320000Y-67715000D02*
G75*
G03*
X143670000Y-67365000I0J350000D01*
G01*
X142970000Y-68065000D02*
G75*
G02*
X143320000Y-67715000I350000J0D01*
G01*
X143670000Y-67315000D02*
G75*
G03*
X143320000Y-66965000I-350000J0D01*
G01*
X143670000Y-64315000D02*
G75*
G03*
X143320000Y-63965000I-350000J0D01*
G01*
X143320000Y-66215000D02*
G75*
G03*
X143670000Y-65865000I0J350000D01*
G01*
X142620000Y-63215000D02*
G75*
G03*
X142970000Y-62865000I0J350000D01*
G01*
X143670000Y-65815000D02*
G75*
G03*
X143320000Y-65465000I-350000J0D01*
G01*
%TO.N,/E*%
X147700000Y-63965000D02*
X148400000Y-63965000D01*
X148750000Y-65815000D02*
X148750000Y-65865000D01*
X147350000Y-65065000D02*
X147350000Y-65115000D01*
X148050000Y-60360000D02*
X148050000Y-62865000D01*
X148050000Y-68065000D02*
X148050000Y-80645000D01*
X147700000Y-65465000D02*
X148400000Y-65465000D01*
X147700000Y-66215000D02*
X148400000Y-66215000D01*
X147700000Y-66965000D02*
X148400000Y-66965000D01*
X147700000Y-64715000D02*
X148400000Y-64715000D01*
X148750000Y-64315000D02*
X148750000Y-64365000D01*
X147350000Y-63565000D02*
X147350000Y-63615000D01*
X148750000Y-67315000D02*
X148750000Y-67365000D01*
X147350000Y-66565000D02*
X147350000Y-66615000D01*
X148050000Y-68065000D02*
G75*
G02*
X148400000Y-67715000I350000J0D01*
G01*
X147700000Y-63965000D02*
G75*
G02*
X147350000Y-63615000I0J350000D01*
G01*
X147350000Y-66565000D02*
G75*
G02*
X147700000Y-66215000I350000J0D01*
G01*
X148750000Y-67315000D02*
G75*
G03*
X148400000Y-66965000I-350000J0D01*
G01*
X147700000Y-65465000D02*
G75*
G02*
X147350000Y-65115000I0J350000D01*
G01*
X147350000Y-63565000D02*
G75*
G02*
X147700000Y-63215000I350000J0D01*
G01*
X148750000Y-65815000D02*
G75*
G03*
X148400000Y-65465000I-350000J0D01*
G01*
X147700000Y-66965000D02*
G75*
G02*
X147350000Y-66615000I0J350000D01*
G01*
X148400000Y-64715000D02*
G75*
G03*
X148750000Y-64365000I0J350000D01*
G01*
X148400000Y-66215000D02*
G75*
G03*
X148750000Y-65865000I0J350000D01*
G01*
X148400000Y-67715000D02*
G75*
G03*
X148750000Y-67365000I0J350000D01*
G01*
X148750000Y-64315000D02*
G75*
G03*
X148400000Y-63965000I-350000J0D01*
G01*
X147700000Y-63215000D02*
G75*
G03*
X148050000Y-62865000I0J350000D01*
G01*
X147350000Y-65065000D02*
G75*
G02*
X147700000Y-64715000I350000J0D01*
G01*
%TO.N,/RESET*%
X152780000Y-64195000D02*
X153480000Y-64195000D01*
X153830000Y-63045000D02*
X153830000Y-63095000D01*
X152780000Y-65695000D02*
X153480000Y-65695000D01*
X152430000Y-62295000D02*
X152430000Y-62345000D01*
X152780000Y-63445000D02*
X153480000Y-63445000D01*
X152780000Y-64945000D02*
X153480000Y-64945000D01*
X152780000Y-62695000D02*
X153480000Y-62695000D01*
X153130000Y-66795000D02*
X153130000Y-80645000D01*
X153830000Y-64545000D02*
X153830000Y-64595000D01*
X152430000Y-65295000D02*
X152430000Y-65345000D01*
X152430000Y-63795000D02*
X152430000Y-63845000D01*
X153130000Y-60360000D02*
X153130000Y-61595000D01*
X153830000Y-66045000D02*
X153830000Y-66095000D01*
X152780000Y-64195000D02*
G75*
G02*
X152430000Y-63845000I0J350000D01*
G01*
X153130000Y-66795000D02*
G75*
G02*
X153480000Y-66445000I350000J0D01*
G01*
X152780000Y-62695000D02*
G75*
G02*
X152430000Y-62345000I0J350000D01*
G01*
X153830000Y-63045000D02*
G75*
G03*
X153480000Y-62695000I-350000J0D01*
G01*
X152430000Y-65295000D02*
G75*
G02*
X152780000Y-64945000I350000J0D01*
G01*
X152780000Y-61945000D02*
G75*
G03*
X153130000Y-61595000I0J350000D01*
G01*
X153480000Y-64945000D02*
G75*
G03*
X153830000Y-64595000I0J350000D01*
G01*
X153830000Y-66045000D02*
G75*
G03*
X153480000Y-65695000I-350000J0D01*
G01*
X153480000Y-66445000D02*
G75*
G03*
X153830000Y-66095000I0J350000D01*
G01*
X152780000Y-65695000D02*
G75*
G02*
X152430000Y-65345000I0J350000D01*
G01*
X152430000Y-63795000D02*
G75*
G02*
X152780000Y-63445000I350000J0D01*
G01*
X153480000Y-63445000D02*
G75*
G03*
X153830000Y-63095000I0J350000D01*
G01*
X153830000Y-64545000D02*
G75*
G03*
X153480000Y-64195000I-350000J0D01*
G01*
X152430000Y-62295000D02*
G75*
G02*
X152780000Y-61945000I350000J0D01*
G01*
%TO.N,/A15*%
X155035000Y-70715000D02*
X155035000Y-70665000D01*
X154335000Y-74465000D02*
X154335000Y-74415000D01*
X154335000Y-75965000D02*
X154335000Y-75915000D01*
X155035000Y-75215000D02*
X155035000Y-75165000D01*
X155035000Y-60960000D02*
X155635000Y-60360000D01*
X154335000Y-71465000D02*
X154335000Y-71415000D01*
X154335000Y-72965000D02*
X154335000Y-72915000D01*
X155035000Y-79375000D02*
X155035000Y-78165000D01*
X155670000Y-80010000D02*
X155035000Y-79375000D01*
X154335000Y-69965000D02*
X154335000Y-69915000D01*
X155670000Y-80645000D02*
X155670000Y-80010000D01*
X155035000Y-76715000D02*
X155035000Y-76665000D01*
X154335000Y-77465000D02*
X154335000Y-77415000D01*
X154335000Y-68515000D02*
X154335000Y-68465000D01*
X155035000Y-67765000D02*
X155035000Y-67715000D01*
X155035000Y-73715000D02*
X155035000Y-73665000D01*
X155635000Y-60360000D02*
X155670000Y-60360000D01*
X155035000Y-67715000D02*
X155035000Y-60960000D01*
X155035000Y-72215000D02*
X155035000Y-72165000D01*
X154685000Y-77065000D02*
G75*
G03*
X154335000Y-77415000I0J-350000D01*
G01*
X155035000Y-67765000D02*
G75*
G02*
X154685000Y-68115000I-350000J0D01*
G01*
X155035000Y-70715000D02*
G75*
G02*
X154685000Y-71065000I-350000J0D01*
G01*
X154685000Y-73315000D02*
G75*
G02*
X155035000Y-73665000I0J-350000D01*
G01*
X154335000Y-68515000D02*
G75*
G03*
X154685000Y-68865000I350000J0D01*
G01*
X154685000Y-68115000D02*
G75*
G03*
X154335000Y-68465000I0J-350000D01*
G01*
X155035000Y-72215000D02*
G75*
G02*
X154685000Y-72565000I-350000J0D01*
G01*
X154685000Y-71815000D02*
G75*
G02*
X155035000Y-72165000I0J-350000D01*
G01*
X154335000Y-69965000D02*
G75*
G03*
X154685000Y-70315000I350000J0D01*
G01*
X154685000Y-72565000D02*
G75*
G03*
X154335000Y-72915000I0J-350000D01*
G01*
X154685000Y-71065000D02*
G75*
G03*
X154335000Y-71415000I0J-350000D01*
G01*
X154335000Y-74465000D02*
G75*
G03*
X154685000Y-74815000I350000J0D01*
G01*
X155035000Y-76715000D02*
G75*
G02*
X154685000Y-77065000I-350000J0D01*
G01*
X154685000Y-75565000D02*
G75*
G03*
X154335000Y-75915000I0J-350000D01*
G01*
X154335000Y-77465000D02*
G75*
G03*
X154685000Y-77815000I350000J0D01*
G01*
X154335000Y-71465000D02*
G75*
G03*
X154685000Y-71815000I350000J0D01*
G01*
X154685000Y-74065000D02*
G75*
G03*
X154335000Y-74415000I0J-350000D01*
G01*
X155035000Y-75215000D02*
G75*
G02*
X154685000Y-75565000I-350000J0D01*
G01*
X155035000Y-69215000D02*
G75*
G02*
X154685000Y-69565000I-350000J0D01*
G01*
X154685000Y-76315000D02*
G75*
G02*
X155035000Y-76665000I0J-350000D01*
G01*
X154685000Y-74815000D02*
G75*
G02*
X155035000Y-75165000I0J-350000D01*
G01*
X155035000Y-73715000D02*
G75*
G02*
X154685000Y-74065000I-350000J0D01*
G01*
X154335000Y-75965000D02*
G75*
G03*
X154685000Y-76315000I350000J0D01*
G01*
X154685000Y-77815000D02*
G75*
G02*
X155035000Y-78165000I0J-350000D01*
G01*
X154685000Y-70315000D02*
G75*
G02*
X155035000Y-70665000I0J-350000D01*
G01*
X154685000Y-69565000D02*
G75*
G03*
X154335000Y-69915000I0J-350000D01*
G01*
X154335000Y-72965000D02*
G75*
G03*
X154685000Y-73315000I350000J0D01*
G01*
X154685000Y-68865000D02*
G75*
G02*
X155035000Y-69215000I0J-350000D01*
G01*
%TO.N,/DS*%
X167105000Y-61625000D02*
X167105000Y-62225000D01*
X167105000Y-71750000D02*
X166465000Y-72390000D01*
X167105000Y-70984603D02*
X167105000Y-71750000D01*
X167805000Y-63675000D02*
X167805000Y-63725000D01*
X166405000Y-70150000D02*
X166405000Y-70200000D01*
X166405000Y-62925000D02*
X166405000Y-62975000D01*
X167455000Y-69800000D02*
X166755000Y-69800000D01*
X166755000Y-69050000D02*
X167455000Y-69050000D01*
X167105000Y-64425000D02*
X167105000Y-67950000D01*
X168370000Y-60360000D02*
X167105000Y-61625000D01*
X168370000Y-80645000D02*
X167100000Y-79375000D01*
X166755000Y-63325000D02*
X167455000Y-63325000D01*
X167100000Y-79375000D02*
X167100000Y-73025000D01*
X167805000Y-69400000D02*
X167805000Y-69450000D01*
X167100000Y-73025000D02*
X166465000Y-72390000D01*
X166405000Y-68650000D02*
X166405000Y-68700000D01*
X167105000Y-70900000D02*
X167105000Y-70984603D01*
X167105000Y-70900000D02*
G75*
G03*
X166755000Y-70550000I-350000J0D01*
G01*
X166755000Y-62575000D02*
G75*
G03*
X167105000Y-62225000I0J350000D01*
G01*
X167805000Y-63675000D02*
G75*
G03*
X167455000Y-63325000I-350000J0D01*
G01*
X167455000Y-69800000D02*
G75*
G03*
X167805000Y-69450000I0J350000D01*
G01*
X167105000Y-64425000D02*
G75*
G02*
X167455000Y-64075000I350000J0D01*
G01*
X166405000Y-62925000D02*
G75*
G02*
X166755000Y-62575000I350000J0D01*
G01*
X166405000Y-70150000D02*
G75*
G02*
X166755000Y-69800000I350000J0D01*
G01*
X166755000Y-68300000D02*
G75*
G03*
X167105000Y-67950000I0J350000D01*
G01*
X166755000Y-63325000D02*
G75*
G02*
X166405000Y-62975000I0J350000D01*
G01*
X166755000Y-70550000D02*
G75*
G02*
X166405000Y-70200000I0J350000D01*
G01*
X166755000Y-69050000D02*
G75*
G02*
X166405000Y-68700000I0J350000D01*
G01*
X167805000Y-69400000D02*
G75*
G03*
X167455000Y-69050000I-350000J0D01*
G01*
X166405000Y-68650000D02*
G75*
G02*
X166755000Y-68300000I350000J0D01*
G01*
X167455000Y-64075000D02*
G75*
G03*
X167805000Y-63725000I0J350000D01*
G01*
%TO.N,/AS*%
X172053400Y-64643000D02*
X170910000Y-63499600D01*
X170915000Y-80640000D02*
X170910000Y-80645000D01*
X170910000Y-63499600D02*
X170910000Y-60360000D01*
X170915000Y-74310000D02*
X170915000Y-80640000D01*
%TO.N,/DTACK*%
X163290000Y-64091100D02*
X163290000Y-60360000D01*
X163863300Y-64664400D02*
X163290000Y-64091100D01*
%TO.N,/BG*%
X158780000Y-68640000D02*
X158780000Y-68690000D01*
X160180000Y-70890000D02*
X160180000Y-70940000D01*
X159830000Y-71290000D02*
X159130000Y-71290000D01*
X159130000Y-69040000D02*
X159830000Y-69040000D01*
X158780000Y-71640000D02*
X158780000Y-71690000D01*
X160750000Y-76835000D02*
X160750000Y-80645000D01*
X159480000Y-64135000D02*
X159480000Y-67940000D01*
X159130000Y-70540000D02*
X159830000Y-70540000D01*
X160180000Y-69390000D02*
X160180000Y-69440000D01*
X159480000Y-75565000D02*
X160750000Y-76835000D01*
X158780000Y-70140000D02*
X158780000Y-70190000D01*
X159480000Y-72390000D02*
X159480000Y-75565000D01*
X160750000Y-62865000D02*
X159480000Y-64135000D01*
X160750000Y-60360000D02*
X160750000Y-62865000D01*
X159830000Y-69790000D02*
X159130000Y-69790000D01*
X159830000Y-69790000D02*
G75*
G03*
X160180000Y-69440000I0J350000D01*
G01*
X159130000Y-68290000D02*
G75*
G03*
X159480000Y-67940000I0J350000D01*
G01*
X158780000Y-71640000D02*
G75*
G02*
X159130000Y-71290000I350000J0D01*
G01*
X159130000Y-69040000D02*
G75*
G02*
X158780000Y-68690000I0J350000D01*
G01*
X160180000Y-69390000D02*
G75*
G03*
X159830000Y-69040000I-350000J0D01*
G01*
X159830000Y-71290000D02*
G75*
G03*
X160180000Y-70940000I0J350000D01*
G01*
X159130000Y-72040000D02*
G75*
G02*
X158780000Y-71690000I0J350000D01*
G01*
X158780000Y-68640000D02*
G75*
G02*
X159130000Y-68290000I350000J0D01*
G01*
X159480000Y-72390000D02*
G75*
G03*
X159130000Y-72040000I-350000J0D01*
G01*
X159130000Y-70540000D02*
G75*
G02*
X158780000Y-70190000I0J350000D01*
G01*
X160180000Y-70890000D02*
G75*
G03*
X159830000Y-70540000I-350000J0D01*
G01*
X158780000Y-70140000D02*
G75*
G02*
X159130000Y-69790000I350000J0D01*
G01*
%TO.N,/BR*%
X158210000Y-61595000D02*
X156305000Y-63500000D01*
X156305000Y-63500000D02*
X156305000Y-76835000D01*
X158210000Y-78740000D02*
X158210000Y-80645000D01*
X156305000Y-76835000D02*
X158210000Y-78740000D01*
X158210000Y-60360000D02*
X158210000Y-61595000D01*
%TO.N,/CSYNC*%
X150590000Y-60360000D02*
X150590000Y-62865000D01*
X151290000Y-67315000D02*
X151290000Y-67365000D01*
X150240000Y-66965000D02*
X150940000Y-66965000D01*
X150240000Y-64715000D02*
X150940000Y-64715000D01*
X151290000Y-65815000D02*
X151290000Y-65865000D01*
X150590000Y-68065000D02*
X150590000Y-80645000D01*
X149890000Y-66565000D02*
X149890000Y-66615000D01*
X150240000Y-65465000D02*
X150940000Y-65465000D01*
X151290000Y-64315000D02*
X151290000Y-64365000D01*
X150240000Y-63965000D02*
X150940000Y-63965000D01*
X149890000Y-65065000D02*
X149890000Y-65115000D01*
X149890000Y-63565000D02*
X149890000Y-63615000D01*
X150240000Y-66215000D02*
X150940000Y-66215000D01*
X149890000Y-65065000D02*
G75*
G02*
X150240000Y-64715000I350000J0D01*
G01*
X149890000Y-63565000D02*
G75*
G02*
X150240000Y-63215000I350000J0D01*
G01*
X150240000Y-63215000D02*
G75*
G03*
X150590000Y-62865000I0J350000D01*
G01*
X149890000Y-66565000D02*
G75*
G02*
X150240000Y-66215000I350000J0D01*
G01*
X151290000Y-64315000D02*
G75*
G03*
X150940000Y-63965000I-350000J0D01*
G01*
X151290000Y-65815000D02*
G75*
G03*
X150940000Y-65465000I-350000J0D01*
G01*
X150940000Y-64715000D02*
G75*
G03*
X151290000Y-64365000I0J350000D01*
G01*
X150240000Y-66965000D02*
G75*
G02*
X149890000Y-66615000I0J350000D01*
G01*
X150240000Y-63965000D02*
G75*
G02*
X149890000Y-63615000I0J350000D01*
G01*
X151290000Y-67315000D02*
G75*
G03*
X150940000Y-66965000I-350000J0D01*
G01*
X150940000Y-66215000D02*
G75*
G03*
X151290000Y-65865000I0J350000D01*
G01*
X150240000Y-65465000D02*
G75*
G02*
X149890000Y-65115000I0J350000D01*
G01*
X150940000Y-67715000D02*
G75*
G03*
X151290000Y-67365000I0J350000D01*
G01*
X150590000Y-68065000D02*
G75*
G02*
X150940000Y-67715000I350000J0D01*
G01*
%TO.N,/VSYNC*%
X145510000Y-68065000D02*
X145510000Y-80645000D01*
X145160000Y-66215000D02*
X145860000Y-66215000D01*
X144810000Y-66565000D02*
X144810000Y-66615000D01*
X144810000Y-65065000D02*
X144810000Y-65115000D01*
X145160000Y-63965000D02*
X145860000Y-63965000D01*
X146210000Y-67315000D02*
X146210000Y-67365000D01*
X144810000Y-63565000D02*
X144810000Y-63615000D01*
X145160000Y-64715000D02*
X145860000Y-64715000D01*
X146210000Y-64315000D02*
X146210000Y-64365000D01*
X145160000Y-66965000D02*
X145860000Y-66965000D01*
X146210000Y-65815000D02*
X146210000Y-65865000D01*
X145160000Y-65465000D02*
X145860000Y-65465000D01*
X145510000Y-60360000D02*
X145510000Y-62865000D01*
X144810000Y-65065000D02*
G75*
G02*
X145160000Y-64715000I350000J0D01*
G01*
X145160000Y-63965000D02*
G75*
G02*
X144810000Y-63615000I0J350000D01*
G01*
X144810000Y-63565000D02*
G75*
G02*
X145160000Y-63215000I350000J0D01*
G01*
X146210000Y-65815000D02*
G75*
G03*
X145860000Y-65465000I-350000J0D01*
G01*
X145160000Y-65465000D02*
G75*
G02*
X144810000Y-65115000I0J350000D01*
G01*
X145510000Y-68065000D02*
G75*
G02*
X145860000Y-67715000I350000J0D01*
G01*
X145860000Y-64715000D02*
G75*
G03*
X146210000Y-64365000I0J350000D01*
G01*
X145860000Y-66215000D02*
G75*
G03*
X146210000Y-65865000I0J350000D01*
G01*
X145160000Y-63215000D02*
G75*
G03*
X145510000Y-62865000I0J350000D01*
G01*
X144810000Y-66565000D02*
G75*
G02*
X145160000Y-66215000I350000J0D01*
G01*
X145160000Y-66965000D02*
G75*
G02*
X144810000Y-66615000I0J350000D01*
G01*
X146210000Y-67315000D02*
G75*
G03*
X145860000Y-66965000I-350000J0D01*
G01*
X146210000Y-64315000D02*
G75*
G03*
X145860000Y-63965000I-350000J0D01*
G01*
X145860000Y-67715000D02*
G75*
G03*
X146210000Y-67365000I0J350000D01*
G01*
%TO.N,/GREEN*%
X140080000Y-71295000D02*
X140780000Y-71295000D01*
X140080000Y-72045000D02*
X140780000Y-72045000D01*
X139730000Y-70895000D02*
X139730000Y-70945000D01*
X141130000Y-70145000D02*
X141130000Y-70195000D01*
X140080000Y-69045000D02*
X140780000Y-69045000D01*
X140080000Y-69795000D02*
X140780000Y-69795000D01*
X140430000Y-60360000D02*
X140430000Y-67945000D01*
X141130000Y-71645000D02*
X141130000Y-71695000D01*
X140080000Y-70545000D02*
X140780000Y-70545000D01*
X140430000Y-73145000D02*
X140430000Y-80645000D01*
X141130000Y-68645000D02*
X141130000Y-68695000D01*
X139730000Y-72395000D02*
X139730000Y-72445000D01*
X139730000Y-69395000D02*
X139730000Y-69445000D01*
X141130000Y-68645000D02*
G75*
G03*
X140780000Y-68295000I-350000J0D01*
G01*
X140780000Y-68295000D02*
G75*
G02*
X140430000Y-67945000I0J350000D01*
G01*
X140780000Y-72045000D02*
G75*
G03*
X141130000Y-71695000I0J350000D01*
G01*
X141130000Y-70145000D02*
G75*
G03*
X140780000Y-69795000I-350000J0D01*
G01*
X139730000Y-72395000D02*
G75*
G02*
X140080000Y-72045000I350000J0D01*
G01*
X139730000Y-69395000D02*
G75*
G02*
X140080000Y-69045000I350000J0D01*
G01*
X140080000Y-72795000D02*
G75*
G02*
X139730000Y-72445000I0J350000D01*
G01*
X140080000Y-71295000D02*
G75*
G02*
X139730000Y-70945000I0J350000D01*
G01*
X139730000Y-70895000D02*
G75*
G02*
X140080000Y-70545000I350000J0D01*
G01*
X140080000Y-69795000D02*
G75*
G02*
X139730000Y-69445000I0J350000D01*
G01*
X140780000Y-69045000D02*
G75*
G03*
X141130000Y-68695000I0J350000D01*
G01*
X140780000Y-70545000D02*
G75*
G03*
X141130000Y-70195000I0J350000D01*
G01*
X141130000Y-71645000D02*
G75*
G03*
X140780000Y-71295000I-350000J0D01*
G01*
X140430000Y-73145000D02*
G75*
G03*
X140080000Y-72795000I-350000J0D01*
G01*
%TO.N,/BLUE*%
X137540000Y-66965000D02*
X138240000Y-66965000D01*
X137540000Y-66215000D02*
X138240000Y-66215000D01*
X137890000Y-68065000D02*
X137890000Y-80645000D01*
X137190000Y-66565000D02*
X137190000Y-66615000D01*
X137190000Y-63565000D02*
X137190000Y-63615000D01*
X137190000Y-65065000D02*
X137190000Y-65115000D01*
X137540000Y-64715000D02*
X138240000Y-64715000D01*
X138590000Y-67315000D02*
X138590000Y-67365000D01*
X137540000Y-63965000D02*
X138240000Y-63965000D01*
X138590000Y-65815000D02*
X138590000Y-65865000D01*
X137540000Y-65465000D02*
X138240000Y-65465000D01*
X138590000Y-64315000D02*
X138590000Y-64365000D01*
X137890000Y-60360000D02*
X137890000Y-62865000D01*
X137190000Y-66565000D02*
G75*
G02*
X137540000Y-66215000I350000J0D01*
G01*
X138240000Y-66215000D02*
G75*
G03*
X138590000Y-65865000I0J350000D01*
G01*
X137540000Y-66965000D02*
G75*
G02*
X137190000Y-66615000I0J350000D01*
G01*
X138590000Y-67315000D02*
G75*
G03*
X138240000Y-66965000I-350000J0D01*
G01*
X138240000Y-67715000D02*
G75*
G03*
X138590000Y-67365000I0J350000D01*
G01*
X138240000Y-64715000D02*
G75*
G03*
X138590000Y-64365000I0J350000D01*
G01*
X137890000Y-68065000D02*
G75*
G02*
X138240000Y-67715000I350000J0D01*
G01*
X137540000Y-65465000D02*
G75*
G02*
X137190000Y-65115000I0J350000D01*
G01*
X138590000Y-64315000D02*
G75*
G03*
X138240000Y-63965000I-350000J0D01*
G01*
X137540000Y-63215000D02*
G75*
G03*
X137890000Y-62865000I0J350000D01*
G01*
X137190000Y-65065000D02*
G75*
G02*
X137540000Y-64715000I350000J0D01*
G01*
X137190000Y-63565000D02*
G75*
G02*
X137540000Y-63215000I350000J0D01*
G01*
X138590000Y-65815000D02*
G75*
G03*
X138240000Y-65465000I-350000J0D01*
G01*
X137540000Y-63965000D02*
G75*
G02*
X137190000Y-63615000I0J350000D01*
G01*
%TO.N,/FC2*%
X134650000Y-72395000D02*
X134650000Y-72445000D01*
X134650000Y-70895000D02*
X134650000Y-70945000D01*
X135350000Y-60360000D02*
X135350000Y-67945000D01*
X135350000Y-73145000D02*
X135350000Y-80645000D01*
X136050000Y-68645000D02*
X136050000Y-68695000D01*
X135000000Y-69045000D02*
X135700000Y-69045000D01*
X135000000Y-71295000D02*
X135700000Y-71295000D01*
X134650000Y-69395000D02*
X134650000Y-69445000D01*
X135000000Y-72045000D02*
X135700000Y-72045000D01*
X136050000Y-70145000D02*
X136050000Y-70195000D01*
X135000000Y-70545000D02*
X135700000Y-70545000D01*
X135000000Y-69795000D02*
X135700000Y-69795000D01*
X136050000Y-71645000D02*
X136050000Y-71695000D01*
X135000000Y-72795000D02*
G75*
G02*
X134650000Y-72445000I0J350000D01*
G01*
X135350000Y-73145000D02*
G75*
G03*
X135000000Y-72795000I-350000J0D01*
G01*
X135700000Y-70545000D02*
G75*
G03*
X136050000Y-70195000I0J350000D01*
G01*
X135000000Y-69795000D02*
G75*
G02*
X134650000Y-69445000I0J350000D01*
G01*
X134650000Y-69395000D02*
G75*
G02*
X135000000Y-69045000I350000J0D01*
G01*
X134650000Y-72395000D02*
G75*
G02*
X135000000Y-72045000I350000J0D01*
G01*
X136050000Y-70145000D02*
G75*
G03*
X135700000Y-69795000I-350000J0D01*
G01*
X135700000Y-69045000D02*
G75*
G03*
X136050000Y-68695000I0J350000D01*
G01*
X135700000Y-68295000D02*
G75*
G02*
X135350000Y-67945000I0J350000D01*
G01*
X135700000Y-72045000D02*
G75*
G03*
X136050000Y-71695000I0J350000D01*
G01*
X136050000Y-71645000D02*
G75*
G03*
X135700000Y-71295000I-350000J0D01*
G01*
X136050000Y-68645000D02*
G75*
G03*
X135700000Y-68295000I-350000J0D01*
G01*
X134650000Y-70895000D02*
G75*
G02*
X135000000Y-70545000I350000J0D01*
G01*
X135000000Y-71295000D02*
G75*
G02*
X134650000Y-70945000I0J350000D01*
G01*
%TO.N,/FC1*%
X132460000Y-66215000D02*
X133160000Y-66215000D01*
X132110000Y-66565000D02*
X132110000Y-66615000D01*
X132460000Y-63965000D02*
X133160000Y-63965000D01*
X133510000Y-64315000D02*
X133510000Y-64365000D01*
X132460000Y-64715000D02*
X133160000Y-64715000D01*
X132460000Y-65465000D02*
X133160000Y-65465000D01*
X132810000Y-60360000D02*
X132810000Y-62865000D01*
X133510000Y-67315000D02*
X133510000Y-67365000D01*
X133510000Y-65815000D02*
X133510000Y-65865000D01*
X132110000Y-63565000D02*
X132110000Y-63615000D01*
X132810000Y-68065000D02*
X132810000Y-80645000D01*
X132460000Y-66965000D02*
X133160000Y-66965000D01*
X132110000Y-65065000D02*
X132110000Y-65115000D01*
X133510000Y-64315000D02*
G75*
G03*
X133160000Y-63965000I-350000J0D01*
G01*
X132110000Y-65065000D02*
G75*
G02*
X132460000Y-64715000I350000J0D01*
G01*
X133160000Y-64715000D02*
G75*
G03*
X133510000Y-64365000I0J350000D01*
G01*
X132460000Y-66965000D02*
G75*
G02*
X132110000Y-66615000I0J350000D01*
G01*
X132460000Y-65465000D02*
G75*
G02*
X132110000Y-65115000I0J350000D01*
G01*
X132110000Y-66565000D02*
G75*
G02*
X132460000Y-66215000I350000J0D01*
G01*
X133510000Y-67315000D02*
G75*
G03*
X133160000Y-66965000I-350000J0D01*
G01*
X132460000Y-63965000D02*
G75*
G02*
X132110000Y-63615000I0J350000D01*
G01*
X132460000Y-63215000D02*
G75*
G03*
X132810000Y-62865000I0J350000D01*
G01*
X132110000Y-63565000D02*
G75*
G02*
X132460000Y-63215000I350000J0D01*
G01*
X133160000Y-66215000D02*
G75*
G03*
X133510000Y-65865000I0J350000D01*
G01*
X133160000Y-67715000D02*
G75*
G03*
X133510000Y-67365000I0J350000D01*
G01*
X132810000Y-68065000D02*
G75*
G02*
X133160000Y-67715000I350000J0D01*
G01*
X133510000Y-65815000D02*
G75*
G03*
X133160000Y-65465000I-350000J0D01*
G01*
%TO.N,/FC0*%
X129920000Y-65465000D02*
X130620000Y-65465000D01*
X129570000Y-63565000D02*
X129570000Y-63615000D01*
X130970000Y-65815000D02*
X130970000Y-65865000D01*
X130970000Y-64315000D02*
X130970000Y-64365000D01*
X130270000Y-68065000D02*
X130270000Y-80645000D01*
X129920000Y-64715000D02*
X130620000Y-64715000D01*
X130270000Y-60360000D02*
X130270000Y-62865000D01*
X129920000Y-63965000D02*
X130620000Y-63965000D01*
X129570000Y-66565000D02*
X129570000Y-66615000D01*
X129920000Y-66215000D02*
X130620000Y-66215000D01*
X130970000Y-67315000D02*
X130970000Y-67365000D01*
X129920000Y-66965000D02*
X130620000Y-66965000D01*
X129570000Y-65065000D02*
X129570000Y-65115000D01*
X130620000Y-67715000D02*
G75*
G03*
X130970000Y-67365000I0J350000D01*
G01*
X129920000Y-63965000D02*
G75*
G02*
X129570000Y-63615000I0J350000D01*
G01*
X130620000Y-64715000D02*
G75*
G03*
X130970000Y-64365000I0J350000D01*
G01*
X129920000Y-63215000D02*
G75*
G03*
X130270000Y-62865000I0J350000D01*
G01*
X129570000Y-63565000D02*
G75*
G02*
X129920000Y-63215000I350000J0D01*
G01*
X130970000Y-67315000D02*
G75*
G03*
X130620000Y-66965000I-350000J0D01*
G01*
X130620000Y-66215000D02*
G75*
G03*
X130970000Y-65865000I0J350000D01*
G01*
X130270000Y-68065000D02*
G75*
G02*
X130620000Y-67715000I350000J0D01*
G01*
X129920000Y-66965000D02*
G75*
G02*
X129570000Y-66615000I0J350000D01*
G01*
X129570000Y-66565000D02*
G75*
G02*
X129920000Y-66215000I350000J0D01*
G01*
X129920000Y-65465000D02*
G75*
G02*
X129570000Y-65115000I0J350000D01*
G01*
X130970000Y-64315000D02*
G75*
G03*
X130620000Y-63965000I-350000J0D01*
G01*
X129570000Y-65065000D02*
G75*
G02*
X129920000Y-64715000I350000J0D01*
G01*
X130970000Y-65815000D02*
G75*
G03*
X130620000Y-65465000I-350000J0D01*
G01*
%TO.N,/ROMOE*%
X124490000Y-66565000D02*
X124490000Y-66615000D01*
X125190000Y-60360000D02*
X125190000Y-62865000D01*
X125890000Y-64315000D02*
X125890000Y-64365000D01*
X125890000Y-65815000D02*
X125890000Y-65865000D01*
X125190000Y-68065000D02*
X125190000Y-80645000D01*
X125890000Y-67315000D02*
X125890000Y-67365000D01*
X124840000Y-64715000D02*
X125540000Y-64715000D01*
X124490000Y-63565000D02*
X124490000Y-63615000D01*
X124840000Y-66965000D02*
X125540000Y-66965000D01*
X124490000Y-65065000D02*
X124490000Y-65115000D01*
X124840000Y-66215000D02*
X125540000Y-66215000D01*
X124840000Y-63965000D02*
X125540000Y-63965000D01*
X124840000Y-65465000D02*
X125540000Y-65465000D01*
X125890000Y-65815000D02*
G75*
G03*
X125540000Y-65465000I-350000J0D01*
G01*
X124840000Y-66965000D02*
G75*
G02*
X124490000Y-66615000I0J350000D01*
G01*
X124840000Y-65465000D02*
G75*
G02*
X124490000Y-65115000I0J350000D01*
G01*
X125890000Y-67315000D02*
G75*
G03*
X125540000Y-66965000I-350000J0D01*
G01*
X125540000Y-67715000D02*
G75*
G03*
X125890000Y-67365000I0J350000D01*
G01*
X124840000Y-63215000D02*
G75*
G03*
X125190000Y-62865000I0J350000D01*
G01*
X124490000Y-66565000D02*
G75*
G02*
X124840000Y-66215000I350000J0D01*
G01*
X125540000Y-64715000D02*
G75*
G03*
X125890000Y-64365000I0J350000D01*
G01*
X124490000Y-63565000D02*
G75*
G02*
X124840000Y-63215000I350000J0D01*
G01*
X124490000Y-65065000D02*
G75*
G02*
X124840000Y-64715000I350000J0D01*
G01*
X124840000Y-63965000D02*
G75*
G02*
X124490000Y-63615000I0J350000D01*
G01*
X125890000Y-64315000D02*
G75*
G03*
X125540000Y-63965000I-350000J0D01*
G01*
X125540000Y-66215000D02*
G75*
G03*
X125890000Y-65865000I0J350000D01*
G01*
X125190000Y-68065000D02*
G75*
G02*
X125540000Y-67715000I350000J0D01*
G01*
%TO.N,/IPL0*%
X115730000Y-67315000D02*
X115730000Y-67365000D01*
X115730000Y-65815000D02*
X115730000Y-65865000D01*
X114680000Y-65465000D02*
X115380000Y-65465000D01*
X114330000Y-66565000D02*
X114330000Y-66615000D01*
X114680000Y-66965000D02*
X115380000Y-66965000D01*
X115030000Y-68065000D02*
X115030000Y-80645000D01*
X115730000Y-64315000D02*
X115730000Y-64365000D01*
X114330000Y-63565000D02*
X114330000Y-63615000D01*
X114680000Y-63965000D02*
X115380000Y-63965000D01*
X114330000Y-65065000D02*
X114330000Y-65115000D01*
X115030000Y-60360000D02*
X115030000Y-62865000D01*
X114680000Y-66215000D02*
X115380000Y-66215000D01*
X114680000Y-64715000D02*
X115380000Y-64715000D01*
X114680000Y-63965000D02*
G75*
G02*
X114330000Y-63615000I0J350000D01*
G01*
X115030000Y-68065000D02*
G75*
G02*
X115380000Y-67715000I350000J0D01*
G01*
X115730000Y-64315000D02*
G75*
G03*
X115380000Y-63965000I-350000J0D01*
G01*
X114680000Y-66965000D02*
G75*
G02*
X114330000Y-66615000I0J350000D01*
G01*
X114330000Y-66565000D02*
G75*
G02*
X114680000Y-66215000I350000J0D01*
G01*
X114680000Y-65465000D02*
G75*
G02*
X114330000Y-65115000I0J350000D01*
G01*
X115730000Y-65815000D02*
G75*
G03*
X115380000Y-65465000I-350000J0D01*
G01*
X115380000Y-66215000D02*
G75*
G03*
X115730000Y-65865000I0J350000D01*
G01*
X115730000Y-67315000D02*
G75*
G03*
X115380000Y-66965000I-350000J0D01*
G01*
X115380000Y-64715000D02*
G75*
G03*
X115730000Y-64365000I0J350000D01*
G01*
X115380000Y-67715000D02*
G75*
G03*
X115730000Y-67365000I0J350000D01*
G01*
X114680000Y-63215000D02*
G75*
G03*
X115030000Y-62865000I0J350000D01*
G01*
X114330000Y-65065000D02*
G75*
G02*
X114680000Y-64715000I350000J0D01*
G01*
X114330000Y-63565000D02*
G75*
G02*
X114680000Y-63215000I350000J0D01*
G01*
%TO.N,/BERR*%
X111790000Y-65065000D02*
X111790000Y-65115000D01*
X112140000Y-65465000D02*
X112840000Y-65465000D01*
X112140000Y-63965000D02*
X112840000Y-63965000D01*
X113190000Y-65815000D02*
X113190000Y-65865000D01*
X112140000Y-66215000D02*
X112840000Y-66215000D01*
X111790000Y-66565000D02*
X111790000Y-66615000D01*
X112490000Y-68065000D02*
X112490000Y-80645000D01*
X112140000Y-64715000D02*
X112840000Y-64715000D01*
X112490000Y-60360000D02*
X112490000Y-62865000D01*
X113190000Y-64315000D02*
X113190000Y-64365000D01*
X112140000Y-66965000D02*
X112840000Y-66965000D01*
X111790000Y-63565000D02*
X111790000Y-63615000D01*
X113190000Y-67315000D02*
X113190000Y-67365000D01*
X112840000Y-67715000D02*
G75*
G03*
X113190000Y-67365000I0J350000D01*
G01*
X113190000Y-65815000D02*
G75*
G03*
X112840000Y-65465000I-350000J0D01*
G01*
X112840000Y-66215000D02*
G75*
G03*
X113190000Y-65865000I0J350000D01*
G01*
X111790000Y-66565000D02*
G75*
G02*
X112140000Y-66215000I350000J0D01*
G01*
X112490000Y-68065000D02*
G75*
G02*
X112840000Y-67715000I350000J0D01*
G01*
X111790000Y-65065000D02*
G75*
G02*
X112140000Y-64715000I350000J0D01*
G01*
X112140000Y-63215000D02*
G75*
G03*
X112490000Y-62865000I0J350000D01*
G01*
X113190000Y-64315000D02*
G75*
G03*
X112840000Y-63965000I-350000J0D01*
G01*
X112140000Y-63965000D02*
G75*
G02*
X111790000Y-63615000I0J350000D01*
G01*
X112140000Y-65465000D02*
G75*
G02*
X111790000Y-65115000I0J350000D01*
G01*
X111790000Y-63565000D02*
G75*
G02*
X112140000Y-63215000I350000J0D01*
G01*
X112840000Y-64715000D02*
G75*
G03*
X113190000Y-64365000I0J350000D01*
G01*
X113190000Y-67315000D02*
G75*
G03*
X112840000Y-66965000I-350000J0D01*
G01*
X112140000Y-66965000D02*
G75*
G02*
X111790000Y-66615000I0J350000D01*
G01*
%TO.N,/IPL1*%
X109600000Y-66215000D02*
X110300000Y-66215000D01*
X110650000Y-67365000D02*
X110650000Y-67315000D01*
X110650000Y-65865000D02*
X110650000Y-65815000D01*
X110300000Y-66965000D02*
X109600000Y-66965000D01*
X109950000Y-80645000D02*
X109950000Y-68065000D01*
X109600000Y-64715000D02*
X110300000Y-64715000D01*
X109250000Y-66615000D02*
X109250000Y-66565000D01*
X109250000Y-63615000D02*
X109250000Y-63565000D01*
X109250000Y-65115000D02*
X109250000Y-65065000D01*
X110300000Y-63965000D02*
X109600000Y-63965000D01*
X110650000Y-64365000D02*
X110650000Y-64315000D01*
X110300000Y-65465000D02*
X109600000Y-65465000D01*
X109950000Y-62865000D02*
X109950000Y-60360000D01*
X109600000Y-64715000D02*
G75*
G03*
X109250000Y-65065000I0J-350000D01*
G01*
X109600000Y-66215000D02*
G75*
G03*
X109250000Y-66565000I0J-350000D01*
G01*
X110300000Y-67715000D02*
G75*
G03*
X109950000Y-68065000I0J-350000D01*
G01*
X110300000Y-63965000D02*
G75*
G02*
X110650000Y-64315000I0J-350000D01*
G01*
X109950000Y-62865000D02*
G75*
G02*
X109600000Y-63215000I-350000J0D01*
G01*
X110650000Y-65865000D02*
G75*
G02*
X110300000Y-66215000I-350000J0D01*
G01*
X109250000Y-63615000D02*
G75*
G03*
X109600000Y-63965000I350000J0D01*
G01*
X109600000Y-63215000D02*
G75*
G03*
X109250000Y-63565000I0J-350000D01*
G01*
X110300000Y-65465000D02*
G75*
G02*
X110650000Y-65815000I0J-350000D01*
G01*
X109250000Y-66615000D02*
G75*
G03*
X109600000Y-66965000I350000J0D01*
G01*
X109250000Y-65115000D02*
G75*
G03*
X109600000Y-65465000I350000J0D01*
G01*
X110300000Y-66965000D02*
G75*
G02*
X110650000Y-67315000I0J-350000D01*
G01*
X110650000Y-64365000D02*
G75*
G02*
X110300000Y-64715000I-350000J0D01*
G01*
X110650000Y-67365000D02*
G75*
G02*
X110300000Y-67715000I-350000J0D01*
G01*
%TO.N,/EXTINT*%
X106710000Y-66565000D02*
X106710000Y-66615000D01*
X107060000Y-65465000D02*
X107760000Y-65465000D01*
X107410000Y-68065000D02*
X107410000Y-80645000D01*
X108110000Y-67315000D02*
X108110000Y-67365000D01*
X107060000Y-64715000D02*
X107760000Y-64715000D01*
X107410000Y-60360000D02*
X107410000Y-62865000D01*
X108110000Y-65815000D02*
X108110000Y-65865000D01*
X106710000Y-65065000D02*
X106710000Y-65115000D01*
X107060000Y-66215000D02*
X107760000Y-66215000D01*
X107060000Y-63965000D02*
X107760000Y-63965000D01*
X106710000Y-63565000D02*
X106710000Y-63615000D01*
X108110000Y-64315000D02*
X108110000Y-64365000D01*
X107060000Y-66965000D02*
X107760000Y-66965000D01*
X108110000Y-64315000D02*
G75*
G03*
X107760000Y-63965000I-350000J0D01*
G01*
X107760000Y-64715000D02*
G75*
G03*
X108110000Y-64365000I0J350000D01*
G01*
X107760000Y-67715000D02*
G75*
G03*
X108110000Y-67365000I0J350000D01*
G01*
X108110000Y-65815000D02*
G75*
G03*
X107760000Y-65465000I-350000J0D01*
G01*
X106710000Y-63565000D02*
G75*
G02*
X107060000Y-63215000I350000J0D01*
G01*
X106710000Y-66565000D02*
G75*
G02*
X107060000Y-66215000I350000J0D01*
G01*
X108110000Y-67315000D02*
G75*
G03*
X107760000Y-66965000I-350000J0D01*
G01*
X107060000Y-65465000D02*
G75*
G02*
X106710000Y-65115000I0J350000D01*
G01*
X107060000Y-63965000D02*
G75*
G02*
X106710000Y-63615000I0J350000D01*
G01*
X107060000Y-66965000D02*
G75*
G02*
X106710000Y-66615000I0J350000D01*
G01*
X107060000Y-63215000D02*
G75*
G03*
X107410000Y-62865000I0J350000D01*
G01*
X106710000Y-65065000D02*
G75*
G02*
X107060000Y-64715000I350000J0D01*
G01*
X107410000Y-68065000D02*
G75*
G02*
X107760000Y-67715000I350000J0D01*
G01*
X107760000Y-66215000D02*
G75*
G03*
X108110000Y-65865000I0J350000D01*
G01*
%TO.N,/CLKCPU*%
X155670000Y-83185000D02*
X154400000Y-81915000D01*
X154400000Y-79375000D02*
X153765000Y-78740000D01*
X153765000Y-67310000D02*
X154400000Y-66675000D01*
X153765000Y-78740000D02*
X153765000Y-67310000D01*
X154400000Y-66675000D02*
X154400000Y-59090000D01*
X154400000Y-81915000D02*
X154400000Y-79375000D01*
X154400000Y-59090000D02*
X155670000Y-57820000D01*
%TO.N,/RED*%
X153130000Y-57820000D02*
X151860000Y-59090000D01*
X151860000Y-59090000D02*
X151860000Y-81915000D01*
X151860000Y-81915000D02*
X153130000Y-83185000D01*
%TO.N,/DBG*%
X120110000Y-83185000D02*
X118840000Y-81915000D01*
X118840000Y-81915000D02*
X118840000Y-59090000D01*
X118840000Y-59090000D02*
X120110000Y-57820000D01*
%TO.N,/ma12v*%
X106140000Y-81915000D02*
X107410000Y-83185000D01*
X106140000Y-59090000D02*
X106140000Y-81915000D01*
X107410000Y-57820000D02*
X106140000Y-59090000D01*
%TO.N,/me12v*%
X103600000Y-59090000D02*
X104870000Y-57820000D01*
X103600000Y-81915000D02*
X103600000Y-59090000D01*
X104870000Y-83185000D02*
X103600000Y-81915000D01*
%TD*%
M02*
