%TF.GenerationSoftware,KiCad,Pcbnew,8.0.6+1*%
%TF.CreationDate,2024-12-06T18:57:37+01:00*%
%TF.ProjectId,qlexternal512kram_MIX,716c6578-7465-4726-9e61-6c3531326b72,3*%
%TF.SameCoordinates,Original*%
%TF.FileFunction,Copper,L2,Bot*%
%TF.FilePolarity,Positive*%
%FSLAX46Y46*%
G04 Gerber Fmt 4.6, Leading zero omitted, Abs format (unit mm)*
G04 Created by KiCad (PCBNEW 8.0.6+1) date 2024-12-06 18:57:37*
%MOMM*%
%LPD*%
G01*
G04 APERTURE LIST*
G04 Aperture macros list*
%AMRoundRect*
0 Rectangle with rounded corners*
0 $1 Rounding radius*
0 $2 $3 $4 $5 $6 $7 $8 $9 X,Y pos of 4 corners*
0 Add a 4 corners polygon primitive as box body*
4,1,4,$2,$3,$4,$5,$6,$7,$8,$9,$2,$3,0*
0 Add four circle primitives for the rounded corners*
1,1,$1+$1,$2,$3*
1,1,$1+$1,$4,$5*
1,1,$1+$1,$6,$7*
1,1,$1+$1,$8,$9*
0 Add four rect primitives between the rounded corners*
20,1,$1+$1,$2,$3,$4,$5,0*
20,1,$1+$1,$4,$5,$6,$7,0*
20,1,$1+$1,$6,$7,$8,$9,0*
20,1,$1+$1,$8,$9,$2,$3,0*%
G04 Aperture macros list end*
%TA.AperFunction,ComponentPad*%
%ADD10RoundRect,0.249999X0.525001X0.525001X-0.525001X0.525001X-0.525001X-0.525001X0.525001X-0.525001X0*%
%TD*%
%TA.AperFunction,ComponentPad*%
%ADD11C,1.550000*%
%TD*%
%TA.AperFunction,ComponentPad*%
%ADD12RoundRect,0.249999X-0.525001X-0.525001X0.525001X-0.525001X0.525001X0.525001X-0.525001X0.525001X0*%
%TD*%
%TA.AperFunction,ComponentPad*%
%ADD13R,1.600000X2.400000*%
%TD*%
%TA.AperFunction,ComponentPad*%
%ADD14O,1.600000X2.400000*%
%TD*%
%TA.AperFunction,SMDPad,CuDef*%
%ADD15R,1.500000X1.000000*%
%TD*%
%TA.AperFunction,ViaPad*%
%ADD16C,0.800000*%
%TD*%
%TA.AperFunction,Conductor*%
%ADD17C,0.750000*%
%TD*%
%TA.AperFunction,Conductor*%
%ADD18C,0.250000*%
%TD*%
%ADD19C,0.350000*%
G04 APERTURE END LIST*
D10*
%TO.P,J1,a1,GND*%
%TO.N,GND*%
X181070000Y-57785000D03*
D11*
%TO.P,J1,a2,D3*%
%TO.N,/D3*%
X178530000Y-57785000D03*
%TO.P,J1,a3,D4*%
%TO.N,/D4*%
X175990000Y-57785000D03*
%TO.P,J1,a4,D5*%
%TO.N,/D5*%
X173450000Y-57785000D03*
%TO.P,J1,a5,D6*%
%TO.N,/D6*%
X170910000Y-57785000D03*
%TO.P,J1,a6,D7*%
%TO.N,/D7*%
X168370000Y-57785000D03*
%TO.P,J1,a7,A19*%
%TO.N,/A19*%
X165830000Y-57785000D03*
%TO.P,J1,a8,A18*%
%TO.N,/A18*%
X163290000Y-57785000D03*
%TO.P,J1,a9,A17*%
%TO.N,/A17*%
X160750000Y-57785000D03*
%TO.P,J1,a10,A16*%
%TO.N,/A16*%
X158210000Y-57785000D03*
%TO.P,J1,a11,CLKCPU*%
%TO.N,/CLKCPU*%
X155670000Y-57785000D03*
%TO.P,J1,a12,RED*%
%TO.N,/RED*%
X153130000Y-57785000D03*
%TO.P,J1,a13,A14*%
%TO.N,/A14*%
X150590000Y-57785000D03*
%TO.P,J1,a14,A13*%
%TO.N,/A13*%
X148050000Y-57785000D03*
%TO.P,J1,a15,A12*%
%TO.N,/A12*%
X145510000Y-57785000D03*
%TO.P,J1,a16,A11*%
%TO.N,/A11*%
X142970000Y-57785000D03*
%TO.P,J1,a17,A10*%
%TO.N,/A10*%
X140430000Y-57785000D03*
%TO.P,J1,a18,A9*%
%TO.N,/A9*%
X137890000Y-57785000D03*
%TO.P,J1,a19,A8*%
%TO.N,/A8*%
X135350000Y-57785000D03*
%TO.P,J1,a20,A7*%
%TO.N,/A7*%
X132810000Y-57785000D03*
%TO.P,J1,a21,A6*%
%TO.N,/A6*%
X130270000Y-57785000D03*
%TO.P,J1,a22,A5*%
%TO.N,/A5*%
X127730000Y-57785000D03*
%TO.P,J1,a23,A4*%
%TO.N,/A4*%
X125190000Y-57785000D03*
%TO.P,J1,a24,A3*%
%TO.N,/A3*%
X122650000Y-57785000D03*
%TO.P,J1,a25,~{DBG}*%
%TO.N,/DBG*%
X120110000Y-57785000D03*
%TO.P,J1,a26,SP2*%
%TO.N,/SP2*%
X117570000Y-57785000D03*
%TO.P,J1,a27,~{DSMC}*%
%TO.N,/DSMC*%
X115030000Y-57785000D03*
%TO.P,J1,a28,SP1*%
%TO.N,/SP1*%
X112490000Y-57785000D03*
%TO.P,J1,a29,SP0*%
%TO.N,/SP0*%
X109950000Y-57785000D03*
%TO.P,J1,a30,+12V*%
%TO.N,/ma12v*%
X107410000Y-57785000D03*
%TO.P,J1,a31,-12V*%
%TO.N,/me12v*%
X104870000Y-57785000D03*
%TO.P,J1,a32,Vin*%
%TO.N,+9V*%
X102330000Y-57785000D03*
%TO.P,J1,b1,GND*%
%TO.N,GND*%
X181070000Y-60325000D03*
%TO.P,J1,b2,D2*%
%TO.N,/D2*%
X178530000Y-60325000D03*
%TO.P,J1,b3,D1*%
%TO.N,/D1*%
X175990000Y-60325000D03*
%TO.P,J1,b4,D0*%
%TO.N,/D0*%
X173450000Y-60325000D03*
%TO.P,J1,b5,~{AS}*%
%TO.N,/AS*%
X170910000Y-60325000D03*
%TO.P,J1,b6,~{DS}*%
%TO.N,/DS*%
X168370000Y-60325000D03*
%TO.P,J1,b7,~{DRW}*%
%TO.N,/RW*%
X165830000Y-60325000D03*
%TO.P,J1,b8,~{DTACK}*%
%TO.N,/DTACK*%
X163290000Y-60325000D03*
%TO.P,J1,b9,~{BG}*%
%TO.N,/BG*%
X160750000Y-60325000D03*
%TO.P,J1,b10,~{BR}*%
%TO.N,/BR*%
X158210000Y-60325000D03*
%TO.P,J1,b11,A15*%
%TO.N,/A15*%
X155670000Y-60325000D03*
%TO.P,J1,b12,~{RESETCPU}*%
%TO.N,/RESET*%
X153130000Y-60325000D03*
%TO.P,J1,b13,~{CSYNC}*%
%TO.N,/CSYNC*%
X150590000Y-60325000D03*
%TO.P,J1,b14,E*%
%TO.N,/E*%
X148050000Y-60325000D03*
%TO.P,J1,b15,VSYNCH*%
%TO.N,/VSYNC*%
X145510000Y-60325000D03*
%TO.P,J1,b16,~{VPA}*%
%TO.N,/VPA*%
X142970000Y-60325000D03*
%TO.P,J1,b17,GREEN*%
%TO.N,/GREEN*%
X140430000Y-60325000D03*
%TO.P,J1,b18,BLUE*%
%TO.N,/BLUE*%
X137890000Y-60325000D03*
%TO.P,J1,b19,FC2*%
%TO.N,/FC2*%
X135350000Y-60325000D03*
%TO.P,J1,b20,FC1*%
%TO.N,/FC1*%
X132810000Y-60325000D03*
%TO.P,J1,b21,FC0*%
%TO.N,/FC0*%
X130270000Y-60325000D03*
%TO.P,J1,b22,A0*%
%TO.N,/A0*%
X127730000Y-60325000D03*
%TO.P,J1,b23,ROMOEH*%
%TO.N,/ROMOE*%
X125190000Y-60325000D03*
%TO.P,J1,b24,A1*%
%TO.N,/A1*%
X122650000Y-60325000D03*
%TO.P,J1,b25,A2*%
%TO.N,/A2*%
X120110000Y-60325000D03*
%TO.P,J1,b26,SP3*%
%TO.N,/SP3*%
X117570000Y-60325000D03*
%TO.P,J1,b27,~{IPLO}*%
%TO.N,/IPL0*%
X115030000Y-60325000D03*
%TO.P,J1,b28,~{BERR}*%
%TO.N,/BERR*%
X112490000Y-60325000D03*
%TO.P,J1,b29,~{IPL1}*%
%TO.N,/IPL1*%
X109950000Y-60325000D03*
%TO.P,J1,b30,~{EXTINT}*%
%TO.N,/EXTINT*%
X107410000Y-60325000D03*
%TO.P,J1,b31,Vin*%
%TO.N,+9V*%
X104870000Y-60325000D03*
%TO.P,J1,b32,Vin*%
X102330000Y-60325000D03*
%TD*%
D12*
%TO.P,J2,a1,GND*%
%TO.N,GND*%
X181060000Y-83185000D03*
D11*
%TO.P,J2,a2,D3*%
%TO.N,/D3*%
X178520000Y-83185000D03*
%TO.P,J2,a3,D4*%
%TO.N,/D4*%
X175980000Y-83185000D03*
%TO.P,J2,a4,D5*%
%TO.N,/D5*%
X173440000Y-83185000D03*
%TO.P,J2,a5,D6*%
%TO.N,/D6*%
X170900000Y-83185000D03*
%TO.P,J2,a6,D7*%
%TO.N,/D7*%
X168360000Y-83185000D03*
%TO.P,J2,a7,A19*%
%TO.N,/A19*%
X165820000Y-83185000D03*
%TO.P,J2,a8,A18*%
%TO.N,/A18*%
X163280000Y-83185000D03*
%TO.P,J2,a9,A17*%
%TO.N,/A17*%
X160740000Y-83185000D03*
%TO.P,J2,a10,A16*%
%TO.N,/A16*%
X158200000Y-83185000D03*
%TO.P,J2,a11,CLKCPU*%
%TO.N,/CLKCPU*%
X155660000Y-83185000D03*
%TO.P,J2,a12,RED*%
%TO.N,/RED*%
X153120000Y-83185000D03*
%TO.P,J2,a13,A14*%
%TO.N,/A14*%
X150580000Y-83185000D03*
%TO.P,J2,a14,A13*%
%TO.N,/A13*%
X148040000Y-83185000D03*
%TO.P,J2,a15,A12*%
%TO.N,/A12*%
X145500000Y-83185000D03*
%TO.P,J2,a16,A11*%
%TO.N,/A11*%
X142960000Y-83185000D03*
%TO.P,J2,a17,A10*%
%TO.N,/A10*%
X140420000Y-83185000D03*
%TO.P,J2,a18,A9*%
%TO.N,/A9*%
X137880000Y-83185000D03*
%TO.P,J2,a19,A8*%
%TO.N,/A8*%
X135340000Y-83185000D03*
%TO.P,J2,a20,A7*%
%TO.N,/A7*%
X132800000Y-83185000D03*
%TO.P,J2,a21,A6*%
%TO.N,/A6*%
X130260000Y-83185000D03*
%TO.P,J2,a22,A5*%
%TO.N,/A5*%
X127720000Y-83185000D03*
%TO.P,J2,a23,A4*%
%TO.N,/A4*%
X125180000Y-83185000D03*
%TO.P,J2,a24,A3*%
%TO.N,/A3*%
X122640000Y-83185000D03*
%TO.P,J2,a25,~{DBG}*%
%TO.N,/DBG*%
X120100000Y-83185000D03*
%TO.P,J2,a26,SP2*%
%TO.N,/SP2*%
X117560000Y-83185000D03*
%TO.P,J2,a27,~{DSMC}*%
%TO.N,/DSMC*%
X115020000Y-83185000D03*
%TO.P,J2,a28,SP1*%
%TO.N,/SP1*%
X112480000Y-83185000D03*
%TO.P,J2,a29,SP0*%
%TO.N,/SP0*%
X109940000Y-83185000D03*
%TO.P,J2,a30,+12V*%
%TO.N,/ma12v*%
X107400000Y-83185000D03*
%TO.P,J2,a31,-12V*%
%TO.N,/me12v*%
X104860000Y-83185000D03*
%TO.P,J2,a32,Vin*%
%TO.N,+9V*%
X102320000Y-83185000D03*
%TO.P,J2,b1,GND*%
%TO.N,GND*%
X181060000Y-80645000D03*
%TO.P,J2,b2,D2*%
%TO.N,/D2*%
X178520000Y-80645000D03*
%TO.P,J2,b3,D1*%
%TO.N,/D1*%
X175980000Y-80645000D03*
%TO.P,J2,b4,D0*%
%TO.N,/D0*%
X173440000Y-80645000D03*
%TO.P,J2,b5,~{AS}*%
%TO.N,/AS*%
X170900000Y-80645000D03*
%TO.P,J2,b6,~{DS}*%
%TO.N,/DS*%
X168360000Y-80645000D03*
%TO.P,J2,b7,~{DRW}*%
%TO.N,/RW*%
X165820000Y-80645000D03*
%TO.P,J2,b8,~{DTACK}*%
%TO.N,/DTACK*%
X163280000Y-80645000D03*
%TO.P,J2,b9,~{BG}*%
%TO.N,/BG*%
X160740000Y-80645000D03*
%TO.P,J2,b10,~{BR}*%
%TO.N,/BR*%
X158200000Y-80645000D03*
%TO.P,J2,b11,A15*%
%TO.N,/A15*%
X155660000Y-80645000D03*
%TO.P,J2,b12,~{RESETCPU}*%
%TO.N,/RESET*%
X153120000Y-80645000D03*
%TO.P,J2,b13,~{CSYNC}*%
%TO.N,/CSYNC*%
X150580000Y-80645000D03*
%TO.P,J2,b14,E*%
%TO.N,/E*%
X148040000Y-80645000D03*
%TO.P,J2,b15,VSYNCH*%
%TO.N,/VSYNC*%
X145500000Y-80645000D03*
%TO.P,J2,b16,~{VPA}*%
%TO.N,/VPA*%
X142960000Y-80645000D03*
%TO.P,J2,b17,GREEN*%
%TO.N,/GREEN*%
X140420000Y-80645000D03*
%TO.P,J2,b18,BLUE*%
%TO.N,/BLUE*%
X137880000Y-80645000D03*
%TO.P,J2,b19,FC2*%
%TO.N,/FC2*%
X135340000Y-80645000D03*
%TO.P,J2,b20,FC1*%
%TO.N,/FC1*%
X132800000Y-80645000D03*
%TO.P,J2,b21,FC0*%
%TO.N,/FC0*%
X130260000Y-80645000D03*
%TO.P,J2,b22,A0*%
%TO.N,/A0*%
X127720000Y-80645000D03*
%TO.P,J2,b23,ROMOEH*%
%TO.N,/ROMOE*%
X125180000Y-80645000D03*
%TO.P,J2,b24,A1*%
%TO.N,/A1*%
X122640000Y-80645000D03*
%TO.P,J2,b25,A2*%
%TO.N,/A2*%
X120100000Y-80645000D03*
%TO.P,J2,b26,SP3*%
%TO.N,/SP3*%
X117560000Y-80645000D03*
%TO.P,J2,b27,~{IPLO}*%
%TO.N,/IPL0*%
X115020000Y-80645000D03*
%TO.P,J2,b28,~{BERR}*%
%TO.N,Net-(J2-~{BERR})*%
X112480000Y-80645000D03*
%TO.P,J2,b29,~{IPL1}*%
%TO.N,/IPL1*%
X109940000Y-80645000D03*
%TO.P,J2,b30,~{EXTINT}*%
%TO.N,/EXTINT*%
X107400000Y-80645000D03*
%TO.P,J2,b31,Vin*%
%TO.N,+9V*%
X104860000Y-80645000D03*
%TO.P,J2,b32,Vin*%
X102320000Y-80645000D03*
%TD*%
D13*
%TO.P,U2,1,I1/CLK*%
%TO.N,/DS*%
X158215000Y-74310000D03*
D14*
%TO.P,U2,2,I2*%
%TO.N,/A17*%
X160755000Y-74310000D03*
%TO.P,U2,3,I3*%
%TO.N,/A16*%
X163295000Y-74310000D03*
%TO.P,U2,4,I4*%
%TO.N,/A15*%
X165835000Y-74310000D03*
%TO.P,U2,5,I5*%
%TO.N,unconnected-(U2-I5-Pad5)*%
X168375000Y-74310000D03*
%TO.P,U2,6,I6*%
%TO.N,/AS*%
X170915000Y-74310000D03*
%TO.P,U2,7,I7*%
%TO.N,Net-(JP1-B)*%
X173455000Y-74310000D03*
%TO.P,U2,8,I8*%
%TO.N,Net-(JP2-B)*%
X175995000Y-74310000D03*
%TO.P,U2,9,I9*%
%TO.N,/A19*%
X178535000Y-74310000D03*
%TO.P,U2,10,GND*%
%TO.N,GND*%
X181075000Y-74310000D03*
%TO.P,U2,11,I10/~{OE}*%
%TO.N,/A18*%
X181075000Y-66690000D03*
%TO.P,U2,12,IO8*%
%TO.N,unconnected-(U2-IO8-Pad12)*%
X178535000Y-66690000D03*
%TO.P,U2,13,IO7*%
%TO.N,unconnected-(U2-IO7-Pad13)*%
X175995000Y-66690000D03*
%TO.P,U2,14,IO6*%
%TO.N,/DTACK*%
X173455000Y-66690000D03*
%TO.P,U2,15,IO5*%
%TO.N,unconnected-(U2-IO5-Pad15)*%
X170915000Y-66690000D03*
%TO.P,U2,16,IO4*%
%TO.N,/DSMC*%
X168375000Y-66690000D03*
%TO.P,U2,17,I03*%
%TO.N,Net-(JP3-B)*%
X165835000Y-66690000D03*
%TO.P,U2,18,IO2*%
%TO.N,/RAM_OE*%
X163295000Y-66690000D03*
%TO.P,U2,19,IO1*%
%TO.N,/RAM_CE*%
X160755000Y-66690000D03*
%TO.P,U2,20,VCC*%
%TO.N,VCC*%
X158215000Y-66690000D03*
%TD*%
D15*
%TO.P,JP3,1,A*%
%TO.N,Net-(J2-~{BERR})*%
X112530900Y-66806600D03*
%TO.P,JP3,2,C*%
%TO.N,/BERR*%
X112530900Y-65506600D03*
%TO.P,JP3,3,B*%
%TO.N,Net-(JP3-B)*%
X112530900Y-64206600D03*
%TD*%
D16*
%TO.N,/A4*%
X123920000Y-72390000D03*
%TO.N,/A5*%
X126460000Y-73025000D03*
%TO.N,/A6*%
X129000000Y-74295000D03*
%TO.N,/A7*%
X131540000Y-75390400D03*
%TO.N,/A8*%
X134625500Y-65913000D03*
%TO.N,/A10*%
X139705500Y-65913000D03*
%TO.N,/D7*%
X170275000Y-86360000D03*
X170910000Y-55245000D03*
%TO.N,/A17*%
X157575000Y-76200000D03*
%TO.N,/A18*%
X163290000Y-69187500D03*
%TO.N,/A15*%
X154685000Y-76200000D03*
%TO.N,/DS*%
X166465000Y-72390000D03*
%TO.N,/AS*%
X170910000Y-64262000D03*
%TO.N,/DTACK*%
X163290000Y-64516000D03*
%TO.N,Net-(JP3-B)*%
X113002653Y-61853653D03*
X113760000Y-55790000D03*
%TD*%
D17*
%TO.N,GND*%
X181075000Y-74310000D02*
X181075000Y-72534700D01*
X181070000Y-80645000D02*
X181070000Y-83185000D01*
X182450500Y-61740500D02*
X181070000Y-60360000D01*
X181075000Y-74310000D02*
X181075000Y-80640000D01*
X182450500Y-71159200D02*
X182450500Y-61740500D01*
X181075000Y-72534700D02*
X182450500Y-71159200D01*
D18*
%TO.N,/A3*%
X121380000Y-81915000D02*
X122650000Y-83185000D01*
X121380000Y-59090000D02*
X121380000Y-81915000D01*
X122650000Y-57820000D02*
X121380000Y-59090000D01*
%TO.N,/A4*%
X123920000Y-72390000D02*
X123920000Y-59090000D01*
X123920000Y-72390000D02*
X123920000Y-81915000D01*
X123920000Y-81915000D02*
X125190000Y-83185000D01*
X123920000Y-59090000D02*
X125190000Y-57820000D01*
%TO.N,/A5*%
X126460000Y-59090000D02*
X127730000Y-57820000D01*
X126460000Y-81915000D02*
X127730000Y-83185000D01*
X126460000Y-81915000D02*
X126460000Y-59090000D01*
%TO.N,/A6*%
X129000000Y-81915000D02*
X130270000Y-83185000D01*
X129000000Y-59090000D02*
X130270000Y-57820000D01*
X129000000Y-74295000D02*
X129000000Y-59090000D01*
X129000000Y-74295000D02*
X129000000Y-81915000D01*
%TO.N,/A7*%
X131540000Y-75390400D02*
X131540000Y-81915000D01*
X131540000Y-81915000D02*
X132810000Y-83185000D01*
X131540000Y-75390400D02*
X131540000Y-59090000D01*
X131540000Y-59090000D02*
X132810000Y-57820000D01*
%TO.N,/A8*%
X135350000Y-83185000D02*
X134080000Y-81915000D01*
X134080000Y-81915000D02*
X134080000Y-65579000D01*
X134080000Y-59090000D02*
X134080000Y-65579000D01*
X135350000Y-57820000D02*
X134080000Y-59090000D01*
X134625500Y-65913000D02*
X134414000Y-65913000D01*
X134414000Y-65913000D02*
X134080000Y-65579000D01*
%TO.N,/A9*%
X136620000Y-81915000D02*
X136620000Y-59090000D01*
X136620000Y-59090000D02*
X137890000Y-57820000D01*
X137890000Y-83185000D02*
X136620000Y-81915000D01*
%TO.N,/A10*%
X139160000Y-59055000D02*
X139160000Y-81915000D01*
X140430000Y-57820000D02*
X139195000Y-59055000D01*
X139195000Y-59055000D02*
X139160000Y-59055000D01*
X139705500Y-65913000D02*
X139541000Y-65913000D01*
X139541000Y-65913000D02*
X139160000Y-65532000D01*
X139160000Y-81915000D02*
X140430000Y-83185000D01*
%TO.N,/A11*%
X141700000Y-59090000D02*
X142970000Y-57820000D01*
X142970000Y-83185000D02*
X141700000Y-81915000D01*
X141700000Y-81915000D02*
X141700000Y-59090000D01*
%TO.N,/A12*%
X144240000Y-59090000D02*
X145510000Y-57820000D01*
X144240000Y-81915000D02*
X144240000Y-59090000D01*
X145510000Y-83185000D02*
X144240000Y-81915000D01*
%TO.N,/D7*%
X185515000Y-82550000D02*
X181705000Y-86360000D01*
X185515000Y-57785000D02*
X185515000Y-82550000D01*
X170910000Y-55245000D02*
X182975000Y-55245000D01*
X181705000Y-86360000D02*
X170275000Y-86360000D01*
X182975000Y-55245000D02*
X185515000Y-57785000D01*
%TO.N,/D6*%
X169640000Y-59090000D02*
X169640000Y-81915000D01*
X169640000Y-81915000D02*
X170910000Y-83185000D01*
X170910000Y-57820000D02*
X169640000Y-59090000D01*
%TO.N,/D5*%
X175990000Y-85725000D02*
X173450000Y-83185000D01*
X181704282Y-85725000D02*
X175990000Y-85725000D01*
X184880000Y-82549282D02*
X181704282Y-85725000D01*
X175390000Y-55880000D02*
X182340000Y-55880000D01*
X184880000Y-58420000D02*
X182340000Y-55880000D01*
X184880000Y-58420000D02*
X184880000Y-82549282D01*
X173450000Y-57820000D02*
X175390000Y-55880000D01*
%TO.N,/D4*%
X181705000Y-56515000D02*
X177295000Y-56515000D01*
X184245000Y-82548564D02*
X184245000Y-59055000D01*
X175990000Y-83185000D02*
X177895000Y-85090000D01*
X184245000Y-59055000D02*
X181705000Y-56515000D01*
X181703564Y-85090000D02*
X184245000Y-82548564D01*
X177895000Y-85090000D02*
X181703564Y-85090000D01*
X177295000Y-56515000D02*
X175990000Y-57820000D01*
%TO.N,/D3*%
X179800000Y-84455000D02*
X181702846Y-84455000D01*
X179765000Y-59055000D02*
X178530000Y-57820000D01*
X183610000Y-82547846D02*
X183610000Y-60960000D01*
X181702846Y-84455000D02*
X183610000Y-82547846D01*
X181705000Y-59055000D02*
X179765000Y-59055000D01*
X183610000Y-60960000D02*
X181705000Y-59055000D01*
X178530000Y-83185000D02*
X179800000Y-84455000D01*
%TO.N,/A2*%
X120810000Y-64315000D02*
X120810000Y-64365000D01*
X119760000Y-63965000D02*
X120460000Y-63965000D01*
X119760000Y-65465000D02*
X120460000Y-65465000D01*
X120110000Y-60360000D02*
X120110000Y-62865000D01*
X119410000Y-66565000D02*
X119410000Y-66615000D01*
X119760000Y-66965000D02*
X120460000Y-66965000D01*
X120810000Y-67315000D02*
X120810000Y-67365000D01*
X119760000Y-64715000D02*
X120460000Y-64715000D01*
X120110000Y-68065000D02*
X120110000Y-80645000D01*
X119410000Y-63565000D02*
X119410000Y-63615000D01*
X119410000Y-65065000D02*
X119410000Y-65115000D01*
X120810000Y-65815000D02*
X120810000Y-65865000D01*
X119760000Y-66215000D02*
X120460000Y-66215000D01*
X119760000Y-66215000D02*
G75*
G03*
X119410000Y-66565000I0J-350000D01*
G01*
X119760000Y-64715000D02*
G75*
G03*
X119410000Y-65065000I0J-350000D01*
G01*
X120460000Y-65465000D02*
G75*
G02*
X120810000Y-65815000I0J-350000D01*
G01*
X119410000Y-63615000D02*
G75*
G03*
X119760000Y-63965000I350000J0D01*
G01*
X119410000Y-65115000D02*
G75*
G03*
X119760000Y-65465000I350000J0D01*
G01*
X120460000Y-67715000D02*
G75*
G03*
X120110000Y-68065000I0J-350000D01*
G01*
X120460000Y-66965000D02*
G75*
G02*
X120810000Y-67315000I0J-350000D01*
G01*
X120810000Y-67365000D02*
G75*
G02*
X120460000Y-67715000I-350000J0D01*
G01*
X120810000Y-65865000D02*
G75*
G02*
X120460000Y-66215000I-350000J0D01*
G01*
X120110000Y-62865000D02*
G75*
G02*
X119760000Y-63215000I-350000J0D01*
G01*
X119410000Y-66615000D02*
G75*
G03*
X119760000Y-66965000I350000J0D01*
G01*
X120810000Y-64365000D02*
G75*
G02*
X120460000Y-64715000I-350000J0D01*
G01*
X120460000Y-63965000D02*
G75*
G02*
X120810000Y-64315000I0J-350000D01*
G01*
X119760000Y-63215000D02*
G75*
G03*
X119410000Y-63565000I0J-350000D01*
G01*
%TO.N,/A1*%
X123350000Y-64315000D02*
X123350000Y-64365000D01*
X123350000Y-67315000D02*
X123350000Y-67365000D01*
X122650000Y-68065000D02*
X122650000Y-80645000D01*
X123350000Y-65815000D02*
X123350000Y-65865000D01*
X122300000Y-63965000D02*
X123000000Y-63965000D01*
X121950000Y-66565000D02*
X121950000Y-66615000D01*
X122300000Y-65465000D02*
X123000000Y-65465000D01*
X122300000Y-66215000D02*
X123000000Y-66215000D01*
X122650000Y-60360000D02*
X122650000Y-62865000D01*
X122300000Y-64715000D02*
X123000000Y-64715000D01*
X122300000Y-66965000D02*
X123000000Y-66965000D01*
X121950000Y-65065000D02*
X121950000Y-65115000D01*
X121950000Y-63565000D02*
X121950000Y-63615000D01*
X122650000Y-62865000D02*
G75*
G02*
X122300000Y-63215000I-350000J0D01*
G01*
X122300000Y-64715000D02*
G75*
G03*
X121950000Y-65065000I0J-350000D01*
G01*
X123350000Y-64365000D02*
G75*
G02*
X123000000Y-64715000I-350000J0D01*
G01*
X121950000Y-65115000D02*
G75*
G03*
X122300000Y-65465000I350000J0D01*
G01*
X123350000Y-67365000D02*
G75*
G02*
X123000000Y-67715000I-350000J0D01*
G01*
X123000000Y-63965000D02*
G75*
G02*
X123350000Y-64315000I0J-350000D01*
G01*
X121950000Y-66615000D02*
G75*
G03*
X122300000Y-66965000I350000J0D01*
G01*
X121950000Y-63615000D02*
G75*
G03*
X122300000Y-63965000I350000J0D01*
G01*
X123350000Y-65865000D02*
G75*
G02*
X123000000Y-66215000I-350000J0D01*
G01*
X123000000Y-66965000D02*
G75*
G02*
X123350000Y-67315000I0J-350000D01*
G01*
X123000000Y-67715000D02*
G75*
G03*
X122650000Y-68065000I0J-350000D01*
G01*
X123000000Y-65465000D02*
G75*
G02*
X123350000Y-65815000I0J-350000D01*
G01*
X122300000Y-63215000D02*
G75*
G03*
X121950000Y-63565000I0J-350000D01*
G01*
X122300000Y-66215000D02*
G75*
G03*
X121950000Y-66565000I0J-350000D01*
G01*
%TO.N,/A0*%
X127380000Y-64715000D02*
X128080000Y-64715000D01*
X127030000Y-63565000D02*
X127030000Y-63615000D01*
X127730000Y-68065000D02*
X127730000Y-80645000D01*
X128430000Y-65815000D02*
X128430000Y-65865000D01*
X127380000Y-65465000D02*
X128080000Y-65465000D01*
X128430000Y-64315000D02*
X128430000Y-64365000D01*
X128430000Y-67315000D02*
X128430000Y-67365000D01*
X127730000Y-60360000D02*
X127730000Y-62865000D01*
X127380000Y-66215000D02*
X128080000Y-66215000D01*
X127380000Y-63965000D02*
X128080000Y-63965000D01*
X127030000Y-65065000D02*
X127030000Y-65115000D01*
X127380000Y-66965000D02*
X128080000Y-66965000D01*
X127030000Y-66565000D02*
X127030000Y-66615000D01*
X128430000Y-65865000D02*
G75*
G02*
X128080000Y-66215000I-350000J0D01*
G01*
X128080000Y-67715000D02*
G75*
G03*
X127730000Y-68065000I0J-350000D01*
G01*
X128430000Y-67365000D02*
G75*
G02*
X128080000Y-67715000I-350000J0D01*
G01*
X128080000Y-65465000D02*
G75*
G02*
X128430000Y-65815000I0J-350000D01*
G01*
X127380000Y-63215000D02*
G75*
G03*
X127030000Y-63565000I0J-350000D01*
G01*
X127030000Y-66615000D02*
G75*
G03*
X127380000Y-66965000I350000J0D01*
G01*
X128080000Y-63965000D02*
G75*
G02*
X128430000Y-64315000I0J-350000D01*
G01*
X127030000Y-65115000D02*
G75*
G03*
X127380000Y-65465000I350000J0D01*
G01*
X127380000Y-66215000D02*
G75*
G03*
X127030000Y-66565000I0J-350000D01*
G01*
X128430000Y-64365000D02*
G75*
G02*
X128080000Y-64715000I-350000J0D01*
G01*
X128080000Y-66965000D02*
G75*
G02*
X128430000Y-67315000I0J-350000D01*
G01*
X127730000Y-62865000D02*
G75*
G02*
X127380000Y-63215000I-350000J0D01*
G01*
X127030000Y-63615000D02*
G75*
G03*
X127380000Y-63965000I350000J0D01*
G01*
X127380000Y-64715000D02*
G75*
G03*
X127030000Y-65065000I0J-350000D01*
G01*
%TO.N,/RW*%
X163860000Y-77065000D02*
X163860000Y-77015000D01*
X164600711Y-62270711D02*
X164600711Y-61589289D01*
X164560000Y-75565000D02*
X164560000Y-64470711D01*
X164950711Y-63370711D02*
X164250711Y-63370711D01*
X165260000Y-76315000D02*
X165260000Y-76265000D01*
X165830000Y-80645000D02*
X164560000Y-79375000D01*
X164910000Y-77415000D02*
X164210000Y-77415000D01*
X164210000Y-76665000D02*
X164910000Y-76665000D01*
X163900711Y-63020711D02*
X163900711Y-62970711D01*
X164600711Y-61589289D02*
X165830000Y-60360000D01*
X165300711Y-63770711D02*
X165300711Y-63720711D01*
X164560000Y-79375000D02*
X164560000Y-78515000D01*
X165260000Y-77815000D02*
X165260000Y-77765000D01*
X164910000Y-78165000D02*
G75*
G03*
X165260000Y-77815000I0J350000D01*
G01*
X164250711Y-62620711D02*
G75*
G03*
X164600711Y-62270711I-11J350011D01*
G01*
X164560000Y-78515000D02*
G75*
G02*
X164910000Y-78165000I350000J0D01*
G01*
X165260000Y-76265000D02*
G75*
G03*
X164910000Y-75915000I-350000J0D01*
G01*
X164910000Y-76665000D02*
G75*
G03*
X165260000Y-76315000I0J350000D01*
G01*
X164560000Y-64470711D02*
G75*
G02*
X164910000Y-64120700I350000J11D01*
G01*
X163900711Y-62970711D02*
G75*
G02*
X164250711Y-62620711I349989J11D01*
G01*
X164910000Y-75915000D02*
G75*
G02*
X164560000Y-75565000I0J350000D01*
G01*
X164210000Y-77415000D02*
G75*
G02*
X163860000Y-77065000I0J350000D01*
G01*
X165300711Y-63720711D02*
G75*
G03*
X164950711Y-63370689I-350011J11D01*
G01*
X164950711Y-64120711D02*
G75*
G03*
X165300711Y-63770711I-11J350011D01*
G01*
X163860000Y-77015000D02*
G75*
G02*
X164210000Y-76665000I350000J0D01*
G01*
X165260000Y-77765000D02*
G75*
G03*
X164910000Y-77415000I-350000J0D01*
G01*
X164250711Y-63370711D02*
G75*
G02*
X163900689Y-63020711I-11J350011D01*
G01*
%TO.N,/D0*%
X172880000Y-71645000D02*
X172880000Y-71695000D01*
X172880000Y-70145000D02*
X172880000Y-70195000D01*
X173450000Y-64462100D02*
X172180000Y-65732100D01*
X172180000Y-72395000D02*
X172180000Y-79375000D01*
X171480000Y-69395000D02*
X171480000Y-69445000D01*
X172880000Y-68645000D02*
X172880000Y-68695000D01*
X171830000Y-70545000D02*
X172530000Y-70545000D01*
X173450000Y-60360000D02*
X173450000Y-64462100D01*
X171830000Y-69045000D02*
X172530000Y-69045000D01*
X171480000Y-70895000D02*
X171480000Y-70945000D01*
X172180000Y-65732100D02*
X172180000Y-67945000D01*
X171830000Y-69795000D02*
X172530000Y-69795000D01*
X172180000Y-79375000D02*
X173450000Y-80645000D01*
X171830000Y-71295000D02*
X172530000Y-71295000D01*
X171480000Y-70945000D02*
G75*
G03*
X171830000Y-71295000I350000J0D01*
G01*
X172180000Y-67945000D02*
G75*
G03*
X172530000Y-68295000I350000J0D01*
G01*
X172530000Y-69795000D02*
G75*
G02*
X172880000Y-70145000I0J-350000D01*
G01*
X172530000Y-72045000D02*
G75*
G03*
X172180000Y-72395000I0J-350000D01*
G01*
X172530000Y-71295000D02*
G75*
G02*
X172880000Y-71645000I0J-350000D01*
G01*
X171830000Y-70545000D02*
G75*
G03*
X171480000Y-70895000I0J-350000D01*
G01*
X172530000Y-68295000D02*
G75*
G02*
X172880000Y-68645000I0J-350000D01*
G01*
X171480000Y-69445000D02*
G75*
G03*
X171830000Y-69795000I350000J0D01*
G01*
X171830000Y-69045000D02*
G75*
G03*
X171480000Y-69395000I0J-350000D01*
G01*
X172880000Y-68695000D02*
G75*
G02*
X172530000Y-69045000I-350000J0D01*
G01*
X172880000Y-71695000D02*
G75*
G02*
X172530000Y-72045000I-350000J0D01*
G01*
X172880000Y-70195000D02*
G75*
G02*
X172530000Y-70545000I-350000J0D01*
G01*
%TO.N,/D1*%
X175420000Y-71645000D02*
X175420000Y-71695000D01*
X174020000Y-69395000D02*
X174020000Y-69445000D01*
X174720000Y-79375000D02*
X175990000Y-80645000D01*
X174370000Y-69045000D02*
X175070000Y-69045000D01*
X175420000Y-70145000D02*
X175420000Y-70195000D01*
X174020000Y-70895000D02*
X174020000Y-70945000D01*
X175420000Y-68645000D02*
X175420000Y-68695000D01*
X175990000Y-60360000D02*
X174755000Y-61595000D01*
X174370000Y-70545000D02*
X175070000Y-70545000D01*
X174370000Y-71295000D02*
X175070000Y-71295000D01*
X174755000Y-61595000D02*
X174720000Y-61595000D01*
X174720000Y-61595000D02*
X174720000Y-67945000D01*
X174370000Y-69795000D02*
X175070000Y-69795000D01*
X174720000Y-72395000D02*
X174720000Y-79375000D01*
X175420000Y-70195000D02*
G75*
G02*
X175070000Y-70545000I-350000J0D01*
G01*
X175420000Y-71695000D02*
G75*
G02*
X175070000Y-72045000I-350000J0D01*
G01*
X175070000Y-69795000D02*
G75*
G02*
X175420000Y-70145000I0J-350000D01*
G01*
X174020000Y-69445000D02*
G75*
G03*
X174370000Y-69795000I350000J0D01*
G01*
X175070000Y-68295000D02*
G75*
G02*
X175420000Y-68645000I0J-350000D01*
G01*
X174370000Y-69045000D02*
G75*
G03*
X174020000Y-69395000I0J-350000D01*
G01*
X175420000Y-68695000D02*
G75*
G02*
X175070000Y-69045000I-350000J0D01*
G01*
X174720000Y-67945000D02*
G75*
G03*
X175070000Y-68295000I350000J0D01*
G01*
X175070000Y-72045000D02*
G75*
G03*
X174720000Y-72395000I0J-350000D01*
G01*
X174370000Y-70545000D02*
G75*
G03*
X174020000Y-70895000I0J-350000D01*
G01*
X174020000Y-70945000D02*
G75*
G03*
X174370000Y-71295000I350000J0D01*
G01*
X175070000Y-71295000D02*
G75*
G02*
X175420000Y-71645000I0J-350000D01*
G01*
%TO.N,/D2*%
X179450000Y-70545000D02*
X180150000Y-70545000D01*
X179100000Y-70895000D02*
X179100000Y-70945000D01*
X179450000Y-69045000D02*
X180150000Y-69045000D01*
X178530000Y-60360000D02*
X179800000Y-61630000D01*
X179450000Y-71295000D02*
X180150000Y-71295000D01*
X179800000Y-72395000D02*
X179800000Y-79375000D01*
X179100000Y-69395000D02*
X179100000Y-69445000D01*
X179800000Y-61630000D02*
X179800000Y-67945000D01*
X180500000Y-70145000D02*
X180500000Y-70195000D01*
X180500000Y-68645000D02*
X180500000Y-68695000D01*
X179800000Y-79375000D02*
X178530000Y-80645000D01*
X179450000Y-69795000D02*
X180150000Y-69795000D01*
X180500000Y-71645000D02*
X180500000Y-71695000D01*
X179450000Y-69045000D02*
G75*
G03*
X179100000Y-69395000I0J-350000D01*
G01*
X180150000Y-72045000D02*
G75*
G03*
X179800000Y-72395000I0J-350000D01*
G01*
X179100000Y-70945000D02*
G75*
G03*
X179450000Y-71295000I350000J0D01*
G01*
X180150000Y-68295000D02*
G75*
G02*
X180500000Y-68645000I0J-350000D01*
G01*
X179100000Y-69445000D02*
G75*
G03*
X179450000Y-69795000I350000J0D01*
G01*
X180500000Y-68695000D02*
G75*
G02*
X180150000Y-69045000I-350000J0D01*
G01*
X180150000Y-69795000D02*
G75*
G02*
X180500000Y-70145000I0J-350000D01*
G01*
X179450000Y-70545000D02*
G75*
G03*
X179100000Y-70895000I0J-350000D01*
G01*
X180150000Y-71295000D02*
G75*
G02*
X180500000Y-71645000I0J-350000D01*
G01*
X180500000Y-70195000D02*
G75*
G02*
X180150000Y-70545000I-350000J0D01*
G01*
X180500000Y-71695000D02*
G75*
G02*
X180150000Y-72045000I-350000J0D01*
G01*
X179800000Y-67945000D02*
G75*
G03*
X180150000Y-68295000I350000J0D01*
G01*
%TO.N,/SP0*%
X109950000Y-57820000D02*
X108680000Y-59090000D01*
X108680000Y-59090000D02*
X108680000Y-81915000D01*
X108680000Y-81915000D02*
X109950000Y-83185000D01*
%TO.N,/SP1*%
X111220000Y-59055000D02*
X111220000Y-61366400D01*
X110585000Y-67665600D02*
X111220000Y-68300600D01*
X111220000Y-68300600D02*
X111220000Y-81915000D01*
X111255000Y-59055000D02*
X111220000Y-59055000D01*
X111220000Y-81915000D02*
X112490000Y-83185000D01*
X110585000Y-62001400D02*
X110585000Y-67665600D01*
X112490000Y-57820000D02*
X111255000Y-59055000D01*
X111220000Y-61366400D02*
X110585000Y-62001400D01*
%TO.N,/DSMC*%
X113760000Y-81915000D02*
X113760000Y-68376800D01*
X113760000Y-61366400D02*
X113760000Y-59090000D01*
X114293400Y-61899800D02*
X113760000Y-61366400D01*
X114293400Y-67843400D02*
X114293400Y-61899800D01*
X115030000Y-83185000D02*
X113760000Y-81915000D01*
X113760000Y-59090000D02*
X115030000Y-57820000D01*
X113760000Y-68376800D02*
X114293400Y-67843400D01*
%TO.N,/SP2*%
X116300000Y-59090000D02*
X116300000Y-81915000D01*
X117570000Y-57820000D02*
X116300000Y-59090000D01*
X116300000Y-81915000D02*
X117570000Y-83185000D01*
%TO.N,/A13*%
X146780000Y-59090000D02*
X146780000Y-81915000D01*
X148050000Y-57820000D02*
X146780000Y-59090000D01*
X146780000Y-81915000D02*
X148050000Y-83185000D01*
%TO.N,/A14*%
X149320000Y-59090000D02*
X150590000Y-57820000D01*
X150590000Y-83185000D02*
X149320000Y-81915000D01*
X149320000Y-81915000D02*
X149320000Y-59090000D01*
%TO.N,/A16*%
X155670000Y-61971600D02*
X157106400Y-60535200D01*
X164560000Y-80010718D02*
X164560000Y-83820000D01*
X156940000Y-78867000D02*
X155670000Y-77597000D01*
X159480000Y-84455000D02*
X156940000Y-81915000D01*
X163925000Y-84455000D02*
X159480000Y-84455000D01*
X157106400Y-60535200D02*
X157106400Y-58923600D01*
X164560000Y-83820000D02*
X163925000Y-84455000D01*
X163323648Y-78774366D02*
X164560000Y-80010718D01*
X156940000Y-81915000D02*
X156940000Y-78867000D01*
X163323648Y-74338648D02*
X163323648Y-78774366D01*
X155670000Y-77597000D02*
X155670000Y-61971600D01*
X157106400Y-58923600D02*
X158210000Y-57820000D01*
%TO.N,/A17*%
X159480000Y-78105000D02*
X156940000Y-75565000D01*
X160750000Y-83185000D02*
X159480000Y-81915000D01*
X159400800Y-59169200D02*
X160750000Y-57820000D01*
X156940000Y-75565000D02*
X156940000Y-65405000D01*
X159400800Y-62944200D02*
X159400800Y-59169200D01*
X159480000Y-81915000D02*
X159480000Y-78105000D01*
X156940000Y-65405000D02*
X159400800Y-62944200D01*
%TO.N,/A18*%
X162020000Y-59090000D02*
X162020000Y-67917500D01*
X161469600Y-79160400D02*
X161469600Y-79110400D01*
X162869600Y-78410400D02*
X162869600Y-78360400D01*
X162869600Y-76910400D02*
X162869600Y-76860400D01*
X162169600Y-75410400D02*
X162169600Y-70307900D01*
X163290000Y-57820000D02*
X162020000Y-59090000D01*
X161819600Y-78010400D02*
X162519600Y-78010400D01*
X161819600Y-78760400D02*
X162519600Y-78760400D01*
X162020000Y-67917500D02*
X163290000Y-69187500D01*
X161469600Y-77660400D02*
X161469600Y-77610400D01*
X161469600Y-76160400D02*
X161469600Y-76110400D01*
X163290000Y-83185000D02*
X162169600Y-82064600D01*
X161819600Y-76510400D02*
X162519600Y-76510400D01*
X162169600Y-70307900D02*
X163290000Y-69187500D01*
X162169600Y-82064600D02*
X162169600Y-79860400D01*
X161819600Y-77260400D02*
X162519600Y-77260400D01*
X161469600Y-77610400D02*
G75*
G02*
X161819600Y-77260400I350000J0D01*
G01*
X162519600Y-78760400D02*
G75*
G03*
X162869600Y-78410400I0J350000D01*
G01*
X161469600Y-76110400D02*
G75*
G02*
X161819600Y-75760400I350000J0D01*
G01*
X161819600Y-78010400D02*
G75*
G02*
X161469600Y-77660400I0J350000D01*
G01*
X162869600Y-76860400D02*
G75*
G03*
X162519600Y-76510400I-350000J0D01*
G01*
X162169600Y-79860400D02*
G75*
G03*
X161819600Y-79510400I-350000J0D01*
G01*
X161469600Y-79110400D02*
G75*
G02*
X161819600Y-78760400I350000J0D01*
G01*
X161819600Y-76510400D02*
G75*
G02*
X161469600Y-76160400I0J350000D01*
G01*
X161819600Y-79510400D02*
G75*
G02*
X161469600Y-79160400I0J350000D01*
G01*
X161819600Y-75760400D02*
G75*
G03*
X162169600Y-75410400I0J350000D01*
G01*
X162869600Y-78360400D02*
G75*
G03*
X162519600Y-78010400I-350000J0D01*
G01*
X162519600Y-77260400D02*
G75*
G03*
X162869600Y-76910400I0J350000D01*
G01*
%TO.N,/A19*%
X171545000Y-84455000D02*
X172180000Y-83820000D01*
X172815000Y-59055000D02*
X176625000Y-59055000D01*
X171580000Y-56550000D02*
X172180000Y-57150000D01*
X178535000Y-73030000D02*
X178535000Y-74310000D01*
X172180000Y-82550000D02*
X172815000Y-81915000D01*
X176625000Y-81915000D02*
X177260000Y-81280000D01*
X177260000Y-81280000D02*
X177260000Y-77470000D01*
X165830000Y-57820000D02*
X167100000Y-56550000D01*
X178535000Y-76195000D02*
X178535000Y-74310000D01*
X176625000Y-59055000D02*
X177260000Y-59690000D01*
X177260000Y-59690000D02*
X177260000Y-71755000D01*
X165830000Y-83185000D02*
X167100000Y-84455000D01*
X172180000Y-58420000D02*
X172815000Y-59055000D01*
X172180000Y-57150000D02*
X172180000Y-58420000D01*
X172815000Y-81915000D02*
X176625000Y-81915000D01*
X177260000Y-71755000D02*
X178535000Y-73030000D01*
X167100000Y-84455000D02*
X171545000Y-84455000D01*
X177260000Y-77470000D02*
X178535000Y-76195000D01*
X172180000Y-83820000D02*
X172180000Y-82550000D01*
X167100000Y-56550000D02*
X171580000Y-56550000D01*
%TO.N,/SP3*%
X117220000Y-64715000D02*
X117920000Y-64715000D01*
X117220000Y-63965000D02*
X117920000Y-63965000D01*
X118270000Y-64315000D02*
X118270000Y-64365000D01*
X117220000Y-66965000D02*
X117920000Y-66965000D01*
X116870000Y-66565000D02*
X116870000Y-66615000D01*
X117220000Y-65465000D02*
X117920000Y-65465000D01*
X117570000Y-60360000D02*
X117570000Y-62865000D01*
X118270000Y-65815000D02*
X118270000Y-65865000D01*
X116870000Y-63565000D02*
X116870000Y-63615000D01*
X117570000Y-68065000D02*
X117570000Y-80645000D01*
X117220000Y-66215000D02*
X117920000Y-66215000D01*
X116870000Y-65065000D02*
X116870000Y-65115000D01*
X118270000Y-67315000D02*
X118270000Y-67365000D01*
X116870000Y-63615000D02*
G75*
G03*
X117220000Y-63965000I350000J0D01*
G01*
X116870000Y-65115000D02*
G75*
G03*
X117220000Y-65465000I350000J0D01*
G01*
X117570000Y-62865000D02*
G75*
G02*
X117220000Y-63215000I-350000J0D01*
G01*
X117920000Y-63965000D02*
G75*
G02*
X118270000Y-64315000I0J-350000D01*
G01*
X117220000Y-64715000D02*
G75*
G03*
X116870000Y-65065000I0J-350000D01*
G01*
X118270000Y-67365000D02*
G75*
G02*
X117920000Y-67715000I-350000J0D01*
G01*
X118270000Y-64365000D02*
G75*
G02*
X117920000Y-64715000I-350000J0D01*
G01*
X117920000Y-67715000D02*
G75*
G03*
X117570000Y-68065000I0J-350000D01*
G01*
X117220000Y-66215000D02*
G75*
G03*
X116870000Y-66565000I0J-350000D01*
G01*
X118270000Y-65865000D02*
G75*
G02*
X117920000Y-66215000I-350000J0D01*
G01*
X117920000Y-66965000D02*
G75*
G02*
X118270000Y-67315000I0J-350000D01*
G01*
X117920000Y-65465000D02*
G75*
G02*
X118270000Y-65815000I0J-350000D01*
G01*
X116870000Y-66615000D02*
G75*
G03*
X117220000Y-66965000I350000J0D01*
G01*
X117220000Y-63215000D02*
G75*
G03*
X116870000Y-63565000I0J-350000D01*
G01*
%TO.N,/VPA*%
X142620000Y-66215000D02*
X143320000Y-66215000D01*
X142270000Y-66565000D02*
X142270000Y-66615000D01*
X142970000Y-68065000D02*
X142970000Y-80645000D01*
X143670000Y-64315000D02*
X143670000Y-64365000D01*
X142620000Y-65465000D02*
X143320000Y-65465000D01*
X143670000Y-67315000D02*
X143670000Y-67365000D01*
X142620000Y-66965000D02*
X143320000Y-66965000D01*
X142620000Y-63965000D02*
X143320000Y-63965000D01*
X142270000Y-63565000D02*
X142270000Y-63615000D01*
X142270000Y-65065000D02*
X142270000Y-65115000D01*
X142970000Y-60360000D02*
X142970000Y-62865000D01*
X142620000Y-64715000D02*
X143320000Y-64715000D01*
X143670000Y-65815000D02*
X143670000Y-65865000D01*
X142620000Y-66215000D02*
G75*
G03*
X142270000Y-66565000I0J-350000D01*
G01*
X142270000Y-63615000D02*
G75*
G03*
X142620000Y-63965000I350000J0D01*
G01*
X142620000Y-64715000D02*
G75*
G03*
X142270000Y-65065000I0J-350000D01*
G01*
X142270000Y-66615000D02*
G75*
G03*
X142620000Y-66965000I350000J0D01*
G01*
X143670000Y-64365000D02*
G75*
G02*
X143320000Y-64715000I-350000J0D01*
G01*
X142620000Y-63215000D02*
G75*
G03*
X142270000Y-63565000I0J-350000D01*
G01*
X142270000Y-65115000D02*
G75*
G03*
X142620000Y-65465000I350000J0D01*
G01*
X143670000Y-67365000D02*
G75*
G02*
X143320000Y-67715000I-350000J0D01*
G01*
X143320000Y-67715000D02*
G75*
G03*
X142970000Y-68065000I0J-350000D01*
G01*
X143320000Y-66965000D02*
G75*
G02*
X143670000Y-67315000I0J-350000D01*
G01*
X143320000Y-63965000D02*
G75*
G02*
X143670000Y-64315000I0J-350000D01*
G01*
X143670000Y-65865000D02*
G75*
G02*
X143320000Y-66215000I-350000J0D01*
G01*
X142970000Y-62865000D02*
G75*
G02*
X142620000Y-63215000I-350000J0D01*
G01*
X143320000Y-65465000D02*
G75*
G02*
X143670000Y-65815000I0J-350000D01*
G01*
%TO.N,/E*%
X147700000Y-63965000D02*
X148400000Y-63965000D01*
X148750000Y-65815000D02*
X148750000Y-65865000D01*
X147350000Y-65065000D02*
X147350000Y-65115000D01*
X148050000Y-60360000D02*
X148050000Y-62865000D01*
X148050000Y-68065000D02*
X148050000Y-80645000D01*
X147700000Y-65465000D02*
X148400000Y-65465000D01*
X147700000Y-66215000D02*
X148400000Y-66215000D01*
X147700000Y-66965000D02*
X148400000Y-66965000D01*
X147700000Y-64715000D02*
X148400000Y-64715000D01*
X148750000Y-64315000D02*
X148750000Y-64365000D01*
X147350000Y-63565000D02*
X147350000Y-63615000D01*
X148750000Y-67315000D02*
X148750000Y-67365000D01*
X147350000Y-66565000D02*
X147350000Y-66615000D01*
X148400000Y-67715000D02*
G75*
G03*
X148050000Y-68065000I0J-350000D01*
G01*
X147350000Y-63615000D02*
G75*
G03*
X147700000Y-63965000I350000J0D01*
G01*
X147700000Y-66215000D02*
G75*
G03*
X147350000Y-66565000I0J-350000D01*
G01*
X148400000Y-66965000D02*
G75*
G02*
X148750000Y-67315000I0J-350000D01*
G01*
X147350000Y-65115000D02*
G75*
G03*
X147700000Y-65465000I350000J0D01*
G01*
X147700000Y-63215000D02*
G75*
G03*
X147350000Y-63565000I0J-350000D01*
G01*
X148400000Y-65465000D02*
G75*
G02*
X148750000Y-65815000I0J-350000D01*
G01*
X147350000Y-66615000D02*
G75*
G03*
X147700000Y-66965000I350000J0D01*
G01*
X148750000Y-64365000D02*
G75*
G02*
X148400000Y-64715000I-350000J0D01*
G01*
X148750000Y-65865000D02*
G75*
G02*
X148400000Y-66215000I-350000J0D01*
G01*
X148750000Y-67365000D02*
G75*
G02*
X148400000Y-67715000I-350000J0D01*
G01*
X148400000Y-63965000D02*
G75*
G02*
X148750000Y-64315000I0J-350000D01*
G01*
X148050000Y-62865000D02*
G75*
G02*
X147700000Y-63215000I-350000J0D01*
G01*
X147700000Y-64715000D02*
G75*
G03*
X147350000Y-65065000I0J-350000D01*
G01*
%TO.N,/RESET*%
X152780000Y-64195000D02*
X153480000Y-64195000D01*
X153830000Y-63045000D02*
X153830000Y-63095000D01*
X152780000Y-65695000D02*
X153480000Y-65695000D01*
X152430000Y-62295000D02*
X152430000Y-62345000D01*
X152780000Y-63445000D02*
X153480000Y-63445000D01*
X152780000Y-64945000D02*
X153480000Y-64945000D01*
X152780000Y-62695000D02*
X153480000Y-62695000D01*
X153130000Y-66795000D02*
X153130000Y-80645000D01*
X153830000Y-64545000D02*
X153830000Y-64595000D01*
X152430000Y-65295000D02*
X152430000Y-65345000D01*
X152430000Y-63795000D02*
X152430000Y-63845000D01*
X153130000Y-60360000D02*
X153130000Y-61595000D01*
X153830000Y-66045000D02*
X153830000Y-66095000D01*
X152430000Y-63845000D02*
G75*
G03*
X152780000Y-64195000I350000J0D01*
G01*
X153480000Y-66445000D02*
G75*
G03*
X153130000Y-66795000I0J-350000D01*
G01*
X152430000Y-62345000D02*
G75*
G03*
X152780000Y-62695000I350000J0D01*
G01*
X153480000Y-62695000D02*
G75*
G02*
X153830000Y-63045000I0J-350000D01*
G01*
X152780000Y-64945000D02*
G75*
G03*
X152430000Y-65295000I0J-350000D01*
G01*
X153130000Y-61595000D02*
G75*
G02*
X152780000Y-61945000I-350000J0D01*
G01*
X153830000Y-64595000D02*
G75*
G02*
X153480000Y-64945000I-350000J0D01*
G01*
X153480000Y-65695000D02*
G75*
G02*
X153830000Y-66045000I0J-350000D01*
G01*
X153830000Y-66095000D02*
G75*
G02*
X153480000Y-66445000I-350000J0D01*
G01*
X152430000Y-65345000D02*
G75*
G03*
X152780000Y-65695000I350000J0D01*
G01*
X152780000Y-63445000D02*
G75*
G03*
X152430000Y-63795000I0J-350000D01*
G01*
X153830000Y-63095000D02*
G75*
G02*
X153480000Y-63445000I-350000J0D01*
G01*
X153480000Y-64195000D02*
G75*
G02*
X153830000Y-64545000I0J-350000D01*
G01*
X152780000Y-61945000D02*
G75*
G03*
X152430000Y-62295000I0J-350000D01*
G01*
%TO.N,/A15*%
X155035000Y-60960000D02*
X155035000Y-67564000D01*
X155660000Y-79080000D02*
X154685000Y-78105000D01*
X155660000Y-80645000D02*
X155660000Y-79080000D01*
X154685000Y-76200000D02*
X154685000Y-78105000D01*
X155660000Y-80645000D02*
X155660000Y-79746000D01*
X154685000Y-76200000D02*
X154685000Y-67914000D01*
X154685000Y-67914000D02*
X155035000Y-67564000D01*
X155635000Y-60360000D02*
X155035000Y-60960000D01*
%TO.N,/DS*%
X167455000Y-77386000D02*
X166755000Y-77386000D01*
X167105000Y-65024000D02*
X167105000Y-67950000D01*
X167105000Y-71750000D02*
X166465000Y-72390000D01*
X167105000Y-70984603D02*
X167105000Y-71750000D01*
X167100000Y-62738000D02*
X167100000Y-65019000D01*
X166405000Y-70150000D02*
X166405000Y-70200000D01*
X167105000Y-76286000D02*
X167105000Y-73030000D01*
X167105000Y-73030000D02*
X166465000Y-72390000D01*
X167455000Y-69800000D02*
X166755000Y-69800000D01*
X166755000Y-69050000D02*
X167455000Y-69050000D01*
X167100000Y-78491000D02*
X167105000Y-78486000D01*
X168370000Y-61468000D02*
X167100000Y-62738000D01*
X167805000Y-69400000D02*
X167805000Y-69450000D01*
X168370000Y-80645000D02*
X167100000Y-79375000D01*
X167805000Y-77786000D02*
X167805000Y-77736000D01*
X166405000Y-77036000D02*
X166405000Y-76986000D01*
X167100000Y-79375000D02*
X167100000Y-78491000D01*
X166405000Y-68650000D02*
X166405000Y-68700000D01*
X168370000Y-60325000D02*
X168370000Y-61468000D01*
X167105000Y-70900000D02*
X167105000Y-70984603D01*
X166755000Y-70550000D02*
G75*
G02*
X167105000Y-70900000I0J-350000D01*
G01*
X167105000Y-78486000D02*
G75*
G02*
X167455000Y-78136000I350000J0D01*
G01*
X167805000Y-69450000D02*
G75*
G02*
X167455000Y-69800000I-350000J0D01*
G01*
X166755000Y-69800000D02*
G75*
G03*
X166405000Y-70150000I0J-350000D01*
G01*
X167105000Y-67950000D02*
G75*
G02*
X166755000Y-68300000I-350000J0D01*
G01*
X166405000Y-70200000D02*
G75*
G03*
X166755000Y-70550000I350000J0D01*
G01*
X166755000Y-77386000D02*
G75*
G02*
X166405000Y-77036000I0J350000D01*
G01*
X166405000Y-68700000D02*
G75*
G03*
X166755000Y-69050000I350000J0D01*
G01*
X167455000Y-69050000D02*
G75*
G02*
X167805000Y-69400000I0J-350000D01*
G01*
X166755000Y-68300000D02*
G75*
G03*
X166405000Y-68650000I0J-350000D01*
G01*
X167805000Y-77736000D02*
G75*
G03*
X167455000Y-77386000I-350000J0D01*
G01*
X167455000Y-78136000D02*
G75*
G03*
X167805000Y-77786000I0J350000D01*
G01*
X166755000Y-76636000D02*
G75*
G03*
X167105000Y-76286000I0J350000D01*
G01*
X166405000Y-76986000D02*
G75*
G02*
X166755000Y-76636000I350000J0D01*
G01*
%TO.N,/AS*%
X170910000Y-64262000D02*
X170910000Y-60360000D01*
X170915000Y-74310000D02*
X170915000Y-80640000D01*
%TO.N,/DTACK*%
X163290000Y-64516000D02*
X163290000Y-60360000D01*
%TO.N,/BG*%
X158780000Y-68640000D02*
X158780000Y-68690000D01*
X160180000Y-70890000D02*
X160180000Y-70940000D01*
X159830000Y-71290000D02*
X159130000Y-71290000D01*
X159130000Y-69040000D02*
X159830000Y-69040000D01*
X158780000Y-71640000D02*
X158780000Y-71690000D01*
X160750000Y-76835000D02*
X160750000Y-80645000D01*
X159480000Y-64135000D02*
X159480000Y-67940000D01*
X159130000Y-70540000D02*
X159830000Y-70540000D01*
X160180000Y-69390000D02*
X160180000Y-69440000D01*
X159480000Y-75565000D02*
X160750000Y-76835000D01*
X158780000Y-70140000D02*
X158780000Y-70190000D01*
X159480000Y-72390000D02*
X159480000Y-75565000D01*
X160750000Y-62865000D02*
X159480000Y-64135000D01*
X160750000Y-60360000D02*
X160750000Y-62865000D01*
X159830000Y-69790000D02*
X159130000Y-69790000D01*
X160180000Y-69440000D02*
G75*
G02*
X159830000Y-69790000I-350000J0D01*
G01*
X159480000Y-67940000D02*
G75*
G02*
X159130000Y-68290000I-350000J0D01*
G01*
X159130000Y-71290000D02*
G75*
G03*
X158780000Y-71640000I0J-350000D01*
G01*
X158780000Y-68690000D02*
G75*
G03*
X159130000Y-69040000I350000J0D01*
G01*
X159830000Y-69040000D02*
G75*
G02*
X160180000Y-69390000I0J-350000D01*
G01*
X160180000Y-70940000D02*
G75*
G02*
X159830000Y-71290000I-350000J0D01*
G01*
X158780000Y-71690000D02*
G75*
G03*
X159130000Y-72040000I350000J0D01*
G01*
X159130000Y-68290000D02*
G75*
G03*
X158780000Y-68640000I0J-350000D01*
G01*
X159130000Y-72040000D02*
G75*
G02*
X159480000Y-72390000I0J-350000D01*
G01*
X158780000Y-70190000D02*
G75*
G03*
X159130000Y-70540000I350000J0D01*
G01*
X159830000Y-70540000D02*
G75*
G02*
X160180000Y-70890000I0J-350000D01*
G01*
X159130000Y-69790000D02*
G75*
G03*
X158780000Y-70140000I0J-350000D01*
G01*
%TO.N,/BR*%
X158210000Y-61595000D02*
X156305000Y-63500000D01*
X156305000Y-63500000D02*
X156305000Y-76835000D01*
X158210000Y-78740000D02*
X158210000Y-80645000D01*
X156305000Y-76835000D02*
X158210000Y-78740000D01*
X158210000Y-60360000D02*
X158210000Y-61595000D01*
%TO.N,/CSYNC*%
X150590000Y-60360000D02*
X150590000Y-62865000D01*
X151290000Y-67315000D02*
X151290000Y-67365000D01*
X150240000Y-66965000D02*
X150940000Y-66965000D01*
X150240000Y-64715000D02*
X150940000Y-64715000D01*
X151290000Y-65815000D02*
X151290000Y-65865000D01*
X150590000Y-68065000D02*
X150590000Y-80645000D01*
X149890000Y-66565000D02*
X149890000Y-66615000D01*
X150240000Y-65465000D02*
X150940000Y-65465000D01*
X151290000Y-64315000D02*
X151290000Y-64365000D01*
X150240000Y-63965000D02*
X150940000Y-63965000D01*
X149890000Y-65065000D02*
X149890000Y-65115000D01*
X149890000Y-63565000D02*
X149890000Y-63615000D01*
X150240000Y-66215000D02*
X150940000Y-66215000D01*
X150240000Y-64715000D02*
G75*
G03*
X149890000Y-65065000I0J-350000D01*
G01*
X150240000Y-63215000D02*
G75*
G03*
X149890000Y-63565000I0J-350000D01*
G01*
X150590000Y-62865000D02*
G75*
G02*
X150240000Y-63215000I-350000J0D01*
G01*
X150240000Y-66215000D02*
G75*
G03*
X149890000Y-66565000I0J-350000D01*
G01*
X150940000Y-63965000D02*
G75*
G02*
X151290000Y-64315000I0J-350000D01*
G01*
X150940000Y-65465000D02*
G75*
G02*
X151290000Y-65815000I0J-350000D01*
G01*
X151290000Y-64365000D02*
G75*
G02*
X150940000Y-64715000I-350000J0D01*
G01*
X149890000Y-66615000D02*
G75*
G03*
X150240000Y-66965000I350000J0D01*
G01*
X149890000Y-63615000D02*
G75*
G03*
X150240000Y-63965000I350000J0D01*
G01*
X150940000Y-66965000D02*
G75*
G02*
X151290000Y-67315000I0J-350000D01*
G01*
X151290000Y-65865000D02*
G75*
G02*
X150940000Y-66215000I-350000J0D01*
G01*
X149890000Y-65115000D02*
G75*
G03*
X150240000Y-65465000I350000J0D01*
G01*
X151290000Y-67365000D02*
G75*
G02*
X150940000Y-67715000I-350000J0D01*
G01*
X150940000Y-67715000D02*
G75*
G03*
X150590000Y-68065000I0J-350000D01*
G01*
%TO.N,/VSYNC*%
X145510000Y-68065000D02*
X145510000Y-80645000D01*
X145160000Y-66215000D02*
X145860000Y-66215000D01*
X144810000Y-66565000D02*
X144810000Y-66615000D01*
X144810000Y-65065000D02*
X144810000Y-65115000D01*
X145160000Y-63965000D02*
X145860000Y-63965000D01*
X146210000Y-67315000D02*
X146210000Y-67365000D01*
X144810000Y-63565000D02*
X144810000Y-63615000D01*
X145160000Y-64715000D02*
X145860000Y-64715000D01*
X146210000Y-64315000D02*
X146210000Y-64365000D01*
X145160000Y-66965000D02*
X145860000Y-66965000D01*
X146210000Y-65815000D02*
X146210000Y-65865000D01*
X145160000Y-65465000D02*
X145860000Y-65465000D01*
X145510000Y-60360000D02*
X145510000Y-62865000D01*
X145160000Y-64715000D02*
G75*
G03*
X144810000Y-65065000I0J-350000D01*
G01*
X144810000Y-63615000D02*
G75*
G03*
X145160000Y-63965000I350000J0D01*
G01*
X145160000Y-63215000D02*
G75*
G03*
X144810000Y-63565000I0J-350000D01*
G01*
X145860000Y-65465000D02*
G75*
G02*
X146210000Y-65815000I0J-350000D01*
G01*
X144810000Y-65115000D02*
G75*
G03*
X145160000Y-65465000I350000J0D01*
G01*
X145860000Y-67715000D02*
G75*
G03*
X145510000Y-68065000I0J-350000D01*
G01*
X146210000Y-64365000D02*
G75*
G02*
X145860000Y-64715000I-350000J0D01*
G01*
X146210000Y-65865000D02*
G75*
G02*
X145860000Y-66215000I-350000J0D01*
G01*
X145510000Y-62865000D02*
G75*
G02*
X145160000Y-63215000I-350000J0D01*
G01*
X145160000Y-66215000D02*
G75*
G03*
X144810000Y-66565000I0J-350000D01*
G01*
X144810000Y-66615000D02*
G75*
G03*
X145160000Y-66965000I350000J0D01*
G01*
X145860000Y-66965000D02*
G75*
G02*
X146210000Y-67315000I0J-350000D01*
G01*
X145860000Y-63965000D02*
G75*
G02*
X146210000Y-64315000I0J-350000D01*
G01*
X146210000Y-67365000D02*
G75*
G02*
X145860000Y-67715000I-350000J0D01*
G01*
%TO.N,/GREEN*%
X140080000Y-71295000D02*
X140780000Y-71295000D01*
X140080000Y-72045000D02*
X140780000Y-72045000D01*
X139730000Y-70895000D02*
X139730000Y-70945000D01*
X141130000Y-70145000D02*
X141130000Y-70195000D01*
X140080000Y-69045000D02*
X140780000Y-69045000D01*
X140080000Y-69795000D02*
X140780000Y-69795000D01*
X140430000Y-60360000D02*
X140430000Y-67945000D01*
X141130000Y-71645000D02*
X141130000Y-71695000D01*
X140080000Y-70545000D02*
X140780000Y-70545000D01*
X140430000Y-73145000D02*
X140430000Y-80645000D01*
X141130000Y-68645000D02*
X141130000Y-68695000D01*
X139730000Y-72395000D02*
X139730000Y-72445000D01*
X139730000Y-69395000D02*
X139730000Y-69445000D01*
X140780000Y-68295000D02*
G75*
G02*
X141130000Y-68645000I0J-350000D01*
G01*
X140430000Y-67945000D02*
G75*
G03*
X140780000Y-68295000I350000J0D01*
G01*
X141130000Y-71695000D02*
G75*
G02*
X140780000Y-72045000I-350000J0D01*
G01*
X140780000Y-69795000D02*
G75*
G02*
X141130000Y-70145000I0J-350000D01*
G01*
X140080000Y-72045000D02*
G75*
G03*
X139730000Y-72395000I0J-350000D01*
G01*
X140080000Y-69045000D02*
G75*
G03*
X139730000Y-69395000I0J-350000D01*
G01*
X139730000Y-72445000D02*
G75*
G03*
X140080000Y-72795000I350000J0D01*
G01*
X139730000Y-70945000D02*
G75*
G03*
X140080000Y-71295000I350000J0D01*
G01*
X140080000Y-70545000D02*
G75*
G03*
X139730000Y-70895000I0J-350000D01*
G01*
X139730000Y-69445000D02*
G75*
G03*
X140080000Y-69795000I350000J0D01*
G01*
X141130000Y-68695000D02*
G75*
G02*
X140780000Y-69045000I-350000J0D01*
G01*
X141130000Y-70195000D02*
G75*
G02*
X140780000Y-70545000I-350000J0D01*
G01*
X140780000Y-71295000D02*
G75*
G02*
X141130000Y-71645000I0J-350000D01*
G01*
X140080000Y-72795000D02*
G75*
G02*
X140430000Y-73145000I0J-350000D01*
G01*
%TO.N,/BLUE*%
X137540000Y-66965000D02*
X138240000Y-66965000D01*
X137540000Y-66215000D02*
X138240000Y-66215000D01*
X137890000Y-68065000D02*
X137890000Y-80645000D01*
X137190000Y-66565000D02*
X137190000Y-66615000D01*
X137190000Y-63565000D02*
X137190000Y-63615000D01*
X137190000Y-65065000D02*
X137190000Y-65115000D01*
X137540000Y-64715000D02*
X138240000Y-64715000D01*
X138590000Y-67315000D02*
X138590000Y-67365000D01*
X137540000Y-63965000D02*
X138240000Y-63965000D01*
X138590000Y-65815000D02*
X138590000Y-65865000D01*
X137540000Y-65465000D02*
X138240000Y-65465000D01*
X138590000Y-64315000D02*
X138590000Y-64365000D01*
X137890000Y-60360000D02*
X137890000Y-62865000D01*
X137540000Y-66215000D02*
G75*
G03*
X137190000Y-66565000I0J-350000D01*
G01*
X138590000Y-65865000D02*
G75*
G02*
X138240000Y-66215000I-350000J0D01*
G01*
X137190000Y-66615000D02*
G75*
G03*
X137540000Y-66965000I350000J0D01*
G01*
X138240000Y-66965000D02*
G75*
G02*
X138590000Y-67315000I0J-350000D01*
G01*
X138590000Y-67365000D02*
G75*
G02*
X138240000Y-67715000I-350000J0D01*
G01*
X138590000Y-64365000D02*
G75*
G02*
X138240000Y-64715000I-350000J0D01*
G01*
X138240000Y-67715000D02*
G75*
G03*
X137890000Y-68065000I0J-350000D01*
G01*
X137190000Y-65115000D02*
G75*
G03*
X137540000Y-65465000I350000J0D01*
G01*
X138240000Y-63965000D02*
G75*
G02*
X138590000Y-64315000I0J-350000D01*
G01*
X137890000Y-62865000D02*
G75*
G02*
X137540000Y-63215000I-350000J0D01*
G01*
X137540000Y-64715000D02*
G75*
G03*
X137190000Y-65065000I0J-350000D01*
G01*
X137540000Y-63215000D02*
G75*
G03*
X137190000Y-63565000I0J-350000D01*
G01*
X138240000Y-65465000D02*
G75*
G02*
X138590000Y-65815000I0J-350000D01*
G01*
X137190000Y-63615000D02*
G75*
G03*
X137540000Y-63965000I350000J0D01*
G01*
%TO.N,/FC2*%
X134650000Y-72395000D02*
X134650000Y-72445000D01*
X134650000Y-70895000D02*
X134650000Y-70945000D01*
X135350000Y-60360000D02*
X135350000Y-67945000D01*
X135350000Y-73145000D02*
X135350000Y-80645000D01*
X136050000Y-68645000D02*
X136050000Y-68695000D01*
X135000000Y-69045000D02*
X135700000Y-69045000D01*
X135000000Y-71295000D02*
X135700000Y-71295000D01*
X134650000Y-69395000D02*
X134650000Y-69445000D01*
X135000000Y-72045000D02*
X135700000Y-72045000D01*
X136050000Y-70145000D02*
X136050000Y-70195000D01*
X135000000Y-70545000D02*
X135700000Y-70545000D01*
X135000000Y-69795000D02*
X135700000Y-69795000D01*
X136050000Y-71645000D02*
X136050000Y-71695000D01*
X134650000Y-72445000D02*
G75*
G03*
X135000000Y-72795000I350000J0D01*
G01*
X135000000Y-72795000D02*
G75*
G02*
X135350000Y-73145000I0J-350000D01*
G01*
X136050000Y-70195000D02*
G75*
G02*
X135700000Y-70545000I-350000J0D01*
G01*
X134650000Y-69445000D02*
G75*
G03*
X135000000Y-69795000I350000J0D01*
G01*
X135000000Y-69045000D02*
G75*
G03*
X134650000Y-69395000I0J-350000D01*
G01*
X135000000Y-72045000D02*
G75*
G03*
X134650000Y-72395000I0J-350000D01*
G01*
X135700000Y-69795000D02*
G75*
G02*
X136050000Y-70145000I0J-350000D01*
G01*
X136050000Y-68695000D02*
G75*
G02*
X135700000Y-69045000I-350000J0D01*
G01*
X135350000Y-67945000D02*
G75*
G03*
X135700000Y-68295000I350000J0D01*
G01*
X136050000Y-71695000D02*
G75*
G02*
X135700000Y-72045000I-350000J0D01*
G01*
X135700000Y-71295000D02*
G75*
G02*
X136050000Y-71645000I0J-350000D01*
G01*
X135700000Y-68295000D02*
G75*
G02*
X136050000Y-68645000I0J-350000D01*
G01*
X135000000Y-70545000D02*
G75*
G03*
X134650000Y-70895000I0J-350000D01*
G01*
X134650000Y-70945000D02*
G75*
G03*
X135000000Y-71295000I350000J0D01*
G01*
%TO.N,/FC1*%
X132460000Y-66215000D02*
X133160000Y-66215000D01*
X132110000Y-66565000D02*
X132110000Y-66615000D01*
X132460000Y-63965000D02*
X133160000Y-63965000D01*
X133510000Y-64315000D02*
X133510000Y-64365000D01*
X132460000Y-64715000D02*
X133160000Y-64715000D01*
X132460000Y-65465000D02*
X133160000Y-65465000D01*
X132810000Y-60360000D02*
X132810000Y-62865000D01*
X133510000Y-67315000D02*
X133510000Y-67365000D01*
X133510000Y-65815000D02*
X133510000Y-65865000D01*
X132110000Y-63565000D02*
X132110000Y-63615000D01*
X132810000Y-68065000D02*
X132810000Y-80645000D01*
X132460000Y-66965000D02*
X133160000Y-66965000D01*
X132110000Y-65065000D02*
X132110000Y-65115000D01*
X133160000Y-63965000D02*
G75*
G02*
X133510000Y-64315000I0J-350000D01*
G01*
X132460000Y-64715000D02*
G75*
G03*
X132110000Y-65065000I0J-350000D01*
G01*
X133510000Y-64365000D02*
G75*
G02*
X133160000Y-64715000I-350000J0D01*
G01*
X132110000Y-66615000D02*
G75*
G03*
X132460000Y-66965000I350000J0D01*
G01*
X132110000Y-65115000D02*
G75*
G03*
X132460000Y-65465000I350000J0D01*
G01*
X132460000Y-66215000D02*
G75*
G03*
X132110000Y-66565000I0J-350000D01*
G01*
X133160000Y-66965000D02*
G75*
G02*
X133510000Y-67315000I0J-350000D01*
G01*
X132110000Y-63615000D02*
G75*
G03*
X132460000Y-63965000I350000J0D01*
G01*
X132810000Y-62865000D02*
G75*
G02*
X132460000Y-63215000I-350000J0D01*
G01*
X132460000Y-63215000D02*
G75*
G03*
X132110000Y-63565000I0J-350000D01*
G01*
X133510000Y-65865000D02*
G75*
G02*
X133160000Y-66215000I-350000J0D01*
G01*
X133510000Y-67365000D02*
G75*
G02*
X133160000Y-67715000I-350000J0D01*
G01*
X133160000Y-67715000D02*
G75*
G03*
X132810000Y-68065000I0J-350000D01*
G01*
X133160000Y-65465000D02*
G75*
G02*
X133510000Y-65815000I0J-350000D01*
G01*
%TO.N,/FC0*%
X129920000Y-65465000D02*
X130620000Y-65465000D01*
X129570000Y-63565000D02*
X129570000Y-63615000D01*
X130970000Y-65815000D02*
X130970000Y-65865000D01*
X130970000Y-64315000D02*
X130970000Y-64365000D01*
X130270000Y-68065000D02*
X130270000Y-80645000D01*
X129920000Y-64715000D02*
X130620000Y-64715000D01*
X130270000Y-60360000D02*
X130270000Y-62865000D01*
X129920000Y-63965000D02*
X130620000Y-63965000D01*
X129570000Y-66565000D02*
X129570000Y-66615000D01*
X129920000Y-66215000D02*
X130620000Y-66215000D01*
X130970000Y-67315000D02*
X130970000Y-67365000D01*
X129920000Y-66965000D02*
X130620000Y-66965000D01*
X129570000Y-65065000D02*
X129570000Y-65115000D01*
X130970000Y-67365000D02*
G75*
G02*
X130620000Y-67715000I-350000J0D01*
G01*
X129570000Y-63615000D02*
G75*
G03*
X129920000Y-63965000I350000J0D01*
G01*
X130970000Y-64365000D02*
G75*
G02*
X130620000Y-64715000I-350000J0D01*
G01*
X130270000Y-62865000D02*
G75*
G02*
X129920000Y-63215000I-350000J0D01*
G01*
X129920000Y-63215000D02*
G75*
G03*
X129570000Y-63565000I0J-350000D01*
G01*
X130620000Y-66965000D02*
G75*
G02*
X130970000Y-67315000I0J-350000D01*
G01*
X130970000Y-65865000D02*
G75*
G02*
X130620000Y-66215000I-350000J0D01*
G01*
X130620000Y-67715000D02*
G75*
G03*
X130270000Y-68065000I0J-350000D01*
G01*
X129570000Y-66615000D02*
G75*
G03*
X129920000Y-66965000I350000J0D01*
G01*
X129920000Y-66215000D02*
G75*
G03*
X129570000Y-66565000I0J-350000D01*
G01*
X129570000Y-65115000D02*
G75*
G03*
X129920000Y-65465000I350000J0D01*
G01*
X130620000Y-63965000D02*
G75*
G02*
X130970000Y-64315000I0J-350000D01*
G01*
X129920000Y-64715000D02*
G75*
G03*
X129570000Y-65065000I0J-350000D01*
G01*
X130620000Y-65465000D02*
G75*
G02*
X130970000Y-65815000I0J-350000D01*
G01*
%TO.N,/ROMOE*%
X124490000Y-66565000D02*
X124490000Y-66615000D01*
X125190000Y-60360000D02*
X125190000Y-62865000D01*
X125890000Y-64315000D02*
X125890000Y-64365000D01*
X125890000Y-65815000D02*
X125890000Y-65865000D01*
X125190000Y-68065000D02*
X125190000Y-80645000D01*
X125890000Y-67315000D02*
X125890000Y-67365000D01*
X124840000Y-64715000D02*
X125540000Y-64715000D01*
X124490000Y-63565000D02*
X124490000Y-63615000D01*
X124840000Y-66965000D02*
X125540000Y-66965000D01*
X124490000Y-65065000D02*
X124490000Y-65115000D01*
X124840000Y-66215000D02*
X125540000Y-66215000D01*
X124840000Y-63965000D02*
X125540000Y-63965000D01*
X124840000Y-65465000D02*
X125540000Y-65465000D01*
X125540000Y-65465000D02*
G75*
G02*
X125890000Y-65815000I0J-350000D01*
G01*
X124490000Y-66615000D02*
G75*
G03*
X124840000Y-66965000I350000J0D01*
G01*
X124490000Y-65115000D02*
G75*
G03*
X124840000Y-65465000I350000J0D01*
G01*
X125540000Y-66965000D02*
G75*
G02*
X125890000Y-67315000I0J-350000D01*
G01*
X125890000Y-67365000D02*
G75*
G02*
X125540000Y-67715000I-350000J0D01*
G01*
X125190000Y-62865000D02*
G75*
G02*
X124840000Y-63215000I-350000J0D01*
G01*
X124840000Y-66215000D02*
G75*
G03*
X124490000Y-66565000I0J-350000D01*
G01*
X125890000Y-64365000D02*
G75*
G02*
X125540000Y-64715000I-350000J0D01*
G01*
X124840000Y-63215000D02*
G75*
G03*
X124490000Y-63565000I0J-350000D01*
G01*
X124840000Y-64715000D02*
G75*
G03*
X124490000Y-65065000I0J-350000D01*
G01*
X124490000Y-63615000D02*
G75*
G03*
X124840000Y-63965000I350000J0D01*
G01*
X125540000Y-63965000D02*
G75*
G02*
X125890000Y-64315000I0J-350000D01*
G01*
X125890000Y-65865000D02*
G75*
G02*
X125540000Y-66215000I-350000J0D01*
G01*
X125540000Y-67715000D02*
G75*
G03*
X125190000Y-68065000I0J-350000D01*
G01*
%TO.N,/IPL0*%
X115730000Y-72884600D02*
X115730000Y-72934600D01*
X115730000Y-71384600D02*
X115730000Y-71434600D01*
X114680000Y-71034600D02*
X115380000Y-71034600D01*
X114330000Y-72134600D02*
X114330000Y-72184600D01*
X114680000Y-72534600D02*
X115380000Y-72534600D01*
X115730000Y-69884600D02*
X115730000Y-69934600D01*
X114330000Y-69134600D02*
X114330000Y-69184600D01*
X115030000Y-60360000D02*
X115030000Y-68434600D01*
X114680000Y-69534600D02*
X115380000Y-69534600D01*
X114330000Y-70634600D02*
X114330000Y-70684600D01*
X115030000Y-73634600D02*
X115030000Y-80645000D01*
X114680000Y-71784600D02*
X115380000Y-71784600D01*
X114680000Y-70284600D02*
X115380000Y-70284600D01*
X114330000Y-69184600D02*
G75*
G03*
X114680000Y-69534600I350000J0D01*
G01*
X115380000Y-73284600D02*
G75*
G03*
X115030000Y-73634600I0J-350000D01*
G01*
X115380000Y-69534600D02*
G75*
G02*
X115730000Y-69884600I0J-350000D01*
G01*
X114330000Y-72184600D02*
G75*
G03*
X114680000Y-72534600I350000J0D01*
G01*
X114680000Y-71784600D02*
G75*
G03*
X114330000Y-72134600I0J-350000D01*
G01*
X114330000Y-70684600D02*
G75*
G03*
X114680000Y-71034600I350000J0D01*
G01*
X115380000Y-71034600D02*
G75*
G02*
X115730000Y-71384600I0J-350000D01*
G01*
X115730000Y-71434600D02*
G75*
G02*
X115380000Y-71784600I-350000J0D01*
G01*
X115380000Y-72534600D02*
G75*
G02*
X115730000Y-72884600I0J-350000D01*
G01*
X115730000Y-69934600D02*
G75*
G02*
X115380000Y-70284600I-350000J0D01*
G01*
X115730000Y-72934600D02*
G75*
G02*
X115380000Y-73284600I-350000J0D01*
G01*
X115030000Y-68434600D02*
G75*
G02*
X114680000Y-68784600I-350000J0D01*
G01*
X114680000Y-70284600D02*
G75*
G03*
X114330000Y-70634600I0J-350000D01*
G01*
X114680000Y-68784600D02*
G75*
G03*
X114330000Y-69134600I0J-350000D01*
G01*
%TO.N,/BERR*%
X111296200Y-62534800D02*
X111296200Y-65271900D01*
X111530900Y-65506600D02*
X112530900Y-65506600D01*
X112490000Y-60360000D02*
X112490000Y-61341000D01*
X112490000Y-61341000D02*
X111296200Y-62534800D01*
X111296200Y-65271900D02*
X111530900Y-65506600D01*
%TO.N,/IPL1*%
X109950000Y-80645000D02*
X109950000Y-73660000D01*
X109600000Y-71810000D02*
X110300000Y-71810000D01*
X110650000Y-72960000D02*
X110650000Y-72910000D01*
X110650000Y-71460000D02*
X110650000Y-71410000D01*
X110300000Y-72560000D02*
X109600000Y-72560000D01*
X109600000Y-70310000D02*
X110300000Y-70310000D01*
X109250000Y-72210000D02*
X109250000Y-72160000D01*
X109950000Y-68460000D02*
X109950000Y-60360000D01*
X109250000Y-69210000D02*
X109250000Y-69160000D01*
X109250000Y-70710000D02*
X109250000Y-70660000D01*
X110300000Y-69560000D02*
X109600000Y-69560000D01*
X110650000Y-69960000D02*
X110650000Y-69910000D01*
X110300000Y-71060000D02*
X109600000Y-71060000D01*
X109250000Y-70660000D02*
G75*
G02*
X109600000Y-70310000I350000J0D01*
G01*
X109250000Y-72160000D02*
G75*
G02*
X109600000Y-71810000I350000J0D01*
G01*
X109950000Y-73660000D02*
G75*
G02*
X110300000Y-73310000I350000J0D01*
G01*
X110650000Y-69910000D02*
G75*
G03*
X110300000Y-69560000I-350000J0D01*
G01*
X109600000Y-68810000D02*
G75*
G03*
X109950000Y-68460000I0J350000D01*
G01*
X110300000Y-71810000D02*
G75*
G03*
X110650000Y-71460000I0J350000D01*
G01*
X109600000Y-69560000D02*
G75*
G02*
X109250000Y-69210000I0J350000D01*
G01*
X109250000Y-69160000D02*
G75*
G02*
X109600000Y-68810000I350000J0D01*
G01*
X110650000Y-71410000D02*
G75*
G03*
X110300000Y-71060000I-350000J0D01*
G01*
X109600000Y-72560000D02*
G75*
G02*
X109250000Y-72210000I0J350000D01*
G01*
X109600000Y-71060000D02*
G75*
G02*
X109250000Y-70710000I0J350000D01*
G01*
X110650000Y-72910000D02*
G75*
G03*
X110300000Y-72560000I-350000J0D01*
G01*
X110300000Y-70310000D02*
G75*
G03*
X110650000Y-69960000I0J350000D01*
G01*
X110300000Y-73310000D02*
G75*
G03*
X110650000Y-72960000I0J350000D01*
G01*
%TO.N,/EXTINT*%
X106710000Y-66565000D02*
X106710000Y-66615000D01*
X107060000Y-65465000D02*
X107760000Y-65465000D01*
X107410000Y-68065000D02*
X107410000Y-80645000D01*
X108110000Y-67315000D02*
X108110000Y-67365000D01*
X107060000Y-64715000D02*
X107760000Y-64715000D01*
X107410000Y-60360000D02*
X107410000Y-62865000D01*
X108110000Y-65815000D02*
X108110000Y-65865000D01*
X106710000Y-65065000D02*
X106710000Y-65115000D01*
X107060000Y-66215000D02*
X107760000Y-66215000D01*
X107060000Y-63965000D02*
X107760000Y-63965000D01*
X106710000Y-63565000D02*
X106710000Y-63615000D01*
X108110000Y-64315000D02*
X108110000Y-64365000D01*
X107060000Y-66965000D02*
X107760000Y-66965000D01*
X107760000Y-63965000D02*
G75*
G02*
X108110000Y-64315000I0J-350000D01*
G01*
X108110000Y-64365000D02*
G75*
G02*
X107760000Y-64715000I-350000J0D01*
G01*
X108110000Y-67365000D02*
G75*
G02*
X107760000Y-67715000I-350000J0D01*
G01*
X107760000Y-65465000D02*
G75*
G02*
X108110000Y-65815000I0J-350000D01*
G01*
X107060000Y-63215000D02*
G75*
G03*
X106710000Y-63565000I0J-350000D01*
G01*
X107060000Y-66215000D02*
G75*
G03*
X106710000Y-66565000I0J-350000D01*
G01*
X107760000Y-66965000D02*
G75*
G02*
X108110000Y-67315000I0J-350000D01*
G01*
X106710000Y-65115000D02*
G75*
G03*
X107060000Y-65465000I350000J0D01*
G01*
X106710000Y-63615000D02*
G75*
G03*
X107060000Y-63965000I350000J0D01*
G01*
X106710000Y-66615000D02*
G75*
G03*
X107060000Y-66965000I350000J0D01*
G01*
X107410000Y-62865000D02*
G75*
G02*
X107060000Y-63215000I-350000J0D01*
G01*
X107060000Y-64715000D02*
G75*
G03*
X106710000Y-65065000I0J-350000D01*
G01*
X107760000Y-67715000D02*
G75*
G03*
X107410000Y-68065000I0J-350000D01*
G01*
X108110000Y-65865000D02*
G75*
G02*
X107760000Y-66215000I-350000J0D01*
G01*
%TO.N,/CLKCPU*%
X155670000Y-83185000D02*
X154400000Y-81915000D01*
X154400000Y-79375000D02*
X153765000Y-78740000D01*
X153765000Y-67310000D02*
X154400000Y-66675000D01*
X153765000Y-78740000D02*
X153765000Y-67310000D01*
X154400000Y-66675000D02*
X154400000Y-59090000D01*
X154400000Y-81915000D02*
X154400000Y-79375000D01*
X154400000Y-59090000D02*
X155670000Y-57820000D01*
%TO.N,/RED*%
X153130000Y-57820000D02*
X151860000Y-59090000D01*
X151860000Y-59090000D02*
X151860000Y-81915000D01*
X151860000Y-81915000D02*
X153130000Y-83185000D01*
%TO.N,/DBG*%
X120110000Y-83185000D02*
X118840000Y-81915000D01*
X118840000Y-81915000D02*
X118840000Y-59090000D01*
X118840000Y-59090000D02*
X120110000Y-57820000D01*
%TO.N,/ma12v*%
X106140000Y-81915000D02*
X107410000Y-83185000D01*
X106140000Y-59090000D02*
X106140000Y-81915000D01*
X107410000Y-57820000D02*
X106140000Y-59090000D01*
%TO.N,/me12v*%
X103600000Y-59090000D02*
X104870000Y-57820000D01*
X103600000Y-81915000D02*
X103600000Y-59090000D01*
X104870000Y-83185000D02*
X103600000Y-81915000D01*
%TO.N,Net-(J2-~{BERR})*%
X112490000Y-80645000D02*
X112490000Y-66847500D01*
%TO.N,Net-(JP3-B)*%
X167125400Y-60883800D02*
X165835000Y-62174200D01*
X164560000Y-56388000D02*
X164560000Y-58293000D01*
X164560000Y-58293000D02*
X165385500Y-59118500D01*
X163962000Y-55790000D02*
X164560000Y-56388000D01*
X112998000Y-61849000D02*
X113002653Y-61853653D01*
X112530900Y-62316100D02*
X112998000Y-61849000D01*
X165385500Y-59118500D02*
X166528500Y-59118500D01*
X113760000Y-55790000D02*
X163962000Y-55790000D01*
X167125400Y-59715400D02*
X167125400Y-60883800D01*
X165835000Y-62174200D02*
X165835000Y-66690000D01*
X112530900Y-64206600D02*
X112530900Y-62316100D01*
X166528500Y-59118500D02*
X167125400Y-59715400D01*
%TD*%
D19*
X123920000Y-72390000D03*
X126460000Y-73025000D03*
X129000000Y-74295000D03*
X131540000Y-75390400D03*
X134625500Y-65913000D03*
X139705500Y-65913000D03*
X170275000Y-86360000D03*
X170910000Y-55245000D03*
X157575000Y-76200000D03*
X163290000Y-69187500D03*
X154685000Y-76200000D03*
X166465000Y-72390000D03*
X170910000Y-64262000D03*
X163290000Y-64516000D03*
X113002653Y-61853653D03*
X113760000Y-55790000D03*
X97250000Y-55245000D03*
X186150000Y-55245000D03*
X181070000Y-57785000D03*
X178530000Y-57785000D03*
X175990000Y-57785000D03*
X173450000Y-57785000D03*
X170910000Y-57785000D03*
X168370000Y-57785000D03*
X165830000Y-57785000D03*
X163290000Y-57785000D03*
X160750000Y-57785000D03*
X158210000Y-57785000D03*
X155670000Y-57785000D03*
X153130000Y-57785000D03*
X150590000Y-57785000D03*
X148050000Y-57785000D03*
X145510000Y-57785000D03*
X142970000Y-57785000D03*
X140430000Y-57785000D03*
X137890000Y-57785000D03*
X135350000Y-57785000D03*
X132810000Y-57785000D03*
X130270000Y-57785000D03*
X127730000Y-57785000D03*
X125190000Y-57785000D03*
X122650000Y-57785000D03*
X120110000Y-57785000D03*
X117570000Y-57785000D03*
X115030000Y-57785000D03*
X112490000Y-57785000D03*
X109950000Y-57785000D03*
X107410000Y-57785000D03*
X104870000Y-57785000D03*
X102330000Y-57785000D03*
X181070000Y-60325000D03*
X178530000Y-60325000D03*
X175990000Y-60325000D03*
X173450000Y-60325000D03*
X170910000Y-60325000D03*
X168370000Y-60325000D03*
X165830000Y-60325000D03*
X163290000Y-60325000D03*
X160750000Y-60325000D03*
X158210000Y-60325000D03*
X155670000Y-60325000D03*
X153130000Y-60325000D03*
X150590000Y-60325000D03*
X148050000Y-60325000D03*
X145510000Y-60325000D03*
X142970000Y-60325000D03*
X140430000Y-60325000D03*
X137890000Y-60325000D03*
X135350000Y-60325000D03*
X132810000Y-60325000D03*
X130270000Y-60325000D03*
X127730000Y-60325000D03*
X125190000Y-60325000D03*
X122650000Y-60325000D03*
X120110000Y-60325000D03*
X117570000Y-60325000D03*
X115030000Y-60325000D03*
X112490000Y-60325000D03*
X109950000Y-60325000D03*
X107410000Y-60325000D03*
X104870000Y-60325000D03*
X102330000Y-60325000D03*
X186150000Y-85725000D03*
X97250000Y-85725000D03*
X181060000Y-83185000D03*
X178520000Y-83185000D03*
X175980000Y-83185000D03*
X173440000Y-83185000D03*
X170900000Y-83185000D03*
X168360000Y-83185000D03*
X165820000Y-83185000D03*
X163280000Y-83185000D03*
X160740000Y-83185000D03*
X158200000Y-83185000D03*
X155660000Y-83185000D03*
X153120000Y-83185000D03*
X150580000Y-83185000D03*
X148040000Y-83185000D03*
X145500000Y-83185000D03*
X142960000Y-83185000D03*
X140420000Y-83185000D03*
X137880000Y-83185000D03*
X135340000Y-83185000D03*
X132800000Y-83185000D03*
X130260000Y-83185000D03*
X127720000Y-83185000D03*
X125180000Y-83185000D03*
X122640000Y-83185000D03*
X120100000Y-83185000D03*
X117560000Y-83185000D03*
X115020000Y-83185000D03*
X112480000Y-83185000D03*
X109940000Y-83185000D03*
X107400000Y-83185000D03*
X104860000Y-83185000D03*
X102320000Y-83185000D03*
X181060000Y-80645000D03*
X178520000Y-80645000D03*
X175980000Y-80645000D03*
X173440000Y-80645000D03*
X170900000Y-80645000D03*
X168360000Y-80645000D03*
X165820000Y-80645000D03*
X163280000Y-80645000D03*
X160740000Y-80645000D03*
X158200000Y-80645000D03*
X155660000Y-80645000D03*
X153120000Y-80645000D03*
X150580000Y-80645000D03*
X148040000Y-80645000D03*
X145500000Y-80645000D03*
X142960000Y-80645000D03*
X140420000Y-80645000D03*
X137880000Y-80645000D03*
X135340000Y-80645000D03*
X132800000Y-80645000D03*
X130260000Y-80645000D03*
X127720000Y-80645000D03*
X125180000Y-80645000D03*
X122640000Y-80645000D03*
X120100000Y-80645000D03*
X117560000Y-80645000D03*
X115020000Y-80645000D03*
X112480000Y-80645000D03*
X109940000Y-80645000D03*
X107400000Y-80645000D03*
X104860000Y-80645000D03*
X102320000Y-80645000D03*
X158215000Y-74310000D03*
X160755000Y-74310000D03*
X163295000Y-74310000D03*
X165835000Y-74310000D03*
X168375000Y-74310000D03*
X170915000Y-74310000D03*
X173455000Y-74310000D03*
X175995000Y-74310000D03*
X178535000Y-74310000D03*
X181075000Y-74310000D03*
X181075000Y-66690000D03*
X178535000Y-66690000D03*
X175995000Y-66690000D03*
X173455000Y-66690000D03*
X170915000Y-66690000D03*
X168375000Y-66690000D03*
X165835000Y-66690000D03*
X163295000Y-66690000D03*
X160755000Y-66690000D03*
X158215000Y-66690000D03*
M02*
