M48
; DRILL file {KiCad 8.0.6+1} date 2024-11-08T18:46:58+0100
; FORMAT={-:-/ absolute / metric / decimal}
; #@! TF.CreationDate,2024-11-08T18:46:58+01:00
; #@! TF.GenerationSoftware,Kicad,Pcbnew,8.0.6+1
; #@! TF.FileFunction,MixedPlating,1,2
FMAT,2
METRIC
; #@! TA.AperFunction,Plated,PTH,ViaDrill
T1C0.400
; #@! TA.AperFunction,Plated,PTH,ComponentDrill
T2C0.800
; #@! TA.AperFunction,Plated,PTH,ComponentDrill
T3C1.000
; #@! TA.AperFunction,NonPlated,NPTH,ComponentDrill
T4C2.850
%
G90
G05
T1
X113.003Y-61.854
X113.76Y-55.79
X123.92Y-72.39
X126.46Y-73.025
X129.0Y-74.295
X131.54Y-75.39
X134.625Y-65.913
X139.706Y-65.913
X154.685Y-76.2
X157.575Y-76.2
X163.29Y-64.516
X163.29Y-69.188
X166.465Y-72.39
X170.275Y-86.36
X170.91Y-55.245
X170.91Y-64.262
T2
X158.215Y-66.69
X158.215Y-74.31
X160.755Y-66.69
X160.755Y-74.31
X163.295Y-66.69
X163.295Y-74.31
X165.835Y-66.69
X165.835Y-74.31
X168.375Y-66.69
X168.375Y-74.31
X170.915Y-66.69
X170.915Y-74.31
X173.455Y-66.69
X173.455Y-74.31
X175.995Y-66.69
X175.995Y-74.31
X178.535Y-66.69
X178.535Y-74.31
X181.075Y-66.69
X181.075Y-74.31
T3
X102.32Y-80.645
X102.32Y-83.185
X102.33Y-57.785
X102.33Y-60.325
X104.86Y-80.645
X104.86Y-83.185
X104.87Y-57.785
X104.87Y-60.325
X107.4Y-80.645
X107.4Y-83.185
X107.41Y-57.785
X107.41Y-60.325
X109.94Y-80.645
X109.94Y-83.185
X109.95Y-57.785
X109.95Y-60.325
X112.48Y-80.645
X112.48Y-83.185
X112.49Y-57.785
X112.49Y-60.325
X115.02Y-80.645
X115.02Y-83.185
X115.03Y-57.785
X115.03Y-60.325
X117.56Y-80.645
X117.56Y-83.185
X117.57Y-57.785
X117.57Y-60.325
X120.1Y-80.645
X120.1Y-83.185
X120.11Y-57.785
X120.11Y-60.325
X122.64Y-80.645
X122.64Y-83.185
X122.65Y-57.785
X122.65Y-60.325
X125.18Y-80.645
X125.18Y-83.185
X125.19Y-57.785
X125.19Y-60.325
X127.72Y-80.645
X127.72Y-83.185
X127.73Y-57.785
X127.73Y-60.325
X130.26Y-80.645
X130.26Y-83.185
X130.27Y-57.785
X130.27Y-60.325
X132.8Y-80.645
X132.8Y-83.185
X132.81Y-57.785
X132.81Y-60.325
X135.34Y-80.645
X135.34Y-83.185
X135.35Y-57.785
X135.35Y-60.325
X137.88Y-80.645
X137.88Y-83.185
X137.89Y-57.785
X137.89Y-60.325
X140.42Y-80.645
X140.42Y-83.185
X140.43Y-57.785
X140.43Y-60.325
X142.96Y-80.645
X142.96Y-83.185
X142.97Y-57.785
X142.97Y-60.325
X145.5Y-80.645
X145.5Y-83.185
X145.51Y-57.785
X145.51Y-60.325
X148.04Y-80.645
X148.04Y-83.185
X148.05Y-57.785
X148.05Y-60.325
X150.58Y-80.645
X150.58Y-83.185
X150.59Y-57.785
X150.59Y-60.325
X153.12Y-80.645
X153.12Y-83.185
X153.13Y-57.785
X153.13Y-60.325
X155.66Y-80.645
X155.66Y-83.185
X155.67Y-57.785
X155.67Y-60.325
X158.2Y-80.645
X158.2Y-83.185
X158.21Y-57.785
X158.21Y-60.325
X160.74Y-80.645
X160.74Y-83.185
X160.75Y-57.785
X160.75Y-60.325
X163.28Y-80.645
X163.28Y-83.185
X163.29Y-57.785
X163.29Y-60.325
X165.82Y-80.645
X165.82Y-83.185
X165.83Y-57.785
X165.83Y-60.325
X168.36Y-80.645
X168.36Y-83.185
X168.37Y-57.785
X168.37Y-60.325
X170.9Y-80.645
X170.9Y-83.185
X170.91Y-57.785
X170.91Y-60.325
X173.44Y-80.645
X173.44Y-83.185
X173.45Y-57.785
X173.45Y-60.325
X175.98Y-80.645
X175.98Y-83.185
X175.99Y-57.785
X175.99Y-60.325
X178.52Y-80.645
X178.52Y-83.185
X178.53Y-57.785
X178.53Y-60.325
X181.06Y-80.645
X181.06Y-83.185
X181.07Y-57.785
X181.07Y-60.325
T4
X97.25Y-55.245
X97.25Y-85.725
X186.15Y-55.245
X186.15Y-85.725
M30
