%TF.GenerationSoftware,KiCad,Pcbnew,8.0.6+1*%
%TF.CreationDate,2024-12-06T18:57:37+01:00*%
%TF.ProjectId,qlexternal512kram_MIX,716c6578-7465-4726-9e61-6c3531326b72,3*%
%TF.SameCoordinates,Original*%
%TF.FileFunction,Profile,NP*%
%FSLAX46Y46*%
G04 Gerber Fmt 4.6, Leading zero omitted, Abs format (unit mm)*
G04 Created by KiCad (PCBNEW 8.0.6+1) date 2024-12-06 18:57:37*
%MOMM*%
%LPD*%
G01*
G04 APERTURE LIST*
%TA.AperFunction,Profile*%
%ADD10C,0.100000*%
%TD*%
%ADD11C,0.350000*%
G04 APERTURE END LIST*
D10*
X92805000Y-52705000D02*
X190595000Y-52705000D01*
X190595000Y-88265000D01*
X92805000Y-88265000D01*
X92805000Y-52705000D01*
D11*
X97250000Y-55245000D03*
X186150000Y-55245000D03*
X181070000Y-57785000D03*
X178530000Y-57785000D03*
X175990000Y-57785000D03*
X173450000Y-57785000D03*
X170910000Y-57785000D03*
X168370000Y-57785000D03*
X165830000Y-57785000D03*
X163290000Y-57785000D03*
X160750000Y-57785000D03*
X158210000Y-57785000D03*
X155670000Y-57785000D03*
X153130000Y-57785000D03*
X150590000Y-57785000D03*
X148050000Y-57785000D03*
X145510000Y-57785000D03*
X142970000Y-57785000D03*
X140430000Y-57785000D03*
X137890000Y-57785000D03*
X135350000Y-57785000D03*
X132810000Y-57785000D03*
X130270000Y-57785000D03*
X127730000Y-57785000D03*
X125190000Y-57785000D03*
X122650000Y-57785000D03*
X120110000Y-57785000D03*
X117570000Y-57785000D03*
X115030000Y-57785000D03*
X112490000Y-57785000D03*
X109950000Y-57785000D03*
X107410000Y-57785000D03*
X104870000Y-57785000D03*
X102330000Y-57785000D03*
X181070000Y-60325000D03*
X178530000Y-60325000D03*
X175990000Y-60325000D03*
X173450000Y-60325000D03*
X170910000Y-60325000D03*
X168370000Y-60325000D03*
X165830000Y-60325000D03*
X163290000Y-60325000D03*
X160750000Y-60325000D03*
X158210000Y-60325000D03*
X155670000Y-60325000D03*
X153130000Y-60325000D03*
X150590000Y-60325000D03*
X148050000Y-60325000D03*
X145510000Y-60325000D03*
X142970000Y-60325000D03*
X140430000Y-60325000D03*
X137890000Y-60325000D03*
X135350000Y-60325000D03*
X132810000Y-60325000D03*
X130270000Y-60325000D03*
X127730000Y-60325000D03*
X125190000Y-60325000D03*
X122650000Y-60325000D03*
X120110000Y-60325000D03*
X117570000Y-60325000D03*
X115030000Y-60325000D03*
X112490000Y-60325000D03*
X109950000Y-60325000D03*
X107410000Y-60325000D03*
X104870000Y-60325000D03*
X102330000Y-60325000D03*
X186150000Y-85725000D03*
X97250000Y-85725000D03*
X181060000Y-83185000D03*
X178520000Y-83185000D03*
X175980000Y-83185000D03*
X173440000Y-83185000D03*
X170900000Y-83185000D03*
X168360000Y-83185000D03*
X165820000Y-83185000D03*
X163280000Y-83185000D03*
X160740000Y-83185000D03*
X158200000Y-83185000D03*
X155660000Y-83185000D03*
X153120000Y-83185000D03*
X150580000Y-83185000D03*
X148040000Y-83185000D03*
X145500000Y-83185000D03*
X142960000Y-83185000D03*
X140420000Y-83185000D03*
X137880000Y-83185000D03*
X135340000Y-83185000D03*
X132800000Y-83185000D03*
X130260000Y-83185000D03*
X127720000Y-83185000D03*
X125180000Y-83185000D03*
X122640000Y-83185000D03*
X120100000Y-83185000D03*
X117560000Y-83185000D03*
X115020000Y-83185000D03*
X112480000Y-83185000D03*
X109940000Y-83185000D03*
X107400000Y-83185000D03*
X104860000Y-83185000D03*
X102320000Y-83185000D03*
X181060000Y-80645000D03*
X178520000Y-80645000D03*
X175980000Y-80645000D03*
X173440000Y-80645000D03*
X170900000Y-80645000D03*
X168360000Y-80645000D03*
X165820000Y-80645000D03*
X163280000Y-80645000D03*
X160740000Y-80645000D03*
X158200000Y-80645000D03*
X155660000Y-80645000D03*
X153120000Y-80645000D03*
X150580000Y-80645000D03*
X148040000Y-80645000D03*
X145500000Y-80645000D03*
X142960000Y-80645000D03*
X140420000Y-80645000D03*
X137880000Y-80645000D03*
X135340000Y-80645000D03*
X132800000Y-80645000D03*
X130260000Y-80645000D03*
X127720000Y-80645000D03*
X125180000Y-80645000D03*
X122640000Y-80645000D03*
X120100000Y-80645000D03*
X117560000Y-80645000D03*
X115020000Y-80645000D03*
X112480000Y-80645000D03*
X109940000Y-80645000D03*
X107400000Y-80645000D03*
X104860000Y-80645000D03*
X102320000Y-80645000D03*
X158215000Y-74310000D03*
X160755000Y-74310000D03*
X163295000Y-74310000D03*
X165835000Y-74310000D03*
X168375000Y-74310000D03*
X170915000Y-74310000D03*
X173455000Y-74310000D03*
X175995000Y-74310000D03*
X178535000Y-74310000D03*
X181075000Y-74310000D03*
X181075000Y-66690000D03*
X178535000Y-66690000D03*
X175995000Y-66690000D03*
X173455000Y-66690000D03*
X170915000Y-66690000D03*
X168375000Y-66690000D03*
X165835000Y-66690000D03*
X163295000Y-66690000D03*
X160755000Y-66690000D03*
X158215000Y-66690000D03*
M02*
